<svg width="205" height="56" fill="none" xmlns="http://www.w3.org/2000/svg"><path d="M201.808 50.716h-4.229v1.563h3.869c.564 0 .95.096 1.156.293.207.197.309.574.309 1.13v.722c0 .557-.1.931-.301 1.128-.202.197-.591.297-1.164.297h-3.668c-.574 0-.964-.1-1.171-.297-.206-.197-.309-.571-.309-1.128v-.166l1.041-.216v.896h4.55v-1.695h-3.881c-.572 0-.958-.097-1.161-.293-.205-.197-.306-.575-.306-1.129v-.57c0-.551.101-.928.306-1.13.203-.201.589-.3 1.161-.3h3.355c.559 0 .946.096 1.159.29.214.195.32.539.32 1.03v.144l-1.036.223v-.792zm-15.177.313a7.115 7.115 0 01.082 1.076v3.744h-1.048V49.82h.868l4.424 3.938a3.84 3.84 0 01.723.827 6.314 6.314 0 01-.097-1.126V49.82h1.048v6.029h-.778l-4.513-3.995a4.732 4.732 0 01-.408-.42 3.476 3.476 0 01-.301-.405zm-11.991.223c0-.553.104-.93.313-1.13.209-.202.597-.302 1.166-.302h4.355c.569 0 .958.1 1.167.301.208.202.312.578.312 1.13v3.173c0 .553-.102.927-.308 1.126-.206.2-.597.299-1.171.299h-4.355c-.579 0-.97-.1-1.174-.297-.204-.197-.305-.571-.305-1.128v-3.172zm1.138 3.686h5.037v-4.222h-5.037v4.222zm-4.82.911h-1.133v-6.015h1.133v6.015zm-6.737-5.133v5.133h-1.133v-5.133h-2.848v-.896h6.842v.896h-2.861zm-12.311-.896v5.118h4.405V49.82h1.152v4.604c0 .557-.102.931-.308 1.128-.206.197-.598.297-1.171.297h-3.737c-.573 0-.964-.1-1.171-.299-.206-.2-.308-.573-.308-1.126V49.82h1.138zm-9.815 6.029V49.82h1.138v5.118h4.69v.911h-5.828zm-11.026-4.597c0-.553.105-.93.314-1.13.208-.202.596-.302 1.165-.302h4.356c.568 0 .958.1 1.166.301.209.202.313.578.313 1.13v3.173c0 .553-.102.927-.308 1.126-.207.2-.597.299-1.171.299h-4.356c-.578 0-.969-.1-1.173-.297-.204-.197-.306-.571-.306-1.128v-3.172zm1.138 3.686h5.038v-4.222h-5.038v4.222zm-6.388-5.43h-5.198v2.048h4.629c.652 0 1.097.12 1.339.36.239.242.36.697.36 1.37v.825c0 .678-.118 1.136-.353 1.378-.237.24-.685.36-1.346.36h-4.287c-.669 0-1.121-.12-1.363-.365-.24-.242-.361-.7-.361-1.373v-.201l1.138-.263v1.18h5.467v-2.21h-4.611c-.666 0-1.119-.12-1.356-.364-.234-.242-.353-.7-.353-1.37v-.641c0-.671.119-1.128.353-1.37.237-.244.69-.365 1.356-.365h3.912c.652 0 1.103.118 1.349.358.249.237.372.656.372 1.254v.152l-1.047.298v-1.062zm-21.741 1.431c0 .088.005.208.014.36.01.252.014.41.014.48v4.07h-.938V49.82h.938l3.002 3.912 2.757-3.912h1.055v6.029h-1.055v-4.07a4.977 4.977 0 01.069-.833c-.064.19-.13.358-.201.503a1.538 1.538 0 01-.195.33l-2.319 3.12h-.298l-2.404-3.093a2.47 2.47 0 01-.237-.374 3.588 3.588 0 01-.202-.493zm-10.239 4.91V49.82h6.072v.896h-4.933v1.548h2.972v.896h-2.972v1.807h4.988v.882h-6.127zm-5.632-5.133v5.133h-1.133v-5.133h-2.848v-.896h6.842v.896h-2.861zm-7.705 0h-4.23v1.563h3.87c.564 0 .95.096 1.157.293.206.197.308.574.308 1.13v.722c0 .557-.1.931-.301 1.128-.202.197-.59.297-1.164.297h-3.668c-.574 0-.965-.1-1.171-.297-.206-.197-.308-.571-.308-1.128v-.166l1.04-.216v.896h4.55v-1.695h-3.88c-.572 0-.959-.097-1.162-.293-.204-.197-.306-.575-.306-1.129v-.57c0-.551.102-.928.306-1.13.203-.201.59-.3 1.161-.3h3.355c.559 0 .946.096 1.159.29.214.195.32.539.32 1.03v.144l-1.036.223v-.792zM68.144 55.85v-2.632l-3.146-3.397h1.382l2.404 2.613 2.292-2.613h1.333l-3.132 3.397v2.632h-1.133zm-7.446-6.342H55.5v2.049h4.628c.652 0 1.097.12 1.34.36.239.242.36.697.36 1.37v.825c0 .678-.119 1.136-.354 1.378-.237.24-.685.36-1.346.36h-4.287c-.668 0-1.121-.12-1.363-.365-.239-.242-.36-.7-.36-1.373v-.201l1.138-.263v1.18h5.467v-2.21h-4.611c-.666 0-1.12-.12-1.357-.364-.234-.242-.353-.7-.353-1.37v-.641c0-.671.119-1.128.353-1.37.238-.244.69-.365 1.357-.365h3.912c.652 0 1.102.118 1.349.358.248.237.371.656.371 1.254v.152l-1.047.298v-1.062zm-18.525.313c.574 0 1.057.038 1.448.114.392.078.714.195.968.35.412.262.735.615.967 1.06.23.448.346.939.346 1.477 0 1.013-.309 1.772-.925 2.274-.614.502-1.55.754-2.804.754H38.7v-6.03h3.473zm-.126.896h-2.21v4.222h2.21c.982 0 1.68-.166 2.096-.495.415-.332.621-.877.621-1.636 0-.742-.209-1.275-.629-1.6-.419-.327-1.116-.49-2.088-.49zm-7.64 5.133h-1.134v-6.015h1.134v6.015zm-10.519-6.03v5.118h4.405V49.82h1.152v4.604c0 .557-.102.931-.308 1.128-.206.197-.597.297-1.172.297H24.23c-.573 0-.965-.1-1.17-.299-.207-.2-.31-.573-.31-1.126V49.82h1.14zm-9.815 6.029V49.82h1.138v5.118h4.69v.911h-5.828zm-9.62 0v-7.342h6.99v1h-5.76v2.404H8.97v.98H5.683v2.958h-1.23z" fill="#005E9E"/><path fill-rule="evenodd" clip-rule="evenodd" d="M171.303 37.903V4.407h8.402v33.496h-8.402zm19.845 0l-9.784-15.09v-8.29l6.522-10.116h10.005l-9.231 14.26 12.492 19.236h-10.004zm-25.216-1.16c-.774.773-1.751 1.16-2.93 1.16h-18.407c-1.105 0-2.081-.424-2.929-1.271-.847-.848-1.271-1.824-1.271-2.93V14.466h8.401v15.035h10.06V14.466h8.346v19.236c0 1.216-.423 2.23-1.27 3.04zm-25.537-23.99V8.608c0-1.18.414-2.175 1.243-2.985.829-.81 1.815-1.216 2.957-1.216h18.407c.994 0 1.944.414 2.846 1.243.903.83 1.354 1.815 1.354 2.958v4.145h-26.807zm-27.372 25.15V4.407h8.402v33.496h-8.402zm21.226 0h-11.166v-8.402h16.748l-5.582 8.402zM80.124 25.356v-8.402h28.466v8.402H80.124zM67.179 37.903l-6.522-10.06H56.4v10.06h-8.402V14.466H56.4v5.03h10.06v-6.743H47.999V4.407h22.607c.995 0 1.935.562 2.82 1.686.884 1.123 1.344 1.962 1.381 2.515v15.035c0 .81-.424 1.713-1.271 2.708-.848.995-1.824 1.492-2.93 1.492l6.578 10.06H67.18zm-31.903 0V4.407h8.401v33.496h-8.401zm-8.634 0H9.617c-.7 0-1.262-.073-1.686-.221-.424-.148-.857-.46-1.299-.94-.81-.81-1.216-1.824-1.216-3.04V14.466h8.402v15.035h18.406l-5.582 8.402zM5.416 12.753V8.608c0-1.106.415-2.082 1.244-2.93.829-.848 1.815-1.271 2.957-1.271h17.025l5.582 8.346H5.416zM4.898 0h195.204A4.913 4.913 0 01205 4.898v33.515a4.913 4.913 0 01-4.898 4.898H4.898A4.913 4.913 0 010 38.413V4.898A4.913 4.913 0 014.898 0z" fill="#005E9E"/></svg>