<svg width="444" height="655" viewBox="0 0 444 655" fill="none" xmlns="http://www.w3.org/2000/svg">
<mask id="mask0_2442_4109" style="mask-type:alpha" maskUnits="userSpaceOnUse" x="0" y="0" width="444" height="655">
<rect width="444" height="655" fill="url(#paint0_linear_2442_4109)"/>
</mask>
<g mask="url(#mask0_2442_4109)">
<g opacity="0.15">
<g opacity="0.5">
<mask id="mask1_2442_4109" style="mask-type:alpha" maskUnits="userSpaceOnUse" x="185" y="-126" width="389" height="186">
<path d="M203.207 58.7805C194.543 57.8715 189.05 55.2273 186.78 50.8497C183.868 45.2357 186.288 36.8463 193.972 25.9141C202.302 14.0623 217.075 -1.19353 237.881 -19.4296C265.427 -43.5734 292.094 -63.7946 317.142 -79.5318C338.9 -93.2025 360.126 -103.915 380.228 -111.371C415.425 -124.425 442.468 -126.018 466.448 -125.795C492.152 -125.556 513.888 -120.094 531.052 -109.56C545.977 -100.401 557.198 -87.6347 564.405 -71.6156C579.423 -38.2355 573.167 1.75622 558.444 21.135C551.537 30.2254 543.147 34.2123 534.826 32.3606C499.587 24.5213 468.06 20.0884 438.44 18.81C397.625 17.0475 360.917 21.4774 329.335 31.9762C306.758 39.4816 273.775 49.5961 244.854 55.1616C226.948 58.6069 213.037 59.8116 203.207 58.7805ZM466.434 -125.05L466.421 -124.305C442.572 -124.527 415.68 -122.943 380.692 -109.967C360.68 -102.544 339.542 -91.8753 317.866 -78.2563C292.883 -62.5595 266.277 -42.3842 238.788 -18.2912C218.071 -0.132508 203.377 15.0349 195.116 26.7894C187.789 37.213 185.407 45.0655 188.032 50.1289C192.491 58.7266 212.055 59.9599 244.61 53.6961C273.457 48.1449 306.379 38.0488 328.916 30.5565C360.657 20.0048 397.53 15.5517 438.512 17.3213C468.212 18.6036 499.817 23.0464 535.135 30.9029C542.903 32.6306 550.783 28.8343 557.333 20.2146C571.784 1.19436 577.898 -38.1136 563.116 -70.9702C556.032 -86.716 544.999 -99.2665 530.323 -108.273C513.375 -118.674 491.876 -124.069 466.421 -124.305L466.434 -125.05Z" fill="url(#paint1_linear_2442_4109)"/>
</mask>
<g mask="url(#mask1_2442_4109)">
<path d="M203.207 58.7805C194.543 57.8715 189.05 55.2273 186.78 50.8497C183.868 45.2357 186.288 36.8463 193.972 25.9141C202.302 14.0623 217.075 -1.19353 237.881 -19.4296C265.427 -43.5734 292.094 -63.7946 317.142 -79.5318C338.9 -93.2025 360.126 -103.915 380.228 -111.371C415.425 -124.425 442.468 -126.018 466.448 -125.795C492.152 -125.556 513.888 -120.094 531.052 -109.56C545.977 -100.401 557.198 -87.6347 564.405 -71.6156C579.423 -38.2355 573.167 1.75622 558.444 21.135C551.537 30.2254 543.147 34.2123 534.826 32.3606C499.587 24.5213 468.06 20.0884 438.44 18.81C397.625 17.0475 360.917 21.4774 329.335 31.9762C306.758 39.4816 273.775 49.5961 244.854 55.1616C226.948 58.6069 213.037 59.8116 203.207 58.7805ZM466.434 -125.05L466.421 -124.305C442.572 -124.527 415.68 -122.943 380.692 -109.967C360.68 -102.544 339.542 -91.8753 317.866 -78.2563C292.883 -62.5595 266.277 -42.3842 238.788 -18.2912C218.071 -0.132508 203.377 15.0349 195.116 26.7894C187.789 37.213 185.407 45.0655 188.032 50.1289C192.491 58.7266 212.055 59.9599 244.61 53.6961C273.457 48.1449 306.379 38.0488 328.916 30.5565C360.657 20.0048 397.53 15.5517 438.512 17.3213C468.212 18.6036 499.817 23.0464 535.135 30.9029C542.903 32.6306 550.783 28.8343 557.333 20.2146C571.784 1.19436 577.898 -38.1136 563.116 -70.9702C556.032 -86.716 544.999 -99.2665 530.323 -108.273C513.375 -118.674 491.876 -124.069 466.421 -124.305L466.434 -125.05Z" fill="#005E9E"/>
</g>
<mask id="mask2_2442_4109" style="mask-type:alpha" maskUnits="userSpaceOnUse" x="200" y="-119" width="361" height="168">
<path d="M216.797 48.5434C208.821 47.7067 203.775 45.2728 201.71 41.246C196.15 30.4033 211.631 9.25892 249.037 -23.396C297.995 -65.059 343.77 -93.3132 385.098 -107.38C418.639 -118.796 443.657 -119.416 465.695 -118.385C488.514 -117.959 507.801 -113.012 523.007 -103.681C536.296 -95.5288 546.259 -84.2224 552.622 -70.0765C557.008 -60.3263 561.792 -44.348 559.676 -23.5995C558.172 -8.85867 553.29 4.98271 546.28 14.3753C539.207 23.8529 530.576 28.1105 521.976 26.364C457.616 14.1974 389.734 5.63289 329.392 25.1898C308.892 31.8327 279.113 40.7492 253.657 45.5042C237.876 48.4518 225.566 49.4632 216.797 48.5434ZM478.902 -116.185C474.628 -116.634 470.207 -116.901 465.64 -116.986C443.71 -118.012 418.838 -117.396 385.5 -106.049C344.332 -92.0367 298.703 -63.8658 249.881 -22.319C230.745 -5.61378 217.16 8.33979 209.51 19.1483C202.735 28.7206 200.508 35.9294 202.89 40.5747C206.925 48.4426 223.931 49.6371 253.434 44.1264C278.822 39.3842 308.544 30.4841 329.008 23.8532C389.625 4.20675 457.699 12.7879 522.235 24.988C530.327 26.6318 538.485 22.5574 545.229 13.5202C552.088 4.33037 556.869 -9.24863 558.346 -23.7346C559.496 -35.0096 559.226 -52.0964 551.411 -69.4704C545.164 -83.3596 535.377 -94.4629 522.323 -102.472C510.347 -109.82 495.783 -114.414 478.902 -116.185Z" fill="url(#paint2_linear_2442_4109)"/>
</mask>
<g mask="url(#mask2_2442_4109)">
<path d="M216.797 48.5434C208.821 47.7067 203.775 45.2728 201.71 41.246C196.15 30.4033 211.631 9.25892 249.037 -23.396C297.995 -65.059 343.77 -93.3132 385.098 -107.38C418.639 -118.796 443.657 -119.416 465.695 -118.385C488.514 -117.959 507.801 -113.012 523.007 -103.681C536.296 -95.5288 546.259 -84.2224 552.622 -70.0765C557.008 -60.3263 561.792 -44.348 559.676 -23.5995C558.172 -8.85867 553.29 4.98271 546.28 14.3753C539.207 23.8529 530.576 28.1105 521.976 26.364C457.616 14.1974 389.734 5.63289 329.392 25.1898C308.892 31.8327 279.113 40.7492 253.657 45.5042C237.876 48.4518 225.566 49.4632 216.797 48.5434ZM478.902 -116.185C474.628 -116.634 470.207 -116.901 465.64 -116.986C443.71 -118.012 418.838 -117.396 385.5 -106.049C344.332 -92.0367 298.703 -63.8658 249.881 -22.319C230.745 -5.61378 217.16 8.33979 209.51 19.1483C202.735 28.7206 200.508 35.9294 202.89 40.5747C206.925 48.4426 223.931 49.6371 253.434 44.1264C278.822 39.3842 308.544 30.4841 329.008 23.8532C389.625 4.20675 457.699 12.7879 522.235 24.988C530.327 26.6318 538.485 22.5574 545.229 13.5202C552.088 4.33037 556.869 -9.24863 558.346 -23.7346C559.496 -35.0096 559.226 -52.0964 551.411 -69.4704C545.164 -83.3596 535.377 -94.4629 522.323 -102.472C510.347 -109.82 495.783 -114.414 478.902 -116.185Z" fill="#005E9E"/>
</g>
<mask id="mask3_2442_4109" style="mask-type:alpha" maskUnits="userSpaceOnUse" x="215" y="-112" width="333" height="151">
<path d="M230.381 38.3207C223.086 37.5554 218.487 35.3318 216.626 31.6527C211.623 21.7579 225.873 2.45387 260.193 -27.3627C306.76 -65.6878 350.418 -91.263 389.968 -103.389C422.145 -113.254 445.926 -112.759 464.945 -110.974C484.906 -110.37 501.779 -105.928 515.055 -97.7668C526.718 -90.5971 535.432 -80.7189 540.955 -68.4063C546.497 -56.056 548.55 -41.7989 546.893 -27.1764C545.382 -13.8332 540.915 -1.52337 534.315 7.48553C527.031 17.427 518.087 22.0001 509.125 20.3671L504.149 19.5865C477.406 15.3867 447.095 10.6266 417.2 9.21764C382.988 7.60506 354.284 10.6099 329.448 18.4036C302.649 26.8098 280.108 32.681 262.452 35.8543C248.797 38.3082 238.086 39.1289 230.381 38.3207ZM475.236 -108.977C471.879 -109.33 468.42 -109.56 464.86 -109.667C445.92 -111.444 422.285 -111.936 390.309 -102.132C350.915 -90.0542 307.4 -64.5565 260.973 -26.3474C227.667 2.58909 213.114 21.8977 217.733 31.0313C221.281 38.047 236.258 39.2354 262.251 34.564C279.858 31.3996 302.349 25.5405 329.1 17.1497C354.073 9.31261 382.913 6.29021 417.268 7.90934C447.229 9.3216 477.574 14.0866 504.346 18.2915L509.336 19.0746C517.832 20.618 526.341 16.2259 533.325 6.69491C539.695 -1.99975 544.188 -14.3972 545.651 -27.3181C547.28 -41.6979 545.265 -55.7103 539.822 -67.8405C534.406 -79.9127 525.857 -89.6008 514.413 -96.636C503.676 -103.237 490.532 -107.373 475.236 -108.977Z" fill="url(#paint3_linear_2442_4109)"/>
</mask>
<g mask="url(#mask3_2442_4109)">
<path d="M230.381 38.3207C223.086 37.5554 218.487 35.3318 216.626 31.6527C211.623 21.7579 225.873 2.45387 260.193 -27.3627C306.76 -65.6878 350.418 -91.263 389.968 -103.389C422.145 -113.254 445.926 -112.759 464.945 -110.974C484.906 -110.37 501.779 -105.928 515.055 -97.7668C526.718 -90.5971 535.432 -80.7189 540.955 -68.4063C546.497 -56.056 548.55 -41.7989 546.893 -27.1764C545.382 -13.8332 540.915 -1.52337 534.315 7.48553C527.031 17.427 518.087 22.0001 509.125 20.3671L504.149 19.5865C477.406 15.3867 447.095 10.6266 417.2 9.21764C382.988 7.60506 354.284 10.6099 329.448 18.4036C302.649 26.8098 280.108 32.681 262.452 35.8543C248.797 38.3082 238.086 39.1289 230.381 38.3207ZM475.236 -108.977C471.879 -109.33 468.42 -109.56 464.86 -109.667C445.92 -111.444 422.285 -111.936 390.309 -102.132C350.915 -90.0542 307.4 -64.5565 260.973 -26.3474C227.667 2.58909 213.114 21.8977 217.733 31.0313C221.281 38.047 236.258 39.2354 262.251 34.564C279.858 31.3996 302.349 25.5405 329.1 17.1497C354.073 9.31261 382.913 6.29021 417.268 7.90934C447.229 9.3216 477.574 14.0866 504.346 18.2915L509.336 19.0746C517.832 20.618 526.341 16.2259 533.325 6.69491C539.695 -1.99975 544.188 -14.3972 545.651 -27.3181C547.28 -41.6979 545.265 -55.7103 539.822 -67.8405C534.406 -79.9127 525.857 -89.6008 514.413 -96.636C503.676 -103.237 490.532 -107.373 475.236 -108.977Z" fill="#005E9E"/>
</g>
<mask id="mask4_2442_4109" style="mask-type:alpha" maskUnits="userSpaceOnUse" x="230" y="-106" width="305" height="135">
<path d="M243.912 28.1733C237.309 27.4806 233.197 25.4462 231.522 22.0748C227.076 13.1246 240.103 -4.34367 271.348 -31.3279C315.555 -66.3461 357.096 -89.2417 394.837 -99.3952C425.982 -107.774 448.248 -106.028 464.169 -103.564C505.307 -101.712 522.366 -82.4351 529.431 -66.5869C534.203 -55.883 535.872 -43.4736 534.259 -30.6994C532.784 -19.0171 528.645 -7.95756 522.605 0.442041C515.167 10.7848 505.557 15.864 496.273 14.3713C489.439 13.517 482.409 12.5853 475.61 11.6845C425.672 5.06827 374.033 -1.77443 329.504 11.6188L329.503 11.6187C287.412 24.2685 259.087 29.7652 243.912 28.1733ZM454.981 -103.539C440.066 -105.103 420.581 -105.065 395.117 -98.2146C357.528 -88.1021 316.127 -65.2774 272.065 -30.3744C241.76 -4.20114 228.46 13.2585 232.556 21.5042C235.618 27.6681 248.572 28.8488 271.06 25.0124C286.104 22.446 305.12 17.6819 329.192 10.4473L329.192 10.4473C373.953 -3.01561 425.714 3.84311 475.768 10.4752C482.564 11.3757 489.592 12.3069 496.441 13.1635C505.45 14.6034 514.403 9.83008 521.676 -0.284971C527.597 -8.51761 531.655 -19.3718 533.105 -30.8475C534.689 -43.3913 533.053 -55.5684 528.374 -66.0627C521.442 -81.6126 504.66 -100.528 464.077 -102.347L464.047 -102.349L464.017 -102.353C461.209 -102.788 458.201 -103.201 454.981 -103.539Z" fill="url(#paint4_linear_2442_4109)"/>
</mask>
<g mask="url(#mask4_2442_4109)">
<path d="M243.912 28.1733C237.309 27.4806 233.197 25.4462 231.522 22.0748C227.076 13.1246 240.103 -4.34367 271.348 -31.3279C315.555 -66.3461 357.096 -89.2417 394.837 -99.3952C425.982 -107.774 448.248 -106.028 464.169 -103.564C505.307 -101.712 522.366 -82.4351 529.431 -66.5869C534.203 -55.883 535.872 -43.4736 534.259 -30.6994C532.784 -19.0171 528.645 -7.95756 522.605 0.442041C515.167 10.7848 505.557 15.864 496.273 14.3713C489.439 13.517 482.409 12.5853 475.61 11.6845C425.672 5.06827 374.033 -1.77443 329.504 11.6188L329.503 11.6187C287.412 24.2685 259.087 29.7652 243.912 28.1733ZM454.981 -103.539C440.066 -105.103 420.581 -105.065 395.117 -98.2146C357.528 -88.1021 316.127 -65.2774 272.065 -30.3744C241.76 -4.20114 228.46 13.2585 232.556 21.5042C235.618 27.6681 248.572 28.8488 271.06 25.0124C286.104 22.446 305.12 17.6819 329.192 10.4473L329.192 10.4473C373.953 -3.01561 425.714 3.84311 475.768 10.4752C482.564 11.3757 489.592 12.3069 496.441 13.1635C505.45 14.6034 514.403 9.83008 521.676 -0.284971C527.597 -8.51761 531.655 -19.3718 533.105 -30.8475C534.689 -43.3913 533.053 -55.5684 528.374 -66.0627C521.442 -81.6126 504.66 -100.528 464.077 -102.347L464.047 -102.349L464.017 -102.353C461.209 -102.788 458.201 -103.201 454.981 -103.539Z" fill="#005E9E"/>
</g>
<mask id="mask5_2442_4109" style="mask-type:alpha" maskUnits="userSpaceOnUse" x="245" y="-100" width="278" height="119">
<path d="M257.522 18.0228C251.899 17.433 247.947 15.7276 246.389 12.517C242.503 4.50632 254.316 -11.1327 282.504 -35.2939C324.385 -67.0369 363.809 -87.2532 399.707 -95.4019C422.667 -100.614 443.507 -100.859 463.414 -96.1525C498.08 -93.9342 512.282 -77.7695 518.083 -64.5991C522.067 -55.5528 523.361 -45.0221 521.822 -34.1458C520.413 -24.1733 516.652 -14.4546 511.232 -6.77973C503.653 3.95375 493.8 9.47258 484.099 8.4557C483.873 8.43193 483.648 8.405 483.421 8.37382C471.668 7.2651 460.003 5.92411 448.723 4.62766C405.375 -0.355097 364.431 -5.06049 329.559 4.83316L329.558 4.83311C303.218 12.2961 273.571 19.7064 257.522 18.0228ZM447.663 -97.6854C432.593 -99.2662 416.843 -98.1392 399.925 -94.299C364.176 -86.1837 324.889 -66.0318 283.157 -34.4028C255.835 -10.9826 243.78 4.63583 247.352 11.9983C253.733 25.1485 308.622 9.59828 329.286 3.74379C364.356 -6.20579 405.397 -1.4884 448.851 3.50547C460.125 4.80124 471.784 6.1414 483.549 7.25223C493.088 8.55964 502.853 3.19602 510.367 -7.44497C515.682 -14.972 519.371 -24.5094 520.756 -34.3004C522.263 -44.9596 521 -55.2705 517.103 -64.1183C511.421 -77.0179 497.477 -92.856 463.295 -95.0285L463.251 -95.0313L463.209 -95.0413C458.097 -96.2522 452.921 -97.1338 447.663 -97.6854Z" fill="url(#paint5_linear_2442_4109)"/>
</mask>
<g mask="url(#mask5_2442_4109)">
<path d="M257.522 18.0228C251.899 17.433 247.947 15.7276 246.389 12.517C242.503 4.50632 254.316 -11.1327 282.504 -35.2939C324.385 -67.0369 363.809 -87.2532 399.707 -95.4019C422.667 -100.614 443.507 -100.859 463.414 -96.1525C498.08 -93.9342 512.282 -77.7695 518.083 -64.5991C522.067 -55.5528 523.361 -45.0221 521.822 -34.1458C520.413 -24.1733 516.652 -14.4546 511.232 -6.77973C503.653 3.95375 493.8 9.47258 484.099 8.4557C483.873 8.43193 483.648 8.405 483.421 8.37382C471.668 7.2651 460.003 5.92411 448.723 4.62766C405.375 -0.355097 364.431 -5.06049 329.559 4.83316L329.558 4.83311C303.218 12.2961 273.571 19.7064 257.522 18.0228ZM447.663 -97.6854C432.593 -99.2662 416.843 -98.1392 399.925 -94.299C364.176 -86.1837 324.889 -66.0318 283.157 -34.4028C255.835 -10.9826 243.78 4.63583 247.352 11.9983C253.733 25.1485 308.622 9.59828 329.286 3.74379C364.356 -6.20579 405.397 -1.4884 448.851 3.50547C460.125 4.80124 471.784 6.1414 483.549 7.25223C493.088 8.55964 502.853 3.19602 510.367 -7.44497C515.682 -14.972 519.371 -24.5094 520.756 -34.3004C522.263 -44.9596 521 -55.2705 517.103 -64.1183C511.421 -77.0179 497.477 -92.856 463.295 -95.0285L463.251 -95.0313L463.209 -95.0413C458.097 -96.2522 452.921 -97.1338 447.663 -97.6854Z" fill="#005E9E"/>
</g>
<mask id="mask6_2442_4109" style="mask-type:alpha" maskUnits="userSpaceOnUse" x="260" y="-94" width="251" height="103">
<path d="M270.976 7.88066C265.986 7.35721 262.548 5.83802 261.211 2.99136C257.888 -4.08689 268.502 -17.9074 293.659 -39.2604C333.254 -67.7597 370.56 -85.2962 404.575 -91.4074C432.21 -96.3723 451.408 -92.703 462.662 -88.7393C490.976 -86.1898 502.388 -73.0213 506.959 -62.4156C513.203 -47.9289 510.591 -28.9973 500.304 -14.1852C492.321 -2.68906 481.263 3.4983 470.701 2.39102C470.656 2.38629 470.612 2.38141 470.567 2.37637C453.763 1.29114 438.181 -0.319688 423.113 -1.87727C387.087 -5.60128 355.975 -8.81741 329.611 -1.95182C306.147 4.14511 283.601 9.20511 270.976 7.88066ZM442.192 -92.1151C413.758 -95.0978 364.192 -88.7722 294.248 -38.4314C269.883 -17.7491 259.057 -3.9606 262.103 2.52618C267.124 13.2187 309.173 2.29152 329.38 -2.95966L329.38 -2.95944C355.911 -9.86849 387.102 -6.64427 423.22 -2.91072C438.279 -1.35411 453.852 0.255838 470.659 1.34169C470.702 1.3464 470.745 1.35126 470.788 1.35575C481.015 2.42855 491.732 -3.59908 499.504 -14.7902C509.583 -29.304 512.154 -47.8277 506.054 -61.9812C501.587 -72.3439 490.403 -85.2286 462.509 -87.7097L462.45 -87.715L462.394 -87.7351C457.671 -89.4027 450.926 -91.1989 442.192 -92.1151Z" fill="url(#paint6_linear_2442_4109)"/>
</mask>
<g mask="url(#mask6_2442_4109)">
<path d="M270.976 7.88066C265.986 7.35721 262.548 5.83802 261.211 2.99136C257.888 -4.08689 268.502 -17.9074 293.659 -39.2604C333.254 -67.7597 370.56 -85.2962 404.575 -91.4074C432.21 -96.3723 451.408 -92.703 462.662 -88.7393C490.976 -86.1898 502.388 -73.0213 506.959 -62.4156C513.203 -47.9289 510.591 -28.9973 500.304 -14.1852C492.321 -2.68906 481.263 3.4983 470.701 2.39102C470.656 2.38629 470.612 2.38141 470.567 2.37637C453.763 1.29114 438.181 -0.319688 423.113 -1.87727C387.087 -5.60128 355.975 -8.81741 329.611 -1.95182C306.147 4.14511 283.601 9.20511 270.976 7.88066ZM442.192 -92.1151C413.758 -95.0978 364.192 -88.7722 294.248 -38.4314C269.883 -17.7491 259.057 -3.9606 262.103 2.52618C267.124 13.2187 309.173 2.29152 329.38 -2.95966L329.38 -2.95944C355.911 -9.86849 387.102 -6.64427 423.22 -2.91072C438.279 -1.35411 453.852 0.255838 470.659 1.34169C470.702 1.3464 470.745 1.35126 470.788 1.35575C481.015 2.42855 491.732 -3.59908 499.504 -14.7902C509.583 -29.304 512.154 -47.8277 506.054 -61.9812C501.587 -72.3439 490.403 -85.2286 462.509 -87.7097L462.45 -87.715L462.394 -87.7351C457.671 -89.4027 450.926 -91.1989 442.192 -92.1151Z" fill="#005E9E"/>
</g>
<mask id="mask7_2442_4109" style="mask-type:alpha" maskUnits="userSpaceOnUse" x="275" y="-89" width="224" height="87">
<path d="M284.559 -2.20467C280.218 -2.66004 277.093 -3.95196 275.962 -6.47947C273.207 -12.6376 282.645 -24.6575 304.817 -43.2256C342.169 -68.513 377.358 -83.3695 409.444 -87.4105C421.314 -88.9057 432.441 -88.8506 442.519 -87.2508C452.655 -85.6406 459.001 -82.8615 461.919 -81.3222C475.324 -79.6223 485.287 -74.9966 491.531 -67.573C496.923 -61.1619 499.262 -52.8788 498.295 -43.619C497.231 -33.4302 492.278 -23.0953 484.708 -15.2639C476.694 -6.97506 467.108 -2.84008 457.713 -3.62038C435.356 -4.41682 415.85 -6.34354 398.639 -8.04378C370.609 -10.8126 348.469 -12.9996 329.662 -8.73565L328.502 -8.47356C314.62 -5.33492 295.636 -1.04263 284.559 -2.20467ZM437.334 -86.9753C429.793 -87.7664 420.544 -87.8547 409.543 -86.4691C377.596 -82.4458 342.538 -67.6385 305.341 -42.4593C283.888 -24.4894 274.267 -12.5122 276.783 -6.88857C280.497 1.41166 310.433 -5.35664 328.319 -9.40026L329.479 -9.66241C348.423 -13.9576 370.625 -11.7642 398.733 -8.98751C415.931 -7.28883 435.423 -5.3634 457.773 -4.56672C466.92 -3.80752 476.253 -7.84523 484.074 -15.9351C491.497 -23.6142 496.353 -33.739 497.394 -43.7133C498.333 -52.7022 496.069 -60.7347 490.848 -66.9425C484.741 -74.2029 474.942 -78.7275 461.723 -80.3908L461.644 -80.4006L461.574 -80.4382C458.7 -81.9634 450.699 -85.5733 437.334 -86.9753Z" fill="url(#paint7_linear_2442_4109)"/>
</mask>
<g mask="url(#mask7_2442_4109)">
</g>
<mask id="mask8_2442_4109" style="mask-type:alpha" maskUnits="userSpaceOnUse" x="290" y="-84" width="198" height="75">
<path d="M298.064 -12.0529C294.266 -12.4513 291.52 -13.5793 290.579 -15.8485C288.397 -21.11 296.704 -31.3624 315.973 -47.1915L316.016 -47.2221C340.16 -62.3978 376.811 -80.9955 414.311 -83.4121C425.341 -84.1231 435.858 -83.3397 444.722 -81.1483C451.696 -79.4235 457.686 -76.7847 461.182 -73.9C486.892 -69.169 487.826 -52.7502 487.031 -45.9037C486.014 -37.1381 480.735 -27.682 472.91 -20.6087C464.502 -13.0084 454.54 -9.1053 444.857 -9.61774C415.931 -9.83248 393.461 -12.195 375.409 -14.095C355.909 -16.1479 341.839 -17.6266 329.708 -15.5193L329.707 -15.5191C328.74 -15.3525 327.737 -15.1767 326.706 -14.9962C316.884 -13.275 305.472 -11.2757 298.064 -12.0529ZM316.455 -46.5018C297.801 -31.1758 289.348 -20.9795 291.331 -16.1965C293.857 -10.1085 313.549 -13.5592 326.579 -15.8423C327.61 -16.0229 328.614 -16.1989 329.581 -16.3654C341.82 -18.4911 355.942 -17.0066 375.499 -14.9487C393.54 -13.0469 415.983 -10.69 444.889 -10.4752C454.239 -9.98053 464.252 -13.9101 472.378 -21.2557C480.05 -28.1915 485.224 -37.4415 486.218 -45.999C487.84 -59.9796 478.624 -69.848 460.932 -73.0735L460.829 -73.092L460.748 -73.1599C453.899 -78.8839 436.896 -84.0087 414.353 -82.5561C393.751 -81.2282 360.043 -73.894 316.455 -46.5018Z" fill="url(#paint8_linear_2442_4109)"/>
</mask>
<g mask="url(#mask8_2442_4109)">
</g>
</g>
<g opacity="0.5">
<mask id="mask9_2442_4109" style="mask-type:alpha" maskUnits="userSpaceOnUse" x="-54" y="-96" width="355" height="197">
<path d="M74.9508 100.856C72.3174 100.856 69.6744 100.618 67.0167 100.145C52.9197 97.6341 40.6907 88.8323 29.5752 79.6944C21.6887 73.2109 3.39611 74.3017 -14.2936 75.3576C-31.8491 76.404 -48.4302 77.3937 -52.6071 70.2927C-54.659 66.8045 -53.5914 61.8274 -49.3434 55.0768C-16.8263 3.40088 46.2297 -32.6778 93.4013 -53.8445C146.556 -77.6957 201.201 -92.2688 227.708 -94.3372C261.449 -96.9694 297.075 -94.9011 300.602 -84.3447C301.895 -80.4759 298.763 -76.0795 291.293 -71.2773C263.157 -53.1881 150.325 47.8534 116.349 80.7858C102.471 94.2371 88.8543 100.855 74.9508 100.856ZM5.30165 72.9077C15.9945 72.9077 25.3366 74.0736 30.6181 78.4156C41.5611 87.4117 53.5792 96.073 67.3042 98.5175C83.4381 101.392 99.1059 95.2018 115.205 79.5968C149.215 46.6323 262.197 -54.5333 290.406 -72.6691C297.062 -76.9487 300.049 -80.8044 299.042 -83.8191C296.319 -91.9657 266.374 -95.697 227.835 -92.6892C201.47 -90.6322 147.057 -76.1102 94.0731 -52.3356C47.109 -31.2617 -15.6539 4.63268 -47.9516 55.9596C-51.7839 62.0499 -52.8732 66.5896 -51.1893 69.4523C-47.5242 75.6839 -31.4308 74.7238 -14.3914 73.7077C-7.728 73.3102 -0.979916 72.9077 5.30165 72.9077Z" fill="url(#paint9_linear_2442_4109)"/>
</mask>
<g mask="url(#mask9_2442_4109)">
<path d="M74.9508 100.856C72.3174 100.856 69.6744 100.618 67.0167 100.145C52.9197 97.6341 40.6907 88.8323 29.5752 79.6944C21.6887 73.2109 3.39611 74.3017 -14.2936 75.3576C-31.8491 76.404 -48.4302 77.3937 -52.6071 70.2927C-54.659 66.8045 -53.5914 61.8274 -49.3434 55.0768C-16.8263 3.40088 46.2297 -32.6778 93.4013 -53.8445C146.556 -77.6957 201.201 -92.2688 227.708 -94.3372C261.449 -96.9694 297.075 -94.9011 300.602 -84.3447C301.895 -80.4759 298.763 -76.0795 291.293 -71.2773C263.157 -53.1881 150.325 47.8534 116.349 80.7858C102.471 94.2371 88.8543 100.855 74.9508 100.856ZM5.30165 72.9077C15.9945 72.9077 25.3366 74.0736 30.6181 78.4156C41.5611 87.4117 53.5792 96.073 67.3042 98.5175C83.4381 101.392 99.1059 95.2018 115.205 79.5968C149.215 46.6323 262.197 -54.5333 290.406 -72.6691C297.062 -76.9487 300.049 -80.8044 299.042 -83.8191C296.319 -91.9657 266.374 -95.697 227.835 -92.6892C201.47 -90.6322 147.057 -76.1102 94.0731 -52.3356C47.109 -31.2617 -15.6539 4.63268 -47.9516 55.9596C-51.7839 62.0499 -52.8732 66.5896 -51.1893 69.4523C-47.5242 75.6839 -31.4308 74.7238 -14.3914 73.7077C-7.728 73.3102 -0.979916 72.9077 5.30165 72.9077Z" fill="#005E9E"/>
</g>
<mask id="mask10_2442_4109" style="mask-type:alpha" maskUnits="userSpaceOnUse" x="-42" y="-90" width="331" height="183">
<path d="M78.529 92.8912C76.0747 92.8912 73.6109 92.6684 71.1343 92.224C58.1384 89.8937 46.7515 81.7229 36.3822 73.2407C29.0311 67.2286 11.9993 68.2847 -4.4714 69.308C-20.8041 70.3219 -36.2322 71.279 -40.1241 64.6893C-42.0337 61.4561 -41.05 56.8381 -37.1172 50.5713C-6.93783 2.4749 51.6848 -31.0959 95.549 -50.789C144.996 -72.988 195.805 -86.5299 220.44 -88.4337C251.751 -90.8551 284.807 -88.9018 288.085 -79.0828C289.288 -75.4757 286.372 -71.3802 279.418 -66.9098C253.273 -50.1019 148.449 43.7217 116.886 74.298C104.022 86.7594 91.4054 92.8908 78.529 92.8912ZM14.1032 66.9685C23.9239 66.9685 32.4877 68.0529 37.3593 72.0371C58.2482 89.1248 83.2598 104.715 115.812 73.1807C147.406 42.5746 252.371 -51.3657 278.584 -68.2171C284.776 -72.1977 287.554 -75.7843 286.618 -78.5898C284.092 -86.1609 256.31 -89.6496 220.559 -86.8859C196.057 -84.9924 145.466 -71.4985 96.1805 -49.3715C52.5115 -29.7662 -5.83569 3.63103 -35.8085 51.3988C-39.3527 57.0457 -40.357 61.2508 -38.7939 63.8973C-35.3834 69.6706 -20.4149 68.7423 -4.56676 67.7583C1.75493 67.3661 8.15973 66.9685 14.1032 66.9685Z" fill="url(#paint10_linear_2442_4109)"/>
</mask>
<g mask="url(#mask10_2442_4109)">
<path d="M78.529 92.8912C76.0747 92.8912 73.6109 92.6684 71.1343 92.224C58.1384 89.8937 46.7515 81.7229 36.3822 73.2407C29.0311 67.2286 11.9993 68.2847 -4.4714 69.308C-20.8041 70.3219 -36.2322 71.279 -40.1241 64.6893C-42.0337 61.4561 -41.05 56.8381 -37.1172 50.5713C-6.93783 2.4749 51.6848 -31.0959 95.549 -50.789C144.996 -72.988 195.805 -86.5299 220.44 -88.4337C251.751 -90.8551 284.807 -88.9018 288.085 -79.0828C289.288 -75.4757 286.372 -71.3802 279.418 -66.9098C253.273 -50.1019 148.449 43.7217 116.886 74.298C104.022 86.7594 91.4054 92.8908 78.529 92.8912ZM14.1032 66.9685C23.9239 66.9685 32.4877 68.0529 37.3593 72.0371C58.2482 89.1248 83.2598 104.715 115.812 73.1807C147.406 42.5746 252.371 -51.3657 278.584 -68.2171C284.776 -72.1977 287.554 -75.7843 286.618 -78.5898C284.092 -86.1609 256.31 -89.6496 220.559 -86.8859C196.057 -84.9924 145.466 -71.4985 96.1805 -49.3715C52.5115 -29.7662 -5.83569 3.63103 -35.8085 51.3988C-39.3527 57.0457 -40.357 61.2508 -38.7939 63.8973C-35.3834 69.6706 -20.4149 68.7423 -4.56676 67.7583C1.75493 67.3661 8.15973 66.9685 14.1032 66.9685Z" fill="#005E9E"/>
</g>
<mask id="mask11_2442_4109" style="mask-type:alpha" maskUnits="userSpaceOnUse" x="-29" y="-84" width="305" height="169">
<path d="M82.1071 84.9259C79.8312 84.9259 77.548 84.7177 75.2517 84.3026C62.764 82.0451 52.1538 74.0772 43.1893 66.7861C36.3742 61.2457 20.6032 62.2684 5.35128 63.2578C-10.4166 64.2798 -24.0342 65.1637 -27.6411 59.085C-29.4084 56.1069 -28.5088 51.848 -24.8903 46.065C2.95072 1.54753 57.1403 -29.5152 97.6969 -47.7344C143.434 -68.281 190.408 -80.7919 213.172 -82.5312C242.047 -84.739 272.541 -82.9033 275.567 -73.8219C276.681 -70.4766 273.982 -66.682 267.543 -62.5434C243.384 -47.0134 146.569 39.5911 117.422 67.8094C105.573 79.2805 93.9557 84.9253 82.1071 84.9259ZM22.8968 61.0278C31.8477 61.0278 39.6379 62.0301 44.0999 65.6574C52.9251 72.8352 63.3578 80.6767 75.5082 82.8731C89.2697 85.3622 102.652 80.0916 116.418 66.7641C145.594 38.5177 242.54 -48.196 266.763 -63.7663C272.49 -67.4474 275.06 -70.7652 274.195 -73.3614C271.864 -80.3564 246.244 -83.6041 213.282 -81.0829C190.643 -79.3532 143.874 -66.8875 98.2879 -46.4087C57.9142 -28.2717 3.98324 2.62841 -23.6652 46.8372V46.8375C-26.9208 52.0409 -27.8401 55.9116 -26.3982 58.3418C-23.2442 63.6573 -9.39851 62.7594 5.25795 61.8085C11.2359 61.4208 17.2943 61.0278 22.8968 61.0278Z" fill="url(#paint11_linear_2442_4109)"/>
</mask>
<g mask="url(#mask11_2442_4109)">
<path d="M82.1071 84.9259C79.8312 84.9259 77.548 84.7177 75.2517 84.3026C62.764 82.0451 52.1538 74.0772 43.1893 66.7861C36.3742 61.2457 20.6032 62.2684 5.35128 63.2578C-10.4166 64.2798 -24.0342 65.1637 -27.6411 59.085C-29.4084 56.1069 -28.5088 51.848 -24.8903 46.065C2.95072 1.54753 57.1403 -29.5152 97.6969 -47.7344C143.434 -68.281 190.408 -80.7919 213.172 -82.5312C242.047 -84.739 272.541 -82.9033 275.567 -73.8219C276.681 -70.4766 273.982 -66.682 267.543 -62.5434C243.384 -47.0134 146.569 39.5911 117.422 67.8094C105.573 79.2805 93.9557 84.9253 82.1071 84.9259ZM22.8968 61.0278C31.8477 61.0278 39.6379 62.0301 44.0999 65.6574C52.9251 72.8352 63.3578 80.6767 75.5082 82.8731C89.2697 85.3622 102.652 80.0916 116.418 66.7641C145.594 38.5177 242.54 -48.196 266.763 -63.7663C272.49 -67.4474 275.06 -70.7652 274.195 -73.3614C271.864 -80.3564 246.244 -83.6041 213.282 -81.0829C190.643 -79.3532 143.874 -66.8875 98.2879 -46.4087C57.9142 -28.2717 3.98324 2.62841 -23.6652 46.8372V46.8375C-26.9208 52.0409 -27.8401 55.9116 -26.3982 58.3418C-23.2442 63.6573 -9.39851 62.7594 5.25795 61.8085C11.2359 61.4208 17.2943 61.0278 22.8968 61.0278Z" fill="#005E9E"/>
</g>
<mask id="mask12_2442_4109" style="mask-type:alpha" maskUnits="userSpaceOnUse" x="-16" y="-78" width="280" height="155">
<path d="M85.6855 76.9621C83.5889 76.9621 81.4845 76.7687 79.3694 76.3827C68.0403 74.3151 58.2676 67.0141 49.9969 60.3331C43.7171 55.2642 29.2064 56.253 15.1739 57.2097C0.681411 58.1975 -11.8353 59.0505 -15.1582 53.4826C-16.7831 50.7594 -15.9671 46.8597 -12.6636 41.5606C12.8397 0.622331 62.5958 -27.9325 99.8452 -44.6781C141.874 -63.5722 185.012 -75.0523 205.905 -76.6272C232.348 -78.6241 260.274 -76.9038 263.049 -68.5598C264.075 -65.4762 261.592 -61.9821 255.669 -58.1752C233.499 -43.9259 144.692 35.4609 117.959 61.3224C107.124 71.8039 96.5076 76.9621 85.6855 76.9621ZM31.679 55.0878C39.7646 55.0878 46.7872 56.0072 50.8412 59.2794C58.9831 65.8563 68.592 73.0414 79.6103 75.0522C92.1884 77.3452 104.425 72.5373 117.024 60.3487C143.784 34.461 232.714 -45.027 254.942 -59.3141C260.204 -62.6958 262.565 -65.745 261.772 -68.1315C259.636 -74.5511 236.185 -77.5564 206.005 -75.279C185.23 -73.7126 142.283 -62.2746 100.396 -43.4439C63.3172 -26.775 13.8022 1.6278 -11.5214 42.2777C-14.489 47.0377 -15.3235 50.5738 -14.0024 52.7878C-11.1037 57.6455 1.61644 56.7782 15.0826 55.8604C20.7141 55.4768 26.4213 55.0878 31.679 55.0878Z" fill="url(#paint12_linear_2442_4109)"/>
</mask>
<g mask="url(#mask12_2442_4109)">
<path d="M85.6855 76.9621C83.5889 76.9621 81.4845 76.7687 79.3694 76.3827C68.0403 74.3151 58.2676 67.0141 49.9969 60.3331C43.7171 55.2642 29.2064 56.253 15.1739 57.2097C0.681411 58.1975 -11.8353 59.0505 -15.1582 53.4826C-16.7831 50.7594 -15.9671 46.8597 -12.6636 41.5606C12.8397 0.622331 62.5958 -27.9325 99.8452 -44.6781C141.874 -63.5722 185.012 -75.0523 205.905 -76.6272C232.348 -78.6241 260.274 -76.9038 263.049 -68.5598C264.075 -65.4762 261.592 -61.9821 255.669 -58.1752C233.499 -43.9259 144.692 35.4609 117.959 61.3224C107.124 71.8039 96.5076 76.9621 85.6855 76.9621ZM31.679 55.0878C39.7646 55.0878 46.7872 56.0072 50.8412 59.2794C58.9831 65.8563 68.592 73.0414 79.6103 75.0522C92.1884 77.3452 104.425 72.5373 117.024 60.3487C143.784 34.461 232.714 -45.027 254.942 -59.3141C260.204 -62.6958 262.565 -65.745 261.772 -68.1315C259.636 -74.5511 236.185 -77.5564 206.005 -75.279C185.23 -73.7126 142.283 -62.2746 100.396 -43.4439C63.3172 -26.775 13.8022 1.6278 -11.5214 42.2777C-14.489 47.0377 -15.3235 50.5738 -14.0024 52.7878C-11.1037 57.6455 1.61644 56.7782 15.0826 55.8604C20.7141 55.4768 26.4213 55.0878 31.679 55.0878Z" fill="#0056BB"/>
</g>
<mask id="mask13_2442_4109" style="mask-type:alpha" maskUnits="userSpaceOnUse" x="-4" y="-72" width="255" height="141">
<path d="M89.2626 68.9985C87.3444 68.9985 85.4209 68.8195 83.4862 68.4626C73.3171 66.5858 64.381 59.9513 56.8035 53.8802C51.0595 49.2831 37.8088 50.2383 24.9957 51.1613C11.7776 52.1138 0.361686 52.9373 -2.67605 47.88C-4.15879 45.4118 -3.42667 41.8712 -0.43765 37.0555L-0.438015 37.0558C22.7276 -0.303383 68.0504 -26.3503 101.993 -41.6222C140.312 -58.8638 179.616 -69.3128 198.636 -70.7235C222.648 -72.5081 248.006 -70.904 250.531 -63.2979C251.468 -60.4755 249.201 -57.2824 243.793 -53.8074C223.614 -40.8392 142.815 31.33 118.494 54.8351C108.675 64.3267 99.0573 68.998 89.2626 68.9985ZM40.4476 49.1459C47.6734 49.1459 53.9335 49.9817 57.5815 52.9012C74.4896 66.4483 93.0536 77.6868 117.629 53.9331C141.974 30.4038 222.887 -41.8587 243.121 -54.8619C247.917 -57.9442 250.07 -60.7246 249.347 -62.9019C247.408 -68.7455 226.121 -71.5106 198.728 -69.4748C179.816 -68.0722 140.691 -57.6622 102.503 -40.4798C68.7192 -25.2789 23.6201 0.626579 0.62108 37.7175L0.620819 37.7177C-2.05816 42.0342 -2.80789 45.2356 -1.60789 47.2335C1.03513 51.6329 12.63 50.7975 24.9061 49.9123C30.1857 49.532 35.5398 49.1459 40.4476 49.1459Z" fill="url(#paint13_linear_2442_4109)"/>
</mask>
<g mask="url(#mask13_2442_4109)">
<path d="M89.2626 68.9985C87.3444 68.9985 85.4209 68.8195 83.4862 68.4626C73.3171 66.5858 64.381 59.9513 56.8035 53.8802C51.0595 49.2831 37.8088 50.2383 24.9957 51.1613C11.7776 52.1138 0.361686 52.9373 -2.67605 47.88C-4.15879 45.4118 -3.42667 41.8712 -0.43765 37.0555L-0.438015 37.0558C22.7276 -0.303383 68.0504 -26.3503 101.993 -41.6222C140.312 -58.8638 179.616 -69.3128 198.636 -70.7235C222.648 -72.5081 248.006 -70.904 250.531 -63.2979C251.468 -60.4755 249.201 -57.2824 243.793 -53.8074C223.614 -40.8392 142.815 31.33 118.494 54.8351C108.675 64.3267 99.0573 68.998 89.2626 68.9985ZM40.4476 49.1459C47.6734 49.1459 53.9335 49.9817 57.5815 52.9012C74.4896 66.4483 93.0536 77.6868 117.629 53.9331C141.974 30.4038 222.887 -41.8587 243.121 -54.8619C247.917 -57.9442 250.07 -60.7246 249.347 -62.9019C247.408 -68.7455 226.121 -71.5106 198.728 -69.4748C179.816 -68.0722 140.691 -57.6622 102.503 -40.4798C68.7192 -25.2789 23.6201 0.626579 0.62108 37.7175L0.620819 37.7177C-2.05816 42.0342 -2.80789 45.2356 -1.60789 47.2335C1.03513 51.6329 12.63 50.7975 24.9061 49.9123C30.1857 49.532 35.5398 49.1459 40.4476 49.1459Z" fill="#0056BB"/>
</g>
<mask id="mask14_2442_4109" style="mask-type:alpha" maskUnits="userSpaceOnUse" x="9" y="-66" width="230" height="128">
<path d="M92.8401 61.0354C91.101 61.0354 89.3576 60.871 87.6039 60.5427C78.5968 58.8575 70.8124 53.1398 63.6115 47.4277C58.4026 43.3017 45.8727 44.2639 34.818 45.114C22.8747 46.0324 12.5599 46.8244 9.80701 42.2782C8.46653 40.0647 9.11512 36.8832 11.7892 32.5512L11.7889 32.5515C32.6163 -1.2283 73.5061 -24.7673 104.141 -38.5658C138.751 -54.1547 174.22 -63.5729 191.369 -64.8191C212.946 -66.3915 235.74 -64.9042 238.014 -58.0354C238.861 -55.4748 236.811 -52.5824 231.918 -49.4391C213.729 -37.7513 140.937 27.1996 119.031 48.3482C110.226 56.8499 101.608 61.0345 92.8401 61.0354ZM49.2013 43.2033C55.5725 43.2033 61.0791 43.9546 64.3224 46.5236C71.4114 52.1466 79.0641 57.7733 87.814 59.4103C98.0192 61.3215 107.97 57.4296 118.235 47.5181C140.164 26.3474 213.06 -38.6897 231.3 -50.4091C235.631 -53.1922 237.576 -55.7039 236.924 -57.6722C235.18 -62.9405 216.054 -65.4635 191.452 -63.67C174.403 -62.4312 139.099 -53.0491 104.611 -37.5149C74.1222 -23.7822 33.4391 -0.373935 12.765 33.1578L12.7646 33.1581C10.3737 37.031 9.70842 39.8983 10.7875 41.6799C13.1741 45.6213 23.6449 44.8173 34.7307 43.9653C39.6541 43.5871 44.6489 43.2033 49.2013 43.2033Z" fill="url(#paint14_linear_2442_4109)"/>
</mask>
<g mask="url(#mask14_2442_4109)">
<path d="M92.8401 61.0354C91.101 61.0354 89.3576 60.871 87.6039 60.5427C78.5968 58.8575 70.8124 53.1398 63.6115 47.4277C58.4026 43.3017 45.8727 44.2639 34.818 45.114C22.8747 46.0324 12.5599 46.8244 9.80701 42.2782C8.46653 40.0647 9.11512 36.8832 11.7892 32.5512L11.7889 32.5515C32.6163 -1.2283 73.5061 -24.7673 104.141 -38.5658C138.751 -54.1547 174.22 -63.5729 191.369 -64.8191C212.946 -66.3915 235.74 -64.9042 238.014 -58.0354C238.861 -55.4748 236.811 -52.5824 231.918 -49.4391C213.729 -37.7513 140.937 27.1996 119.031 48.3482C110.226 56.8499 101.608 61.0345 92.8401 61.0354ZM49.2013 43.2033C55.5725 43.2033 61.0791 43.9546 64.3224 46.5236C71.4114 52.1466 79.0641 57.7733 87.814 59.4103C98.0192 61.3215 107.97 57.4296 118.235 47.5181C140.164 26.3474 213.06 -38.6897 231.3 -50.4091C235.631 -53.1922 237.576 -55.7039 236.924 -57.6722C235.18 -62.9405 216.054 -65.4635 191.452 -63.67C174.403 -62.4312 139.099 -53.0491 104.611 -37.5149C74.1222 -23.7822 33.4391 -0.373935 12.765 33.1578L12.7646 33.1581C10.3737 37.031 9.70842 39.8983 10.7875 41.6799C13.1741 45.6213 23.6449 44.8173 34.7307 43.9653C39.6541 43.5871 44.6489 43.2033 49.2013 43.2033Z" fill="#0056BB"/>
</g>
<mask id="mask15_2442_4109" style="mask-type:alpha" maskUnits="userSpaceOnUse" x="21" y="-60" width="205" height="114">
<path d="M96.4168 53.0727C94.8572 53.0727 93.2928 52.9229 91.7208 52.6235C83.8733 51.1302 77.1664 46.2618 70.4183 40.9756C65.7451 37.3212 54.5323 38.2484 44.6401 39.0678C33.9715 39.9502 24.757 40.7131 22.289 36.6774C21.0911 34.7188 21.6558 31.8961 24.0153 28.0477C42.5043 -2.15269 78.961 -23.184 106.288 -35.5088C137.189 -49.4453 168.823 -57.8323 184.101 -58.9143C203.245 -60.2741 223.473 -58.9035 225.496 -52.7726C226.255 -50.4735 224.42 -47.8816 220.043 -45.0697C203.845 -34.6643 139.06 23.0695 119.567 41.8622C111.775 49.3744 104.159 53.0727 96.4168 53.0727ZM57.9358 37.259C63.4601 37.259 68.2212 37.9245 71.0625 40.1462C82.4195 49.0422 97.9713 61.2265 118.841 41.1036C138.356 22.2907 203.235 -35.5211 219.478 -45.9558C223.345 -48.4398 225.082 -50.6827 224.501 -52.442C222.952 -57.1346 205.992 -59.4157 184.175 -57.8652C168.989 -56.7897 137.507 -48.4354 106.718 -34.5495C79.5246 -22.2852 43.2573 -1.37391 24.9078 28.599L24.9076 28.5992C22.8049 32.0285 22.2241 34.5614 23.1819 36.1273C25.3133 39.612 34.6604 38.8388 44.5541 38.0195C49.1161 37.642 53.7455 37.259 57.9358 37.259Z" fill="url(#paint15_linear_2442_4109)"/>
</mask>
<g mask="url(#mask15_2442_4109)">
<path d="M96.4168 53.0727C94.8572 53.0727 93.2928 52.9229 91.7208 52.6235C83.8733 51.1302 77.1664 46.2618 70.4183 40.9756C65.7451 37.3212 54.5323 38.2484 44.6401 39.0678C33.9715 39.9502 24.757 40.7131 22.289 36.6774C21.0911 34.7188 21.6558 31.8961 24.0153 28.0477C42.5043 -2.15269 78.961 -23.184 106.288 -35.5088C137.189 -49.4453 168.823 -57.8323 184.101 -58.9143C203.245 -60.2741 223.473 -58.9035 225.496 -52.7726C226.255 -50.4735 224.42 -47.8816 220.043 -45.0697C203.845 -34.6643 139.06 23.0695 119.567 41.8622C111.775 49.3744 104.159 53.0727 96.4168 53.0727ZM57.9358 37.259C63.4601 37.259 68.2212 37.9245 71.0625 40.1462C82.4195 49.0422 97.9713 61.2265 118.841 41.1036C138.356 22.2907 203.235 -35.5211 219.478 -45.9558C223.345 -48.4398 225.082 -50.6827 224.501 -52.442C222.952 -57.1346 205.992 -59.4157 184.175 -57.8652C168.989 -56.7897 137.507 -48.4354 106.718 -34.5495C79.5246 -22.2852 43.2573 -1.37391 24.9078 28.599L24.9076 28.5992C22.8049 32.0285 22.2241 34.5614 23.1819 36.1273C25.3133 39.612 34.6604 38.8388 44.5541 38.0195C49.1161 37.642 53.7455 37.259 57.9358 37.259Z" fill="#0056BB"/>
</g>
<mask id="mask16_2442_4109" style="mask-type:alpha" maskUnits="userSpaceOnUse" x="34" y="-54" width="180" height="100">
<path d="M99.9744 45.0745C90.9156 45.0757 83.3882 39.2716 77.2265 34.522C73.0878 31.3392 63.1927 32.2323 54.4626 33.0202C45.068 33.8678 36.9546 34.6003 34.7714 31.0751C33.7156 29.3709 34.1966 26.9068 36.2419 23.5423C52.3928 -3.07889 84.4164 -21.6023 108.437 -32.4537C135.628 -44.7375 163.427 -52.0935 176.834 -53.0113C193.548 -54.1608 211.206 -52.9053 212.979 -47.5121C213.649 -45.4741 212.03 -43.183 208.169 -40.7028C193.959 -31.577 137.182 18.9387 120.104 35.3742C112.688 42.5109 105.993 45.074 99.9744 45.0745ZM66.6456 31.3099C71.3334 31.3099 75.3608 31.8885 77.8034 33.767C88.343 41.8909 101.459 52.0004 119.448 34.6872C136.545 18.2336 193.407 -32.3523 207.658 -41.5043C211.06 -43.6892 212.588 -45.6635 212.079 -47.2137C210.725 -51.3311 195.93 -53.3693 176.898 -52.0618C163.575 -51.1498 135.915 -43.8238 108.826 -31.5859C84.9277 -20.7899 53.0762 -2.37605 37.0514 24.0376L37.0511 24.0379C35.2361 27.0238 34.7398 29.2224 35.5764 30.5726C37.4518 33.6002 45.6734 32.8578 54.3777 32.0725C58.5696 31.694 62.8269 31.3099 66.6456 31.3099Z" fill="url(#paint16_linear_2442_4109)"/>
</mask>
<g mask="url(#mask16_2442_4109)">
<path d="M99.9744 45.0745C90.9156 45.0757 83.3882 39.2716 77.2265 34.522C73.0878 31.3392 63.1927 32.2323 54.4626 33.0202C45.068 33.8678 36.9546 34.6003 34.7714 31.0751C33.7156 29.3709 34.1966 26.9068 36.2419 23.5423C52.3928 -3.07889 84.4164 -21.6023 108.437 -32.4537C135.628 -44.7375 163.427 -52.0935 176.834 -53.0113C193.548 -54.1608 211.206 -52.9053 212.979 -47.5121C213.649 -45.4741 212.03 -43.183 208.169 -40.7028C193.959 -31.577 137.182 18.9387 120.104 35.3742C112.688 42.5109 105.993 45.074 99.9744 45.0745ZM66.6456 31.3099C71.3334 31.3099 75.3608 31.8885 77.8034 33.767C88.343 41.8909 101.459 52.0004 119.448 34.6872C136.545 18.2336 193.407 -32.3523 207.658 -41.5043C211.06 -43.6892 212.588 -45.6635 212.079 -47.2137C210.725 -51.3311 195.93 -53.3693 176.898 -52.0618C163.575 -51.1498 135.915 -43.8238 108.826 -31.5859C84.9277 -20.7899 53.0762 -2.37605 37.0514 24.0376L37.0511 24.0379C35.2361 27.0238 34.7398 29.2224 35.5764 30.5726C37.4518 33.6002 45.6734 32.8578 54.3777 32.0725C58.5696 31.694 62.8269 31.3099 66.6456 31.3099Z" fill="#0056BB"/>
</g>
<mask id="mask17_2442_4109" style="mask-type:alpha" maskUnits="userSpaceOnUse" x="46" y="-48" width="155" height="86">
<path d="M103.587 37.1363C96.0509 37.1372 89.7074 32.35 84.1699 28.1721L84.0339 28.0692C80.4308 25.3585 71.8529 26.2169 64.2843 26.9747C56.1641 27.7876 49.1518 28.49 47.2527 25.4742C46.3394 24.0243 46.7368 21.9188 48.4674 19.0383C62.2807 -4.00445 89.8711 -20.0202 110.584 -29.398C134.065 -40.029 158.03 -46.3539 169.566 -47.1074C183.85 -48.0451 198.939 -46.907 200.462 -42.2513C201.042 -40.4743 199.64 -38.4836 196.293 -36.3351C184.076 -28.4923 135.306 14.8068 120.639 28.887C114.331 34.9434 108.686 37.1361 103.587 37.1363ZM75.3234 25.3577C79.1865 25.3577 82.496 25.8481 84.543 27.3884L84.6797 27.4912C94.1775 34.6577 104.943 42.779 120.053 28.2716C134.736 14.1754 183.583 -29.186 195.836 -37.0522C198.773 -38.9379 200.094 -40.644 199.655 -41.9858C198.498 -45.5278 185.866 -47.3233 169.621 -46.2578C158.161 -45.5092 134.322 -39.211 110.933 -28.6216C90.3299 -19.2938 62.8945 -3.37711 49.1941 19.4772L49.1939 19.4775C47.6667 22.0197 47.2548 23.8841 47.9695 25.0193C49.5892 27.5908 57.0163 26.8467 64.2001 26.1276C68.0131 25.7457 71.8875 25.3577 75.3234 25.3577Z" fill="url(#paint17_linear_2442_4109)"/>
</mask>
<g mask="url(#mask17_2442_4109)">
<path d="M103.587 37.1363C96.0509 37.1372 89.7074 32.35 84.1699 28.1721L84.0339 28.0692C80.4308 25.3585 71.8529 26.2169 64.2843 26.9747C56.1641 27.7876 49.1518 28.49 47.2527 25.4742C46.3394 24.0243 46.7368 21.9188 48.4674 19.0383C62.2807 -4.00445 89.8711 -20.0202 110.584 -29.398C134.065 -40.029 158.03 -46.3539 169.566 -47.1074C183.85 -48.0451 198.939 -46.907 200.462 -42.2513C201.042 -40.4743 199.64 -38.4836 196.293 -36.3351C184.076 -28.4923 135.306 14.8068 120.639 28.887C114.331 34.9434 108.686 37.1361 103.587 37.1363ZM75.3234 25.3577C79.1865 25.3577 82.496 25.8481 84.543 27.3884L84.6797 27.4912C94.1775 34.6577 104.943 42.779 120.053 28.2716C134.736 14.1754 183.583 -29.186 195.836 -37.0522C198.773 -38.9379 200.094 -40.644 199.655 -41.9858C198.498 -45.5278 185.866 -47.3233 169.621 -46.2578C158.161 -45.5092 134.322 -39.211 110.933 -28.6216C90.3299 -19.2938 62.8945 -3.37711 49.1941 19.4772L49.1939 19.4775C47.6667 22.0197 47.2548 23.8841 47.9695 25.0193C49.5892 27.5908 57.0163 26.8467 64.2001 26.1276C68.0131 25.7457 71.8875 25.3577 75.3234 25.3577Z" fill="#0056BB"/>
</g>
<mask id="mask18_2442_4109" style="mask-type:alpha" maskUnits="userSpaceOnUse" x="59" y="-42" width="130" height="72">
<path d="M107.175 29.1417C101.097 29.1422 95.9679 25.3762 91.4863 22.0865L90.8424 21.6144C87.7744 19.3752 80.5126 20.1999 74.1061 20.9284C67.2604 21.7064 61.349 22.3784 59.7342 19.872C58.9635 18.6755 59.2772 16.9287 60.6938 14.5315C81.8755 -21.3969 145.109 -40.1581 162.298 -41.2064C168.909 -41.6117 175.053 -41.4619 179.599 -40.784C184.561 -40.0442 187.369 -38.7689 187.945 -36.9934C188.437 -35.4773 187.25 -33.7869 184.418 -31.9695C174.195 -25.41 133.431 10.6724 121.176 22.3974C115.995 27.3547 111.359 29.1412 107.175 29.1417ZM83.9597 19.3975C87.0162 19.3975 89.6258 19.7975 91.283 21.0072L91.928 21.4801C99.6523 27.1506 108.408 33.5775 120.659 21.8535C132.929 10.1145 173.76 -26.0226 184.015 -32.6028C186.488 -34.1896 187.601 -35.6274 187.233 -36.7608C186.27 -39.7279 175.8 -41.2819 162.344 -40.4564C145.25 -39.414 82.3779 -20.7743 61.338 14.914L61.3377 14.9143C60.0976 17.0128 59.7696 18.5437 60.3626 19.4642C61.7252 21.5796 67.9765 20.869 74.022 20.1819C77.4424 19.793 80.9218 19.3975 83.9597 19.3975Z" fill="url(#paint18_linear_2442_4109)"/>
</mask>
<g mask="url(#mask18_2442_4109)">
<path d="M107.175 29.1417C101.097 29.1422 95.9679 25.3762 91.4863 22.0865L90.8424 21.6144C87.7744 19.3752 80.5126 20.1999 74.1061 20.9284C67.2604 21.7064 61.349 22.3784 59.7342 19.872C58.9635 18.6755 59.2772 16.9287 60.6938 14.5315C81.8755 -21.3969 145.109 -40.1581 162.298 -41.2064C168.909 -41.6117 175.053 -41.4619 179.599 -40.784C184.561 -40.0442 187.369 -38.7689 187.945 -36.9934C188.437 -35.4773 187.25 -33.7869 184.418 -31.9695C174.195 -25.41 133.431 10.6724 121.176 22.3974C115.995 27.3547 111.359 29.1412 107.175 29.1417ZM83.9597 19.3975C87.0162 19.3975 89.6258 19.7975 91.283 21.0072L91.928 21.4801C99.6523 27.1506 108.408 33.5775 120.659 21.8535C132.929 10.1145 173.76 -26.0226 184.015 -32.6028C186.488 -34.1896 187.601 -35.6274 187.233 -36.7608C186.27 -39.7279 175.8 -41.2819 162.344 -40.4564C145.25 -39.414 82.3779 -20.7743 61.338 14.914L61.3377 14.9143C60.0976 17.0128 59.7696 18.5437 60.3626 19.4642C61.7252 21.5796 67.9765 20.869 74.022 20.1819C77.4424 19.793 80.9218 19.3975 83.9597 19.3975Z" fill="#005E9E"/>
</g>
<mask id="mask19_2442_4109" style="mask-type:alpha" maskUnits="userSpaceOnUse" x="71" y="-36" width="105" height="58">
<path d="M110.748 21.2256C106.207 21.2256 102.343 18.4866 98.7575 15.9448C98.3869 15.6819 98.0182 15.4207 97.6513 15.1641C95.1176 13.3959 89.1723 14.1892 83.9278 14.8889C78.3564 15.6324 73.5447 16.274 72.2142 14.2758C71.5858 13.3319 71.8166 11.9427 72.9195 10.0287C89.8779 -19.4547 141.084 -34.5394 155.03 -35.3007C163.761 -35.7817 174.338 -35.1328 175.428 -31.7328C175.831 -30.4769 174.86 -29.0864 172.543 -27.6001C164.314 -22.3242 131.555 6.54194 121.711 15.9119C117.61 19.8158 114.005 21.2256 110.748 21.2256ZM92.5373 13.433C94.811 13.433 96.7482 13.741 98.0219 14.6296C98.3901 14.8873 98.7599 15.1493 99.1319 15.4129C105.376 19.8399 111.835 24.4168 121.265 15.4396C131.121 6.05746 163.938 -22.8552 172.193 -28.1489C173.595 -29.0474 175.186 -30.3639 174.811 -31.5332C174.044 -33.9255 165.741 -35.2358 155.066 -34.6507C141.204 -33.8941 90.3166 -18.9156 73.4812 10.3546L73.4809 10.3548C72.5274 12.0095 72.2825 13.2068 72.7534 13.9141C73.8598 15.5749 78.9344 14.898 83.8424 14.2436C86.8525 13.8419 89.9183 13.433 92.5373 13.433Z" fill="url(#paint19_linear_2442_4109)"/>
</mask>
<g mask="url(#mask19_2442_4109)">
<path d="M110.748 21.2256C106.207 21.2256 102.343 18.4866 98.7575 15.9448C98.3869 15.6819 98.0182 15.4207 97.6513 15.1641C95.1176 13.3959 89.1723 14.1892 83.9278 14.8889C78.3564 15.6324 73.5447 16.274 72.2142 14.2758C71.5858 13.3319 71.8166 11.9427 72.9195 10.0287C89.8779 -19.4547 141.084 -34.5394 155.03 -35.3007C163.761 -35.7817 174.338 -35.1328 175.428 -31.7328C175.831 -30.4769 174.86 -29.0864 172.543 -27.6001C164.314 -22.3242 131.555 6.54194 121.711 15.9119C117.61 19.8158 114.005 21.2256 110.748 21.2256ZM92.5373 13.433C94.811 13.433 96.7482 13.741 98.0219 14.6296C98.3901 14.8873 98.7599 15.1493 99.1319 15.4129C105.376 19.8399 111.835 24.4168 121.265 15.4396C131.121 6.05746 163.938 -22.8552 172.193 -28.1489C173.595 -29.0474 175.186 -30.3639 174.811 -31.5332C174.044 -33.9255 165.741 -35.2358 155.066 -34.6507C141.204 -33.8941 90.3166 -18.9156 73.4812 10.3546L73.4809 10.3548C72.5274 12.0095 72.2825 13.2068 72.7534 13.9141C73.8598 15.5749 78.9344 14.898 83.8424 14.2436C86.8525 13.8419 89.9183 13.433 92.5373 13.433Z" fill="#0056BB"/>
</g>
<mask id="mask20_2442_4109" style="mask-type:alpha" maskUnits="userSpaceOnUse" x="84" y="-30" width="79" height="44">
<path d="M114.324 13.2796C111.223 13.2796 108.563 11.4756 105.953 9.70614C105.455 9.36882 104.959 9.03252 104.462 8.71028C102.462 7.41446 97.8332 8.17799 93.7504 8.85126C89.4518 9.56002 85.7396 10.1715 84.6932 8.6796C84.207 7.98695 84.3549 6.95475 85.1452 5.5237C91.9429 -6.78223 106.235 -15.275 117.027 -20.2328C129.242 -25.8442 141.98 -29.1435 147.764 -29.3991C154.238 -29.6859 162.091 -29.0918 162.914 -26.4783C163.228 -25.4813 162.472 -24.39 160.668 -23.2343C154.443 -19.2476 129.684 2.4043 122.248 9.42264C119.246 12.2558 116.659 13.2793 114.324 13.2796ZM101.031 7.45029C102.558 7.45029 103.86 7.66463 104.759 8.24758C105.26 8.57179 105.759 8.91023 106.26 9.2497C110.859 12.3685 115.205 15.3141 121.871 9.02121C129.319 1.99302 154.125 -19.6978 160.373 -23.6986C161.451 -24.3894 162.677 -25.4036 162.391 -26.3123C161.809 -28.1597 155.805 -29.2041 147.788 -28.8487C137.516 -28.3949 98.0545 -16.7098 85.6254 5.791C84.9565 7.00155 84.7939 7.86672 85.1417 8.36251C85.99 9.57245 89.89 8.92925 93.6614 8.30757C96.2352 7.88308 98.8606 7.45029 101.031 7.45029Z" fill="url(#paint20_linear_2442_4109)"/>
</mask>
<g mask="url(#mask20_2442_4109)">
<path d="M114.324 13.2796C111.223 13.2796 108.563 11.4756 105.953 9.70614C105.455 9.36882 104.959 9.03252 104.462 8.71028C102.462 7.41446 97.8332 8.17799 93.7504 8.85126C89.4518 9.56002 85.7396 10.1715 84.6932 8.6796C84.207 7.98695 84.3549 6.95475 85.1452 5.5237C91.9429 -6.78223 106.235 -15.275 117.027 -20.2328C129.242 -25.8442 141.98 -29.1435 147.764 -29.3991C154.238 -29.6859 162.091 -29.0918 162.914 -26.4783C163.228 -25.4813 162.472 -24.39 160.668 -23.2343C154.443 -19.2476 129.684 2.4043 122.248 9.42264C119.246 12.2558 116.659 13.2793 114.324 13.2796ZM101.031 7.45029C102.558 7.45029 103.86 7.66463 104.759 8.24758C105.26 8.57179 105.759 8.91023 106.26 9.2497C110.859 12.3685 115.205 15.3141 121.871 9.02121C129.319 1.99302 154.125 -19.6978 160.373 -23.6986C161.451 -24.3894 162.677 -25.4036 162.391 -26.3123C161.809 -28.1597 155.805 -29.2041 147.788 -28.8487C137.516 -28.3949 98.0545 -16.7098 85.6254 5.791C84.9565 7.00155 84.7939 7.86672 85.1417 8.36251C85.99 9.57245 89.89 8.92925 93.6614 8.30757C96.2352 7.88308 98.8606 7.45029 101.031 7.45029Z" fill="#0056BB"/>
</g>
</g>
</g>
</g>
<defs>
<linearGradient id="paint0_linear_2442_4109" x1="3.31705e-06" y1="27.5099" x2="495.852" y2="68.2471" gradientUnits="userSpaceOnUse">
<stop stop-color="#F9F9F9"/>
<stop offset="0.0001" stop-color="#FCFCFC"/>
<stop offset="1" stop-color="#FAFAFB"/>
</linearGradient>
<linearGradient id="paint1_linear_2442_4109" x1="195.381" y1="-48.5374" x2="571.443" y2="-9.08788" gradientUnits="userSpaceOnUse">
<stop stop-color="white"/>
<stop offset="0.0436152" stop-color="#B4B4B4"/>
<stop offset="0.150732"/>
<stop offset="0.171421" stop-color="#171717"/>
<stop offset="0.385884" stop-color="white"/>
<stop offset="0.632551" stop-color="#E6E6E6"/>
<stop offset="0.856667" stop-color="#1A1A1A"/>
<stop offset="0.998739"/>
</linearGradient>
<linearGradient id="paint2_linear_2442_4109" x1="209.499" y1="-49.0384" x2="558.504" y2="-12.4273" gradientUnits="userSpaceOnUse">
<stop stop-color="white"/>
<stop offset="0.0436152" stop-color="#B4B4B4"/>
<stop offset="0.150732"/>
<stop offset="0.171421" stop-color="#171717"/>
<stop offset="0.385884" stop-color="white"/>
<stop offset="0.632551" stop-color="#E6E6E6"/>
<stop offset="0.856667" stop-color="#1A1A1A"/>
<stop offset="0.998739"/>
</linearGradient>
<linearGradient id="paint3_linear_2442_4109" x1="223.648" y1="-49.5363" x2="545.698" y2="-15.7527" gradientUnits="userSpaceOnUse">
<stop stop-color="white"/>
<stop offset="0.0436152" stop-color="#B4B4B4"/>
<stop offset="0.150732"/>
<stop offset="0.171421" stop-color="#171717"/>
<stop offset="0.385884" stop-color="white"/>
<stop offset="0.632551" stop-color="#E6E6E6"/>
<stop offset="0.856667" stop-color="#1A1A1A"/>
<stop offset="0.998739"/>
</linearGradient>
<linearGradient id="paint4_linear_2442_4109" x1="237.775" y1="-50.0108" x2="533.053" y2="-19.0356" gradientUnits="userSpaceOnUse">
<stop stop-color="white"/>
<stop offset="0.0436152" stop-color="#B4B4B4"/>
<stop offset="0.150732"/>
<stop offset="0.171421" stop-color="#171717"/>
<stop offset="0.385884" stop-color="white"/>
<stop offset="0.632551" stop-color="#E6E6E6"/>
<stop offset="0.856667" stop-color="#1A1A1A"/>
<stop offset="0.998739"/>
</linearGradient>
<linearGradient id="paint5_linear_2442_4109" x1="251.926" y1="-50.959" x2="520.671" y2="-22.7672" gradientUnits="userSpaceOnUse">
<stop stop-color="white"/>
<stop offset="0.0436152" stop-color="#B4B4B4"/>
<stop offset="0.150732"/>
<stop offset="0.171421" stop-color="#171717"/>
<stop offset="0.385884" stop-color="white"/>
<stop offset="0.632551" stop-color="#E6E6E6"/>
<stop offset="0.856667" stop-color="#1A1A1A"/>
<stop offset="0.998739"/>
</linearGradient>
<linearGradient id="paint6_linear_2442_4109" x1="266.061" y1="-52.1531" x2="508.63" y2="-26.7073" gradientUnits="userSpaceOnUse">
<stop stop-color="white"/>
<stop offset="0.0436152" stop-color="#B4B4B4"/>
<stop offset="0.150732"/>
<stop offset="0.171421" stop-color="#171717"/>
<stop offset="0.385884" stop-color="white"/>
<stop offset="0.632551" stop-color="#E6E6E6"/>
<stop offset="0.856667" stop-color="#1A1A1A"/>
<stop offset="0.998739"/>
</linearGradient>
<linearGradient id="paint7_linear_2442_4109" x1="280.151" y1="-53.5421" x2="496.95" y2="-30.7995" gradientUnits="userSpaceOnUse">
<stop stop-color="white"/>
<stop offset="0.0436152" stop-color="#B4B4B4"/>
<stop offset="0.150732"/>
<stop offset="0.171421" stop-color="#171717"/>
<stop offset="0.385884" stop-color="white"/>
<stop offset="0.632551" stop-color="#E6E6E6"/>
<stop offset="0.856667" stop-color="#1A1A1A"/>
<stop offset="0.998739"/>
</linearGradient>
<linearGradient id="paint8_linear_2442_4109" x1="294.134" y1="-55.0837" x2="485.885" y2="-34.9686" gradientUnits="userSpaceOnUse">
<stop stop-color="white"/>
<stop offset="0.0436152" stop-color="#B4B4B4"/>
<stop offset="0.150732"/>
<stop offset="0.171421" stop-color="#171717"/>
<stop offset="0.385884" stop-color="white"/>
<stop offset="0.632551" stop-color="#E6E6E6"/>
<stop offset="0.856667" stop-color="#1A1A1A"/>
<stop offset="0.998739"/>
</linearGradient>
<linearGradient id="paint9_linear_2442_4109" x1="-53.6172" y1="2.74232" x2="300.886" y2="2.74232" gradientUnits="userSpaceOnUse">
<stop stop-color="white"/>
<stop offset="0.0436152" stop-color="#B4B4B4"/>
<stop offset="0.150732"/>
<stop offset="0.171421" stop-color="#171717"/>
<stop offset="0.385884" stop-color="white"/>
<stop offset="0.632551" stop-color="#E6E6E6"/>
<stop offset="0.856667" stop-color="#1A1A1A"/>
<stop offset="0.998739"/>
</linearGradient>
<linearGradient id="paint10_linear_2442_4109" x1="-41.0674" y1="1.7581" x2="288.348" y2="1.7581" gradientUnits="userSpaceOnUse">
<stop stop-color="white"/>
<stop offset="0.0436152" stop-color="#B4B4B4"/>
<stop offset="0.150732"/>
<stop offset="0.171421" stop-color="#171717"/>
<stop offset="0.385884" stop-color="white"/>
<stop offset="0.632551" stop-color="#E6E6E6"/>
<stop offset="0.856667" stop-color="#1A1A1A"/>
<stop offset="0.998739"/>
</linearGradient>
<linearGradient id="paint11_linear_2442_4109" x1="-28.5176" y1="0.773509" x2="275.811" y2="0.773509" gradientUnits="userSpaceOnUse">
<stop stop-color="white"/>
<stop offset="0.0436152" stop-color="#B4B4B4"/>
<stop offset="0.150732"/>
<stop offset="0.171421" stop-color="#171717"/>
<stop offset="0.385884" stop-color="white"/>
<stop offset="0.632551" stop-color="#E6E6E6"/>
<stop offset="0.856667" stop-color="#1A1A1A"/>
<stop offset="0.998739"/>
</linearGradient>
<linearGradient id="paint12_linear_2442_4109" x1="-15.9678" y1="-0.210362" x2="263.275" y2="-0.210362" gradientUnits="userSpaceOnUse">
<stop stop-color="white"/>
<stop offset="0.0436152" stop-color="#B4B4B4"/>
<stop offset="0.150732"/>
<stop offset="0.171421" stop-color="#171717"/>
<stop offset="0.385884" stop-color="white"/>
<stop offset="0.632551" stop-color="#E6E6E6"/>
<stop offset="0.856667" stop-color="#1A1A1A"/>
<stop offset="0.998739"/>
</linearGradient>
<linearGradient id="paint13_linear_2442_4109" x1="-3.41896" y1="-1.19412" x2="250.736" y2="-1.19412" gradientUnits="userSpaceOnUse">
<stop stop-color="white"/>
<stop offset="0.0436152" stop-color="#B4B4B4"/>
<stop offset="0.150732"/>
<stop offset="0.171421" stop-color="#171717"/>
<stop offset="0.385884" stop-color="white"/>
<stop offset="0.632551" stop-color="#E6E6E6"/>
<stop offset="0.856667" stop-color="#1A1A1A"/>
<stop offset="0.998739"/>
</linearGradient>
<linearGradient id="paint14_linear_2442_4109" x1="9.13085" y1="-2.17764" x2="238.2" y2="-2.17764" gradientUnits="userSpaceOnUse">
<stop stop-color="white"/>
<stop offset="0.0436152" stop-color="#B4B4B4"/>
<stop offset="0.150732"/>
<stop offset="0.171421" stop-color="#171717"/>
<stop offset="0.385884" stop-color="white"/>
<stop offset="0.632551" stop-color="#E6E6E6"/>
<stop offset="0.856667" stop-color="#1A1A1A"/>
<stop offset="0.998739"/>
</linearGradient>
<linearGradient id="paint15_linear_2442_4109" x1="21.6797" y1="-3.16089" x2="225.662" y2="-3.16089" gradientUnits="userSpaceOnUse">
<stop stop-color="white"/>
<stop offset="0.0436152" stop-color="#B4B4B4"/>
<stop offset="0.150732"/>
<stop offset="0.171421" stop-color="#171717"/>
<stop offset="0.385884" stop-color="white"/>
<stop offset="0.632551" stop-color="#E6E6E6"/>
<stop offset="0.856667" stop-color="#1A1A1A"/>
<stop offset="0.998739"/>
</linearGradient>
<linearGradient id="paint16_linear_2442_4109" x1="34.2285" y1="-4.1639" x2="213.126" y2="-4.1639" gradientUnits="userSpaceOnUse">
<stop stop-color="white"/>
<stop offset="0.0436152" stop-color="#B4B4B4"/>
<stop offset="0.150732"/>
<stop offset="0.171421" stop-color="#171717"/>
<stop offset="0.385884" stop-color="white"/>
<stop offset="0.632551" stop-color="#E6E6E6"/>
<stop offset="0.856667" stop-color="#1A1A1A"/>
<stop offset="0.998739"/>
</linearGradient>
<linearGradient id="paint17_linear_2442_4109" x1="46.7764" y1="-5.13693" x2="200.589" y2="-5.13693" gradientUnits="userSpaceOnUse">
<stop stop-color="white"/>
<stop offset="0.0436152" stop-color="#B4B4B4"/>
<stop offset="0.150732"/>
<stop offset="0.171421" stop-color="#171717"/>
<stop offset="0.385884" stop-color="white"/>
<stop offset="0.632551" stop-color="#E6E6E6"/>
<stop offset="0.856667" stop-color="#1A1A1A"/>
<stop offset="0.998739"/>
</linearGradient>
<linearGradient id="paint18_linear_2442_4109" x1="59.3242" y1="-6.14401" x2="188.053" y2="-6.14401" gradientUnits="userSpaceOnUse">
<stop stop-color="white"/>
<stop offset="0.0436152" stop-color="#B4B4B4"/>
<stop offset="0.150732"/>
<stop offset="0.171421" stop-color="#171717"/>
<stop offset="0.385884" stop-color="white"/>
<stop offset="0.632551" stop-color="#E6E6E6"/>
<stop offset="0.856667" stop-color="#1A1A1A"/>
<stop offset="0.998739"/>
</linearGradient>
<linearGradient id="paint19_linear_2442_4109" x1="71.8701" y1="-7.10791" x2="175.517" y2="-7.10791" gradientUnits="userSpaceOnUse">
<stop stop-color="white"/>
<stop offset="0.0436152" stop-color="#B4B4B4"/>
<stop offset="0.150732"/>
<stop offset="0.171421" stop-color="#171717"/>
<stop offset="0.385884" stop-color="white"/>
<stop offset="0.632551" stop-color="#E6E6E6"/>
<stop offset="0.856667" stop-color="#1A1A1A"/>
<stop offset="0.998739"/>
</linearGradient>
<linearGradient id="paint20_linear_2442_4109" x1="84.4141" y1="-8.09263" x2="162.983" y2="-8.09263" gradientUnits="userSpaceOnUse">
<stop stop-color="white"/>
<stop offset="0.0436152" stop-color="#B4B4B4"/>
<stop offset="0.150732"/>
<stop offset="0.171421" stop-color="#171717"/>
<stop offset="0.385884" stop-color="white"/>
<stop offset="0.632551" stop-color="#E6E6E6"/>
<stop offset="0.856667" stop-color="#1A1A1A"/>
<stop offset="0.998739"/>
</linearGradient>
</defs>
</svg>
