<svg width="1653" height="517" viewBox="0 0 1653 517" fill="none" xmlns="http://www.w3.org/2000/svg">
<mask id="mask0_2320_3160" style="mask-type:alpha" maskUnits="userSpaceOnUse" x="0" y="0" width="866" height="517">
<rect width="866" height="517" fill="url(#paint0_linear_2320_3160)"/>
</mask>
<g mask="url(#mask0_2320_3160)">
<circle cx="741.036" cy="331.036" r="2.03604" fill="#1F1F1F"/>
<circle cx="753.761" cy="331.036" r="2.03604" fill="#1F1F1F"/>
<circle cx="766.487" cy="331.036" r="2.03604" fill="#1F1F1F"/>
<circle cx="779.212" cy="331.036" r="2.03604" fill="#1F1F1F"/>
<circle cx="791.936" cy="331.036" r="2.03604" fill="#1F1F1F"/>
<circle cx="804.663" cy="331.036" r="2.03604" fill="#1F1F1F"/>
<circle cx="817.388" cy="331.036" r="2.03604" fill="#1F1F1F"/>
<circle cx="830.112" cy="331.036" r="2.03604" fill="#1F1F1F"/>
<circle cx="842.839" cy="331.036" r="2.03604" fill="#1F1F1F"/>
<circle cx="748.161" cy="341.724" r="2.03604" fill="#1F1F1F"/>
<circle cx="760.886" cy="341.724" r="2.03604" fill="#1F1F1F"/>
<circle cx="773.612" cy="341.724" r="2.03604" fill="#1F1F1F"/>
<circle cx="786.337" cy="341.724" r="2.03604" fill="#1F1F1F"/>
<circle cx="799.061" cy="341.724" r="2.03604" fill="#1F1F1F"/>
<circle cx="811.788" cy="341.724" r="2.03604" fill="#1F1F1F"/>
<circle cx="824.513" cy="341.724" r="2.03604" fill="#1F1F1F"/>
<circle cx="837.237" cy="341.724" r="2.03604" fill="#1F1F1F"/>
<circle cx="849.964" cy="341.724" r="2.03604" fill="#1F1F1F"/>
<g opacity="0.2">
<mask id="mask1_2320_3160" style="mask-type:alpha" maskUnits="userSpaceOnUse" x="-56" y="-182" width="703" height="336">
<path d="M-23.8075 153.202C-39.5028 151.556 -49.4519 146.766 -53.5642 138.837C-58.8378 128.668 -54.455 113.471 -40.5371 93.6686C-25.448 72.2003 1.31151 44.5661 38.9993 11.5334C88.8966 -32.2005 137.201 -68.8291 182.573 -97.3352C221.986 -122.098 260.433 -141.502 296.847 -155.008C360.603 -178.655 409.587 -181.54 453.024 -181.136C499.584 -180.703 538.958 -170.809 570.048 -151.729C597.082 -135.138 617.409 -112.013 630.464 -82.996C657.667 -22.5315 646.335 49.9092 619.666 85.0118C607.154 101.478 591.957 108.7 576.885 105.346C513.052 91.1458 455.945 83.1161 402.291 80.8003C328.359 77.6077 261.866 85.632 204.659 104.649C163.764 118.245 104.019 136.566 51.6303 146.647C19.1967 152.888 -6.00297 155.07 -23.8075 153.202ZM453 -179.787L452.975 -178.437C409.776 -178.839 361.064 -175.971 297.687 -152.465C261.437 -139.02 223.148 -119.694 183.884 -95.0249C138.63 -66.5918 90.4362 -30.0465 40.6438 13.5955C3.11582 46.488 -23.5004 73.962 -38.4648 95.2541C-51.7355 114.135 -56.0517 128.359 -51.2955 137.531C-43.2182 153.105 -7.7807 155.339 51.1882 143.993C103.443 133.937 163.076 115.649 203.899 102.078C261.396 82.9645 328.188 74.8982 402.422 78.1037C456.22 80.4264 513.469 88.474 577.443 102.705C591.514 105.835 605.789 98.9583 617.653 83.3445C643.83 48.8914 654.905 -22.3107 628.129 -81.827C615.297 -110.349 595.311 -133.083 568.728 -149.398C538.028 -168.238 499.085 -178.01 452.975 -178.437L453 -179.787Z" fill="url(#paint1_linear_2320_3160)"/>
</mask>
<g mask="url(#mask1_2320_3160)">
<path d="M-23.8075 153.202C-39.5028 151.556 -49.4519 146.766 -53.5642 138.837C-58.8378 128.668 -54.455 113.471 -40.5371 93.6686C-25.448 72.2003 1.31151 44.5661 38.9993 11.5334C88.8966 -32.2005 137.201 -68.8291 182.573 -97.3352C221.986 -122.098 260.433 -141.502 296.847 -155.008C360.603 -178.655 409.587 -181.54 453.024 -181.136C499.584 -180.703 538.958 -170.809 570.048 -151.729C597.082 -135.138 617.409 -112.013 630.464 -82.996C657.667 -22.5315 646.335 49.9092 619.666 85.0118C607.154 101.478 591.957 108.7 576.885 105.346C513.052 91.1458 455.945 83.1161 402.291 80.8003C328.359 77.6077 261.866 85.632 204.659 104.649C163.764 118.245 104.019 136.566 51.6303 146.647C19.1967 152.888 -6.00297 155.07 -23.8075 153.202ZM453 -179.787L452.975 -178.437C409.776 -178.839 361.064 -175.971 297.687 -152.465C261.437 -139.02 223.148 -119.694 183.884 -95.0249C138.63 -66.5918 90.4362 -30.0465 40.6438 13.5955C3.11582 46.488 -23.5004 73.962 -38.4648 95.2541C-51.7355 114.135 -56.0517 128.359 -51.2955 137.531C-43.2182 153.105 -7.7807 155.339 51.1882 143.993C103.443 133.937 163.076 115.649 203.899 102.078C261.396 82.9645 328.188 74.8982 402.422 78.1037C456.22 80.4264 513.469 88.474 577.443 102.705C591.514 105.835 605.789 98.9583 617.653 83.3445C643.83 48.8914 654.905 -22.3107 628.129 -81.827C615.297 -110.349 595.311 -133.083 568.728 -149.398C538.028 -168.238 499.085 -178.01 452.975 -178.437L453 -179.787Z" fill="#005E9E"/>
</g>
<mask id="mask2_2320_3160" style="mask-type:alpha" maskUnits="userSpaceOnUse" x="-29" y="-169" width="652" height="305">
<path d="M0.813325 134.66C-13.6338 133.144 -22.7743 128.735 -26.5145 121.441C-36.5861 101.801 -8.54489 63.5001 59.2121 4.34911C147.894 -71.1189 230.812 -122.298 305.672 -147.779C366.429 -168.458 411.745 -169.581 451.665 -167.714C492.999 -166.941 527.935 -157.98 555.48 -141.079C579.551 -126.312 597.598 -105.831 609.124 -80.2075C617.069 -62.546 625.734 -33.6031 621.901 3.9806C619.178 30.682 610.334 55.7542 597.636 72.7678C584.824 89.9356 569.19 97.6476 553.613 94.484C437.032 72.4456 314.07 56.9319 204.767 92.3572C167.634 104.39 113.691 120.541 67.5805 129.155C38.9961 134.494 16.697 136.326 0.813325 134.66ZM475.589 -163.728C467.847 -164.541 459.838 -165.025 451.566 -165.179C411.842 -167.037 366.788 -165.922 306.401 -145.368C231.829 -119.986 149.177 -68.9575 60.741 6.30015C26.0787 36.5598 1.47145 61.8352 -12.3853 81.4135C-24.6583 98.7528 -28.6928 111.811 -24.3776 120.225C-17.0685 134.477 13.7361 136.641 67.1768 126.659C113.165 118.069 167.004 101.947 204.071 89.936C313.872 54.3486 437.181 69.8924 554.081 91.9916C568.74 94.9692 583.517 87.5889 595.733 71.2189C608.157 54.5725 616.817 29.9756 619.492 3.73581C621.575 -16.6876 621.086 -47.6385 606.931 -79.1097C595.614 -104.268 577.887 -124.381 554.241 -138.889C532.547 -152.199 506.167 -160.521 475.589 -163.728Z" fill="url(#paint2_linear_2320_3160)"/>
</mask>
<g mask="url(#mask2_2320_3160)">
<path d="M0.811372 134.66C-13.6357 133.144 -22.7762 128.735 -26.5165 121.441C-36.588 101.801 -8.54685 63.5001 59.2101 4.34911C147.892 -71.1189 230.81 -122.298 305.67 -147.779C366.427 -168.458 411.743 -169.581 451.663 -167.714C492.997 -166.941 527.933 -157.98 555.479 -141.079C579.549 -126.312 597.596 -105.831 609.122 -80.2075C617.067 -62.546 625.732 -33.6031 621.899 3.9806C619.176 30.682 610.332 55.7542 597.634 72.7678C584.822 89.9356 569.188 97.6476 553.611 94.484C437.03 72.4456 314.068 56.9319 204.765 92.3572C167.632 104.39 113.69 120.541 67.5786 129.155C38.9942 134.494 16.6951 136.326 0.811372 134.66ZM475.587 -163.728C467.845 -164.541 459.836 -165.025 451.564 -165.179C411.84 -167.037 366.786 -165.922 306.4 -145.368C231.827 -119.986 149.175 -68.9575 60.739 6.30015C26.0767 36.5598 1.4695 61.8352 -12.3872 81.4135C-24.6602 98.7528 -28.6948 111.811 -24.3795 120.225C-17.0705 134.477 13.7342 136.641 67.1749 126.659C113.164 118.069 167.002 101.947 204.069 89.936C313.871 54.3486 437.179 69.8924 554.079 91.9916C568.738 94.9692 583.515 87.5889 595.731 71.2189C608.155 54.5725 616.815 29.9756 619.49 3.73581C621.573 -16.6876 621.085 -47.6385 606.929 -79.1097C595.612 -104.268 577.885 -124.381 554.239 -138.889C532.545 -152.199 506.165 -160.521 475.587 -163.728Z" fill="#005E9E"/>
</g>
<mask id="mask3_2320_3160" style="mask-type:alpha" maskUnits="userSpaceOnUse" x="-2" y="-157" width="602" height="274">
<path d="M25.4144 116.145C12.2006 114.758 3.86967 110.731 0.499519 104.066C-8.56458 86.1428 17.2492 51.1756 79.4148 -2.8338C163.767 -72.2556 242.849 -118.582 314.488 -140.547C372.774 -158.416 415.851 -157.52 450.303 -154.287C486.459 -153.193 517.023 -145.146 541.07 -130.363C562.197 -117.376 577.982 -99.4829 587.987 -77.18C598.024 -54.8087 601.743 -28.9835 598.742 -2.49641C596.005 21.6733 587.913 43.9713 575.957 60.29C562.763 78.2979 546.563 86.5816 530.329 83.6236L521.315 82.2096C472.874 74.6021 417.968 65.9798 363.817 63.4275C301.845 60.5065 249.85 65.9495 204.864 80.0668C156.32 95.2938 115.49 105.929 83.5067 111.677C58.7731 116.122 39.3709 117.609 25.4144 116.145ZM468.943 -150.67C462.863 -151.308 456.597 -151.725 450.147 -151.92C415.839 -155.138 373.028 -156.029 315.106 -138.271C243.748 -116.393 164.926 -70.2065 80.829 -0.994748C20.4982 51.4206 -5.86228 86.3961 2.50459 102.941C8.93124 115.649 36.0608 117.801 83.1436 109.34C115.037 103.608 155.777 92.9947 204.233 77.7955C249.469 63.5995 301.709 58.1248 363.94 61.0577C418.211 63.6158 473.177 72.2471 521.672 79.8639L530.712 81.2824C546.101 84.0779 561.514 76.1223 574.164 58.8578C585.702 43.1084 593.842 20.6518 596.492 -2.7531C599.443 -28.8005 595.792 -54.1825 585.934 -76.155C576.124 -98.0225 560.638 -115.571 539.909 -128.315C520.459 -140.272 496.649 -147.764 468.943 -150.67Z" fill="url(#paint3_linear_2320_3160)"/>
</mask>
<g mask="url(#mask3_2320_3160)">
<path d="M25.4144 116.145C12.2006 114.758 3.86967 110.731 0.499519 104.066C-8.56458 86.1428 17.2492 51.1756 79.4148 -2.8338C163.767 -72.2556 242.849 -118.582 314.488 -140.547C372.774 -158.416 415.851 -157.52 450.303 -154.287C486.459 -153.193 517.023 -145.146 541.07 -130.363C562.197 -117.376 577.982 -99.4829 587.987 -77.18C598.024 -54.8087 601.743 -28.9835 598.742 -2.49641C596.005 21.6733 587.913 43.9713 575.957 60.29C562.763 78.2979 546.563 86.5816 530.329 83.6236L521.315 82.2096C472.874 74.6021 417.968 65.9798 363.817 63.4275C301.845 60.5065 249.85 65.9495 204.864 80.0668C156.32 95.2938 115.49 105.929 83.5067 111.677C58.7731 116.122 39.3709 117.609 25.4144 116.145ZM468.943 -150.67C462.863 -151.308 456.597 -151.725 450.147 -151.92C415.839 -155.138 373.028 -156.029 315.106 -138.271C243.748 -116.393 164.926 -70.2065 80.829 -0.994748C20.4982 51.4206 -5.86228 86.3961 2.50459 102.941C8.93124 115.649 36.0608 117.801 83.1436 109.34C115.037 103.608 155.777 92.9947 204.233 77.7955C249.469 63.5995 301.709 58.1248 363.94 61.0577C418.211 63.6158 473.177 72.2471 521.672 79.8639L530.712 81.2824C546.101 84.0779 561.514 76.1223 574.164 58.8578C585.702 43.1084 593.842 20.6518 596.492 -2.7531C599.443 -28.8005 595.792 -54.1825 585.934 -76.155C576.124 -98.0225 560.638 -115.571 539.909 -128.315C520.459 -140.272 496.649 -147.764 468.943 -150.67Z" fill="#005E9E"/>
</g>
<mask id="mask4_2320_3160" style="mask-type:alpha" maskUnits="userSpaceOnUse" x="25" y="-145" width="552" height="244">
<path d="M49.9244 97.7639C37.9629 96.5091 30.5146 92.8241 27.4806 86.7172C19.4276 70.5048 43.0247 38.8629 99.6214 -10.0161C179.698 -73.4479 254.945 -114.921 323.308 -133.313C379.724 -148.491 420.056 -145.328 448.895 -140.864C523.412 -137.509 554.313 -102.591 567.11 -73.884C575.754 -54.4951 578.779 -32.0167 575.857 -8.8776C573.184 12.2836 565.688 32.3167 554.746 47.5317C541.273 66.2666 523.865 75.4669 507.049 72.763C494.669 71.2155 481.936 69.5279 469.621 67.8962C379.163 55.9116 285.624 43.5168 204.964 67.7772L204.963 67.7771C128.72 90.6907 77.4125 100.647 49.9244 97.7639ZM432.252 -140.818C405.236 -143.652 369.941 -143.584 323.815 -131.174C255.726 -112.856 180.734 -71.5119 100.92 -8.28896C46.0252 39.1211 21.9352 70.7474 29.3547 85.6835C34.9006 96.8489 58.3656 98.9874 99.099 92.0382C126.351 87.3895 160.795 78.7599 204.4 65.6552L204.399 65.6551C285.479 41.2686 379.238 53.6924 469.906 65.7056C482.217 67.3368 494.946 69.0235 507.354 70.5753C523.671 73.1835 539.889 64.5371 553.065 46.2148C563.789 31.3023 571.14 11.6411 573.766 -9.14602C576.635 -31.8677 573.672 -53.9251 565.197 -72.9345C552.64 -101.101 522.241 -135.365 448.73 -138.66L448.675 -138.663L448.621 -138.671C443.535 -139.459 438.085 -140.206 432.252 -140.818Z" fill="url(#paint4_linear_2320_3160)"/>
</mask>
<g mask="url(#mask4_2320_3160)">
<path d="M49.9244 97.7639C37.9629 96.5091 30.5146 92.8241 27.4806 86.7172C19.4276 70.5048 43.0247 38.8629 99.6214 -10.0161C179.698 -73.4479 254.945 -114.921 323.308 -133.313C379.724 -148.491 420.056 -145.328 448.895 -140.864C523.412 -137.509 554.313 -102.591 567.11 -73.884C575.754 -54.4951 578.779 -32.0167 575.857 -8.8776C573.184 12.2836 565.688 32.3167 554.746 47.5317C541.273 66.2666 523.865 75.4669 507.049 72.763C494.669 71.2155 481.936 69.5279 469.621 67.8962C379.163 55.9116 285.624 43.5168 204.964 67.7772L204.963 67.7771C128.72 90.6907 77.4125 100.647 49.9244 97.7639ZM432.252 -140.818C405.236 -143.652 369.941 -143.584 323.815 -131.174C255.726 -112.856 180.734 -71.5119 100.92 -8.28896C46.0252 39.1211 21.9352 70.7474 29.3547 85.6835C34.9006 96.8489 58.3656 98.9874 99.099 92.0382C126.351 87.3895 160.795 78.7599 204.4 65.6552L204.399 65.6551C285.479 41.2686 379.238 53.6924 469.906 65.7056C482.217 67.3368 494.946 69.0235 507.354 70.5753C523.671 73.1835 539.889 64.5371 553.065 46.2148C563.789 31.3023 571.14 11.6411 573.766 -9.14602C576.635 -31.8677 573.672 -53.9251 565.197 -72.9345C552.64 -101.101 522.241 -135.365 448.73 -138.66L448.675 -138.663L448.621 -138.671C443.535 -139.459 438.085 -140.206 432.252 -140.818Z" fill="#005E9E"/>
</g>
<mask id="mask5_2320_3160" style="mask-type:alpha" maskUnits="userSpaceOnUse" x="53" y="-134" width="502" height="214">
<path d="M74.5724 79.3773C64.3874 78.3089 57.2291 75.2198 54.4077 69.4041C47.3678 54.8936 68.766 26.5653 119.826 -17.2002C195.689 -74.6991 267.101 -111.319 332.125 -126.079C373.716 -135.52 411.465 -135.965 447.525 -127.439C510.317 -123.421 536.044 -94.1402 546.551 -70.2833C553.769 -53.8971 556.111 -34.8217 553.325 -15.1205C550.771 2.94358 543.958 20.548 534.141 34.4502C520.414 53.8927 502.565 63.8895 484.994 62.0475C484.583 62.0045 484.176 61.9557 483.765 61.8992C462.475 59.8909 441.346 57.4618 420.914 55.1134C342.394 46.0877 268.228 37.5644 205.06 55.4857L205.059 55.4856C157.347 69.0039 103.643 82.4269 74.5724 79.3773ZM418.992 -130.216C391.696 -133.079 363.166 -131.038 332.521 -124.081C267.766 -109.382 196.602 -72.8786 121.008 -15.5861C71.5178 26.837 49.6807 55.1282 56.1512 68.4645C67.7092 92.2848 167.136 64.1172 204.566 53.5124C268.091 35.4898 342.433 44.0348 421.146 53.0807C441.566 55.4278 462.686 57.8554 483.998 59.8675C501.275 62.2358 518.964 52.5202 532.575 33.2451C542.202 19.6107 548.885 2.33473 551.393 -15.4006C554.123 -34.7086 551.835 -53.3857 544.776 -69.4125C534.484 -92.7788 509.225 -121.468 447.308 -125.403L447.229 -125.408L447.153 -125.426C437.893 -127.619 428.517 -129.216 418.992 -130.216Z" fill="url(#paint5_linear_2320_3160)"/>
</mask>
<g mask="url(#mask5_2320_3160)">
<path d="M74.5744 79.3773C64.3893 78.3089 57.2311 75.2198 54.4096 69.4041C47.3698 54.8936 68.7679 26.5653 119.828 -17.2002C195.691 -74.6991 267.103 -111.319 332.127 -126.079C373.718 -135.52 411.467 -135.965 447.527 -127.439C510.319 -123.421 536.046 -94.1402 546.553 -70.2833C553.771 -53.8971 556.113 -34.8217 553.327 -15.1205C550.773 2.94358 543.96 20.548 534.143 34.4502C520.416 53.8927 502.567 63.8895 484.996 62.0475C484.585 62.0045 484.178 61.9557 483.767 61.8992C462.477 59.8909 441.348 57.4618 420.916 55.1134C342.396 46.0877 268.23 37.5644 205.062 55.4857L205.061 55.4856C157.349 69.0039 103.645 82.4269 74.5744 79.3773ZM418.994 -130.216C391.698 -133.079 363.168 -131.038 332.523 -124.081C267.767 -109.382 196.604 -72.8786 121.009 -15.5861C71.5197 26.837 49.6826 55.1282 56.1532 68.4645C67.7112 92.2848 167.138 64.1172 204.568 53.5124C268.093 35.4898 342.435 44.0348 421.148 53.0807C441.568 55.4278 462.688 57.8554 483.999 59.8675C501.277 62.2358 518.966 52.5202 532.577 33.2451C542.204 19.6107 548.887 2.33473 551.395 -15.4006C554.125 -34.7086 551.837 -53.3857 544.778 -69.4125C534.486 -92.7788 509.227 -121.468 447.31 -125.403L447.231 -125.408L447.155 -125.426C437.895 -127.619 428.519 -129.216 418.994 -130.216Z" fill="#005E9E"/>
</g>
<mask id="mask6_2320_3160" style="mask-type:alpha" maskUnits="userSpaceOnUse" x="80" y="-124" width="453" height="186">
<path d="M98.949 61.0031C89.9103 60.0549 83.6826 57.303 81.2617 52.1466C75.2418 39.3251 94.4682 14.2908 140.037 -24.3878C211.759 -76.0114 279.336 -107.777 340.949 -118.846C391.008 -127.84 425.783 -121.193 446.169 -114.014C497.455 -109.395 518.128 -85.5421 526.407 -66.331C537.717 -40.0899 532.985 -5.79743 514.353 21.0332C499.891 41.8571 479.862 53.0649 460.73 51.0592C460.648 51.0506 460.568 51.0418 460.487 51.0326C430.048 49.0668 401.824 46.149 374.528 43.3276C309.272 36.582 252.916 30.7563 205.16 43.1926C162.658 54.2365 121.819 63.4022 98.949 61.0031ZM409.089 -120.128C357.584 -125.531 267.8 -114.073 141.104 -22.8863C96.9695 14.5776 77.3596 39.5539 82.8762 51.304C91.9725 70.6724 168.138 50.8789 204.742 41.367L204.742 41.3674C252.8 28.8524 309.3 34.6927 374.722 41.4556C402.001 44.2753 430.209 47.1915 460.654 49.1584C460.731 49.167 460.81 49.1757 460.887 49.1839C479.412 51.1271 498.825 40.2087 512.903 19.9372C531.16 -6.35298 535.817 -39.9066 524.768 -65.5441C516.677 -84.3152 496.417 -107.654 445.891 -112.149L445.784 -112.158L445.682 -112.195C437.126 -115.215 424.909 -118.469 409.089 -120.128Z" fill="url(#paint6_linear_2320_3160)"/>
</mask>
<g mask="url(#mask6_2320_3160)">
<path d="M98.949 61.0031C89.9103 60.0549 83.6826 57.303 81.2617 52.1466C75.2418 39.3251 94.4682 14.2908 140.037 -24.3878C211.759 -76.0114 279.336 -107.777 340.949 -118.846C391.008 -127.84 425.783 -121.193 446.169 -114.014C497.455 -109.395 518.128 -85.5421 526.407 -66.331C537.717 -40.0899 532.985 -5.79743 514.353 21.0332C499.891 41.8571 479.862 53.0649 460.73 51.0592C460.648 51.0506 460.568 51.0418 460.487 51.0326C430.048 49.0668 401.824 46.149 374.528 43.3276C309.272 36.582 252.916 30.7563 205.16 43.1926C162.658 54.2365 121.819 63.4022 98.949 61.0031ZM409.089 -120.128C357.584 -125.531 267.8 -114.073 141.104 -22.8863C96.9695 14.5776 77.3596 39.5539 82.8762 51.304C91.9725 70.6724 168.138 50.8789 204.742 41.367L204.742 41.3674C252.8 28.8524 309.3 34.6927 374.722 41.4556C402.001 44.2753 430.209 47.1915 460.654 49.1584C460.731 49.167 460.81 49.1757 460.887 49.1839C479.412 51.1271 498.825 40.2087 512.903 19.9372C531.16 -6.35298 535.817 -39.9066 524.768 -65.5441C516.677 -84.3152 496.417 -107.654 445.891 -112.149L445.784 -112.158L445.682 -112.195C437.126 -115.215 424.909 -118.469 409.089 -120.128Z" fill="#005E9E"/>
</g>
<mask id="mask7_2320_3160" style="mask-type:alpha" maskUnits="userSpaceOnUse" x="107" y="-114" width="405" height="158">
<path d="M123.557 42.7335C115.694 41.9086 110.033 39.5684 107.985 34.9901C102.994 23.8353 120.091 2.06252 160.252 -31.5714C227.911 -77.3769 291.653 -104.288 349.773 -111.608C371.274 -114.316 391.431 -114.216 409.685 -111.319C428.045 -108.402 439.54 -103.368 444.826 -100.579C469.107 -97.5003 487.154 -89.1213 498.464 -75.6741C508.232 -64.0611 512.469 -49.0572 510.717 -32.2842C508.789 -13.8283 499.819 4.89239 486.105 19.0781C471.59 34.0924 454.225 41.5825 437.208 40.1691C396.71 38.7264 361.376 35.2364 330.201 32.1566C279.428 27.1411 239.323 23.1796 205.257 30.9033L203.156 31.378C178.009 37.0634 143.623 44.8384 123.557 42.7335ZM400.294 -110.819C386.633 -112.252 369.88 -112.412 349.953 -109.902C292.085 -102.615 228.58 -75.7928 161.201 -30.1834C122.342 2.36705 104.915 24.0624 109.472 34.2491C116.199 49.2841 170.426 37.024 202.825 29.6994L204.925 29.2246C239.24 21.4444 279.456 25.4174 330.372 30.4471C361.523 33.5241 396.831 37.0118 437.317 38.4549C453.885 39.8301 470.791 32.5162 484.957 17.8623C498.404 3.95234 507.199 -14.3876 509.086 -32.4549C510.786 -48.7374 506.686 -63.2873 497.228 -74.532C486.167 -87.6835 468.417 -95.8793 444.472 -98.8923L444.328 -98.91L444.201 -98.9782C438.995 -101.741 424.503 -108.28 400.294 -110.819Z" fill="url(#paint7_linear_2320_3160)"/>
</mask>
<g mask="url(#mask7_2320_3160)">
<path d="M123.555 42.7335C115.692 41.9086 110.031 39.5684 107.983 34.9901C102.992 23.8353 120.089 2.06252 160.25 -31.5714C227.909 -77.3769 291.651 -104.288 349.771 -111.608C371.272 -114.316 391.429 -114.216 409.683 -111.319C428.043 -108.402 439.538 -103.368 444.824 -100.579C469.105 -97.5003 487.152 -89.1213 498.462 -75.6741C508.23 -64.0611 512.467 -49.0572 510.715 -32.2842C508.787 -13.8283 499.817 4.89239 486.103 19.0781C471.588 34.0924 454.223 41.5825 437.206 40.1691C396.708 38.7264 361.374 35.2364 330.199 32.1566C279.426 27.1411 239.321 23.1796 205.255 30.9033L203.154 31.378C178.007 37.0634 143.621 44.8384 123.555 42.7335ZM400.292 -110.819C386.631 -112.252 369.878 -112.412 349.951 -109.902C292.083 -102.615 228.578 -75.7928 161.199 -30.1834C122.34 2.36705 104.913 24.0624 109.47 34.2491C116.197 49.2841 170.424 37.024 202.823 29.6994L204.923 29.2246C239.238 21.4444 279.454 25.4174 330.37 30.4471C361.521 33.5241 396.829 37.0118 437.315 38.4549C453.883 39.8301 470.789 32.5162 484.955 17.8623C498.402 3.95234 507.197 -14.3876 509.084 -32.4549C510.784 -48.7374 506.684 -63.2873 497.226 -74.532C486.165 -87.6835 468.415 -95.8793 444.47 -98.8923L444.326 -98.91L444.199 -98.9782C438.993 -101.741 424.501 -108.28 400.292 -110.819Z" fill="#005E9E"/>
</g>
<mask id="mask8_2320_3160" style="mask-type:alpha" maskUnits="userSpaceOnUse" x="133" y="-105" width="358" height="135">
<path d="M148.016 24.894C141.136 24.1723 136.162 22.1291 134.458 18.0187C130.506 8.48804 145.552 -10.0831 180.456 -38.7558L180.533 -38.8112C224.267 -66.3004 290.658 -99.9881 358.584 -104.366C378.565 -105.653 397.614 -104.234 413.671 -100.265C426.304 -97.1406 437.154 -92.3607 443.486 -87.1353C490.057 -78.5657 491.748 -48.8248 490.309 -36.4231C488.467 -20.5452 478.905 -3.41648 464.73 9.39614C449.501 23.1631 431.455 30.2332 413.916 29.305C361.519 28.916 320.817 24.6366 288.117 21.1949C252.795 17.4763 227.309 14.7978 205.335 18.6149L205.334 18.6153C203.582 18.9171 201.766 19.2356 199.898 19.5625C182.106 22.6803 161.435 26.3017 148.016 24.894ZM181.328 -37.5064C147.539 -9.74512 132.228 8.72446 135.82 17.3883C140.395 28.416 176.064 22.1655 199.667 18.0299C201.535 17.7027 203.354 17.384 205.106 17.0823C227.275 13.2318 252.856 15.9209 288.28 19.6485C320.961 23.0935 361.612 27.3627 413.973 27.7519C430.91 28.6479 449.047 21.5299 463.766 8.22417C477.665 -4.33935 487.036 -21.0948 488.836 -36.5958C491.775 -61.92 475.08 -79.7956 443.033 -85.6383L442.847 -85.6718L442.701 -85.7947C430.293 -96.1632 399.495 -105.446 358.661 -102.815C321.342 -100.41 260.283 -87.1245 181.328 -37.5064Z" fill="url(#paint8_linear_2320_3160)"/>
</mask>
<g mask="url(#mask8_2320_3160)">
<path d="M148.016 24.894C141.136 24.1723 136.162 22.1291 134.458 18.0187C130.506 8.48804 145.552 -10.0831 180.456 -38.7558L180.533 -38.8112C224.267 -66.3004 290.658 -99.9881 358.584 -104.366C378.565 -105.653 397.614 -104.234 413.671 -100.265C426.304 -97.1406 437.154 -92.3607 443.486 -87.1353C490.057 -78.5657 491.748 -48.8248 490.309 -36.4231C488.467 -20.5452 478.905 -3.41648 464.73 9.39614C449.501 23.1631 431.455 30.2332 413.916 29.305C361.519 28.916 320.817 24.6366 288.117 21.1949C252.795 17.4763 227.309 14.7978 205.335 18.6149L205.334 18.6153C203.582 18.9171 201.766 19.2356 199.898 19.5625C182.106 22.6803 161.435 26.3017 148.016 24.894ZM181.328 -37.5064C147.539 -9.74512 132.228 8.72446 135.82 17.3883C140.395 28.416 176.064 22.1655 199.667 18.0299C201.535 17.7027 203.354 17.384 205.106 17.0823C227.275 13.2318 252.856 15.9209 288.28 19.6485C320.961 23.0935 361.612 27.3627 413.973 27.7519C430.91 28.6479 449.047 21.5299 463.766 8.22417C477.665 -4.33935 487.036 -21.0948 488.836 -36.5958C491.775 -61.92 475.08 -79.7956 443.033 -85.6383L442.847 -85.6718L442.701 -85.7947C430.293 -96.1632 399.495 -105.446 358.661 -102.815C321.342 -100.41 260.283 -87.1245 181.328 -37.5064Z" fill="#005E9E"/>
</g>
<mask id="mask9_2320_3160" style="mask-type:alpha" maskUnits="userSpaceOnUse" x="160" y="-98" width="312" height="117">
<path d="M172.635 7.6327C166.406 6.97923 161.772 5.22579 160.415 1.43734C159.02 -2.45373 161.259 -7.89332 167.259 -15.1922C173.784 -23.1296 185.022 -33.4752 200.662 -45.9405L200.747 -45.9979C275.158 -88.6708 332.442 -97.3523 367.394 -97.1208C407.822 -96.8503 434.417 -84.8166 442.163 -73.6692C470.711 -65.5538 472.65 -48.1982 471.259 -38.5587C467.436 -12.0817 430.614 19.2465 390.621 18.4399C322.898 19.7955 280.445 14.0343 249.448 9.82823C230.605 7.27132 216.991 5.42307 205.393 6.32707L205.391 6.32688C203.489 6.47114 201.499 6.63847 199.461 6.80997C190.184 7.59076 180.225 8.42891 172.635 7.6327ZM201.42 -44.8053C172.44 -21.7032 159.061 -6.3117 161.659 0.938129C164.324 8.37211 183.754 6.73729 199.368 5.42399C201.409 5.25201 203.403 5.08462 205.309 4.94037C217.041 4.02603 230.712 5.88172 249.631 8.44919C280.589 12.6491 322.985 18.404 390.634 17.0501C408.406 17.408 427.608 10.9244 443.342 -0.738241C458.148 -11.7131 468.093 -25.9245 469.945 -38.7535C472.241 -54.6558 462.168 -66.6015 441.579 -72.3902L441.351 -72.4548L441.214 -72.6569C435.059 -81.7757 410.312 -95.4449 367.372 -95.7301C332.585 -95.9608 275.56 -87.3135 201.42 -44.8053Z" fill="url(#paint9_linear_2320_3160)"/>
</mask>
<g mask="url(#mask9_2320_3160)">
<path d="M172.637 7.6327C166.408 6.97923 161.774 5.22579 160.417 1.43734C159.022 -2.45373 161.261 -7.89332 167.261 -15.1922C173.786 -23.1296 185.024 -33.4752 200.664 -45.9405L200.749 -45.9979C275.16 -88.6708 332.444 -97.3523 367.396 -97.1208C407.824 -96.8503 434.419 -84.8166 442.165 -73.6692C470.713 -65.5538 472.652 -48.1982 471.261 -38.5587C467.438 -12.0817 430.616 19.2465 390.623 18.4399C322.9 19.7955 280.447 14.0343 249.45 9.82823C230.607 7.27132 216.993 5.42307 205.395 6.32707L205.393 6.32688C203.491 6.47114 201.501 6.63847 199.463 6.80997C190.186 7.59076 180.227 8.42891 172.637 7.6327ZM201.422 -44.8053C172.442 -21.7032 159.063 -6.3117 161.661 0.938129C164.326 8.37211 183.756 6.73729 199.37 5.42399C201.411 5.25201 203.404 5.08462 205.311 4.94037C217.043 4.02603 230.714 5.88172 249.633 8.44919C280.591 12.6491 322.987 18.404 390.636 17.0501C408.408 17.408 427.61 10.9244 443.344 -0.738241C458.15 -11.7131 468.095 -25.9245 469.947 -38.7535C472.243 -54.6558 462.17 -66.6015 441.581 -72.3902L441.353 -72.4548L441.216 -72.6569C435.061 -81.7757 410.314 -95.4449 367.374 -95.7301C332.587 -95.9608 275.562 -87.3135 201.422 -44.8053Z" fill="#005E9E"/>
</g>
<mask id="mask10_2320_3160" style="mask-type:alpha" maskUnits="userSpaceOnUse" x="184" y="-91" width="271" height="100">
<path d="M268.42 5.89005C243.977 3.32589 228.616 -0.522001 217.95 -3.19358C212.886 -4.46247 208.885 -5.46455 205.398 -5.97806L205.395 -5.97832C204.489 -6.1156 203.57 -6.24799 202.647 -6.38066C194.54 -7.54482 186.157 -8.74895 184.926 -14.0868C183.922 -18.4379 186.557 -27.2197 220.878 -53.1319L220.965 -53.1868C263.189 -74.7278 304.078 -87.1129 342.496 -89.9972C382.827 -93.0252 407.987 -84.5508 419.394 -79.2305C431.124 -73.759 438.919 -66.8232 440.844 -60.1597C454.52 -53.2463 455.782 -44.3196 454.419 -38.0316C452.199 -27.7935 441.055 -16.377 424.609 -7.49354C407.442 1.77985 386.564 7.27037 367.33 7.57094C323.491 9.62061 291.8 8.34262 268.42 5.89005ZM205.573 -7.19261C209.115 -6.67124 213.139 -5.66313 218.234 -4.3871C239.046 0.826241 277.785 10.5296 367.305 6.3447C409.719 5.68194 449.01 -18.6161 453.276 -38.292C455.107 -46.7377 450.55 -53.957 440.097 -59.1691L439.859 -59.2876L439.789 -59.5536C438.09 -65.9486 430.479 -72.7117 418.908 -78.1091C406.136 -84.0667 336.604 -110.808 221.516 -52.1083C196.215 -33.0013 184.618 -20.6616 186.065 -14.3854C187.111 -9.85174 195.096 -8.70471 202.817 -7.59601C203.742 -7.46336 204.664 -7.3307 205.573 -7.19261Z" fill="url(#paint10_linear_2320_3160)"/>
</mask>
<g mask="url(#mask10_2320_3160)">
<path d="M268.422 5.89005C243.979 3.32589 228.618 -0.522001 217.952 -3.19358C212.888 -4.46247 208.887 -5.46455 205.4 -5.97806L205.397 -5.97832C204.491 -6.1156 203.572 -6.24799 202.649 -6.38066C194.542 -7.54482 186.159 -8.74895 184.928 -14.0868C183.924 -18.4379 186.559 -27.2197 220.88 -53.1319L220.967 -53.1868C263.191 -74.7278 304.08 -87.1129 342.498 -89.9972C382.829 -93.0252 407.989 -84.5508 419.396 -79.2305C431.126 -73.759 438.92 -66.8232 440.846 -60.1597C454.522 -53.2463 455.784 -44.3196 454.421 -38.0316C452.201 -27.7935 441.057 -16.377 424.611 -7.49354C407.444 1.77985 386.566 7.27037 367.332 7.57094C323.493 9.62061 291.802 8.34262 268.422 5.89005ZM205.575 -7.19261C209.117 -6.67124 213.141 -5.66313 218.236 -4.3871C239.048 0.826241 277.787 10.5296 367.307 6.3447C409.721 5.68194 449.012 -18.6161 453.278 -38.292C455.109 -46.7377 450.552 -53.957 440.099 -59.1691L439.861 -59.2876L439.791 -59.5536C438.092 -65.9486 430.481 -72.7117 418.91 -78.1091C406.138 -84.0667 336.606 -110.808 221.518 -52.1083C196.217 -33.0013 184.62 -20.6616 186.067 -14.3854C187.113 -9.85174 195.098 -8.70471 202.819 -7.59601C203.744 -7.46336 204.666 -7.3307 205.575 -7.19261Z" fill="#005E9E"/>
</g>
<mask id="mask11_2320_3160" style="mask-type:alpha" maskUnits="userSpaceOnUse" x="203" y="-86" width="240" height="86">
<path d="M249.817 -2.64528C244.328 -3.22111 239.313 -3.94443 234.769 -4.81655C212.383 -9.11194 206.994 -16.152 205.223 -18.4655L205.22 -18.4693C203.466 -20.8041 202.819 -23.1611 203.241 -25.6754C204.508 -33.2215 215.478 -43.2605 241.105 -60.3263L241.183 -60.3688C281.302 -77.8875 321.562 -86.578 357.61 -85.501C398.341 -84.283 419.678 -71.5235 426.961 -66.0934C435.343 -59.845 439.775 -52.9136 439.468 -46.5502C442.517 -42.297 443.123 -38.0415 441.272 -33.8997C436.889 -24.0932 419.883 -17.2861 406.388 -13.3026C388.719 -8.08643 366.574 -4.53248 344.034 -3.29511C304.613 -0.425349 273.022 -0.211007 249.817 -2.64528ZM206.019 -19.1351C217.96 -3.53378 264.376 1.43873 343.982 -4.3562C385.219 -6.62016 433.002 -17.8985 440.353 -34.3425C442.054 -38.147 441.445 -42.0881 438.546 -46.0557L438.431 -46.2132L438.443 -46.4115C438.829 -52.4499 434.541 -59.1314 426.366 -65.2256C395.876 -87.9576 325.052 -95.8285 241.607 -59.4062C216.612 -42.7581 205.436 -32.6176 204.242 -25.501C203.867 -23.2711 204.432 -21.2477 206.019 -19.1336L206.019 -19.1351Z" fill="url(#paint11_linear_2320_3160)"/>
</mask>
<g mask="url(#mask11_2320_3160)">
</g>
<mask id="mask12_2320_3160" style="mask-type:alpha" maskUnits="userSpaceOnUse" x="203" y="-83" width="236" height="73">
<path d="M230.885 -11.2047C216.629 -12.7002 208.06 -15.8355 205.003 -20.6229C203.151 -23.5248 203.273 -26.9919 205.38 -31.2223C208.979 -38.453 220.649 -46.5683 229.804 -52.1027C240.266 -58.4278 252.67 -64.4911 261.403 -67.5498C308.462 -84.0336 345.854 -83.8043 368.921 -80.7185C395.735 -77.1275 418.864 -67.4195 430.792 -54.7498C437.683 -47.4311 440.227 -39.6701 437.957 -32.8965C432.248 -15.8673 403.061 -15.8344 369.265 -15.7962C353.4 -15.7783 336.993 -15.7599 320.739 -14.164C280.049 -10.1696 250.232 -9.17515 230.885 -11.2047ZM261.536 -67.1236L261.668 -66.6974C245.586 -61.0639 212.289 -43.1611 206.141 -30.8127C204.194 -26.9011 204.056 -23.733 205.719 -21.1275C212.637 -10.292 251.312 -8.25179 320.667 -15.0598C336.961 -16.6595 353.387 -16.678 369.273 -16.6956C402.739 -16.7335 431.641 -16.7661 437.145 -33.1866C439.302 -39.6195 436.827 -47.0521 430.177 -54.1152C418.378 -66.6481 395.435 -76.2592 368.804 -79.8262C345.798 -82.9072 308.571 -83.1252 261.668 -66.6974L261.536 -67.1236Z" fill="url(#paint12_linear_2320_3160)"/>
</mask>
<g mask="url(#mask12_2320_3160)">
</g>
</g>
<g opacity="0.2">
<mask id="mask13_2320_3160" style="mask-type:alpha" maskUnits="userSpaceOnUse" x="-262" y="187" width="410" height="508">
<path d="M138.712 472.693C139.828 476.92 140.566 481.264 140.932 485.73C142.873 509.424 133.924 532.784 123.964 554.498C116.896 569.905 126.396 598.808 135.585 626.758C144.701 654.497 153.314 680.695 143.684 690.408C138.954 695.18 130.512 695.574 117.876 691.615C21.1456 661.306 -63.4828 575.365 -117.444 508.607C-178.25 433.381 -224.792 351.833 -239.341 310.158C-257.859 257.109 -269.631 199.041 -254.179 188.907C-248.516 185.193 -240.132 188.359 -229.258 198.315C-188.301 235.82 21.6979 374.146 88.957 414.738C116.429 431.318 132.822 450.373 138.712 472.693ZM123.351 596.34C118.822 579.174 116.736 563.684 121.469 553.366C131.275 531.988 140.088 509.027 138.198 485.958C135.977 458.841 119.403 436.312 87.5328 417.077C20.208 376.446 -190.054 237.931 -231.117 200.33C-240.807 191.457 -248.261 188.296 -252.674 191.19C-264.599 199.011 -257.903 248.664 -236.749 309.255C-222.279 350.708 -175.917 431.905 -115.307 506.889C-61.582 573.354 22.6264 658.902 118.703 689.007C130.103 692.579 137.852 692.404 141.735 688.488C150.186 679.965 141.827 654.537 132.978 627.614C129.517 617.086 126.012 606.423 123.351 596.34Z" fill="url(#paint13_linear_2320_3160)"/>
</mask>
<g mask="url(#mask13_2320_3160)">
<path d="M138.71 472.693C139.826 476.92 140.564 481.264 140.93 485.73C142.871 509.424 133.922 532.784 123.962 554.498C116.894 569.905 126.394 598.808 135.583 626.758C144.699 654.497 153.312 680.695 143.682 690.408C138.952 695.18 130.51 695.574 117.874 691.615C21.1437 661.306 -63.4847 575.365 -117.446 508.607C-178.252 433.381 -224.794 351.833 -239.343 310.158C-257.861 257.109 -269.633 199.041 -254.181 188.907C-248.518 185.193 -240.134 188.359 -229.26 198.315C-188.303 235.82 21.6959 374.146 88.955 414.738C116.427 431.318 132.82 450.373 138.71 472.693ZM123.349 596.34C118.82 579.174 116.734 563.684 121.467 553.366C131.273 531.988 140.086 509.027 138.196 485.958C135.975 458.841 119.401 436.312 87.5309 417.077C20.2061 376.446 -190.056 237.931 -231.119 200.33C-240.809 191.457 -248.263 188.296 -252.676 191.19C-264.601 199.011 -257.905 248.664 -236.751 309.255C-222.281 350.708 -175.919 431.905 -115.308 506.889C-61.584 573.354 22.6244 658.902 118.701 689.007C130.101 692.579 137.85 692.404 141.733 688.488C150.184 679.965 141.825 654.537 132.976 627.614C129.515 617.086 126.01 606.423 123.349 596.34Z" fill="#005E9E"/>
</g>
<mask id="mask14_2320_3160" style="mask-type:alpha" maskUnits="userSpaceOnUse" x="-248" y="205" width="382" height="472">
<path d="M124.402 470.321C125.442 474.261 126.128 478.311 126.464 482.475C128.228 504.324 119.935 526.065 110.711 546.304C104.174 560.651 113.084 587.545 121.704 613.552C130.25 639.341 138.322 663.703 129.393 672.742C125.011 677.177 117.181 677.554 105.455 673.895C15.4617 645.823 -63.2628 565.937 -113.457 503.864C-170.04 433.891 -213.302 358.063 -226.794 319.323C-243.945 270.085 -254.812 216.192 -240.438 206.772C-235.157 203.312 -227.347 206.258 -217.225 215.527C-179.168 250.378 15.8517 378.908 78.3064 416.624C103.76 431.995 118.947 449.651 124.402 470.321ZM110.08 584.725C105.92 568.96 104.033 554.753 108.365 545.245C126.947 504.473 141.38 457.718 76.9677 418.821C14.4522 381.068 -180.815 252.362 -218.971 217.419C-227.984 209.166 -234.918 206.226 -239.025 208.918C-250.109 216.18 -243.941 262.256 -224.359 318.477C-210.94 357.007 -167.848 432.505 -111.45 502.249C-61.4783 564.046 16.8508 643.564 106.229 671.444C116.796 674.741 123.972 674.572 127.558 670.942C135.381 663.021 127.55 639.386 119.257 614.362C115.949 604.379 112.598 594.266 110.08 584.725Z" fill="url(#paint14_linear_2320_3160)"/>
</mask>
<g mask="url(#mask14_2320_3160)">
<path d="M124.404 470.321C125.444 474.261 126.13 478.311 126.466 482.475C128.23 504.324 119.937 526.065 110.713 546.304C104.176 560.651 113.086 587.545 121.706 613.552C130.252 639.341 138.324 663.703 129.395 672.742C125.013 677.177 117.183 677.554 105.457 673.895C15.4637 645.823 -63.2609 565.937 -113.455 503.864C-170.038 433.891 -213.3 358.063 -226.792 319.323C-243.943 270.085 -254.81 216.192 -240.436 206.772C-235.155 203.312 -227.346 206.258 -217.224 215.527C-179.166 250.378 15.8536 378.908 78.3084 416.624C103.762 431.995 118.949 449.651 124.404 470.321ZM110.082 584.725C105.922 568.96 104.035 554.753 108.367 545.245C126.949 504.473 141.382 457.718 76.9696 418.821C14.4541 381.068 -180.813 252.362 -218.969 217.419C-227.982 209.166 -234.916 206.226 -239.023 208.918C-250.107 216.18 -243.939 262.256 -224.357 318.477C-210.938 357.007 -167.846 432.505 -111.448 502.249C-61.4764 564.046 16.8527 643.564 106.231 671.444C116.798 674.741 123.973 674.572 127.56 670.942C135.383 663.021 127.552 639.386 119.259 614.362C115.951 604.379 112.6 594.266 110.082 584.725Z" fill="#005E9E"/>
</g>
<mask id="mask15_2320_3160" style="mask-type:alpha" maskUnits="userSpaceOnUse" x="-233" y="223" width="352" height="436">
<path d="M110.105 467.954C111.069 471.608 111.702 475.361 112.009 479.223C113.675 500.226 105.378 520.634 97.4713 538.113C91.4642 551.4 99.7869 576.284 107.836 600.349C116.156 625.228 123.344 646.714 115.113 655.08C111.081 659.178 103.863 659.538 93.047 656.179C9.78929 630.344 -63.0311 556.512 -109.459 499.124C-161.817 434.406 -201.8 364.298 -214.235 328.492C-230.011 283.075 -239.981 233.345 -226.685 224.641C-221.787 221.434 -214.552 224.16 -205.18 232.743C-170.016 264.948 10.0222 383.678 67.6681 418.514C91.102 432.675 105.085 448.934 110.105 467.954ZM96.8237 573.128C93.032 558.759 91.341 545.829 95.2736 537.129C103.058 519.922 111.226 499.852 109.605 479.417C107.771 456.271 93.6417 437.022 66.4155 420.569C8.71241 385.698 -171.557 266.803 -206.813 234.513C-215.148 226.88 -221.563 224.16 -225.364 226.648C-235.606 233.353 -229.967 275.856 -211.956 327.702C-199.59 363.312 -159.767 433.109 -107.581 497.614C-61.3627 554.743 11.087 628.229 93.7677 653.885L93.7681 653.885C103.5 656.907 110.103 656.743 113.394 653.399C120.591 646.084 113.284 624.238 105.549 601.113C102.394 591.681 99.197 582.122 96.8237 573.128Z" fill="url(#paint15_linear_2320_3160)"/>
</mask>
<g mask="url(#mask15_2320_3160)">
<path d="M110.105 467.954C111.069 471.608 111.702 475.361 112.009 479.223C113.675 500.226 105.378 520.634 97.4713 538.113C91.4642 551.4 99.7869 576.284 107.836 600.349C116.156 625.228 123.344 646.714 115.113 655.08C111.081 659.178 103.863 659.538 93.047 656.179C9.78929 630.344 -63.0311 556.512 -109.459 499.124C-161.817 434.406 -201.8 364.298 -214.235 328.492C-230.011 283.075 -239.981 233.345 -226.685 224.641C-221.787 221.434 -214.552 224.16 -205.18 232.743C-170.016 264.948 10.0222 383.678 67.6681 418.514C91.102 432.675 105.085 448.934 110.105 467.954ZM96.8237 573.128C93.032 558.759 91.341 545.829 95.2736 537.129C103.058 519.922 111.226 499.852 109.605 479.417C107.771 456.271 93.6417 437.022 66.4155 420.569C8.71241 385.698 -171.557 266.803 -206.813 234.513C-215.148 226.88 -221.563 224.16 -225.364 226.648C-235.606 233.353 -229.967 275.856 -211.956 327.702C-199.59 363.312 -159.767 433.109 -107.581 497.614C-61.3627 554.743 11.087 628.229 93.7677 653.885L93.7681 653.885C103.5 656.907 110.103 656.743 113.394 653.399C120.591 646.084 113.284 624.238 105.549 601.113C102.394 591.681 99.197 582.122 96.8237 573.128Z" fill="#005E9E"/>
</g>
<mask id="mask16_2320_3160" style="mask-type:alpha" maskUnits="userSpaceOnUse" x="-219" y="241" width="324" height="400">
<path d="M95.8062 465.582C96.6944 468.948 97.2753 472.408 97.5517 475.967C99.0317 495.029 91.4512 513.81 84.2297 529.917C78.7529 542.145 86.4871 565.021 93.9671 587.142C101.692 609.988 108.364 629.72 100.833 637.413C97.1499 641.175 90.5441 641.517 80.6379 638.458C4.11624 614.86 -62.8001 547.083 -105.461 494.38C-153.596 434.915 -190.299 370.527 -201.677 337.656C-216.084 296.053 -225.153 250.494 -212.934 242.504C-208.418 239.551 -201.757 242.058 -193.137 249.953C-160.871 279.506 4.18835 388.439 57.0286 420.399C78.4442 433.352 91.2218 448.209 95.8062 465.582ZM83.5691 561.545C80.1439 548.565 78.645 536.902 82.1805 529.008C89.2895 513.152 96.7533 494.683 95.3138 476.144C93.6665 454.981 80.7649 437.375 55.8614 422.312C2.96781 390.32 -162.306 281.233 -194.657 251.602C-202.315 244.588 -208.21 242.089 -211.705 244.374C-221.106 250.522 -215.996 289.441 -199.555 336.923C-188.24 369.611 -151.686 433.708 -103.713 492.973C-61.2476 545.434 5.32258 612.889 81.3054 636.321C90.2037 639.069 96.2337 638.91 99.2281 635.852C105.798 629.141 99.0175 609.088 91.8398 587.86C88.8384 578.982 85.7963 569.985 83.5691 561.545Z" fill="url(#paint16_linear_2320_3160)"/>
</mask>
<g mask="url(#mask16_2320_3160)">
<path d="M95.8062 465.582C96.6944 468.948 97.2753 472.408 97.5517 475.967C99.0317 495.029 91.4512 513.81 84.2297 529.917C78.7529 542.145 86.4871 565.021 93.9671 587.142C101.692 609.988 108.364 629.72 100.833 637.413C97.1499 641.175 90.5441 641.517 80.6379 638.458C4.11624 614.86 -62.8001 547.083 -105.461 494.38C-153.596 434.915 -190.299 370.527 -201.677 337.656C-216.084 296.053 -225.153 250.494 -212.934 242.504C-208.418 239.551 -201.757 242.058 -193.137 249.953C-160.871 279.506 4.18835 388.439 57.0286 420.399C78.4442 433.352 91.2218 448.209 95.8062 465.582ZM83.5691 561.545C80.1439 548.565 78.645 536.902 82.1805 529.008C89.2895 513.152 96.7533 494.683 95.3138 476.144C93.6665 454.981 80.7649 437.375 55.8614 422.312C2.96781 390.32 -162.306 281.233 -194.657 251.602C-202.315 244.588 -208.21 242.089 -211.705 244.374C-221.106 250.522 -215.996 289.441 -199.555 336.923C-188.24 369.611 -151.686 433.708 -103.713 492.973C-61.2476 545.434 5.32258 612.889 81.3054 636.321C90.2037 639.069 96.2337 638.91 99.2281 635.852C105.798 629.141 99.0175 609.088 91.8398 587.86C88.8384 578.982 85.7963 569.985 83.5691 561.545Z" fill="#0056BB"/>
</g>
<mask id="mask17_2320_3160" style="mask-type:alpha" maskUnits="userSpaceOnUse" x="-205" y="259" width="295" height="364">
<path d="M81.5077 463.214C82.3203 466.293 82.8479 469.457 83.0944 472.714C84.3893 489.834 77.5245 506.989 70.9883 521.725C66.0418 532.893 73.1884 553.76 80.0978 573.938C87.2263 594.754 93.3841 612.731 86.5524 619.75C83.2184 623.175 77.2245 623.5 68.2277 620.742L68.2283 620.742C-1.55761 599.38 -62.5701 537.657 -101.464 489.639C-145.375 435.429 -178.798 376.76 -189.12 346.825C-202.156 309.035 -210.323 267.648 -199.183 260.373C-195.049 257.673 -188.963 259.959 -181.094 267.169C-151.728 294.068 -1.64685 393.204 46.3883 422.288C65.7848 434.031 77.3578 447.491 81.5077 463.214ZM70.3169 549.987C67.256 538.387 65.9459 527.984 69.0872 520.891C83.672 488.01 93.8493 453.448 45.3068 424.059C-2.77766 394.945 -153.056 295.667 -182.502 268.694C-189.481 262.301 -194.857 260.022 -198.046 262.104C-206.605 267.694 -202.026 303.037 -187.155 346.148C-176.892 375.913 -143.606 434.312 -99.8465 488.336C-61.1334 536.13 -0.442844 597.553 68.842 618.762L68.8424 618.762C76.9065 621.234 82.3633 621.081 85.0622 618.309C91.0049 612.202 84.7522 593.943 78.1308 574.611C75.2838 566.297 72.3959 557.865 70.3169 549.987Z" fill="url(#paint17_linear_2320_3160)"/>
</mask>
<g mask="url(#mask17_2320_3160)">
<path d="M81.5077 463.214C82.3203 466.293 82.8479 469.457 83.0944 472.714C84.3893 489.834 77.5245 506.989 70.9883 521.725C66.0418 532.893 73.1884 553.76 80.0978 573.938C87.2263 594.754 93.3841 612.731 86.5524 619.75C83.2184 623.175 77.2245 623.5 68.2277 620.742L68.2283 620.742C-1.55761 599.38 -62.5701 537.657 -101.464 489.639C-145.375 435.429 -178.798 376.76 -189.12 346.825C-202.156 309.035 -210.323 267.648 -199.183 260.373C-195.049 257.673 -188.963 259.959 -181.094 267.169C-151.728 294.068 -1.64685 393.204 46.3883 422.288C65.7848 434.031 77.3578 447.491 81.5077 463.214ZM70.3169 549.987C67.256 538.387 65.9459 527.984 69.0872 520.891C83.672 488.01 93.8493 453.448 45.3068 424.059C-2.77766 394.945 -153.056 295.667 -182.502 268.694C-189.481 262.301 -194.857 260.022 -198.046 262.104C-206.605 267.694 -202.026 303.037 -187.155 346.148C-176.892 375.913 -143.606 434.312 -99.8465 488.336C-61.1334 536.13 -0.442844 597.553 68.842 618.762L68.8424 618.762C76.9065 621.234 82.3633 621.081 85.0622 618.309C91.0049 612.202 84.7522 593.943 78.1308 574.611C75.2838 566.297 72.3959 557.865 70.3169 549.987Z" fill="#0056BB"/>
</g>
<mask id="mask18_2320_3160" style="mask-type:alpha" maskUnits="userSpaceOnUse" x="-191" y="277" width="266" height="328">
<path d="M67.2083 460.843C67.9451 463.635 68.4197 466.503 68.6357 469.458C69.7458 484.631 63.8647 499.549 57.7455 513.528C53.3286 523.638 60.1811 543.345 66.2286 560.731C72.7622 579.514 78.403 595.737 72.2712 602.082C69.2858 605.172 63.9038 605.478 55.8168 603.021L55.8174 603.021C-7.23206 583.896 -62.3407 528.227 -97.4687 484.895C-137.155 435.938 -167.299 382.99 -176.564 355.988C-188.228 322.017 -195.496 284.796 -185.433 278.236C-181.682 275.79 -176.17 277.857 -169.052 284.379C-142.584 308.628 -7.48261 397.966 35.747 424.174C53.1247 434.707 63.4928 446.769 67.2083 460.843ZM57.0684 538.451C54.3694 528.223 53.2429 519.065 55.9931 512.77C62.0166 499.008 67.8075 484.34 66.7287 469.6C65.4738 452.408 55.0108 438.083 34.7514 425.802C-8.52335 399.568 -143.807 310.098 -170.347 285.783C-176.649 280.009 -181.505 277.95 -184.389 279.83C-192.107 284.863 -188.055 316.634 -174.754 355.368C-165.544 382.212 -135.527 434.911 -95.9806 483.695C-61.0202 526.821 -6.20908 582.214 56.3773 601.197L56.3778 601.198C63.6078 603.395 68.4926 603.249 70.8954 600.762C76.2117 595.261 70.4854 578.793 64.4216 561.357C61.7289 553.614 58.9968 545.759 57.0684 538.451Z" fill="url(#paint18_linear_2320_3160)"/>
</mask>
<g mask="url(#mask18_2320_3160)">
<path d="M67.2064 460.843C67.9431 463.635 68.4178 466.503 68.6337 469.458C69.7439 484.631 63.8628 499.549 57.7436 513.528C53.3267 523.638 60.1791 543.345 66.2266 560.731C72.7602 579.514 78.4011 595.737 72.2693 602.082C69.2839 605.172 63.9018 605.478 55.8149 603.021L55.8154 603.021C-7.23401 583.896 -62.3427 528.227 -97.4706 484.895C-137.157 435.938 -167.301 382.99 -176.566 355.988C-188.23 322.017 -195.498 284.796 -185.435 278.236C-181.684 275.79 -176.172 277.857 -169.053 284.379C-142.586 308.628 -7.48457 397.966 35.745 424.174C53.1227 434.707 63.4909 446.769 67.2064 460.843ZM57.0664 538.451C54.3675 528.223 53.241 519.065 55.9911 512.77C62.0146 499.008 67.8055 484.34 66.7267 469.6C65.4718 452.408 55.0089 438.083 34.7494 425.802C-8.5253 399.568 -143.809 310.098 -170.349 285.783C-176.651 280.009 -181.507 277.95 -184.391 279.83C-192.109 284.863 -188.057 316.634 -174.756 355.368C-165.546 382.212 -135.529 434.911 -95.9825 483.695C-61.0221 526.821 -6.21104 582.214 56.3753 601.197L56.3759 601.198C63.6058 603.395 68.4906 603.249 70.8935 600.762C76.2097 595.261 70.4834 578.793 64.4197 561.357C61.7269 553.614 58.9949 545.759 57.0664 538.451Z" fill="#0056BB"/>
</g>
<mask id="mask19_2320_3160" style="mask-type:alpha" maskUnits="userSpaceOnUse" x="-176" y="295" width="237" height="292">
<path d="M52.9117 458.476C53.5723 460.979 53.9946 463.554 54.1798 466.205C55.1069 479.435 50.1327 492.264 44.5054 505.336C40.6185 514.386 46.8568 531.993 52.3627 547.526C58.2985 564.278 63.4266 578.747 57.9936 584.418C55.3569 587.171 50.5864 587.46 43.4091 585.303C-12.9038 568.416 -62.1088 518.801 -93.47 480.153C-128.932 436.452 -155.797 389.222 -164.005 365.155C-174.298 334.999 -180.666 301.947 -171.681 296.103C-168.312 293.91 -163.374 295.757 -157.006 301.593C-133.441 323.187 -13.3169 402.73 25.1086 426.062C40.4687 435.387 49.6322 446.048 52.9117 458.476ZM43.8269 526.948C41.4867 518.08 40.5382 510.155 42.9011 504.653C52.3709 482.653 65.3425 452.526 24.1983 427.548C-14.2685 404.191 -134.557 324.53 -158.189 302.875C-163.815 297.72 -168.151 295.881 -170.729 297.558C-177.606 302.033 -174.084 330.226 -162.352 364.592C-154.193 388.514 -127.446 435.514 -92.1121 479.057C-60.9048 517.515 -11.9726 566.877 43.9159 583.637L43.9164 583.637C50.3122 585.56 54.6242 585.419 56.7323 583.218C61.4234 578.32 56.2227 563.643 50.7163 548.108C48.1778 540.944 45.6019 533.675 43.8269 526.948Z" fill="url(#paint19_linear_2320_3160)"/>
</mask>
<g mask="url(#mask19_2320_3160)">
<path d="M52.9097 458.476C53.5704 460.979 53.9926 463.554 54.1778 466.205C55.1049 479.435 50.1308 492.264 44.5034 505.336C40.6166 514.386 46.8549 531.993 52.3607 547.526C58.2965 564.278 63.4247 578.747 57.9917 584.418C55.3549 587.171 50.5845 587.46 43.4071 585.303C-12.9058 568.416 -62.1108 518.801 -93.472 480.153C-128.934 436.452 -155.799 389.222 -164.007 365.155C-174.3 334.999 -180.668 301.947 -171.683 296.103C-168.314 293.91 -163.376 295.757 -157.008 301.593C-133.443 323.187 -13.3188 402.73 25.1067 426.062C40.4667 435.387 49.6302 446.048 52.9097 458.476ZM43.8249 526.948C41.4848 518.08 40.5362 510.155 42.8991 504.653C52.369 482.653 65.3405 452.526 24.1964 427.548C-14.2705 404.191 -134.559 324.53 -158.191 302.875C-163.817 297.72 -168.153 295.881 -170.731 297.558C-177.608 302.033 -174.085 330.226 -162.354 364.592C-154.195 388.514 -127.448 435.514 -92.1141 479.057C-60.9068 517.515 -11.9746 566.877 43.914 583.637L43.9145 583.637C50.3103 585.56 54.6223 585.419 56.7304 583.218C61.4214 578.32 56.2208 563.643 50.7143 548.108C48.1759 540.944 45.6 533.675 43.8249 526.948Z" fill="#0056BB"/>
</g>
<mask id="mask20_2320_3160" style="mask-type:alpha" maskUnits="userSpaceOnUse" x="-162" y="313" width="208" height="256">
<path d="M38.5605 456.152C42.3997 470.694 36.2712 485.236 31.2568 497.14C27.9006 505.132 33.526 520.638 38.489 534.319C43.8293 549.041 48.4422 561.755 43.7078 566.753C41.4194 569.17 37.2601 569.441 30.9927 567.583C-18.5842 552.933 -61.8853 509.373 -89.4805 475.41C-120.718 436.963 -144.303 395.453 -151.455 374.32C-160.381 347.976 -165.846 319.097 -157.939 313.967C-154.951 312.028 -150.588 313.656 -144.97 318.804C-124.301 337.75 -19.1572 407.494 14.4615 427.948C29.0593 436.828 36.0102 446.491 38.5605 456.152ZM30.5826 515.486C28.5967 507.961 27.8196 501.25 29.8003 496.533C38.3769 476.173 49.0496 450.835 13.6366 429.292C-20.019 408.816 -125.312 338.964 -146.041 319.964C-150.989 315.428 -154.806 313.811 -157.079 315.286C-163.115 319.203 -160.119 343.817 -149.958 373.815C-142.851 394.815 -119.373 436.115 -88.2522 474.417C-60.7978 508.208 -17.7454 551.539 31.4448 566.074L31.4453 566.074C37.0075 567.723 40.7472 567.588 42.5602 565.674C46.626 561.381 41.9514 548.497 37.0036 534.857C34.6203 528.288 32.2002 521.616 30.5826 515.486Z" fill="url(#paint20_linear_2320_3160)"/>
</mask>
<g mask="url(#mask20_2320_3160)">
<path d="M38.5605 456.152C42.3997 470.694 36.2712 485.236 31.2568 497.14C27.9006 505.132 33.526 520.638 38.489 534.319C43.8293 549.041 48.4422 561.755 43.7078 566.753C41.4194 569.17 37.2601 569.441 30.9927 567.583C-18.5842 552.933 -61.8853 509.373 -89.4805 475.41C-120.718 436.963 -144.303 395.453 -151.455 374.32C-160.381 347.976 -165.846 319.097 -157.939 313.967C-154.951 312.028 -150.588 313.656 -144.97 318.804C-124.301 337.75 -19.1572 407.494 14.4615 427.948C29.0593 436.828 36.0102 446.491 38.5605 456.152ZM30.5826 515.486C28.5967 507.961 27.8196 501.25 29.8003 496.533C38.3769 476.173 49.0496 450.835 13.6366 429.292C-20.019 408.816 -125.312 338.964 -146.041 319.964C-150.989 315.428 -154.806 313.811 -157.079 315.286C-163.115 319.203 -160.119 343.817 -149.958 373.815C-142.851 394.815 -119.373 436.115 -88.2522 474.417C-60.7978 508.208 -17.7454 551.539 31.4448 566.074L31.4453 566.074C37.0075 567.723 40.7472 567.588 42.5602 565.674C46.626 561.381 41.9514 548.497 37.0036 534.857C34.6203 528.288 32.2002 521.616 30.5826 515.486Z" fill="#0056BB"/>
</g>
<mask id="mask21_2320_3160" style="mask-type:alpha" maskUnits="userSpaceOnUse" x="-148" y="331" width="180" height="220">
<path d="M24.2898 453.718C27.4834 465.815 22.4858 478.026 18.1247 488.685L18.0173 488.947C15.192 495.879 20.2036 509.286 24.6263 521.115C29.3711 533.806 33.4692 544.765 29.4323 549.091C27.4916 551.171 23.9434 551.425 18.5862 549.868C-24.2558 537.454 -61.6535 499.948 -85.4821 470.669C-112.495 437.479 -132.8 401.688 -138.896 383.488C-146.453 360.954 -151.018 336.25 -144.188 331.834C-141.582 330.149 -137.792 331.557 -132.925 336.02C-115.16 352.309 -24.9924 412.258 3.82354 429.838C16.2181 437.399 22.1296 445.533 24.2898 453.718ZM17.3543 504.079C15.7178 497.877 15.1031 492.357 16.7087 488.418L16.8157 488.155C24.2968 469.873 32.7734 449.15 3.08398 431.04C-25.7646 413.44 -116.065 353.395 -133.883 337.057C-138.154 333.141 -141.453 331.743 -143.421 333.016C-148.616 336.374 -146.148 357.414 -137.556 383.04C-131.499 401.12 -111.29 436.72 -84.3833 469.781C-60.6818 498.903 -23.5087 536.203 18.983 548.515L18.9835 548.515C23.7114 549.89 26.879 549.761 28.3984 548.133C31.8403 544.444 27.4997 532.836 23.3021 521.609C21.0738 515.649 18.8098 509.594 17.3543 504.079Z" fill="url(#paint21_linear_2320_3160)"/>
</mask>
<g mask="url(#mask21_2320_3160)">
<path d="M24.2878 453.718C27.4815 465.815 22.4838 478.026 18.1228 488.685L18.0153 488.947C15.19 495.879 20.2017 509.286 24.6243 521.115C29.3692 533.806 33.4673 544.765 29.4304 549.091C27.4897 551.171 23.9415 551.425 18.5843 549.868C-24.2577 537.454 -61.6554 499.948 -85.484 470.669C-112.497 437.479 -132.802 401.688 -138.898 383.488C-146.455 360.954 -151.019 336.25 -144.19 331.834C-141.584 330.149 -137.794 331.557 -132.927 336.02C-115.162 352.309 -24.9944 412.258 3.82158 429.838C16.2161 437.399 22.1277 445.533 24.2878 453.718ZM17.3523 504.079C15.7159 497.877 15.1012 492.357 16.7067 488.418L16.8138 488.155C24.2948 469.873 32.7715 449.15 3.08203 431.04C-25.7666 413.44 -116.067 353.395 -133.885 337.057C-138.156 333.141 -141.455 331.743 -143.423 333.016C-148.618 336.374 -146.15 357.414 -137.558 383.04C-131.501 401.12 -111.292 436.72 -84.3853 469.781C-60.6838 498.903 -23.5107 536.203 18.9811 548.515L18.9816 548.515C23.7095 549.89 26.877 549.761 28.3965 548.133C31.8384 544.444 27.4977 532.836 23.3001 521.609C21.0719 515.649 18.8078 509.594 17.3523 504.079Z" fill="#0056BB"/>
</g>
<mask id="mask22_2320_3160" style="mask-type:alpha" maskUnits="userSpaceOnUse" x="-134" y="349" width="151" height="184">
<path d="M9.93436 451.342C12.5099 461.098 8.63686 470.927 5.25435 479.515L4.76923 480.748C2.47437 486.622 6.87446 497.93 10.7577 507.906C14.9066 518.566 18.4895 527.771 15.1501 531.425C13.5558 533.169 10.6186 533.405 6.17035 532.146C-60.4782 513.363 -117.382 419.802 -126.346 392.652C-129.798 382.212 -132.16 372.285 -132.997 364.7C-133.912 356.422 -133.054 351.373 -130.448 349.697C-128.222 348.265 -125.006 349.454 -120.889 353.23C-106.028 366.862 -30.8369 417.016 -6.82334 431.722C3.32931 437.939 8.16074 444.624 9.93436 451.342ZM4.12608 492.736C2.83129 487.83 2.36805 483.471 3.60796 480.298L4.0939 479.063C9.92453 464.261 16.5327 447.483 -7.47757 432.782C-31.52 418.058 -106.827 367.82 -121.735 354.145C-125.33 350.848 -128.109 349.67 -129.773 350.74C-134.128 353.543 -132.187 371.01 -125.162 392.261C-116.247 419.261 -59.6917 512.293 6.51148 530.95L6.51215 530.95C10.4062 532.052 13.0027 531.93 14.2293 530.588C17.0479 527.505 13.259 517.771 9.59506 508.357C7.52181 503.031 5.41296 497.613 4.12608 492.736Z" fill="url(#paint22_linear_2320_3160)"/>
</mask>
<g mask="url(#mask22_2320_3160)">
<path d="M9.93436 451.342C12.5099 461.098 8.63686 470.927 5.25435 479.515L4.76923 480.748C2.47437 486.622 6.87446 497.93 10.7577 507.906C14.9066 518.566 18.4895 527.771 15.1501 531.425C13.5558 533.169 10.6186 533.405 6.17035 532.146C-60.4782 513.363 -117.382 419.802 -126.346 392.652C-129.798 382.212 -132.16 372.285 -132.997 364.7C-133.912 356.422 -133.054 351.373 -130.448 349.697C-128.222 348.265 -125.006 349.454 -120.889 353.23C-106.028 366.862 -30.8369 417.016 -6.82334 431.722C3.32931 437.939 8.16074 444.624 9.93436 451.342ZM4.12608 492.736C2.83129 487.83 2.36805 483.471 3.60796 480.298L4.0939 479.063C9.92453 464.261 16.5327 447.483 -7.47757 432.782C-31.52 418.058 -106.827 367.82 -121.735 354.145C-125.33 350.848 -128.109 349.67 -129.773 350.74C-134.128 353.543 -132.187 371.01 -125.162 392.261C-116.247 419.261 -59.6917 512.293 6.51148 530.95L6.51215 530.95C10.4062 532.052 13.0027 531.93 14.2293 530.588C17.0479 527.505 13.259 517.771 9.59506 508.357C7.52181 503.031 5.41296 497.613 4.12608 492.736Z" fill="#005E9E"/>
</g>
<mask id="mask23_2320_3160" style="mask-type:alpha" maskUnits="userSpaceOnUse" x="-120" y="367" width="122" height="149">
<path d="M-4.28464 448.96C-2.36117 456.249 -5.12112 463.612 -7.68271 470.445C-7.94768 471.151 -8.21082 471.854 -8.46731 472.551C-10.2325 477.368 -6.44048 486.576 -3.09565 494.698C0.457944 503.327 3.52631 510.78 0.882138 513.762C-0.366941 515.171 -2.69471 515.388 -6.23445 514.429C-60.748 499.695 -106.655 423.884 -113.785 401.818C-118.256 388.006 -121.695 370.752 -116.698 367.562C-114.853 366.383 -112.209 367.353 -108.842 370.443C-96.8864 381.418 -36.6704 421.779 -17.4589 433.612C-9.4549 438.54 -5.66452 443.731 -4.28464 448.96ZM-9.07989 481.494C-10.0431 477.844 -10.3692 474.604 -9.48239 472.183C-9.22467 471.483 -8.96073 470.778 -8.69512 470.069C-4.23361 458.17 0.377864 445.863 -18.0282 434.527C-37.2644 422.68 -97.5794 382.247 -109.575 371.237C-111.611 369.368 -114.398 367.371 -116.116 368.468C-119.632 370.713 -118.218 384.597 -112.757 401.486C-105.67 423.418 -60.0685 498.762 -5.94931 513.389L-5.94878 513.389C-2.88866 514.219 -0.862806 514.105 0.0730308 513.05C2.27047 510.57 -0.965802 502.71 -4.09541 495.109C-6.01537 490.447 -7.97047 485.698 -9.07989 481.494Z" fill="url(#paint23_linear_2320_3160)"/>
</mask>
<g mask="url(#mask23_2320_3160)">
<path d="M-4.28464 448.96C-2.36117 456.249 -5.12112 463.612 -7.68271 470.445C-7.94768 471.151 -8.21082 471.854 -8.46731 472.551C-10.2325 477.368 -6.44048 486.576 -3.09565 494.698C0.457944 503.327 3.52631 510.78 0.882138 513.762C-0.366941 515.171 -2.69471 515.388 -6.23445 514.429C-60.748 499.695 -106.655 423.884 -113.785 401.818C-118.256 388.006 -121.695 370.752 -116.698 367.562C-114.853 366.383 -112.209 367.353 -108.842 370.443C-96.8864 381.418 -36.6704 421.779 -17.4589 433.612C-9.4549 438.54 -5.66452 443.731 -4.28464 448.96ZM-9.07989 481.494C-10.0431 477.844 -10.3692 474.604 -9.48239 472.183C-9.22467 471.483 -8.96073 470.778 -8.69512 470.069C-4.23361 458.17 0.377864 445.863 -18.0282 434.527C-37.2644 422.68 -97.5794 382.247 -109.575 371.237C-111.611 369.368 -114.398 367.371 -116.116 368.468C-119.632 370.713 -118.218 384.597 -112.757 401.486C-105.67 423.418 -60.0685 498.762 -5.94931 513.389L-5.94878 513.389C-2.88866 514.219 -0.862806 514.105 0.0730308 513.05C2.27047 510.57 -0.965802 502.71 -4.09541 495.109C-6.01537 490.447 -7.97047 485.698 -9.07989 481.494Z" fill="#0056BB"/>
</g>
</g>
</g>
<circle cx="1435" cy="4" r="4" fill="#004BBB"/>
<circle cx="1460" cy="4" r="4" fill="#004BBB"/>
<circle cx="1485" cy="4" r="4" fill="#004BBB"/>
<circle cx="1510" cy="4" r="4" fill="#004BBB"/>
<circle cx="1535" cy="4" r="4" fill="#004BBB"/>
<circle cx="1560" cy="4" r="4" fill="#004BBB"/>
<circle cx="1585" cy="4" r="4" fill="#004BBB"/>
<circle cx="1610" cy="4" r="4" fill="#004BBB"/>
<circle cx="1635" cy="4" r="4" fill="#004BBB"/>
<circle cx="1449" cy="25" r="4" fill="#004BBB"/>
<circle cx="1474" cy="25" r="4" fill="#004BBB"/>
<circle cx="1499" cy="25" r="4" fill="#004BBB"/>
<circle cx="1524" cy="25" r="4" fill="#004BBB"/>
<circle cx="1549" cy="25" r="4" fill="#004BBB"/>
<circle cx="1574" cy="25" r="4" fill="#004BBB"/>
<circle cx="1599" cy="25" r="4" fill="#004BBB"/>
<circle cx="1624" cy="25" r="4" fill="#004BBB"/>
<circle cx="1649" cy="25" r="4" fill="#004BBB"/>
<defs>
<linearGradient id="paint0_linear_2320_3160" x1="6.46975e-06" y1="21.714" x2="935.123" y2="211.556" gradientUnits="userSpaceOnUse">
<stop stop-color="#F9F9F9"/>
<stop offset="0.0001" stop-color="#FCFCFC"/>
<stop offset="1" stop-color="#FAFAFB"/>
</linearGradient>
<linearGradient id="paint1_linear_2320_3160" x1="-37.9848" y1="-41.1922" x2="643.211" y2="30.2663" gradientUnits="userSpaceOnUse">
<stop stop-color="white"/>
<stop offset="0.0436152" stop-color="#B4B4B4"/>
<stop offset="0.150732"/>
<stop offset="0.171421" stop-color="#171717"/>
<stop offset="0.385884" stop-color="white"/>
<stop offset="0.632551" stop-color="#E6E6E6"/>
<stop offset="0.856667" stop-color="#1A1A1A"/>
<stop offset="0.998739"/>
</linearGradient>
<linearGradient id="paint2_linear_2320_3160" x1="-12.4055" y1="-42.0992" x2="619.779" y2="24.2179" gradientUnits="userSpaceOnUse">
<stop stop-color="white"/>
<stop offset="0.0436152" stop-color="#B4B4B4"/>
<stop offset="0.150732"/>
<stop offset="0.171421" stop-color="#171717"/>
<stop offset="0.385884" stop-color="white"/>
<stop offset="0.632551" stop-color="#E6E6E6"/>
<stop offset="0.856667" stop-color="#1A1A1A"/>
<stop offset="0.998739"/>
</linearGradient>
<linearGradient id="paint3_linear_2320_3160" x1="13.2178" y1="-42.9989" x2="596.577" y2="18.1964" gradientUnits="userSpaceOnUse">
<stop stop-color="white"/>
<stop offset="0.0436152" stop-color="#B4B4B4"/>
<stop offset="0.150732"/>
<stop offset="0.171421" stop-color="#171717"/>
<stop offset="0.385884" stop-color="white"/>
<stop offset="0.632551" stop-color="#E6E6E6"/>
<stop offset="0.856667" stop-color="#1A1A1A"/>
<stop offset="0.998739"/>
</linearGradient>
<linearGradient id="paint4_linear_2320_3160" x1="38.8072" y1="-43.8581" x2="573.672" y2="12.25" gradientUnits="userSpaceOnUse">
<stop stop-color="white"/>
<stop offset="0.0436152" stop-color="#B4B4B4"/>
<stop offset="0.150732"/>
<stop offset="0.171421" stop-color="#171717"/>
<stop offset="0.385884" stop-color="white"/>
<stop offset="0.632551" stop-color="#E6E6E6"/>
<stop offset="0.856667" stop-color="#1A1A1A"/>
<stop offset="0.998739"/>
</linearGradient>
<linearGradient id="paint5_linear_2320_3160" x1="64.4362" y1="-45.5758" x2="551.24" y2="5.49058" gradientUnits="userSpaceOnUse">
<stop stop-color="white"/>
<stop offset="0.0436152" stop-color="#B4B4B4"/>
<stop offset="0.150732"/>
<stop offset="0.171421" stop-color="#171717"/>
<stop offset="0.385884" stop-color="white"/>
<stop offset="0.632551" stop-color="#E6E6E6"/>
<stop offset="0.856667" stop-color="#1A1A1A"/>
<stop offset="0.998739"/>
</linearGradient>
<linearGradient id="paint6_linear_2320_3160" x1="90.0461" y1="-47.7416" x2="529.433" y2="-1.64926" gradientUnits="userSpaceOnUse">
<stop stop-color="white"/>
<stop offset="0.0436152" stop-color="#B4B4B4"/>
<stop offset="0.150732"/>
<stop offset="0.171421" stop-color="#171717"/>
<stop offset="0.385884" stop-color="white"/>
<stop offset="0.632551" stop-color="#E6E6E6"/>
<stop offset="0.856667" stop-color="#1A1A1A"/>
<stop offset="0.998739"/>
</linearGradient>
<linearGradient id="paint7_linear_2320_3160" x1="115.573" y1="-50.2587" x2="508.281" y2="-9.06299" gradientUnits="userSpaceOnUse">
<stop stop-color="white"/>
<stop offset="0.0436152" stop-color="#B4B4B4"/>
<stop offset="0.150732"/>
<stop offset="0.171421" stop-color="#171717"/>
<stop offset="0.385884" stop-color="white"/>
<stop offset="0.632551" stop-color="#E6E6E6"/>
<stop offset="0.856667" stop-color="#1A1A1A"/>
<stop offset="0.998739"/>
</linearGradient>
<linearGradient id="paint8_linear_2320_3160" x1="140.896" y1="-53.0516" x2="488.234" y2="-16.6154" gradientUnits="userSpaceOnUse">
<stop stop-color="white"/>
<stop offset="0.0436152" stop-color="#B4B4B4"/>
<stop offset="0.150732"/>
<stop offset="0.171421" stop-color="#171717"/>
<stop offset="0.385884" stop-color="white"/>
<stop offset="0.632551" stop-color="#E6E6E6"/>
<stop offset="0.856667" stop-color="#1A1A1A"/>
<stop offset="0.998739"/>
</linearGradient>
<linearGradient id="paint9_linear_2320_3160" x1="165.756" y1="-56.1514" x2="469.783" y2="-24.2584" gradientUnits="userSpaceOnUse">
<stop stop-color="white"/>
<stop offset="0.0436152" stop-color="#B4B4B4"/>
<stop offset="0.150732"/>
<stop offset="0.171421" stop-color="#171717"/>
<stop offset="0.385884" stop-color="white"/>
<stop offset="0.632551" stop-color="#E6E6E6"/>
<stop offset="0.856667" stop-color="#1A1A1A"/>
<stop offset="0.998739"/>
</linearGradient>
<linearGradient id="paint10_linear_2320_3160" x1="188.969" y1="-55.9961" x2="453.507" y2="-28.2456" gradientUnits="userSpaceOnUse">
<stop stop-color="white"/>
<stop offset="0.0436152" stop-color="#B4B4B4"/>
<stop offset="0.150732"/>
<stop offset="0.171421" stop-color="#171717"/>
<stop offset="0.385884" stop-color="white"/>
<stop offset="0.632551" stop-color="#E6E6E6"/>
<stop offset="0.856667" stop-color="#1A1A1A"/>
<stop offset="0.998739"/>
</linearGradient>
<linearGradient id="paint11_linear_2320_3160" x1="206.254" y1="-54.5703" x2="441.462" y2="-29.8967" gradientUnits="userSpaceOnUse">
<stop stop-color="white"/>
<stop offset="0.0436152" stop-color="#B4B4B4"/>
<stop offset="0.150732"/>
<stop offset="0.171421" stop-color="#171717"/>
<stop offset="0.385884" stop-color="white"/>
<stop offset="0.632551" stop-color="#E6E6E6"/>
<stop offset="0.856667" stop-color="#1A1A1A"/>
<stop offset="0.998739"/>
</linearGradient>
<linearGradient id="paint12_linear_2320_3160" x1="206.865" y1="-55.757" x2="438.183" y2="-31.4914" gradientUnits="userSpaceOnUse">
<stop stop-color="white"/>
<stop offset="0.0436152" stop-color="#B4B4B4"/>
<stop offset="0.150732"/>
<stop offset="0.171421" stop-color="#171717"/>
<stop offset="0.385884" stop-color="white"/>
<stop offset="0.632551" stop-color="#E6E6E6"/>
<stop offset="0.856667" stop-color="#1A1A1A"/>
<stop offset="0.998739"/>
</linearGradient>
<linearGradient id="paint13_linear_2320_3160" x1="35.6735" y1="720.645" x2="-114.498" y2="151.561" gradientUnits="userSpaceOnUse">
<stop stop-color="white"/>
<stop offset="0.0436152" stop-color="#B4B4B4"/>
<stop offset="0.150732"/>
<stop offset="0.171421" stop-color="#171717"/>
<stop offset="0.385884" stop-color="white"/>
<stop offset="0.632551" stop-color="#E6E6E6"/>
<stop offset="0.856667" stop-color="#1A1A1A"/>
<stop offset="0.998739"/>
</linearGradient>
<linearGradient id="paint14_linear_2320_3160" x1="28.7687" y1="700.915" x2="-110.776" y2="172.103" gradientUnits="userSpaceOnUse">
<stop stop-color="white"/>
<stop offset="0.0436152" stop-color="#B4B4B4"/>
<stop offset="0.150732"/>
<stop offset="0.171421" stop-color="#171717"/>
<stop offset="0.385884" stop-color="white"/>
<stop offset="0.632551" stop-color="#E6E6E6"/>
<stop offset="0.856667" stop-color="#1A1A1A"/>
<stop offset="0.998739"/>
</linearGradient>
<linearGradient id="paint15_linear_2320_3160" x1="21.8771" y1="681.188" x2="-107.04" y2="192.649" gradientUnits="userSpaceOnUse">
<stop stop-color="white"/>
<stop offset="0.0436152" stop-color="#B4B4B4"/>
<stop offset="0.150732"/>
<stop offset="0.171421" stop-color="#171717"/>
<stop offset="0.385884" stop-color="white"/>
<stop offset="0.632551" stop-color="#E6E6E6"/>
<stop offset="0.856667" stop-color="#1A1A1A"/>
<stop offset="0.998739"/>
</linearGradient>
<linearGradient id="paint16_linear_2320_3160" x1="14.9827" y1="661.457" x2="-103.308" y2="213.189" gradientUnits="userSpaceOnUse">
<stop stop-color="white"/>
<stop offset="0.0436152" stop-color="#B4B4B4"/>
<stop offset="0.150732"/>
<stop offset="0.171421" stop-color="#171717"/>
<stop offset="0.385884" stop-color="white"/>
<stop offset="0.632551" stop-color="#E6E6E6"/>
<stop offset="0.856667" stop-color="#1A1A1A"/>
<stop offset="0.998739"/>
</linearGradient>
<linearGradient id="paint17_linear_2320_3160" x1="8.08846" y1="641.73" x2="-99.5747" y2="233.735" gradientUnits="userSpaceOnUse">
<stop stop-color="white"/>
<stop offset="0.0436152" stop-color="#B4B4B4"/>
<stop offset="0.150732"/>
<stop offset="0.171421" stop-color="#171717"/>
<stop offset="0.385884" stop-color="white"/>
<stop offset="0.632551" stop-color="#E6E6E6"/>
<stop offset="0.856667" stop-color="#1A1A1A"/>
<stop offset="0.998739"/>
</linearGradient>
<linearGradient id="paint18_linear_2320_3160" x1="1.19268" y1="622" x2="-95.8435" y2="254.275" gradientUnits="userSpaceOnUse">
<stop stop-color="white"/>
<stop offset="0.0436152" stop-color="#B4B4B4"/>
<stop offset="0.150732"/>
<stop offset="0.171421" stop-color="#171717"/>
<stop offset="0.385884" stop-color="white"/>
<stop offset="0.632551" stop-color="#E6E6E6"/>
<stop offset="0.856667" stop-color="#1A1A1A"/>
<stop offset="0.998739"/>
</linearGradient>
<linearGradient id="paint19_linear_2320_3160" x1="-5.70074" y1="602.273" x2="-92.1102" y2="274.819" gradientUnits="userSpaceOnUse">
<stop stop-color="white"/>
<stop offset="0.0436152" stop-color="#B4B4B4"/>
<stop offset="0.150732"/>
<stop offset="0.171421" stop-color="#171717"/>
<stop offset="0.385884" stop-color="white"/>
<stop offset="0.632551" stop-color="#E6E6E6"/>
<stop offset="0.856667" stop-color="#1A1A1A"/>
<stop offset="0.998739"/>
</linearGradient>
<linearGradient id="paint20_linear_2320_3160" x1="-12.6313" y1="582.552" x2="-88.4145" y2="295.367" gradientUnits="userSpaceOnUse">
<stop stop-color="white"/>
<stop offset="0.0436152" stop-color="#B4B4B4"/>
<stop offset="0.150732"/>
<stop offset="0.171421" stop-color="#171717"/>
<stop offset="0.385884" stop-color="white"/>
<stop offset="0.632551" stop-color="#E6E6E6"/>
<stop offset="0.856667" stop-color="#1A1A1A"/>
<stop offset="0.998739"/>
</linearGradient>
<linearGradient id="paint21_linear_2320_3160" x1="-19.5059" y1="562.823" x2="-84.6629" y2="315.907" gradientUnits="userSpaceOnUse">
<stop stop-color="white"/>
<stop offset="0.0436152" stop-color="#B4B4B4"/>
<stop offset="0.150732"/>
<stop offset="0.171421" stop-color="#171717"/>
<stop offset="0.385884" stop-color="white"/>
<stop offset="0.632551" stop-color="#E6E6E6"/>
<stop offset="0.856667" stop-color="#1A1A1A"/>
<stop offset="0.998739"/>
</linearGradient>
<linearGradient id="paint22_linear_2320_3160" x1="-26.4398" y1="543.103" x2="-80.9708" y2="336.455" gradientUnits="userSpaceOnUse">
<stop stop-color="white"/>
<stop offset="0.0436152" stop-color="#B4B4B4"/>
<stop offset="0.150732"/>
<stop offset="0.171421" stop-color="#171717"/>
<stop offset="0.385884" stop-color="white"/>
<stop offset="0.632551" stop-color="#E6E6E6"/>
<stop offset="0.856667" stop-color="#1A1A1A"/>
<stop offset="0.998739"/>
</linearGradient>
<linearGradient id="paint23_linear_2320_3160" x1="-33.2994" y1="523.373" x2="-77.2055" y2="356.988" gradientUnits="userSpaceOnUse">
<stop stop-color="white"/>
<stop offset="0.0436152" stop-color="#B4B4B4"/>
<stop offset="0.150732"/>
<stop offset="0.171421" stop-color="#171717"/>
<stop offset="0.385884" stop-color="white"/>
<stop offset="0.632551" stop-color="#E6E6E6"/>
<stop offset="0.856667" stop-color="#1A1A1A"/>
<stop offset="0.998739"/>
</linearGradient>
</defs>
</svg>
