<svg width="866" height="517" viewBox="0 0 866 517" fill="none" xmlns="http://www.w3.org/2000/svg">
<mask id="mask0_2322_3173" style="mask-type:alpha" maskUnits="userSpaceOnUse" x="0" y="0" width="866" height="517">
<rect width="866" height="517" fill="url(#paint0_linear_2322_3173)"/>
</mask>
<g mask="url(#mask0_2322_3173)">
<circle cx="741.036" cy="86.036" r="2.03604" fill="#1F1F1F"/>
<circle cx="753.761" cy="86.036" r="2.03604" fill="#1F1F1F"/>
<circle cx="766.487" cy="86.036" r="2.03604" fill="#1F1F1F"/>
<circle cx="779.212" cy="86.036" r="2.03604" fill="#1F1F1F"/>
<circle cx="791.936" cy="86.036" r="2.03604" fill="#1F1F1F"/>
<circle cx="804.663" cy="86.036" r="2.03604" fill="#1F1F1F"/>
<circle cx="817.388" cy="86.036" r="2.03604" fill="#1F1F1F"/>
<circle cx="830.112" cy="86.036" r="2.03604" fill="#1F1F1F"/>
<circle cx="842.839" cy="86.036" r="2.03604" fill="#1F1F1F"/>
<circle cx="748.161" cy="96.7235" r="2.03604" fill="#1F1F1F"/>
<circle cx="760.886" cy="96.7235" r="2.03604" fill="#1F1F1F"/>
<circle cx="773.612" cy="96.7235" r="2.03604" fill="#1F1F1F"/>
<circle cx="786.337" cy="96.7235" r="2.03604" fill="#1F1F1F"/>
<circle cx="799.061" cy="96.7235" r="2.03604" fill="#1F1F1F"/>
<circle cx="811.788" cy="96.7235" r="2.03604" fill="#1F1F1F"/>
<circle cx="824.513" cy="96.7235" r="2.03604" fill="#1F1F1F"/>
<circle cx="837.237" cy="96.7235" r="2.03604" fill="#1F1F1F"/>
<circle cx="849.964" cy="96.7235" r="2.03604" fill="#1F1F1F"/>
<g opacity="0.2">
<mask id="mask1_2322_3173" style="mask-type:alpha" maskUnits="userSpaceOnUse" x="-425" y="-113" width="699" height="379">
<path d="M-404.097 24.536C-417.364 15.7954 -424.245 6.83003 -424.661 -2.31521C-425.195 -14.0433 -415.101 -25.9162 -394.661 -37.6046C-372.501 -50.2759 -337.461 -63.2046 -290.514 -76.0309C-228.357 -93.0123 -170.513 -104.232 -118.59 -109.378C-73.4841 -113.848 -31.4233 -113.864 6.42488 -109.425C72.6923 -101.654 117.37 -81.711 155.779 -61.3169C196.95 -39.4578 227.879 -12.2612 247.703 19.5146C264.941 47.1456 273.556 77.6577 273.309 110.204C272.794 178.024 233.172 239.029 195.164 258.827C177.334 268.113 160.892 267.71 148.875 257.695C97.9831 215.287 50.5452 181.62 3.84291 154.769C-60.5095 117.769 -122.833 94.4521 -181.396 85.4669C-223.26 79.0442 -283.793 68.2526 -334.43 53.3188C-365.779 44.073 -389.048 34.4512 -404.097 24.536ZM155.207 -60.0947L154.635 -58.8723C116.436 -79.1541 72.0065 -98.9876 6.13318 -106.713C-31.5446 -111.132 -73.4327 -111.114 -118.368 -106.661C-170.158 -101.528 -227.869 -90.3332 -289.895 -73.3875C-336.643 -60.6157 -371.491 -47.7675 -393.468 -35.1998C-412.957 -24.0554 -422.595 -13.0409 -422.113 -2.46305C-421.295 15.4987 -390.737 33.8774 -333.739 50.6881C-283.231 65.584 -222.812 76.3544 -181.021 82.7658C-122.162 91.7966 -59.5561 115.212 5.05954 152.364C51.8873 179.288 99.4436 213.037 150.449 255.539C161.667 264.887 177.15 265.18 194.057 256.375C231.362 236.943 270.251 176.953 270.758 110.197C271.001 78.2053 262.529 48.208 245.579 21.0374C226.004 -10.3394 195.409 -37.2251 154.635 -58.8723L155.207 -60.0947Z" fill="url(#paint1_linear_2322_3173)"/>
</mask>
<g mask="url(#mask1_2322_3173)">
<path d="M-404.097 24.536C-417.364 15.7954 -424.245 6.83003 -424.661 -2.31521C-425.195 -14.0433 -415.101 -25.9162 -394.661 -37.6046C-372.501 -50.2759 -337.461 -63.2046 -290.514 -76.0309C-228.357 -93.0123 -170.513 -104.232 -118.59 -109.378C-73.4841 -113.848 -31.4233 -113.864 6.42488 -109.425C72.6923 -101.654 117.37 -81.711 155.779 -61.3169C196.95 -39.4578 227.879 -12.2612 247.703 19.5146C264.941 47.1456 273.556 77.6577 273.309 110.204C272.794 178.024 233.172 239.029 195.164 258.827C177.334 268.113 160.892 267.71 148.875 257.695C97.9831 215.287 50.5452 181.62 3.84291 154.769C-60.5095 117.769 -122.833 94.4521 -181.396 85.4669C-223.26 79.0442 -283.793 68.2526 -334.43 53.3188C-365.779 44.073 -389.048 34.4512 -404.097 24.536ZM155.207 -60.0947L154.635 -58.8723C116.436 -79.1541 72.0065 -98.9876 6.13318 -106.713C-31.5446 -111.132 -73.4327 -111.114 -118.368 -106.661C-170.158 -101.528 -227.869 -90.3332 -289.895 -73.3875C-336.643 -60.6157 -371.491 -47.7675 -393.468 -35.1998C-412.957 -24.0554 -422.595 -13.0409 -422.113 -2.46305C-421.295 15.4987 -390.737 33.8774 -333.739 50.6881C-283.231 65.584 -222.812 76.3544 -181.021 82.7658C-122.162 91.7966 -59.5561 115.212 5.05954 152.364C51.8873 179.288 99.4436 213.037 150.449 255.539C161.667 264.887 177.15 265.18 194.057 256.375C231.362 236.943 270.251 176.953 270.758 110.197C271.001 78.2053 262.529 48.208 245.579 21.0374C226.004 -10.3394 195.409 -37.2251 154.635 -58.8723L155.207 -60.0947Z" fill="#005E9E"/>
</g>
<mask id="mask2_2322_3173" style="mask-type:alpha" maskUnits="userSpaceOnUse" x="-394" y="-104" width="648" height="349">
<path d="M-374.666 18.9328C-386.878 10.8873 -393.196 2.64288 -393.541 -5.74981C-394.471 -28.3488 -353.94 -50.4384 -269.632 -73.2816C-160.083 -101.396 -65.5644 -109.963 11.3125 -98.7483C73.706 -89.6461 114.407 -69.7823 149.096 -49.6728C185.487 -29.9117 212.856 -5.61449 230.421 22.5354C245.77 47.1324 253.441 74.1762 253.22 102.916C253.069 122.725 248.954 153.181 230.214 185.774C216.9 208.93 198.816 227.776 180.597 237.477C162.213 247.266 145.183 247.11 132.641 237.036C38.1036 163.145 -64.7623 92.2782 -176.284 74.2781C-214.17 68.1614 -268.664 58.0607 -313.127 44.6787C-340.69 36.383 -361.241 27.7783 -374.666 18.9328ZM168.715 -35.001C162.172 -39.312 155.257 -43.4472 147.974 -47.4015C113.455 -67.4123 72.9899 -87.1618 10.9763 -96.2083C-65.6049 -107.38 -159.826 -98.8291 -269.071 -70.7931C-312.2 -59.1074 -344.366 -47.3431 -364.66 -35.8315C-382.635 -25.6369 -391.546 -15.5586 -391.147 -5.87651C-390.472 10.5227 -363.999 26.7014 -312.468 42.2108C-268.122 55.5577 -213.733 65.6375 -175.914 71.7438C-63.8834 89.8255 39.2777 160.88 134.073 234.974C145.876 244.453 162.011 244.518 179.539 235.183C197.364 225.692 215.091 207.196 228.175 184.44C238.358 166.728 250.554 138.206 250.824 102.908C251.041 74.6904 243.505 48.1308 228.426 23.9664C214.592 1.79669 194.561 -17.9723 168.715 -35.001Z" fill="url(#paint2_linear_2322_3173)"/>
</mask>
<g mask="url(#mask2_2322_3173)">
<path d="M-374.668 18.9328C-386.88 10.8873 -393.198 2.64288 -393.543 -5.74981C-394.473 -28.3488 -353.942 -50.4384 -269.634 -73.2816C-160.085 -101.396 -65.5663 -109.963 11.3106 -98.7483C73.704 -89.6461 114.405 -69.7823 149.094 -49.6728C185.485 -29.9117 212.854 -5.61449 230.419 22.5354C245.768 47.1324 253.439 74.1762 253.218 102.916C253.067 122.725 248.952 153.181 230.212 185.774C216.898 208.93 198.814 227.776 180.595 237.477C162.212 247.266 145.181 247.11 132.639 237.036C38.1017 163.145 -64.7643 92.2782 -176.286 74.2781C-214.172 68.1614 -268.666 58.0607 -313.129 44.6787C-340.692 36.383 -361.243 27.7783 -374.668 18.9328ZM168.713 -35.001C162.17 -39.312 155.255 -43.4472 147.972 -47.4015C113.453 -67.4123 72.9879 -87.1618 10.9744 -96.2083C-65.6068 -107.38 -159.828 -98.8291 -269.073 -70.7931C-312.202 -59.1074 -344.368 -47.3431 -364.662 -35.8315C-382.637 -25.6369 -391.548 -15.5586 -391.149 -5.87651C-390.474 10.5227 -364.001 26.7014 -312.469 42.2108C-268.124 55.5577 -213.735 65.6375 -175.916 71.7438C-63.8854 89.8255 39.2758 160.88 134.071 234.974C145.874 244.453 162.009 244.518 179.537 235.183C197.362 225.692 215.089 207.196 228.173 184.44C238.356 166.728 250.552 138.206 250.822 102.908C251.039 74.6904 243.503 48.1308 228.424 23.9664C214.59 1.79669 194.559 -17.9723 168.713 -35.001Z" fill="#005E9E"/>
</g>
<mask id="mask3_2322_3173" style="mask-type:alpha" maskUnits="userSpaceOnUse" x="-363" y="-95" width="597" height="319">
<path d="M-345.265 13.3461C-356.434 5.98742 -362.189 -1.53545 -362.462 -9.18184C-363.198 -29.7467 -326.006 -49.8154 -248.761 -70.5355C-145.524 -95.1186 -56.3921 -101.017 16.1898 -88.0725C75.2424 -77.5406 113.131 -56.8634 142.406 -38.0255C174.069 -20.3577 197.927 1.08902 213.25 25.6889C226.712 47.3015 233.429 70.9369 233.213 95.9394C232.998 121.019 225.762 146.344 212.29 169.177C199.997 190.012 183.712 206.667 166.436 216.075C147.371 226.456 129.604 226.562 116.394 216.374L108.966 210.926C69.053 181.64 23.8117 148.446 -23.2358 121.149C-77.0778 89.9106 -125.473 70.9179 -171.184 63.0862C-220.506 54.6296 -261.105 45.5301 -291.853 36.0415C-315.632 28.7035 -333.468 21.1184 -345.265 13.3461ZM157.484 -26.1263C152.345 -29.5122 146.95 -32.7819 141.302 -35.9332C112.148 -54.6909 74.4931 -75.2414 15.8096 -85.7073C-56.4873 -98.6006 -145.332 -92.7112 -248.255 -68.2023C-323.22 -48.0936 -360.901 -28.2694 -360.222 -9.28658C-359.701 5.29439 -336.487 19.7688 -291.222 33.7373C-260.56 43.1994 -220.05 52.277 -170.817 60.719C-124.853 68.5935 -76.2266 87.6705 -22.1589 119.04C24.992 146.397 70.2827 179.626 110.241 208.946L117.69 214.41C130.216 224.06 147.149 223.892 165.428 213.939C182.101 204.859 198.492 188.081 210.397 167.905C223.645 145.451 230.761 120.563 230.972 95.9302C231.183 71.4156 224.592 48.233 211.383 27.0262C198.99 7.12881 180.903 -10.6965 157.484 -26.1263Z" fill="url(#paint3_linear_2322_3173)"/>
</mask>
<g mask="url(#mask3_2322_3173)">
<path d="M-345.265 13.3461C-356.434 5.98742 -362.189 -1.53545 -362.462 -9.18184C-363.198 -29.7467 -326.006 -49.8154 -248.761 -70.5355C-145.524 -95.1186 -56.3921 -101.017 16.1898 -88.0725C75.2424 -77.5406 113.131 -56.8634 142.406 -38.0255C174.069 -20.3577 197.927 1.08902 213.25 25.6889C226.712 47.3015 233.429 70.9369 233.213 95.9394C232.998 121.019 225.762 146.344 212.29 169.177C199.997 190.012 183.712 206.667 166.436 216.075C147.371 226.456 129.604 226.562 116.394 216.374L108.966 210.926C69.053 181.64 23.8117 148.446 -23.2358 121.149C-77.0778 89.9106 -125.473 70.9179 -171.184 63.0862C-220.506 54.6296 -261.105 45.5301 -291.853 36.0415C-315.632 28.7035 -333.468 21.1184 -345.265 13.3461ZM157.484 -26.1263C152.345 -29.5122 146.95 -32.7819 141.302 -35.9332C112.148 -54.6909 74.4931 -75.2414 15.8096 -85.7073C-56.4873 -98.6006 -145.332 -92.7112 -248.255 -68.2023C-323.22 -48.0936 -360.901 -28.2694 -360.222 -9.28658C-359.701 5.29439 -336.487 19.7688 -291.222 33.7373C-260.56 43.1994 -220.05 52.277 -170.817 60.719C-124.853 68.5935 -76.2266 87.6705 -22.1589 119.04C24.992 146.397 70.2827 179.626 110.241 208.946L117.69 214.41C130.216 224.06 147.149 223.892 165.428 213.939C182.101 204.859 198.492 188.081 210.397 167.905C223.645 145.451 230.761 120.563 230.972 95.9302C231.183 71.4156 224.592 48.233 211.383 27.0262C198.99 7.12881 180.903 -10.6965 157.484 -26.1263Z" fill="#005E9E"/>
</g>
<mask id="mask4_2322_3173" style="mask-type:alpha" maskUnits="userSpaceOnUse" x="-332" y="-87" width="546" height="291">
<path d="M-315.999 7.83827C-326.109 1.17697 -331.22 -5.62566 -331.422 -12.6074C-331.958 -31.1419 -298.091 -49.1923 -227.886 -67.7892C-130.891 -88.8671 -47.1442 -92.0953 21.0704 -77.3955C77.3639 -65.2647 111.89 -43.7803 135.679 -26.405C200.485 11.0142 213.678 57.1818 213.329 89.3269C213.094 111.038 206.607 132.983 194.571 152.791C183.562 170.905 168.73 185.764 152.805 194.631C133.196 205.548 113.983 205.935 100.153 195.711C89.7898 188.589 79.1705 181.176 68.8999 174.007C-6.54056 121.35 -84.5501 66.898 -166.08 51.8946L-166.08 51.8941C-243.138 37.6954 -292.764 23.1462 -315.999 7.83827ZM120.881 -34.0352C98.0452 -49.0807 66.6741 -65.2884 20.6479 -75.2067C-47.2926 -89.8478 -130.76 -86.6195 -227.437 -65.6117C-295.532 -47.573 -329.83 -29.7641 -329.336 -12.6886C-328.967 0.0759385 -309.002 12.8482 -269.993 25.2725C-243.895 33.5852 -209.785 41.5742 -165.715 49.6944L-165.716 49.6939C-83.7617 64.7755 -5.56839 119.356 70.0472 172.136C80.3143 179.302 90.9304 186.712 101.316 193.851C114.742 203.757 132.672 203.329 151.849 192.651C167.458 183.962 182.009 169.375 192.823 151.581C204.643 132.131 211.012 110.599 211.243 89.3129C211.585 57.7729 198.57 12.4336 134.633 -24.4665L134.585 -24.4941L134.541 -24.5267C130.346 -27.5913 125.811 -30.7869 120.881 -34.0352Z" fill="url(#paint4_linear_2322_3173)"/>
</mask>
<g mask="url(#mask4_2322_3173)">
<path d="M-315.999 7.83827C-326.109 1.17697 -331.22 -5.62566 -331.422 -12.6074C-331.958 -31.1419 -298.091 -49.1923 -227.886 -67.7892C-130.891 -88.8671 -47.1442 -92.0953 21.0704 -77.3955C77.3639 -65.2647 111.89 -43.7803 135.679 -26.405C200.485 11.0142 213.678 57.1818 213.329 89.3269C213.094 111.038 206.607 132.983 194.571 152.791C183.562 170.905 168.73 185.764 152.805 194.631C133.196 205.548 113.983 205.935 100.153 195.711C89.7898 188.589 79.1705 181.176 68.8999 174.007C-6.54056 121.35 -84.5501 66.898 -166.08 51.8946L-166.08 51.8941C-243.138 37.6954 -292.764 23.1462 -315.999 7.83827ZM120.881 -34.0352C98.0452 -49.0807 66.6741 -65.2884 20.6479 -75.2067C-47.2926 -89.8478 -130.76 -86.6195 -227.437 -65.6117C-295.532 -47.573 -329.83 -29.7641 -329.336 -12.6886C-328.967 0.0759385 -309.002 12.8482 -269.993 25.2725C-243.895 33.5852 -209.785 41.5742 -165.715 49.6944L-165.716 49.6939C-83.7617 64.7755 -5.56839 119.356 70.0472 172.136C80.3143 179.302 90.9304 186.712 101.316 193.851C114.742 203.757 132.672 203.329 151.849 192.651C167.458 183.962 182.009 169.375 192.823 151.581C204.643 132.131 211.012 110.599 211.243 89.3129C211.585 57.7729 198.57 12.4336 134.633 -24.4665L134.585 -24.4941L134.541 -24.5267C130.346 -27.5913 125.811 -30.7869 120.881 -34.0352Z" fill="#005E9E"/>
</g>
<mask id="mask5_2322_3173" style="mask-type:alpha" maskUnits="userSpaceOnUse" x="-301" y="-79" width="495" height="262">
<path d="M-286.605 2.39207C-295.214 -3.27991 -300.311 -9.40397 -300.443 -16.0215C-300.774 -32.533 -270.212 -48.5677 -207.01 -65.0421C-116.177 -82.6382 -37.8173 -83.1975 25.9507 -66.7167C66.7374 -56.1752 100.443 -39.1794 128.986 -14.7617C183.109 17.8584 194.008 56.4875 193.604 83.1423C193.327 101.451 187.624 119.97 177.11 136.697C167.471 152.035 154.238 164.989 139.847 173.173C119.723 184.62 99.7927 185.532 84.9404 175.748C84.5934 175.519 84.2517 175.287 83.9098 175.046C65.8231 163.395 48.0507 151.434 30.8639 139.868C-35.1831 95.4196 -97.568 53.4378 -160.977 40.7025L-160.978 40.7021C-208.865 31.0665 -262.033 18.5815 -286.605 2.39207ZM104.781 -30.4534C81.7089 -45.6545 55.5395 -56.9404 25.4873 -64.7075C-38.0174 -81.1198 -116.109 -80.5528 -206.619 -63.0216C-267.879 -47.0507 -298.816 -31.2523 -298.511 -16.0768C-297.967 11.0288 -198.178 31.1111 -160.611 38.6707C-96.8428 51.4781 -34.3101 93.5612 31.8991 138.117C49.076 149.676 66.8411 161.632 84.9453 173.295C99.3221 183.425 118.995 182.697 138.948 171.35C153.06 163.322 166.045 150.609 175.509 135.551C185.812 119.157 191.401 101.026 191.672 83.1202C192.067 57.0134 181.342 19.1404 127.963 -13.0003L127.895 -13.0413L127.835 -13.0931C120.506 -19.367 112.831 -25.1494 104.781 -30.4534Z" fill="url(#paint5_linear_2322_3173)"/>
</mask>
<g mask="url(#mask5_2322_3173)">
<path d="M-286.604 2.39207C-295.212 -3.27991 -300.309 -9.40397 -300.441 -16.0215C-300.772 -32.533 -270.21 -48.5677 -207.008 -65.0421C-116.175 -82.6382 -37.8153 -83.1975 25.9526 -66.7167C66.7394 -56.1752 100.444 -39.1794 128.988 -14.7617C183.111 17.8584 194.01 56.4875 193.606 83.1423C193.329 101.451 187.626 119.97 177.112 136.697C167.473 152.035 154.24 164.989 139.849 173.173C119.725 184.62 99.7947 185.532 84.9423 175.748C84.5954 175.519 84.2536 175.287 83.9118 175.046C65.825 163.395 48.0527 151.434 30.8658 139.868C-35.1812 95.4196 -97.5661 53.4378 -160.975 40.7025L-160.976 40.7021C-208.863 31.0665 -262.031 18.5815 -286.604 2.39207ZM104.783 -30.4534C81.7109 -45.6545 55.5415 -56.9404 25.4892 -64.7075C-38.0154 -81.1198 -116.107 -80.5528 -206.617 -63.0216C-267.877 -47.0507 -298.814 -31.2523 -298.51 -16.0768C-297.965 11.0288 -198.176 31.1111 -160.609 38.6707C-96.8409 51.4781 -34.3081 93.5612 31.9011 138.117C49.0779 149.676 66.843 161.632 84.9473 173.295C99.324 183.425 118.997 182.697 138.949 171.35C153.062 163.322 166.047 150.609 175.511 135.551C185.814 119.157 191.403 101.026 191.674 83.1202C192.069 57.0134 181.344 19.1404 127.965 -13.0003L127.897 -13.0413L127.837 -13.0931C120.508 -19.367 112.833 -25.1494 104.783 -30.4534Z" fill="#005E9E"/>
</g>
<mask id="mask6_2322_3173" style="mask-type:alpha" maskUnits="userSpaceOnUse" x="-270" y="-72" width="445" height="234">
<path d="M-257.463 -3.16835C-265.103 -8.20194 -269.511 -13.5887 -269.557 -19.4189C-269.671 -33.916 -242.381 -47.9403 -186.131 -62.2952C-101.374 -76.4289 -28.4001 -74.3181 30.8324 -56.0356C78.957 -41.1813 107.127 -19.0739 122.301 -3.11211C165.961 24.7526 174.586 56.0902 174.1 77.4704C173.436 106.675 155.241 135.845 127.746 151.786C106.406 164.157 84.0459 165.171 67.8741 154.517C67.8049 154.472 67.7374 154.427 67.6686 154.381C41.4401 138.552 17.5661 122.873 -5.52254 107.711C-60.7206 71.4614 -108.391 40.1557 -155.875 29.5105C-198.125 20.0146 -238.132 9.56783 -257.463 -3.16835ZM91.8668 -25.7961C48.3328 -54.4787 -36.0749 -85.3923 -185.797 -60.4308C-240.277 -46.525 -267.883 -32.7306 -267.779 -19.445C-267.604 2.4557 -191.888 19.4712 -155.501 27.649L-155.501 27.6493C-107.716 38.3618 -59.9251 69.7469 -4.58648 106.089C18.4879 121.242 42.3479 136.911 68.5819 152.744C68.6471 152.788 68.7132 152.832 68.7787 152.875C84.4365 163.191 106.132 162.159 126.905 150.115C153.846 134.496 171.674 105.967 172.322 77.434C172.797 56.5428 164.329 25.8658 121.293 -1.53494L121.202 -1.59339L121.126 -1.67343C114.761 -8.37917 105.239 -16.9859 91.8668 -25.7961Z" fill="url(#paint6_linear_2322_3173)"/>
</mask>
<g mask="url(#mask6_2322_3173)">
<path d="M-257.463 -3.16835C-265.103 -8.20194 -269.511 -13.5887 -269.557 -19.4189C-269.671 -33.916 -242.381 -47.9403 -186.131 -62.2952C-101.374 -76.4289 -28.4001 -74.3181 30.8324 -56.0356C78.957 -41.1813 107.127 -19.0739 122.301 -3.11211C165.961 24.7526 174.586 56.0902 174.1 77.4704C173.436 106.675 155.241 135.845 127.746 151.786C106.406 164.157 84.0459 165.171 67.8741 154.517C67.8049 154.472 67.7374 154.427 67.6686 154.381C41.4401 138.552 17.5661 122.873 -5.52254 107.711C-60.7206 71.4614 -108.391 40.1557 -155.875 29.5105C-198.125 20.0146 -238.132 9.56783 -257.463 -3.16835ZM91.8668 -25.7961C48.3328 -54.4787 -36.0749 -85.3923 -185.797 -60.4308C-240.277 -46.525 -267.883 -32.7306 -267.779 -19.445C-267.604 2.4557 -191.888 19.4712 -155.501 27.649L-155.501 27.6493C-107.716 38.3618 -59.9251 69.7469 -4.58648 106.089C18.4879 121.242 42.3479 136.911 68.5819 152.744C68.6471 152.788 68.7132 152.832 68.7787 152.875C84.4365 163.191 106.132 162.159 126.905 150.115C153.846 134.496 171.674 105.967 172.322 77.434C172.797 56.5428 164.329 25.8658 121.293 -1.53494L121.202 -1.59339L121.126 -1.67343C114.761 -8.37917 105.239 -16.9859 91.8668 -25.7961Z" fill="#005E9E"/>
</g>
<mask id="mask7_2322_3173" style="mask-type:alpha" maskUnits="userSpaceOnUse" x="-239" y="-66" width="394" height="208">
<path d="M-228.152 -8.52339C-234.798 -12.9023 -238.87 -17.6515 -238.822 -22.7816C-238.702 -35.2803 -214.634 -47.3046 -165.245 -59.5404C-86.4693 -70.2276 -18.8827 -65.4468 35.7175 -45.3463C55.9165 -37.9108 73.7763 -28.5273 88.8045 -17.4631C103.919 -6.33279 112.073 3.56865 115.629 8.55458C135.936 22.5631 148.543 38.5429 153.1 56.0508C157.035 71.1705 154.676 86.841 146.276 101.368C137.033 117.353 121.428 130.333 103.461 136.98C84.4447 144.016 65.9668 142.858 51.4315 133.721C16.0564 113.733 -13.8977 94.2541 -40.3258 77.0671C-83.3686 49.0758 -117.367 26.9662 -150.772 18.3233L-152.831 17.7891C-177.482 11.3944 -211.191 2.65104 -228.152 -8.52339ZM80.2608 -21.3361C68.7145 -28.9434 53.9023 -36.8125 35.1819 -43.7041C-19.182 -63.718 -86.5223 -68.4714 -164.969 -57.8338C-212.76 -45.9886 -237.089 -34.1873 -237.198 -22.7734C-237.359 -5.92651 -184.201 7.86248 -152.44 16.1015L-150.381 16.6357C-116.733 25.3415 -82.6402 47.513 -39.4772 75.5827C-13.0684 92.7564 16.8633 112.221 52.2277 132.204C66.3798 141.099 84.3777 142.206 102.938 135.339C120.555 128.821 135.849 116.108 144.897 100.46C153.051 86.3577 155.347 71.1655 151.537 56.5252C147.08 39.4021 134.661 23.7268 114.626 9.93372L114.506 9.85155L114.421 9.73029C110.925 4.80451 100.723 -7.85417 80.2608 -21.3361Z" fill="url(#paint7_linear_2322_3173)"/>
</mask>
<g mask="url(#mask7_2322_3173)">
<path d="M-228.154 -8.52339C-234.8 -12.9023 -238.872 -17.6515 -238.824 -22.7816C-238.703 -35.2803 -214.636 -47.3046 -165.247 -59.5404C-86.4712 -70.2276 -18.8847 -65.4468 35.7156 -45.3463C55.9146 -37.9108 73.7744 -28.5273 88.8026 -17.4631C103.917 -6.33279 112.071 3.56865 115.627 8.55458C135.934 22.5631 148.541 38.5429 153.098 56.0508C157.034 71.1705 154.674 86.841 146.274 101.368C137.031 117.353 121.426 130.333 103.459 136.98C84.4427 144.016 65.9648 142.858 51.4295 133.721C16.0544 113.733 -13.8996 94.2541 -40.3278 77.0671C-83.3706 49.0758 -117.369 26.9662 -150.773 18.3233L-152.832 17.7891C-177.484 11.3944 -211.193 2.65104 -228.154 -8.52339ZM80.2589 -21.3361C68.7126 -28.9434 53.9003 -36.8125 35.1799 -43.7041C-19.1839 -63.718 -86.5243 -68.4714 -164.97 -57.8338C-212.762 -45.9886 -237.091 -34.1873 -237.2 -22.7734C-237.361 -5.92651 -184.203 7.86248 -152.442 16.1015L-150.383 16.6357C-116.735 25.3415 -82.6421 47.513 -39.4791 75.5827C-13.0704 92.7564 16.8614 112.221 52.2258 132.204C66.3779 141.099 84.3758 142.206 102.936 135.339C120.553 128.821 135.847 116.108 144.895 100.46C153.049 86.3577 155.345 71.1655 151.535 56.5252C147.078 39.4021 134.659 23.7268 114.624 9.93372L114.504 9.85155L114.419 9.73029C110.923 4.80451 100.721 -7.85417 80.2589 -21.3361Z" fill="#005E9E"/>
</g>
<mask id="mask8_2322_3173" style="mask-type:alpha" maskUnits="userSpaceOnUse" x="-209" y="-60" width="346" height="182">
<path d="M-199.153 -13.5614C-204.968 -17.393 -208.551 -21.5536 -208.388 -26.0974C-208.008 -36.6325 -187.069 -46.6751 -144.373 -56.7986L-144.281 -56.8134C-94.2259 -61.7844 -21.5215 -61.9778 40.5867 -34.6668C58.8557 -26.6334 75.1936 -16.5544 87.8334 -5.5233C97.7768 3.15652 105.462 12.5284 108.953 20.2245C146.813 49.5279 136.18 77.4981 129.841 88.1728C121.726 101.84 106.245 113.092 88.4291 118.271C69.287 123.837 50.376 121.982 35.1796 113.048C-11.1931 88.5378 -45.5915 65.8626 -73.2265 47.6417C-103.077 27.9588 -124.617 13.7614 -145.689 7.12135L-145.69 7.12122C-147.368 6.58965 -149.112 6.0434 -150.903 5.48142C-167.976 0.129615 -187.811 -6.08843 -199.153 -13.5614ZM-144.107 -55.254C-185.442 -45.4499 -206.575 -35.6224 -206.92 -26.0455C-207.358 -13.8549 -173.131 -3.12605 -150.483 3.97362C-148.691 4.53565 -146.946 5.08255 -145.267 5.61452C-124.008 12.314 -102.388 26.5651 -72.4506 46.3032C-44.8346 64.5179 -10.476 87.1609 35.8638 111.654C50.5392 120.281 69.5504 122.135 88.051 116.755C105.52 111.676 120.679 100.678 128.603 87.3358C141.547 65.5382 134.015 41.4995 107.939 21.3843L107.788 21.2682L107.708 21.0882C100.921 5.88924 77.3583 -16.7954 40.0223 -33.2136C5.89916 -48.2184 -53.7449 -64.2198 -144.107 -55.254Z" fill="url(#paint8_linear_2322_3173)"/>
</mask>
<g mask="url(#mask8_2322_3173)">
<path d="M-199.153 -13.5614C-204.968 -17.393 -208.551 -21.5536 -208.388 -26.0974C-208.008 -36.6325 -187.069 -46.6751 -144.373 -56.7986L-144.281 -56.8134C-94.2259 -61.7844 -21.5215 -61.9778 40.5867 -34.6668C58.8557 -26.6334 75.1936 -16.5544 87.8334 -5.5233C97.7768 3.15652 105.462 12.5284 108.953 20.2245C146.813 49.5279 136.18 77.4981 129.841 88.1728C121.726 101.84 106.245 113.092 88.4291 118.271C69.287 123.837 50.376 121.982 35.1796 113.048C-11.1931 88.5378 -45.5915 65.8626 -73.2265 47.6417C-103.077 27.9588 -124.617 13.7614 -145.689 7.12135L-145.69 7.12122C-147.368 6.58965 -149.112 6.0434 -150.903 5.48142C-167.976 0.129615 -187.811 -6.08843 -199.153 -13.5614ZM-144.107 -55.254C-185.442 -45.4499 -206.575 -35.6224 -206.92 -26.0455C-207.358 -13.8549 -173.131 -3.12605 -150.483 3.97362C-148.691 4.53565 -146.946 5.08255 -145.267 5.61452C-124.008 12.314 -102.388 26.5651 -72.4506 46.3032C-44.8346 64.5179 -10.476 87.1609 35.8638 111.654C50.5392 120.281 69.5504 122.135 88.051 116.755C105.52 111.676 120.679 100.678 128.603 87.3358C141.547 65.5382 134.015 41.4995 107.939 21.3843L107.788 21.2682L107.708 21.0882C100.921 5.88924 77.3583 -16.7954 40.0223 -33.2136C5.89916 -48.2184 -53.7449 -64.2198 -144.107 -55.254Z" fill="#005E9E"/>
</g>
<mask id="mask9_2322_3173" style="mask-type:alpha" maskUnits="userSpaceOnUse" x="-179" y="-55" width="298" height="158">
<path d="M-170.245 -17.9922C-175.511 -21.4613 -178.91 -25.2004 -178.569 -29.2896C-178.22 -33.4899 -174.013 -37.4311 -165.706 -41.3382C-156.673 -45.587 -142.471 -49.8647 -123.495 -54.051L-123.397 -54.0646C-39.9033 -58.7752 14.5104 -40.3049 45.4548 -23.9809C81.2466 -5.09672 99.9539 18.1649 102.284 31.9272C124.325 52.5069 118.965 69.2681 113.795 77.4394C99.597 99.8837 54.1134 111.551 18.9273 92.3772C-41.7673 62.397 -77.1167 37.5597 -102.928 19.4247C-118.618 8.40094 -129.953 0.435239 -140.622 -4.08493L-140.624 -4.08593C-142.372 -4.8309 -144.207 -5.59514 -146.087 -6.37799C-154.644 -9.9406 -163.83 -13.7653 -170.245 -17.9922ZM-123.285 -52.6637C-158.448 -44.9022 -176.61 -36.9984 -177.261 -29.1724C-177.928 -21.1477 -160.006 -13.6851 -145.604 -7.68815C-143.721 -6.90412 -141.883 -6.13839 -140.131 -5.39148C-129.339 -0.819161 -117.956 7.17982 -102.202 18.2485C-76.424 36.3594 -41.1224 61.165 19.5056 91.1124C35.1422 99.6324 54.8399 102.557 73.5716 99.1473C91.1982 95.939 105.829 87.5307 112.709 76.656C121.237 63.1757 117.166 47.6109 101.244 32.8275L101.067 32.663L101.029 32.4153C99.2831 21.2409 82.884 -2.66427 44.868 -22.7196C14.0692 -38.967 -40.1003 -57.3491 -123.285 -52.6637Z" fill="url(#paint9_linear_2322_3173)"/>
</mask>
<g mask="url(#mask9_2322_3173)">
<path d="M-170.243 -17.9922C-175.509 -21.4613 -178.908 -25.2004 -178.567 -29.2896C-178.218 -33.4899 -174.011 -37.4311 -165.704 -41.3382C-156.671 -45.587 -142.469 -49.8647 -123.494 -54.051L-123.395 -54.0646C-39.9014 -58.7752 14.5124 -40.3049 45.4568 -23.9809C81.2485 -5.09672 99.9559 18.1649 102.286 31.9272C124.327 52.5069 118.967 69.2681 113.797 77.4394C99.5989 99.8837 54.1153 111.551 18.9292 92.3772C-41.7654 62.397 -77.1147 37.5597 -102.926 19.4247C-118.616 8.40094 -129.951 0.435239 -140.62 -4.08493L-140.622 -4.08593C-142.37 -4.8309 -144.205 -5.59514 -146.085 -6.37799C-154.642 -9.9406 -163.828 -13.7653 -170.243 -17.9922ZM-123.283 -52.6637C-158.446 -44.9022 -176.608 -36.9984 -177.259 -29.1724C-177.926 -21.1477 -160.004 -13.6851 -145.602 -7.68815C-143.719 -6.90412 -141.881 -6.13839 -140.129 -5.39148C-129.337 -0.819161 -117.954 7.17982 -102.2 18.2485C-76.4221 36.3594 -41.1204 61.165 19.5075 91.1124C35.1442 99.6324 54.8419 102.557 73.5735 99.1473C91.2002 95.939 105.831 87.5307 112.711 76.656C121.238 63.1757 117.167 47.6109 101.246 32.8275L101.069 32.663L101.03 32.4153C99.2851 21.2409 82.8859 -2.66427 44.8699 -22.7196C14.0712 -38.967 -40.0983 -57.3491 -123.283 -52.6637Z" fill="#005E9E"/>
</g>
<mask id="mask10_2322_3173" style="mask-type:alpha" maskUnits="userSpaceOnUse" x="-151" y="-52" width="254" height="137">
<path d="M-84.4727 24.5701C-105.133 10.9576 -117.204 0.358659 -125.586 -7.00058C-129.566 -10.4955 -132.709 -13.2557 -135.597 -15.3329L-135.599 -15.3342C-136.348 -15.8774 -137.11 -16.4225 -137.875 -16.969C-144.6 -21.7708 -151.553 -26.7359 -150.468 -32.1834C-149.584 -36.6241 -143.661 -43.4384 -102.609 -51.307L-102.509 -51.3168C-56.2222 -51.5459 -14.8574 -44.0197 20.4369 -28.9463C57.4886 -13.1224 76.3737 6.22352 84.3326 16.3461C92.5174 26.7561 96.6088 36.69 95.5995 43.6696C104.924 56.2949 102.402 65.0378 98.6257 70.1582C92.4763 78.4947 77.9215 83.795 59.692 84.3354C40.6626 84.8996 19.8819 80.295 2.67776 71.7028C-37.0891 53.3678 -64.7111 37.5901 -84.4727 24.5701ZM-134.946 -16.3627C-132.013 -14.2532 -128.851 -11.4764 -124.847 -7.9609C-108.492 6.39936 -78.0499 33.1286 3.15675 70.5706C41.0921 89.5166 85.8995 85.4151 97.7165 69.3929C102.789 62.5159 101.688 53.8149 94.5322 44.2311L94.3692 44.0129L94.4154 43.7374C95.5158 37.1075 91.5169 27.416 83.444 17.1476C74.5325 5.81294 23.6967 -50.688 -102.46 -50.0769C-132.725 -44.2721 -148.059 -38.3364 -149.335 -31.9314C-150.256 -27.3042 -143.633 -22.5749 -137.229 -18.0019C-136.462 -17.4542 -135.697 -16.9077 -134.946 -16.3627Z" fill="url(#paint10_linear_2322_3173)"/>
</mask>
<g mask="url(#mask10_2322_3173)">
<path d="M-84.4707 24.5701C-105.131 10.9576 -117.202 0.358659 -125.584 -7.00058C-129.564 -10.4955 -132.708 -13.2557 -135.595 -15.3329L-135.597 -15.3342C-136.346 -15.8774 -137.108 -16.4225 -137.873 -16.969C-144.598 -21.7708 -151.551 -26.7359 -150.466 -32.1834C-149.582 -36.6241 -143.659 -43.4384 -102.607 -51.307L-102.507 -51.3168C-56.2203 -51.5459 -14.8555 -44.0197 20.4388 -28.9463C57.4905 -13.1224 76.3757 6.22352 84.3346 16.3461C92.5194 26.7561 96.6108 36.69 95.6015 43.6696C104.926 56.2949 102.404 65.0378 98.6277 70.1582C92.4782 78.4947 77.9234 83.795 59.694 84.3354C40.6646 84.8996 19.8838 80.295 2.67972 71.7028C-37.0872 53.3678 -64.7091 37.5901 -84.4707 24.5701ZM-134.944 -16.3627C-132.011 -14.2532 -128.849 -11.4764 -124.845 -7.9609C-108.49 6.39936 -78.0479 33.1286 3.1587 70.5706C41.0941 89.5166 85.9014 85.4151 97.7185 69.3929C102.791 62.5159 101.69 53.8149 94.5341 44.2311L94.3711 44.0129L94.4173 43.7374C95.5178 37.1075 91.5188 27.416 83.4459 17.1476C74.5345 5.81294 23.6986 -50.688 -102.458 -50.0769C-132.723 -44.2721 -148.057 -38.3364 -149.333 -31.9314C-150.254 -27.3042 -143.631 -22.5749 -137.227 -18.0019C-136.46 -17.4542 -135.695 -16.9077 -134.944 -16.3627Z" fill="#005E9E"/>
</g>
<mask id="mask11_2322_3173" style="mask-type:alpha" maskUnits="userSpaceOnUse" x="-131" y="-49" width="222" height="122">
<path d="M-97.5122 8.18993C-102.152 5.13302 -106.31 2.15986 -109.99 -0.732121C-128.117 -14.9788 -130.03 -23.8994 -130.658 -26.8308L-130.659 -26.8357C-131.264 -29.7785 -130.877 -32.232 -129.476 -34.336C-125.272 -40.6511 -111.433 -44.7719 -81.7115 -48.5604L-81.6249 -48.5633C-38.849 -46.0854 0.449797 -35.4714 32.0229 -17.8689C67.6972 2.02118 81.4388 23.5225 85.6907 31.8443C90.5843 41.4207 91.6925 49.801 88.823 55.4771C89.7948 60.771 88.5968 64.9411 85.2631 67.8744C77.3689 74.8192 59.4889 73.2029 45.8795 70.624C28.0605 67.2478 6.94446 60.2884 -13.5774 51.0288C-49.7565 35.4798 -77.898 21.1128 -97.5122 8.18993ZM-129.678 -27.0762C-125.44 -7.30806 -86.249 18.6355 -13.1908 50.0347C24.3537 66.9747 71.3896 78.691 84.6273 67.0458C87.6902 64.3516 88.7582 60.468 87.8021 55.504L87.7642 55.307L87.8561 55.1313C90.663 49.7888 89.5809 41.7033 84.8086 32.3636C67.0076 -2.47468 7.32384 -42.3198 -81.6415 -47.488C-110.632 -43.7901 -124.694 -39.671 -128.659 -33.7153C-129.901 -31.8494 -130.226 -29.7391 -129.678 -27.0745L-129.678 -27.0762Z" fill="url(#paint11_linear_2322_3173)"/>
</mask>
<g mask="url(#mask11_2322_3173)">
<path d="M-97.5102 8.18993C-102.15 5.13302 -106.308 2.15986 -109.988 -0.732121C-128.115 -14.9788 -130.028 -23.8994 -130.656 -26.8308L-130.657 -26.8357C-131.262 -29.7785 -130.875 -32.232 -129.474 -34.336C-125.27 -40.6511 -111.431 -44.7719 -81.7095 -48.5604L-81.6229 -48.5633C-38.847 -46.0854 0.45175 -35.4714 32.0249 -17.8689C67.6992 2.02118 81.4408 23.5225 85.6927 31.8443C90.5863 41.4207 91.6945 49.801 88.825 55.4771C89.7968 60.771 88.5988 64.9411 85.2651 67.8744C77.3708 74.8192 59.4909 73.2029 45.8815 70.624C28.0624 67.2478 6.94642 60.2884 -13.5754 51.0288C-49.7545 35.4798 -77.896 21.1128 -97.5102 8.18993ZM-129.676 -27.0762C-125.438 -7.30806 -86.247 18.6355 -13.1888 50.0347C24.3556 66.9747 71.3915 78.691 84.6293 67.0458C87.6922 64.3516 88.7601 60.468 87.8041 55.504L87.7662 55.307L87.858 55.1313C90.665 49.7888 89.5829 41.7033 84.8105 32.3636C67.0095 -2.47468 7.3258 -42.3198 -81.6396 -47.488C-110.63 -43.7901 -124.692 -39.671 -128.657 -33.7153C-129.899 -31.8494 -130.224 -29.7391 -129.676 -27.0745L-129.676 -27.0762Z" fill="#005E9E"/>
</g>
<mask id="mask12_2322_3173" style="mask-type:alpha" maskUnits="userSpaceOnUse" x="-131" y="-47" width="218" height="120">
<path d="M-110.831 -8.3644C-122.881 -16.3035 -129.211 -23.12 -129.972 -28.906C-130.433 -32.413 -128.91 -35.5264 -125.313 -38.423C-119.166 -43.3742 -105.491 -45.414 -95.1026 -46.2533C-83.2307 -47.2131 -69.7417 -47.0385 -60.7384 -45.8093C-12.2208 -39.1854 20.8911 -21.7388 40.1165 -8.28404C62.4636 7.36009 79.0419 26.8977 84.465 43.9797C87.598 53.8473 86.6901 62.1155 81.9102 67.2617C69.8917 80.1988 43.9588 66.774 13.9309 51.2295C-0.165749 43.9321 -14.7429 36.3858 -29.829 30.3516C-67.593 15.2462 -94.4781 2.40999 -110.831 -8.3644ZM-60.794 -45.3582L-60.8503 -44.9074C-77.4305 -47.1706 -114.306 -46.1529 -124.804 -37.6973C-128.129 -35.0188 -129.545 -32.1862 -129.131 -29.0373C-127.409 -15.9421 -93.8959 3.75198 -29.5271 29.4997C-14.4043 35.5485 0.190065 43.1037 14.3047 50.4108C44.0395 65.8035 69.7196 79.0974 81.308 66.6225C85.8483 61.7355 86.6829 53.7991 83.6598 44.2763C78.2958 27.379 61.8427 8.0155 39.6484 -7.52225C20.476 -20.9441 -12.4949 -38.3048 -60.8503 -44.9074L-60.794 -45.3582Z" fill="url(#paint12_linear_2322_3173)"/>
</mask>
<g mask="url(#mask12_2322_3173)">
<path d="M-110.831 -8.3644C-122.881 -16.3035 -129.211 -23.12 -129.972 -28.906C-130.433 -32.413 -128.91 -35.5264 -125.313 -38.423C-119.166 -43.3742 -105.491 -45.414 -95.1026 -46.2533C-83.2307 -47.2131 -69.7417 -47.0385 -60.7384 -45.8093C-12.2208 -39.1854 20.8911 -21.7388 40.1165 -8.28404C62.4636 7.36009 79.0419 26.8977 84.465 43.9797C87.598 53.8473 86.6901 62.1155 81.9102 67.2617C69.8917 80.1988 43.9588 66.774 13.9309 51.2295C-0.165749 43.9321 -14.7429 36.3858 -29.829 30.3516C-67.593 15.2462 -94.4781 2.40999 -110.831 -8.3644ZM-60.794 -45.3582L-60.8503 -44.9074C-77.4305 -47.1706 -114.306 -46.1529 -124.804 -37.6973C-128.129 -35.0188 -129.545 -32.1862 -129.131 -29.0373C-127.409 -15.9421 -93.8959 3.75198 -29.5271 29.4997C-14.4043 35.5485 0.190065 43.1037 14.3047 50.4108C44.0395 65.8035 69.7196 79.0974 81.308 66.6225C85.8483 61.7355 86.6829 53.7991 83.6598 44.2763C78.2958 27.379 61.8427 8.0155 39.6484 -7.52225C20.476 -20.9441 -12.4949 -38.3048 -60.8503 -44.9074L-60.794 -45.3582Z" fill="#005E9E"/>
</g>
</g>
<g opacity="0.2">
<mask id="mask13_2322_3173" style="mask-type:alpha" maskUnits="userSpaceOnUse" x="-127" y="471" width="626" height="230">
<path d="M341.677 479.875C345.422 481.899 348.993 484.288 352.398 487.046C370.459 501.671 380.882 524.362 389.456 546.706C395.538 562.559 422.417 574.968 448.411 586.967C474.207 598.877 498.572 610.124 498.89 624.059C499.046 630.904 493.588 637.601 482.202 644.533C395.043 697.595 276.802 703.632 192.957 699.353C98.4776 694.531 9.22527 674.55 -30.1098 657.305C-80.1796 635.352 -129.209 604.851 -125.868 586.196C-124.643 579.359 -116.708 575.126 -102.283 573.613C-47.9467 567.912 192.518 502.007 266.911 478.376C297.298 468.723 321.904 469.191 341.677 479.875ZM418.604 575.609C403.397 567.392 391.033 558.452 386.96 547.836C378.519 525.839 368.285 503.522 350.701 489.283C330.031 472.543 302.848 469.853 267.597 481.05C193.13 504.705 -47.6458 570.682 -102.123 576.397C-114.978 577.746 -122.277 581.274 -123.232 586.602C-125.811 600.998 -86.1763 629.645 -28.9865 654.718C10.1383 671.871 99.0201 691.751 193.196 696.558C276.672 700.818 394.351 694.834 480.921 642.13C491.193 635.876 496.337 629.857 496.208 624.239C495.93 612.01 472.282 601.093 447.244 589.534C437.453 585.014 427.537 580.436 418.604 575.609Z" fill="url(#paint13_linear_2322_3173)"/>
</mask>
<g mask="url(#mask13_2322_3173)">
<path d="M341.675 479.875C345.421 481.899 348.991 484.288 352.396 487.046C370.457 501.671 380.88 524.362 389.454 546.706C395.536 562.559 422.415 574.968 448.409 586.967C474.205 598.877 498.57 610.124 498.888 624.059C499.045 630.904 493.586 637.601 482.2 644.533C395.041 697.595 276.8 703.632 192.955 699.353C98.4757 694.531 9.22331 674.55 -30.1118 657.305C-80.1816 635.352 -129.211 604.851 -125.87 586.196C-124.645 579.359 -116.71 575.126 -102.285 573.613C-47.9486 567.912 192.516 502.007 266.91 478.376C297.296 468.723 321.902 469.191 341.675 479.875ZM418.602 575.609C403.395 567.392 391.031 558.452 386.958 547.836C378.517 525.839 368.283 503.522 350.699 489.283C330.029 472.543 302.846 469.853 267.595 481.05C193.128 504.705 -47.6478 570.682 -102.125 576.397C-114.98 577.746 -122.279 581.274 -123.234 586.602C-125.813 600.998 -86.1782 629.645 -28.9884 654.718C10.1363 671.871 99.0182 691.751 193.194 696.558C276.67 700.818 394.349 694.834 480.919 642.13C491.191 635.876 496.335 629.857 496.206 624.239C495.928 612.01 472.28 601.093 447.242 589.534C437.451 585.014 427.535 580.436 418.602 575.609Z" fill="#005E9E"/>
</g>
<mask id="mask14_2322_3173" style="mask-type:alpha" maskUnits="userSpaceOnUse" x="-105" y="481" width="582" height="214">
<path d="M330.278 489.16C333.769 491.046 337.096 493.276 340.266 495.85C356.904 509.357 366.629 530.448 374.66 551.227C380.355 565.957 405.414 577.45 429.648 588.561C453.679 599.581 476.378 609.991 476.696 622.935C476.852 629.286 471.797 635.505 461.242 641.948C380.242 691.4 270.291 697.056 192.317 693.093C104.42 688.624 21.4382 670.033 -15.1042 653.978C-61.5518 633.574 -107.017 605.222 -103.904 587.873C-102.759 581.5 -95.3704 577.555 -81.9414 576.147C-31.4505 570.852 191.911 509.695 261.007 487.767C289.168 478.831 311.965 479.265 330.278 489.16ZM401.38 577.821C387.413 570.274 376.092 562.056 372.318 552.294C356.139 510.433 332.911 467.666 261.65 490.28C192.486 512.229 -31.1681 573.454 -81.7905 578.762C-93.7478 580.016 -100.538 583.299 -101.428 588.255C-103.829 601.632 -67.0809 628.25 -14.0479 651.549C22.2974 667.518 104.93 686.013 192.541 690.467C270.168 694.412 379.59 688.807 460.036 639.692C469.547 633.887 474.305 628.307 474.177 623.109C473.898 611.768 451.875 601.668 428.557 590.975C419.256 586.71 409.832 582.388 401.38 577.821Z" fill="url(#paint14_linear_2322_3173)"/>
</mask>
<g mask="url(#mask14_2322_3173)">
<path d="M330.28 489.16C333.771 491.046 337.098 493.276 340.268 495.85C356.906 509.357 366.631 530.448 374.662 551.227C380.357 565.957 405.416 577.45 429.65 588.561C453.681 599.581 476.38 609.991 476.698 622.935C476.854 629.286 471.799 635.505 461.244 641.948C380.244 691.4 270.293 697.056 192.319 693.093C104.422 688.624 21.4402 670.033 -15.1022 653.978C-61.5499 633.574 -107.015 605.222 -103.902 587.873C-102.757 581.5 -95.3685 577.555 -81.9394 576.147C-31.4485 570.852 191.913 509.695 261.009 487.767C289.17 478.831 311.967 479.265 330.28 489.16ZM401.381 577.821C387.415 570.274 376.094 562.056 372.32 552.294C356.141 510.433 332.913 467.666 261.652 490.28C192.488 512.229 -31.1662 573.454 -81.7886 578.762C-93.7458 580.016 -100.536 583.299 -101.426 588.255C-103.828 601.632 -67.0789 628.25 -14.0459 651.549C22.2993 667.518 104.932 686.013 192.543 690.467C270.17 694.412 379.592 688.807 460.038 639.692C469.549 633.887 474.307 628.307 474.179 623.109C473.9 611.768 451.877 601.668 428.559 590.975C419.258 586.71 409.834 582.388 401.381 577.821Z" fill="#005E9E"/>
</g>
<mask id="mask15_2322_3173" style="mask-type:alpha" maskUnits="userSpaceOnUse" x="-83" y="491" width="538" height="197">
<path d="M318.884 498.438C322.121 500.187 325.203 502.256 328.14 504.647C344.113 517.653 352.894 537.841 359.871 555.743C365.176 569.348 388.415 579.922 410.89 590.148C434.123 600.722 454.19 609.851 454.507 621.804C454.663 627.66 450.011 633.401 440.287 639.355C365.446 685.199 263.785 690.474 191.682 686.826C110.368 682.712 33.657 665.511 -0.0942955 650.645C-42.9072 631.791 -84.8213 605.585 -81.9349 589.544C-80.8716 583.634 -74.0282 579.977 -61.595 578.674C-14.9399 573.784 191.315 517.375 255.108 497.153C281.041 488.932 302.033 489.334 318.884 498.438ZM384.171 580.034C371.441 573.155 361.156 565.655 357.682 556.748C350.814 539.125 342.185 519.264 326.644 506.609C309.043 492.275 285.839 489.952 255.709 499.503C191.852 519.746 -14.6765 576.218 -61.4535 581.121C-72.5121 582.28 -78.7937 585.316 -79.619 589.902C-81.8423 602.259 -47.9783 626.851 0.896136 648.373C34.4622 663.157 110.845 680.269 191.891 684.369C263.669 688.001 364.833 682.773 439.156 637.247L439.156 637.247C447.905 631.89 452.278 626.75 452.151 621.971C451.874 611.519 431.472 602.236 409.875 592.409C401.066 588.401 392.139 584.339 384.171 580.034Z" fill="url(#paint15_linear_2322_3173)"/>
</mask>
<g mask="url(#mask15_2322_3173)">
<path d="M318.884 498.438C322.121 500.187 325.203 502.256 328.14 504.647C344.113 517.653 352.894 537.841 359.871 555.743C365.176 569.348 388.415 579.922 410.89 590.148C434.123 600.722 454.19 609.851 454.507 621.804C454.663 627.66 450.011 633.401 440.287 639.355C365.446 685.199 263.785 690.474 191.682 686.826C110.368 682.712 33.657 665.511 -0.0942955 650.645C-42.9072 631.791 -84.8213 605.585 -81.9349 589.544C-80.8716 583.634 -74.0282 579.977 -61.595 578.674C-14.9399 573.784 191.315 517.375 255.108 497.153C281.041 488.932 302.033 489.334 318.884 498.438ZM384.171 580.034C371.441 573.155 361.156 565.655 357.682 556.748C350.814 539.125 342.185 519.264 326.644 506.609C309.043 492.275 285.839 489.952 255.709 499.503C191.852 519.746 -14.6765 576.218 -61.4535 581.121C-72.5121 582.28 -78.7937 585.316 -79.619 589.902C-81.8423 602.259 -47.9783 626.851 0.896136 648.373C34.4622 663.157 110.845 680.269 191.891 684.369C263.669 688.001 364.833 682.773 439.156 637.247L439.156 637.247C447.905 631.89 452.278 626.75 452.151 621.971C451.874 611.519 431.472 602.236 409.875 592.409C401.066 588.401 392.139 584.339 384.171 580.034Z" fill="#005E9E"/>
</g>
<mask id="mask16_2322_3173" style="mask-type:alpha" maskUnits="userSpaceOnUse" x="-61" y="501" width="494" height="181">
<path d="M307.493 507.718C310.475 509.329 313.315 511.238 316.017 513.446C330.492 525.275 338.61 543.812 345.083 560.259C350.001 572.741 371.421 582.398 392.135 591.736C413.528 601.381 432.004 609.711 432.322 620.674C432.477 626.036 428.229 631.299 419.335 636.764C350.653 678.998 257.283 683.892 191.05 680.56C116.319 676.8 45.8785 660.99 14.9189 647.314C-24.2689 630.009 -62.6228 605.951 -59.964 591.216C-58.9816 585.77 -52.6831 582.401 -41.2457 581.202C1.56541 576.717 190.717 525.057 249.213 506.539C272.92 499.034 292.102 499.401 307.493 507.718ZM366.982 582.258C355.482 576.044 346.223 569.259 343.048 561.202C336.676 545.011 328.699 526.775 314.621 515.271C298.548 502.142 277.339 500.001 249.771 508.728C191.217 527.265 1.81027 578.984 -41.114 583.481C-51.2747 584.545 -57.0471 587.336 -57.8079 591.551C-59.8529 602.888 -28.8803 625.448 15.8431 645.2C46.6296 658.799 116.764 674.526 191.244 678.273C257.173 681.589 350.08 676.74 418.278 634.803C426.267 629.894 430.254 625.195 430.128 620.836C429.851 611.271 411.074 602.806 391.196 593.844C382.884 590.096 374.459 586.298 366.982 582.258Z" fill="url(#paint16_linear_2322_3173)"/>
</mask>
<g mask="url(#mask16_2322_3173)">
<path d="M307.493 507.718C310.475 509.329 313.315 511.238 316.017 513.446C330.492 525.275 338.61 543.812 345.083 560.259C350.001 572.741 371.421 582.398 392.135 591.736C413.528 601.381 432.004 609.711 432.322 620.674C432.477 626.036 428.229 631.299 419.335 636.764C350.653 678.998 257.283 683.892 191.05 680.56C116.319 676.8 45.8785 660.99 14.9189 647.314C-24.2689 630.009 -62.6228 605.951 -59.964 591.216C-58.9816 585.77 -52.6831 582.401 -41.2457 581.202C1.56541 576.717 190.717 525.057 249.213 506.539C272.92 499.034 292.102 499.401 307.493 507.718ZM366.982 582.258C355.482 576.044 346.223 569.259 343.048 561.202C336.676 545.011 328.699 526.775 314.621 515.271C298.548 502.142 277.339 500.001 249.771 508.728C191.217 527.265 1.81027 578.984 -41.114 583.481C-51.2747 584.545 -57.0471 587.336 -57.8079 591.551C-59.8529 602.888 -28.8803 625.448 15.8431 645.2C46.6296 658.799 116.764 674.526 191.244 678.273C257.173 681.589 350.08 676.74 418.278 634.803C426.267 629.894 430.254 625.195 430.128 620.836C429.851 611.271 411.074 602.806 391.196 593.844C382.884 590.096 374.459 586.298 366.982 582.258Z" fill="#0056BB"/>
</g>
<mask id="mask17_2322_3173" style="mask-type:alpha" maskUnits="userSpaceOnUse" x="-39" y="511" width="450" height="165">
<path d="M296.101 516.993C298.829 518.467 301.423 520.216 303.891 522.242C316.868 532.891 324.324 549.778 330.294 564.771C334.823 576.128 354.424 584.868 373.378 593.32C392.93 602.039 409.818 609.568 410.134 619.541C410.288 624.408 406.444 629.193 398.38 634.17L398.381 634.17C335.857 672.795 250.778 677.307 190.415 674.29C122.268 670.886 58.0971 656.464 29.9301 643.979C-5.63144 628.222 -40.4255 606.313 -37.9943 592.885C-37.092 587.902 -31.3408 584.821 -20.898 583.728C18.0674 579.648 190.117 532.735 243.314 515.922C264.794 509.132 282.17 509.467 296.101 516.993ZM349.806 584.49C339.53 578.938 331.289 572.865 328.412 565.652C315.091 532.198 297.588 500.958 243.83 517.949C190.579 534.78 18.2938 581.746 -20.7771 585.837C-30.0384 586.807 -35.3022 589.352 -35.9978 593.196C-37.8659 603.512 -9.78085 624.047 30.7875 642.022C58.7942 654.436 122.68 668.779 190.594 672.173C250.675 675.175 335.324 670.704 397.399 632.356L397.399 632.356C404.627 627.895 408.228 623.636 408.103 619.696C407.827 611.021 390.676 603.372 372.516 595.276C364.706 591.793 356.786 588.262 349.806 584.49Z" fill="url(#paint17_linear_2322_3173)"/>
</mask>
<g mask="url(#mask17_2322_3173)">
<path d="M296.101 516.993C298.829 518.467 301.423 520.216 303.891 522.242C316.868 532.891 324.324 549.778 330.294 564.771C334.823 576.128 354.424 584.868 373.378 593.32C392.93 602.039 409.818 609.568 410.134 619.541C410.288 624.408 406.444 629.193 398.38 634.17L398.381 634.17C335.857 672.795 250.778 677.307 190.415 674.29C122.268 670.886 58.0971 656.464 29.9301 643.979C-5.63144 628.222 -40.4255 606.313 -37.9943 592.885C-37.092 587.902 -31.3408 584.821 -20.898 583.728C18.0674 579.648 190.117 532.735 243.314 515.922C264.794 509.132 282.17 509.467 296.101 516.993ZM349.806 584.49C339.53 578.938 331.289 572.865 328.412 565.652C315.091 532.198 297.588 500.958 243.83 517.949C190.579 534.78 18.2938 581.746 -20.7771 585.837C-30.0384 586.807 -35.3022 589.352 -35.9978 593.196C-37.8659 603.512 -9.78085 624.047 30.7875 642.022C58.7942 654.436 122.68 668.779 190.594 672.173C250.675 675.175 335.324 670.704 397.399 632.356L397.399 632.356C404.627 627.895 408.228 623.636 408.103 619.696C407.827 611.021 390.676 603.372 372.516 595.276C364.706 591.793 356.786 588.262 349.806 584.49Z" fill="#0056BB"/>
</g>
<mask id="mask18_2322_3173" style="mask-type:alpha" maskUnits="userSpaceOnUse" x="-17" y="520" width="405" height="149">
<path d="M284.707 526.273C287.181 527.609 289.53 529.197 291.764 531.041C303.24 540.507 309.784 555.125 315.502 569.286C319.644 579.521 338.225 587.696 354.62 594.907C372.332 602.698 387.629 609.428 387.945 618.41C388.099 622.783 384.657 627.09 377.425 631.578L377.425 631.578C321.061 666.594 244.271 670.725 189.779 668.025C128.215 664.973 70.315 651.942 44.9391 640.646C13.0083 626.441 -18.231 606.678 -16.0268 594.556C-15.2053 590.037 -9.99912 587.244 -0.552359 586.256C34.5699 582.581 189.516 540.417 237.415 525.309C256.668 519.234 272.237 519.536 284.707 526.273ZM332.651 586.74C323.59 581.844 316.354 576.478 313.775 570.106C308.145 556.165 301.717 541.786 290.569 532.59C277.568 521.861 260.335 520.092 237.889 527.174C189.941 542.299 34.7775 584.512 -0.440668 588.197C-8.80433 589.072 -13.5589 591.371 -14.1905 594.845C-15.8805 604.142 9.32226 622.65 45.7308 638.847C70.9582 650.077 128.595 663.036 189.943 666.076C244.175 668.763 320.567 664.671 376.517 629.912L376.518 629.912C382.984 625.9 386.201 622.08 386.077 618.56C385.803 610.773 370.275 603.941 353.835 596.709C346.533 593.497 339.126 590.239 332.651 586.74Z" fill="url(#paint18_linear_2322_3173)"/>
</mask>
<g mask="url(#mask18_2322_3173)">
</g>
<mask id="mask19_2322_3173" style="mask-type:alpha" maskUnits="userSpaceOnUse" x="5" y="530" width="361" height="133">
<path d="M273.318 535.551C275.536 536.75 277.643 538.178 279.641 539.838C289.619 548.124 295.303 560.631 300.715 573.801C304.468 582.912 321.149 590.128 335.866 596.492C351.737 603.357 365.446 609.286 365.761 617.278C365.914 621.157 362.876 624.986 356.473 628.986C306.268 660.392 237.769 664.142 189.147 661.757C134.167 659.061 82.5368 647.419 59.9526 637.313C31.6491 624.656 3.96752 607.042 5.94424 596.227C6.68523 592.171 11.3463 589.666 19.7975 588.783C51.0721 585.514 188.917 548.098 231.519 534.694C248.547 529.335 262.308 529.602 273.318 535.551ZM315.525 589.007C307.668 584.762 301.424 580.098 299.142 574.559C290.034 552.395 277.563 522.041 231.95 536.397C189.303 549.816 51.2619 587.277 19.8993 590.555C12.4334 591.336 8.18723 593.389 7.61989 596.492C6.1081 604.77 28.4224 621.248 60.678 635.672C83.126 645.717 134.514 657.292 189.295 659.978C237.679 662.351 305.814 658.637 355.64 627.467L355.641 627.467C361.346 623.903 364.178 620.524 364.055 617.423C363.783 610.522 349.878 604.507 335.158 598.141C328.371 595.206 321.484 592.227 315.525 589.007Z" fill="url(#paint19_linear_2322_3173)"/>
</mask>
<g mask="url(#mask19_2322_3173)">
</g>
<mask id="mask20_2322_3173" style="mask-type:alpha" maskUnits="userSpaceOnUse" x="27" y="540" width="317" height="116">
<path d="M261.923 544.9C274.807 551.86 280.918 566.41 285.92 578.319C289.286 586.307 304.066 592.562 317.106 598.08C331.137 604.019 343.256 609.148 343.57 616.15C343.722 619.535 341.087 622.887 335.515 626.397C291.468 654.194 231.26 657.563 188.507 655.494C140.111 653.152 94.7518 642.9 74.9583 633.984C50.2779 622.876 26.1586 607.411 27.9071 597.902C28.5679 594.309 32.6836 592.093 40.1391 591.314C67.5736 588.451 188.315 555.783 225.616 544.083C241.812 539.002 253.364 540.276 261.923 544.9ZM298.425 591.301C291.758 587.699 286.489 583.73 284.502 579.016C275.945 558.647 265.295 533.298 226.005 545.624C188.663 557.337 67.7449 590.046 40.2316 592.918C33.6634 593.603 29.9263 595.411 29.4237 598.144C28.0893 605.403 47.5165 619.85 75.6187 632.501C95.2877 641.361 140.426 651.551 188.641 653.885C231.176 655.943 291.053 652.607 334.756 625.027L334.756 625.027C339.702 621.912 342.148 618.972 342.027 616.29C341.757 610.276 329.477 605.08 316.476 599.577C310.215 596.927 303.856 594.236 298.425 591.301Z" fill="url(#paint20_linear_2322_3173)"/>
</mask>
<g mask="url(#mask20_2322_3173)">
</g>
<mask id="mask21_2322_3173" style="mask-type:alpha" maskUnits="userSpaceOnUse" x="49" y="550" width="273" height="100">
<path d="M250.502 554.111C261.22 559.901 266.452 572.006 271.02 582.572L271.132 582.832C274.11 589.695 286.989 594.99 298.352 599.661C310.544 604.673 321.073 609.001 321.386 615.016C321.537 617.907 319.305 620.782 314.563 623.803C276.675 647.991 224.756 650.979 187.874 649.226C146.063 647.239 106.974 638.377 89.9704 630.65C68.9127 621.089 48.3544 607.775 49.8759 599.573C50.4566 596.443 54.0272 594.514 60.4883 593.841C84.0724 591.383 187.713 563.463 219.72 553.467C233.486 549.167 243.251 550.193 250.502 554.111ZM281.373 593.621C275.879 590.652 271.56 587.368 269.868 583.469L269.755 583.208C261.922 565.086 253.041 544.546 220.066 554.847C188.024 564.854 84.2244 592.81 60.57 595.275C54.9001 595.866 51.6705 597.428 51.2324 599.792C50.0745 606.031 66.6182 618.45 90.5645 629.324C107.456 637 146.345 645.806 187.993 647.786C224.679 649.53 276.299 646.572 313.877 622.581L313.878 622.581C318.063 619.915 320.125 617.416 320.007 615.152C319.739 610.023 308.588 605.44 297.801 601.005C292.076 598.652 286.259 596.261 281.373 593.621Z" fill="url(#paint21_linear_2322_3173)"/>
</mask>
<g mask="url(#mask21_2322_3173)">
</g>
<mask id="mask22_2322_3173" style="mask-type:alpha" maskUnits="userSpaceOnUse" x="71" y="560" width="229" height="84">
<path d="M239.068 563.433C247.712 568.102 252.024 577.732 255.793 586.144L256.335 587.352C258.926 593.092 269.906 597.426 279.594 601.249C289.946 605.335 298.885 608.862 299.197 613.889C299.346 616.288 297.517 618.686 293.604 621.218C235.035 659.206 130.252 638.951 104.976 627.325C95.2529 622.857 86.6335 617.91 80.7051 613.392C74.2342 608.462 71.25 604.378 71.837 601.254C72.3376 598.586 75.3635 596.945 80.83 596.376C100.562 594.324 187.104 571.152 213.816 562.86C225.109 559.354 233.115 560.217 239.068 563.433ZM264.369 595.99C260.022 593.641 256.627 591.031 255.228 587.931L254.685 586.721C248.189 572.22 240.825 555.785 214.12 564.078C187.376 572.38 100.696 595.584 80.9018 597.642C76.1286 598.139 73.4071 599.455 73.0326 601.449C72.0532 606.671 85.7142 617.064 105.505 626.157C130.641 637.719 234.813 657.88 292.991 620.145L292.992 620.145C296.417 617.928 298.095 615.868 297.981 614.022C297.718 609.78 288.265 606.049 279.123 602.441C273.95 600.4 268.689 598.324 264.369 595.99Z" fill="url(#paint22_linear_2322_3173)"/>
</mask>
<g mask="url(#mask22_2322_3173)">
</g>
</g>
</g>
<defs>
<linearGradient id="paint0_linear_2322_3173" x1="6.46975e-06" y1="21.714" x2="935.123" y2="211.556" gradientUnits="userSpaceOnUse">
<stop stop-color="#F9F9F9"/>
<stop offset="0.0001" stop-color="#FCFCFC"/>
<stop offset="1" stop-color="#FAFAFB"/>
</linearGradient>
<linearGradient id="paint1_linear_2322_3173" x1="-337.365" y1="-159.724" x2="258.388" y2="185.121" gradientUnits="userSpaceOnUse">
<stop stop-color="white"/>
<stop offset="0.0436152" stop-color="#B4B4B4"/>
<stop offset="0.150732"/>
<stop offset="0.171421" stop-color="#171717"/>
<stop offset="0.385884" stop-color="white"/>
<stop offset="0.632551" stop-color="#E6E6E6"/>
<stop offset="0.856667" stop-color="#1A1A1A"/>
<stop offset="0.998739"/>
</linearGradient>
<linearGradient id="paint2_linear_2322_3173" x1="-314.279" y1="-148.762" x2="238.61" y2="171.271" gradientUnits="userSpaceOnUse">
<stop stop-color="white"/>
<stop offset="0.0436152" stop-color="#B4B4B4"/>
<stop offset="0.150732"/>
<stop offset="0.171421" stop-color="#171717"/>
<stop offset="0.385884" stop-color="white"/>
<stop offset="0.632551" stop-color="#E6E6E6"/>
<stop offset="0.856667" stop-color="#1A1A1A"/>
<stop offset="0.998739"/>
</linearGradient>
<linearGradient id="paint3_linear_2322_3173" x1="-291.158" y1="-137.772" x2="219.03" y2="157.544" gradientUnits="userSpaceOnUse">
<stop stop-color="white"/>
<stop offset="0.0436152" stop-color="#B4B4B4"/>
<stop offset="0.150732"/>
<stop offset="0.171421" stop-color="#171717"/>
<stop offset="0.385884" stop-color="white"/>
<stop offset="0.632551" stop-color="#E6E6E6"/>
<stop offset="0.856667" stop-color="#1A1A1A"/>
<stop offset="0.998739"/>
</linearGradient>
<linearGradient id="paint4_linear_2322_3173" x1="-268.082" y1="-126.764" x2="199.694" y2="144.003" gradientUnits="userSpaceOnUse">
<stop stop-color="white"/>
<stop offset="0.0436152" stop-color="#B4B4B4"/>
<stop offset="0.150732"/>
<stop offset="0.171421" stop-color="#171717"/>
<stop offset="0.385884" stop-color="white"/>
<stop offset="0.632551" stop-color="#E6E6E6"/>
<stop offset="0.856667" stop-color="#1A1A1A"/>
<stop offset="0.998739"/>
</linearGradient>
<linearGradient id="paint5_linear_2322_3173" x1="-244.62" y1="-116.518" x2="181.123" y2="129.918" gradientUnits="userSpaceOnUse">
<stop stop-color="white"/>
<stop offset="0.0436152" stop-color="#B4B4B4"/>
<stop offset="0.150732"/>
<stop offset="0.171421" stop-color="#171717"/>
<stop offset="0.385884" stop-color="white"/>
<stop offset="0.632551" stop-color="#E6E6E6"/>
<stop offset="0.856667" stop-color="#1A1A1A"/>
<stop offset="0.998739"/>
</linearGradient>
<linearGradient id="paint6_linear_2322_3173" x1="-220.996" y1="-106.692" x2="163.278" y2="115.741" gradientUnits="userSpaceOnUse">
<stop stop-color="white"/>
<stop offset="0.0436152" stop-color="#B4B4B4"/>
<stop offset="0.150732"/>
<stop offset="0.171421" stop-color="#171717"/>
<stop offset="0.385884" stop-color="white"/>
<stop offset="0.632551" stop-color="#E6E6E6"/>
<stop offset="0.856667" stop-color="#1A1A1A"/>
<stop offset="0.998739"/>
</linearGradient>
<linearGradient id="paint7_linear_2322_3173" x1="-197.297" y1="-97.2217" x2="146.153" y2="101.58" gradientUnits="userSpaceOnUse">
<stop stop-color="white"/>
<stop offset="0.0436152" stop-color="#B4B4B4"/>
<stop offset="0.150732"/>
<stop offset="0.171421" stop-color="#171717"/>
<stop offset="0.385884" stop-color="white"/>
<stop offset="0.632551" stop-color="#E6E6E6"/>
<stop offset="0.856667" stop-color="#1A1A1A"/>
<stop offset="0.998739"/>
</linearGradient>
<linearGradient id="paint8_linear_2322_3173" x1="-173.67" y1="-88.1049" x2="130.101" y2="87.7292" gradientUnits="userSpaceOnUse">
<stop stop-color="white"/>
<stop offset="0.0436152" stop-color="#B4B4B4"/>
<stop offset="0.150732"/>
<stop offset="0.171421" stop-color="#171717"/>
<stop offset="0.385884" stop-color="white"/>
<stop offset="0.632551" stop-color="#E6E6E6"/>
<stop offset="0.856667" stop-color="#1A1A1A"/>
<stop offset="0.998739"/>
</linearGradient>
<linearGradient id="paint9_linear_2322_3173" x1="-150.328" y1="-79.4778" x2="115.565" y2="74.431" gradientUnits="userSpaceOnUse">
<stop stop-color="white"/>
<stop offset="0.0436152" stop-color="#B4B4B4"/>
<stop offset="0.150732"/>
<stop offset="0.171421" stop-color="#171717"/>
<stop offset="0.385884" stop-color="white"/>
<stop offset="0.632551" stop-color="#E6E6E6"/>
<stop offset="0.856667" stop-color="#1A1A1A"/>
<stop offset="0.998739"/>
</linearGradient>
<linearGradient id="paint10_linear_2322_3173" x1="-129.777" y1="-68.6352" x2="101.58" y2="65.2831" gradientUnits="userSpaceOnUse">
<stop stop-color="white"/>
<stop offset="0.0436152" stop-color="#B4B4B4"/>
<stop offset="0.150732"/>
<stop offset="0.171421" stop-color="#171717"/>
<stop offset="0.385884" stop-color="white"/>
<stop offset="0.632551" stop-color="#E6E6E6"/>
<stop offset="0.856667" stop-color="#1A1A1A"/>
<stop offset="0.998739"/>
</linearGradient>
<linearGradient id="paint11_linear_2322_3173" x1="-115.01" y1="-59.3639" x2="90.6957" y2="59.7062" gradientUnits="userSpaceOnUse">
<stop stop-color="white"/>
<stop offset="0.0436152" stop-color="#B4B4B4"/>
<stop offset="0.150732"/>
<stop offset="0.171421" stop-color="#171717"/>
<stop offset="0.385884" stop-color="white"/>
<stop offset="0.632551" stop-color="#E6E6E6"/>
<stop offset="0.856667" stop-color="#1A1A1A"/>
<stop offset="0.998739"/>
</linearGradient>
<linearGradient id="paint12_linear_2322_3173" x1="-113.982" y1="-60.1687" x2="88.3208" y2="56.932" gradientUnits="userSpaceOnUse">
<stop stop-color="white"/>
<stop offset="0.0436152" stop-color="#B4B4B4"/>
<stop offset="0.150732"/>
<stop offset="0.171421" stop-color="#171717"/>
<stop offset="0.385884" stop-color="white"/>
<stop offset="0.632551" stop-color="#E6E6E6"/>
<stop offset="0.856667" stop-color="#1A1A1A"/>
<stop offset="0.998739"/>
</linearGradient>
<linearGradient id="paint13_linear_2322_3173" x1="446.845" y1="726.862" x2="-60.6687" y2="460.828" gradientUnits="userSpaceOnUse">
<stop stop-color="white"/>
<stop offset="0.0436152" stop-color="#B4B4B4"/>
<stop offset="0.150732"/>
<stop offset="0.171421" stop-color="#171717"/>
<stop offset="0.385884" stop-color="white"/>
<stop offset="0.632551" stop-color="#E6E6E6"/>
<stop offset="0.856667" stop-color="#1A1A1A"/>
<stop offset="0.998739"/>
</linearGradient>
<linearGradient id="paint14_linear_2322_3173" x1="428.213" y1="718.71" x2="-43.3854" y2="471.502" gradientUnits="userSpaceOnUse">
<stop stop-color="white"/>
<stop offset="0.0436152" stop-color="#B4B4B4"/>
<stop offset="0.150732"/>
<stop offset="0.171421" stop-color="#171717"/>
<stop offset="0.385884" stop-color="white"/>
<stop offset="0.632551" stop-color="#E6E6E6"/>
<stop offset="0.856667" stop-color="#1A1A1A"/>
<stop offset="0.998739"/>
</linearGradient>
<linearGradient id="paint15_linear_2322_3173" x1="409.587" y1="710.55" x2="-26.0966" y2="482.169" gradientUnits="userSpaceOnUse">
<stop stop-color="white"/>
<stop offset="0.0436152" stop-color="#B4B4B4"/>
<stop offset="0.150732"/>
<stop offset="0.171421" stop-color="#171717"/>
<stop offset="0.385884" stop-color="white"/>
<stop offset="0.632551" stop-color="#E6E6E6"/>
<stop offset="0.856667" stop-color="#1A1A1A"/>
<stop offset="0.998739"/>
</linearGradient>
<linearGradient id="paint16_linear_2322_3173" x1="390.963" y1="702.393" x2="-8.80637" y2="492.838" gradientUnits="userSpaceOnUse">
<stop stop-color="white"/>
<stop offset="0.0436152" stop-color="#B4B4B4"/>
<stop offset="0.150732"/>
<stop offset="0.171421" stop-color="#171717"/>
<stop offset="0.385884" stop-color="white"/>
<stop offset="0.632551" stop-color="#E6E6E6"/>
<stop offset="0.856667" stop-color="#1A1A1A"/>
<stop offset="0.998739"/>
</linearGradient>
<linearGradient id="paint17_linear_2322_3173" x1="372.337" y1="694.232" x2="8.48292" y2="503.504" gradientUnits="userSpaceOnUse">
<stop stop-color="white"/>
<stop offset="0.0436152" stop-color="#B4B4B4"/>
<stop offset="0.150732"/>
<stop offset="0.171421" stop-color="#171717"/>
<stop offset="0.385884" stop-color="white"/>
<stop offset="0.632551" stop-color="#E6E6E6"/>
<stop offset="0.856667" stop-color="#1A1A1A"/>
<stop offset="0.998739"/>
</linearGradient>
<linearGradient id="paint18_linear_2322_3173" x1="353.71" y1="686.075" x2="25.7699" y2="514.172" gradientUnits="userSpaceOnUse">
<stop stop-color="white"/>
<stop offset="0.0436152" stop-color="#B4B4B4"/>
<stop offset="0.150732"/>
<stop offset="0.171421" stop-color="#171717"/>
<stop offset="0.385884" stop-color="white"/>
<stop offset="0.632551" stop-color="#E6E6E6"/>
<stop offset="0.856667" stop-color="#1A1A1A"/>
<stop offset="0.998739"/>
</linearGradient>
<linearGradient id="paint19_linear_2322_3173" x1="335.086" y1="677.917" x2="43.0602" y2="524.84" gradientUnits="userSpaceOnUse">
<stop stop-color="white"/>
<stop offset="0.0436152" stop-color="#B4B4B4"/>
<stop offset="0.150732"/>
<stop offset="0.171421" stop-color="#171717"/>
<stop offset="0.385884" stop-color="white"/>
<stop offset="0.632551" stop-color="#E6E6E6"/>
<stop offset="0.856667" stop-color="#1A1A1A"/>
<stop offset="0.998739"/>
</linearGradient>
<linearGradient id="paint20_linear_2322_3173" x1="316.442" y1="669.791" x2="60.3287" y2="535.539" gradientUnits="userSpaceOnUse">
<stop stop-color="white"/>
<stop offset="0.0436152" stop-color="#B4B4B4"/>
<stop offset="0.150732"/>
<stop offset="0.171421" stop-color="#171717"/>
<stop offset="0.385884" stop-color="white"/>
<stop offset="0.632551" stop-color="#E6E6E6"/>
<stop offset="0.856667" stop-color="#1A1A1A"/>
<stop offset="0.998739"/>
</linearGradient>
<linearGradient id="paint21_linear_2322_3173" x1="297.828" y1="661.616" x2="77.6265" y2="546.189" gradientUnits="userSpaceOnUse">
<stop stop-color="white"/>
<stop offset="0.0436152" stop-color="#B4B4B4"/>
<stop offset="0.150732"/>
<stop offset="0.171421" stop-color="#171717"/>
<stop offset="0.385884" stop-color="white"/>
<stop offset="0.632551" stop-color="#E6E6E6"/>
<stop offset="0.856667" stop-color="#1A1A1A"/>
<stop offset="0.998739"/>
</linearGradient>
<linearGradient id="paint22_linear_2322_3173" x1="279.183" y1="653.498" x2="94.8921" y2="556.895" gradientUnits="userSpaceOnUse">
<stop stop-color="white"/>
<stop offset="0.0436152" stop-color="#B4B4B4"/>
<stop offset="0.150732"/>
<stop offset="0.171421" stop-color="#171717"/>
<stop offset="0.385884" stop-color="white"/>
<stop offset="0.632551" stop-color="#E6E6E6"/>
<stop offset="0.856667" stop-color="#1A1A1A"/>
<stop offset="0.998739"/>
</linearGradient>
</defs>
</svg>
