<svg width="481" height="703" viewBox="0 0 481 703" fill="none" xmlns="http://www.w3.org/2000/svg">
<rect width="465" height="703" rx="10" fill="url(#paint0_linear_2445_2195)"/>
<mask id="mask0_2445_2195" style="mask-type:alpha" maskUnits="userSpaceOnUse" x="0" y="0" width="459" height="703">
<rect width="459" height="703" rx="10" fill="url(#paint1_linear_2445_2195)"/>
</mask>
<g mask="url(#mask0_2445_2195)">
<path d="M528.826 -17.5C528.826 21.6817 497.54 53 459.493 53C421.446 53 390.161 21.6817 390.161 -17.5C390.161 -56.6818 421.446 -88 459.493 -88C497.54 -88 528.826 -56.6818 528.826 -17.5Z" stroke="#005E9E" stroke-width="40"/>
<g opacity="0.1">
<mask id="mask1_2445_2195" style="mask-type:alpha" maskUnits="userSpaceOnUse" x="-364" y="-43" width="619" height="529">
<path d="M12.3035 -23.281C1.0542 -27.1783 -10.472 -30.6838 -22.2528 -33.788C-88.5265 -51.251 -138.21 -41.2979 -174.143 -3.36036C-205.279 29.5124 -221.39 78.2459 -235.605 121.243C-245.093 149.943 -254.056 177.051 -266.135 194.81C-306.347 253.927 -331.259 261.566 -346.143 266.131C-354.762 268.774 -360.456 270.52 -363.494 280.935C-366.47 291.143 -339.888 314.684 -279.839 355.021C-253.868 372.468 -229.507 373.588 -209.933 374.488C-200.127 374.94 -191.644 375.33 -184.887 377.699L-184.654 377.013L-184.887 377.699C-166.279 384.211 -162.008 388.395 -152.649 397.563C-144.845 405.209 -133.051 416.762 -105.989 436.182C-82.2069 453.249 -41.4621 469.209 0.348493 477.836C24.1379 482.744 47.4604 485.224 69.6676 485.204C94.5266 485.182 117.417 481.995 137.705 475.734C175.286 464.135 203.371 442.28 221.181 410.777C238.727 379.742 249.387 345.468 252.865 308.909C256.319 272.594 252.518 235.876 241.567 199.776C225.626 147.228 194.89 98.6651 152.681 59.3392C130.179 38.3745 104.388 19.964 76.0245 4.61855C56.095 -6.16394 34.7601 -15.5004 12.3035 -23.281ZM-254.622 366.051C-262.557 363.302 -270.765 359.391 -279.136 353.768C-306.446 335.422 -326.455 320.815 -340.307 309.112C-360.288 292.23 -363.305 284.651 -362.318 281.267C-359.521 271.677 -354.696 270.197 -345.936 267.511C-330.884 262.895 -305.69 255.169 -265.184 195.62C-252.973 177.667 -243.975 150.449 -234.448 121.632C-220.288 78.8029 -204.239 30.2585 -173.353 -2.35116C-137.776 -39.913 -88.4779 -49.7396 -22.6419 -32.3919C12.5779 -23.1121 45.5664 -10.22 75.4071 5.92417C103.692 21.2267 129.408 39.5838 151.843 60.4853C193.896 99.6663 224.514 148.035 240.388 200.363C251.281 236.272 255.063 272.788 251.628 308.894C248.174 345.213 237.586 379.258 220.159 410.084C202.546 441.237 174.734 462.861 137.495 474.354C117.318 480.582 94.5379 483.751 69.7892 483.773C47.6539 483.793 24.4032 481.321 0.683172 476.427C-40.9935 467.828 -81.5878 451.934 -105.258 434.948C-132.253 415.576 -144.01 404.058 -151.79 396.436C-161.267 387.153 -165.592 382.915 -184.42 376.326C-184.452 376.315 -184.485 376.304 -184.517 376.293C-191.415 373.903 -199.92 373.512 -209.761 373.059C-222.88 372.456 -238.165 371.752 -254.622 366.051Z" fill="url(#paint2_linear_2445_2195)"/>
</mask>
<g mask="url(#mask1_2445_2195)">
<path d="M12.3035 -23.281C1.0542 -27.1783 -10.472 -30.6838 -22.2528 -33.788C-88.5265 -51.251 -138.21 -41.2979 -174.143 -3.36036C-205.279 29.5124 -221.39 78.2459 -235.605 121.243C-245.093 149.943 -254.056 177.051 -266.135 194.81C-306.347 253.927 -331.259 261.566 -346.143 266.131C-354.762 268.774 -360.456 270.52 -363.494 280.935C-366.47 291.143 -339.888 314.684 -279.839 355.021C-253.868 372.468 -229.507 373.588 -209.933 374.488C-200.127 374.94 -191.644 375.33 -184.887 377.699L-184.654 377.013L-184.887 377.699C-166.279 384.211 -162.008 388.395 -152.649 397.563C-144.845 405.209 -133.051 416.762 -105.989 436.182C-82.2069 453.249 -41.4621 469.209 0.348493 477.836C24.1379 482.744 47.4604 485.224 69.6676 485.204C94.5266 485.182 117.417 481.995 137.705 475.734C175.286 464.135 203.371 442.28 221.181 410.777C238.727 379.742 249.387 345.468 252.865 308.909C256.319 272.594 252.518 235.876 241.567 199.776C225.626 147.228 194.89 98.6651 152.681 59.3392C130.179 38.3745 104.388 19.964 76.0245 4.61855C56.095 -6.16394 34.7601 -15.5004 12.3035 -23.281ZM-254.622 366.051C-262.557 363.302 -270.765 359.391 -279.136 353.768C-306.446 335.422 -326.455 320.815 -340.307 309.112C-360.288 292.23 -363.305 284.651 -362.318 281.267C-359.521 271.677 -354.696 270.197 -345.936 267.511C-330.884 262.895 -305.69 255.169 -265.184 195.62C-252.973 177.667 -243.975 150.449 -234.448 121.632C-220.288 78.8029 -204.239 30.2585 -173.353 -2.35116C-137.776 -39.913 -88.4779 -49.7396 -22.6419 -32.3919C12.5779 -23.1121 45.5664 -10.22 75.4071 5.92417C103.692 21.2267 129.408 39.5838 151.843 60.4853C193.896 99.6663 224.514 148.035 240.388 200.363C251.281 236.272 255.063 272.788 251.628 308.894C248.174 345.213 237.586 379.258 220.159 410.084C202.546 441.237 174.734 462.861 137.495 474.354C117.318 480.582 94.5379 483.751 69.7892 483.773C47.6539 483.793 24.4032 481.321 0.683172 476.427C-40.9935 467.828 -81.5878 451.934 -105.258 434.948C-132.253 415.576 -144.01 404.058 -151.79 396.436C-161.267 387.153 -165.592 382.915 -184.42 376.326C-184.452 376.315 -184.485 376.304 -184.517 376.293C-191.415 373.903 -199.92 373.512 -209.761 373.059C-222.88 372.456 -238.165 371.752 -254.622 366.051Z" fill="#004BBB"/>
</g>
<mask id="mask2_2445_2195" style="mask-type:alpha" maskUnits="userSpaceOnUse" x="-340" y="-14" width="570" height="483">
<path d="M9.5912 3.7174C0.494955 0.565988 -8.80054 -2.30549 -18.2814 -4.89051C-77.9201 -21.3106 -122.989 -13.3789 -156.061 19.3574C-184.792 47.7964 -200.355 90.7964 -214.086 128.735C-223.651 155.162 -232.686 180.123 -244.827 196.409C-282.942 248.816 -306.952 256.472 -321.298 261.047C-329.968 263.811 -335.696 265.637 -338.76 275.712C-340.571 281.376 -334.36 291.102 -320.297 304.609C-307.646 316.76 -289.128 331.485 -266.745 347.192C-243.42 363.72 -221.486 365.557 -203.861 367.034C-195.341 367.748 -187.982 368.365 -181.859 370.476L-181.858 370.476C-162.431 377.133 -158.237 380.628 -145.787 390.963C-137.422 397.907 -125.966 407.418 -104.128 422.786C-81.7607 438.536 -43.7285 453.37 -4.87426 461.501C17.3483 466.15 39.0832 468.545 59.7266 468.617C82.8882 468.698 104.169 465.824 122.977 460.073C156.91 449.698 182.377 430.186 198.673 402.079C215.007 373.771 225.059 342.454 228.552 308.997C232.022 275.751 228.842 242.108 219.1 209.005C205.022 161.172 177.524 116.872 139.578 80.8936C119.346 61.7108 96.1103 44.8189 70.517 30.688C51.5419 20.2112 31.1348 11.1817 9.5912 3.7174ZM-241.016 358.978C-249.084 356.183 -257.482 352.11 -266.066 346.027C-313.408 312.805 -340.842 285.993 -337.664 276.052C-334.826 266.718 -329.656 265.07 -321.091 262.339C-306.599 257.718 -282.344 249.984 -243.967 197.216C-231.693 180.753 -222.62 155.684 -213.014 129.143C-199.339 91.3616 -183.84 48.5385 -155.351 20.3384C-122.612 -12.0677 -77.8983 -19.8924 -18.6559 -3.58116C13.2063 5.10613 43.0107 17.0478 69.93 31.9102C95.4489 46.0004 118.615 62.8411 138.784 81.9642C176.585 117.804 203.973 161.921 217.989 209.545C227.679 242.468 230.842 275.919 227.392 308.968C223.923 342.2 213.94 373.303 197.72 401.414C181.611 429.198 156.399 448.498 122.784 458.776C97.9393 466.373 55.6796 472.782 -4.55727 460.177C-43.29 452.073 -81.1839 437.298 -103.449 421.621C-125.254 406.276 -136.693 396.78 -145.045 389.847C-157.259 379.707 -161.842 375.915 -181.425 369.185C-187.663 367.035 -195.077 366.413 -203.662 365.694C-214.666 364.772 -227.365 363.707 -241.016 358.978Z" fill="url(#paint3_linear_2445_2195)"/>
</mask>
<g mask="url(#mask2_2445_2195)">
<path d="M9.5912 3.7174C0.494955 0.565988 -8.80054 -2.30549 -18.2814 -4.89051C-77.9201 -21.3106 -122.989 -13.3789 -156.061 19.3574C-184.792 47.7964 -200.355 90.7964 -214.086 128.735C-223.651 155.162 -232.686 180.123 -244.827 196.409C-282.942 248.816 -306.952 256.472 -321.298 261.047C-329.968 263.811 -335.696 265.637 -338.76 275.712C-340.571 281.376 -334.36 291.102 -320.297 304.609C-307.646 316.76 -289.128 331.485 -266.745 347.192C-243.42 363.72 -221.486 365.557 -203.861 367.034C-195.341 367.748 -187.982 368.365 -181.859 370.476L-181.858 370.476C-162.431 377.133 -158.237 380.628 -145.787 390.963C-137.422 397.907 -125.966 407.418 -104.128 422.786C-81.7607 438.536 -43.7285 453.37 -4.87426 461.501C17.3483 466.15 39.0832 468.545 59.7266 468.617C82.8882 468.698 104.169 465.824 122.977 460.073C156.91 449.698 182.377 430.186 198.673 402.079C215.007 373.771 225.059 342.454 228.552 308.997C232.022 275.751 228.842 242.108 219.1 209.005C205.022 161.172 177.524 116.872 139.578 80.8936C119.346 61.7108 96.1103 44.8189 70.517 30.688C51.5419 20.2112 31.1348 11.1817 9.5912 3.7174ZM-241.016 358.978C-249.084 356.183 -257.482 352.11 -266.066 346.027C-313.408 312.805 -340.842 285.993 -337.664 276.052C-334.826 266.718 -329.656 265.07 -321.091 262.339C-306.599 257.718 -282.344 249.984 -243.967 197.216C-231.693 180.753 -222.62 155.684 -213.014 129.143C-199.339 91.3616 -183.84 48.5385 -155.351 20.3384C-122.612 -12.0677 -77.8983 -19.8924 -18.6559 -3.58116C13.2063 5.10613 43.0107 17.0478 69.93 31.9102C95.4489 46.0004 118.615 62.8411 138.784 81.9642C176.585 117.804 203.973 161.921 217.989 209.545C227.679 242.468 230.842 275.919 227.392 308.968C223.923 342.2 213.94 373.303 197.72 401.414C181.611 429.198 156.399 448.498 122.784 458.776C97.9393 466.373 55.6796 472.782 -4.55727 460.177C-43.29 452.073 -81.1839 437.298 -103.449 421.621C-125.254 406.276 -136.693 396.78 -145.045 389.847C-157.259 379.707 -161.842 375.915 -181.425 369.185C-187.663 367.035 -195.077 366.413 -203.662 365.694C-214.666 364.772 -227.365 363.707 -241.016 358.978Z" fill="#004BBB"/>
</g>
<mask id="mask3_2445_2195" style="mask-type:alpha" maskUnits="userSpaceOnUse" x="-315" y="15" width="521" height="438">
<path d="M7.19865 30.7732C0.176721 28.3399 -6.98813 26.0864 -14.3117 24.0076C-67.3627 8.62994 -107.827 14.583 -138.015 42.2071C-164.321 66.2785 -179.301 103.581 -192.517 136.493C-202.173 160.536 -211.293 183.246 -223.519 198.008C-259.464 243.72 -282.551 251.351 -296.345 255.911C-305.124 258.813 -310.923 260.73 -314.028 270.489C-318.619 283.692 -285.952 315.449 -253.655 339.362C-232.872 355.084 -213.275 357.639 -197.528 359.692C-190.386 360.623 -184.219 361.427 -178.832 363.252L-178.831 363.253C-156.714 370.675 -153.083 373.292 -132.913 387.789C-125.319 393.247 -115.867 400.041 -102.269 409.39C-88.3695 418.958 -67.8729 428.392 -44.555 435.953C-18.3155 444.462 9.18936 449.84 34.9863 451.504C65.5162 453.474 92.6121 450.291 115.522 442.042C142.209 432.433 162.611 416.061 176.162 393.38C191.289 367.798 200.738 339.435 204.249 309.076C207.739 278.895 205.181 248.323 196.648 218.212C184.428 175.096 160.163 135.061 126.477 102.434C94.0658 71.0427 54.0118 46.9928 7.19865 30.7732ZM-227.036 352.23C-235.331 349.356 -244.057 345.052 -252.997 338.288C-291.462 309.809 -316.7 281.442 -313.012 270.834C-310.118 261.737 -304.857 259.998 -296.141 257.117C-282.222 252.516 -258.926 244.815 -222.753 198.813C-210.394 183.892 -201.232 161.078 -191.533 136.924C-178.375 104.157 -163.461 67.0181 -137.389 43.1607C-107.51 15.8199 -67.3693 9.95432 -14.6726 25.2293C41.334 41.1289 88.5665 67.4382 125.726 103.428C159.278 135.924 183.441 175.786 195.605 218.705C204.091 248.646 206.635 279.036 203.166 309.033C199.68 339.181 190.297 367.345 175.279 392.743C161.893 415.149 141.71 431.334 115.291 440.846C92.5136 449.047 65.5514 452.211 35.1541 450.249C9.43214 448.589 -17.9962 443.227 -44.1646 434.741C-67.4002 427.202 -87.8132 417.813 -101.642 408.294C-115.232 398.951 -124.68 392.16 -132.271 386.704C-152.536 372.139 -156.187 369.518 -178.431 362.043C-183.903 360.19 -190.112 359.38 -197.3 358.443C-206.15 357.289 -216.226 355.975 -227.036 352.23Z" fill="url(#paint4_linear_2445_2195)"/>
</mask>
<g mask="url(#mask3_2445_2195)">
<path d="M7.19865 30.7732C0.176721 28.3399 -6.98813 26.0864 -14.3117 24.0076C-67.3627 8.62994 -107.827 14.583 -138.015 42.2071C-164.321 66.2785 -179.301 103.581 -192.517 136.493C-202.173 160.536 -211.293 183.246 -223.519 198.008C-259.464 243.72 -282.551 251.351 -296.345 255.911C-305.124 258.813 -310.923 260.73 -314.028 270.489C-318.619 283.692 -285.952 315.449 -253.655 339.362C-232.872 355.084 -213.275 357.639 -197.528 359.692C-190.386 360.623 -184.219 361.427 -178.832 363.252L-178.831 363.253C-156.714 370.675 -153.083 373.292 -132.913 387.789C-125.319 393.247 -115.867 400.041 -102.269 409.39C-88.3695 418.958 -67.8729 428.392 -44.555 435.953C-18.3155 444.462 9.18936 449.84 34.9863 451.504C65.5162 453.474 92.6121 450.291 115.522 442.042C142.209 432.433 162.611 416.061 176.162 393.38C191.289 367.798 200.738 339.435 204.249 309.076C207.739 278.895 205.181 248.323 196.648 218.212C184.428 175.096 160.163 135.061 126.477 102.434C94.0658 71.0427 54.0118 46.9928 7.19865 30.7732ZM-227.036 352.23C-235.331 349.356 -244.057 345.052 -252.997 338.288C-291.462 309.809 -316.7 281.442 -313.012 270.834C-310.118 261.737 -304.857 259.998 -296.141 257.117C-282.222 252.516 -258.926 244.815 -222.753 198.813C-210.394 183.892 -201.232 161.078 -191.533 136.924C-178.375 104.157 -163.461 67.0181 -137.389 43.1607C-107.51 15.8199 -67.3693 9.95432 -14.6726 25.2293C41.334 41.1289 88.5665 67.4382 125.726 103.428C159.278 135.924 183.441 175.786 195.605 218.705C204.091 248.646 206.635 279.036 203.166 309.033C199.68 339.181 190.297 367.345 175.279 392.743C161.893 415.149 141.71 431.334 115.291 440.846C92.5136 449.047 65.5514 452.211 35.1541 450.249C9.43214 448.589 -17.9962 443.227 -44.1646 434.741C-67.4002 427.202 -87.8132 417.813 -101.642 408.294C-115.232 398.951 -124.68 392.16 -132.271 386.704C-152.536 372.139 -156.187 369.518 -178.431 362.043C-183.903 360.19 -190.112 359.38 -197.3 358.443C-206.15 357.289 -216.226 355.975 -227.036 352.23Z" fill="#004BBB"/>
</g>
<mask id="mask4_2445_2195" style="mask-type:alpha" maskUnits="userSpaceOnUse" x="-290" y="44" width="472" height="392">
<path d="M4.43407 57.6555C-0.409417 55.9775 -5.3328 54.393 -10.3389 52.9009C-56.8632 38.565 -92.7409 42.5924 -120.019 65.2152C-143.875 85.0015 -157.611 115.291 -170.894 144.583C-180.653 166.104 -189.871 186.432 -202.208 199.604C-235.879 238.638 -257.154 245.897 -271.233 250.701C-280.522 253.87 -286.129 255.784 -289.294 265.262C-293.784 277.208 -272.383 306.326 -240.563 331.525C-222.138 346.664 -204.706 349.943 -190.7 352.579C-185.341 353.587 -180.28 354.539 -175.803 356.025L-175.801 356.025L-173.531 356.768C-147.419 365.3 -145.288 365.998 -100.408 395.989C-87.8035 404.429 -68.6117 413.19 -47.7654 420.034C-23.7849 427.902 1.27673 433.011 24.71 434.81C52.5533 436.948 77.2632 434.451 98.1525 427.391C122.521 419.155 141.194 404.784 153.653 384.678C167.58 361.82 176.431 336.408 179.964 309.143C183.479 282.019 181.547 254.513 174.222 227.387C163.852 188.99 142.815 153.223 113.383 123.953C84.1105 94.841 47.5126 72.5806 4.43407 57.6555ZM-212.383 346.043C-221.07 343.033 -230.367 338.398 -239.925 330.546C-270.879 306.032 -292.602 276.904 -288.357 265.609C-285.388 256.718 -279.985 254.875 -271.034 251.82C-257.707 247.273 -235.402 239.662 -201.539 200.405C-189.071 187.094 -179.808 166.667 -170.001 145.041C-156.781 115.887 -143.111 85.7407 -119.479 66.1417C-92.4859 43.7548 -56.8999 39.7947 -10.6869 54.0347C38.7115 68.7575 80.216 92.5884 112.675 124.87C141.982 154.016 162.928 189.62 173.247 227.833C180.529 254.797 182.45 282.134 178.958 309.084C175.45 336.153 166.663 361.382 152.842 384.068C140.541 403.919 122.074 418.119 97.9569 426.271C77.1874 433.29 52.5995 435.771 24.8769 433.642C1.51058 431.849 -23.4819 426.753 -47.3992 418.906C-68.1774 412.09 -87.2907 403.361 -99.8334 394.963C-144.812 364.906 -146.954 364.204 -173.165 355.639L-175.434 354.898C-179.965 353.394 -185.053 352.437 -190.44 351.423C-197.07 350.176 -204.473 348.783 -212.383 346.043Z" fill="url(#paint5_linear_2445_2195)"/>
</mask>
<g mask="url(#mask4_2445_2195)">
<path d="M4.43407 57.6555C-0.409417 55.9775 -5.3328 54.393 -10.3389 52.9009C-56.8632 38.565 -92.7409 42.5924 -120.019 65.2152C-143.875 85.0015 -157.611 115.291 -170.894 144.583C-180.653 166.104 -189.871 186.432 -202.208 199.604C-235.879 238.638 -257.154 245.897 -271.233 250.701C-280.522 253.87 -286.129 255.784 -289.294 265.262C-293.784 277.208 -272.383 306.326 -240.563 331.525C-222.138 346.664 -204.706 349.943 -190.7 352.579C-185.341 353.587 -180.28 354.539 -175.803 356.025L-175.801 356.025L-173.531 356.768C-147.419 365.3 -145.288 365.998 -100.408 395.989C-87.8035 404.429 -68.6117 413.19 -47.7654 420.034C-23.7849 427.902 1.27673 433.011 24.71 434.81C52.5533 436.948 77.2632 434.451 98.1525 427.391C122.521 419.155 141.194 404.784 153.653 384.678C167.58 361.82 176.431 336.408 179.964 309.143C183.479 282.019 181.547 254.513 174.222 227.387C163.852 188.99 142.815 153.223 113.383 123.953C84.1105 94.841 47.5126 72.5806 4.43407 57.6555ZM-212.383 346.043C-221.07 343.033 -230.367 338.398 -239.925 330.546C-270.879 306.032 -292.602 276.904 -288.357 265.609C-285.388 256.718 -279.985 254.875 -271.034 251.82C-257.707 247.273 -235.402 239.662 -201.539 200.405C-189.071 187.094 -179.808 166.667 -170.001 145.041C-156.781 115.887 -143.111 85.7407 -119.479 66.1417C-92.4859 43.7548 -56.8999 39.7947 -10.6869 54.0347C38.7115 68.7575 80.216 92.5884 112.675 124.87C141.982 154.016 162.928 189.62 173.247 227.833C180.529 254.797 182.45 282.134 178.958 309.084C175.45 336.153 166.663 361.382 152.842 384.068C140.541 403.919 122.074 418.119 97.9569 426.271C77.1874 433.29 52.5995 435.771 24.8769 433.642C1.51058 431.849 -23.4819 426.753 -47.3992 418.906C-68.1774 412.09 -87.2907 403.361 -99.8334 394.963C-144.812 364.906 -146.954 364.204 -173.165 355.639L-175.434 354.898C-179.965 353.394 -185.053 352.437 -190.44 351.423C-197.07 350.176 -204.473 348.783 -212.383 346.043Z" fill="#004BBB"/>
</g>
<mask id="mask5_2445_2195" style="mask-type:alpha" maskUnits="userSpaceOnUse" x="-266" y="73" width="424" height="347">
<path d="M1.66174 84.4585C-0.987814 83.5406 -3.66236 82.6544 -6.36823 81.7989C-96.1796 51.9948 -124.362 105.716 -149.227 153.112C-159.099 171.931 -168.425 189.707 -180.895 201.206C-212.14 233.585 -232.446 240.691 -245.883 245.393C-255.502 248.758 -261.309 250.79 -264.562 260.039C-266.887 265.794 -264.454 275.819 -257.876 287.516C-250.891 299.936 -240.094 312.784 -227.474 323.692C-210.993 338.77 -195.993 342.624 -182.759 346.025C-179.248 346.928 -175.932 347.78 -172.775 348.801L-172.773 348.802C-168.012 350.313 -163.828 351.523 -160.137 352.591C-143.088 357.522 -132.798 360.498 -98.5475 382.593C-76.7167 396.718 -32.0494 413.86 14.4322 418.12C39.5908 420.425 61.9138 418.617 80.7813 412.744C102.831 405.881 119.774 393.512 131.142 375.98C143.876 355.844 152.138 333.378 155.7 309.2C159.247 285.127 157.944 260.677 151.829 236.529C143.3 202.852 125.481 171.358 100.296 145.45C74.1901 118.595 41.0367 98.1006 1.66174 84.4585ZM-196.696 340.868C-206.072 337.62 -216.152 332.6 -226.853 322.811C-253.968 299.375 -268.034 271.104 -263.703 260.385C-260.632 251.654 -255.009 249.687 -245.693 246.427C-232.167 241.694 -211.726 234.541 -180.328 202.002C-167.73 190.386 -158.357 172.519 -148.433 153.603C-135.839 129.598 -122.818 104.776 -101.651 89.3278C-77.5719 71.754 -46.5148 69.6332 -6.70443 82.8444C36.0869 96.3782 71.8634 117.725 99.6309 146.289C124.701 172.079 142.437 203.42 150.922 236.924C156.999 260.921 158.294 285.212 154.771 309.123C151.236 333.121 143.037 355.418 130.403 375.395C115.814 397.894 83.8775 423.389 14.5984 417.039C-31.7516 412.791 -76.2743 395.709 -98.0266 381.635C-132.376 359.478 -142.708 356.489 -159.824 351.538C-163.51 350.472 -167.688 349.263 -172.439 347.756C-175.618 346.727 -178.946 345.872 -182.469 344.967C-187.006 343.801 -191.754 342.581 -196.696 340.868Z" fill="url(#paint6_linear_2445_2195)"/>
</mask>
<g mask="url(#mask5_2445_2195)">
<path d="M1.66174 84.4585C-0.987814 83.5406 -3.66236 82.6544 -6.36823 81.7989C-96.1796 51.9948 -124.362 105.716 -149.227 153.112C-159.099 171.931 -168.425 189.707 -180.895 201.206C-212.14 233.585 -232.446 240.691 -245.883 245.393C-255.502 248.758 -261.309 250.79 -264.562 260.039C-266.887 265.794 -264.454 275.819 -257.876 287.516C-250.891 299.936 -240.094 312.784 -227.474 323.692C-210.993 338.77 -195.993 342.624 -182.759 346.025C-179.248 346.928 -175.932 347.78 -172.775 348.801L-172.773 348.802C-168.012 350.313 -163.828 351.523 -160.137 352.591C-143.088 357.522 -132.798 360.498 -98.5475 382.593C-76.7167 396.718 -32.0494 413.86 14.4322 418.12C39.5908 420.425 61.9138 418.617 80.7813 412.744C102.831 405.881 119.774 393.512 131.142 375.98C143.876 355.844 152.138 333.378 155.7 309.2C159.247 285.127 157.944 260.677 151.829 236.529C143.3 202.852 125.481 171.358 100.296 145.45C74.1901 118.595 41.0367 98.1006 1.66174 84.4585ZM-196.696 340.868C-206.072 337.62 -216.152 332.6 -226.853 322.811C-253.968 299.375 -268.034 271.104 -263.703 260.385C-260.632 251.654 -255.009 249.687 -245.693 246.427C-232.167 241.694 -211.726 234.541 -180.328 202.002C-167.73 190.386 -158.357 172.519 -148.433 153.603C-135.839 129.598 -122.818 104.776 -101.651 89.3278C-77.5719 71.754 -46.5148 69.6332 -6.70443 82.8444C36.0869 96.3782 71.8634 117.725 99.6309 146.289C124.701 172.079 142.437 203.42 150.922 236.924C156.999 260.921 158.294 285.212 154.771 309.123C151.236 333.121 143.037 355.418 130.403 375.395C115.814 397.894 83.8775 423.389 14.5984 417.039C-31.7516 412.791 -76.2743 395.709 -98.0266 381.635C-132.376 359.478 -142.708 356.489 -159.824 351.538C-163.51 350.472 -167.688 349.263 -172.439 347.756C-175.618 346.727 -178.946 345.872 -182.469 344.967C-187.006 343.801 -191.754 342.581 -196.696 340.868Z" fill="#004BBB"/>
</g>
<mask id="mask6_2445_2195" style="mask-type:alpha" maskUnits="userSpaceOnUse" x="-242" y="101" width="376" height="302">
<path d="M-5.26309 109.677C-37.6612 98.4524 -63.54 99.1837 -84.2969 111.893C-103.177 123.454 -115.567 143.159 -127.549 162.214C-137.533 178.094 -146.963 193.092 -159.579 202.809C-188.156 228.567 -207.406 235.404 -220.144 239.927C-230.307 243.537 -236.441 245.716 -239.828 254.816C-245.032 266.856 -235.265 295.535 -214.386 315.854C-198.62 332.561 -184.718 336.902 -171.271 341.1L-169.744 341.577C-163.25 343.562 -157.67 344.803 -152.274 346.004C-137.808 349.222 -124.145 352.263 -96.6852 369.195C-76.6956 381.572 -36.6127 396.939 4.15538 401.428C38.5156 405.212 84.5326 402.359 108.631 367.283C131.731 332.468 139.333 288.124 129.493 245.614C122.79 216.661 108.175 189.446 87.2263 166.911C64.324 142.273 34.6034 123.511 -1.1228 111.133C-1.54657 110.986 -1.96916 110.841 -2.39419 110.696C-3.35639 110.346 -4.31242 110.006 -5.26309 109.677ZM-179.03 337.526C-189.91 333.756 -201.257 328.347 -213.777 315.078C-236.098 293.357 -243.536 265.542 -239.047 255.158C-235.829 246.512 -229.858 244.392 -219.964 240.878C-207.159 236.33 -187.808 229.457 -159.118 203.596C-146.383 193.789 -136.902 178.71 -126.863 162.745C-114.949 143.795 -102.628 124.2 -83.9503 112.763C-62.8126 99.8202 -36.2529 99.4631 -2.72104 111.651C-2.29937 111.796 -1.87266 111.942 -1.45268 112.087C34.169 124.429 63.7837 143.122 86.6018 167.669C107.447 190.094 121.988 217.165 128.653 245.958C133.524 267 134.187 288.258 130.622 309.141C127.048 330.078 119.426 349.451 107.966 366.721C84.145 401.395 38.4551 404.194 4.32171 400.436C-36.3362 395.958 -76.2957 380.643 -96.2185 368.306C-123.783 351.31 -137.504 348.257 -152.03 345.025C-157.413 343.827 -162.979 342.588 -169.446 340.612L-170.969 340.135C-173.634 339.304 -176.318 338.466 -179.03 337.526Z" fill="url(#paint7_linear_2445_2195)"/>
</mask>
<g mask="url(#mask6_2445_2195)">
<path d="M-5.26309 109.677C-37.6612 98.4524 -63.54 99.1837 -84.2969 111.893C-103.177 123.454 -115.567 143.159 -127.549 162.214C-137.533 178.094 -146.963 193.092 -159.579 202.809C-188.156 228.567 -207.406 235.404 -220.144 239.927C-230.307 243.537 -236.441 245.716 -239.828 254.816C-245.032 266.856 -235.265 295.535 -214.386 315.854C-198.62 332.561 -184.718 336.902 -171.271 341.1L-169.744 341.577C-163.25 343.562 -157.67 344.803 -152.274 346.004C-137.808 349.222 -124.145 352.263 -96.6852 369.195C-76.6956 381.572 -36.6127 396.939 4.15538 401.428C38.5156 405.212 84.5326 402.359 108.631 367.283C131.731 332.468 139.333 288.124 129.493 245.614C122.79 216.661 108.175 189.446 87.2263 166.911C64.324 142.273 34.6034 123.511 -1.1228 111.133C-1.54657 110.986 -1.96916 110.841 -2.39419 110.696C-3.35639 110.346 -4.31242 110.006 -5.26309 109.677ZM-179.03 337.526C-189.91 333.756 -201.257 328.347 -213.777 315.078C-236.098 293.357 -243.536 265.542 -239.047 255.158C-235.829 246.512 -229.858 244.392 -219.964 240.878C-207.159 236.33 -187.808 229.457 -159.118 203.596C-146.383 193.789 -136.902 178.71 -126.863 162.745C-114.949 143.795 -102.628 124.2 -83.9503 112.763C-62.8126 99.8202 -36.2529 99.4631 -2.72104 111.651C-2.29937 111.796 -1.87266 111.942 -1.45268 112.087C34.169 124.429 63.7837 143.122 86.6018 167.669C107.447 190.094 121.988 217.165 128.653 245.958C133.524 267 134.187 288.258 130.622 309.141C127.048 330.078 119.426 349.451 107.966 366.721C84.145 401.395 38.4551 404.194 4.32171 400.436C-36.3362 395.958 -76.2957 380.643 -96.2185 368.306C-123.783 351.31 -137.504 348.257 -152.03 345.025C-157.413 343.827 -162.979 342.588 -169.446 340.612L-170.969 340.135C-173.634 339.304 -176.318 338.466 -179.03 337.526Z" fill="#004BBB"/>
</g>
<mask id="mask7_2445_2195" style="mask-type:alpha" maskUnits="userSpaceOnUse" x="-218" y="130" width="328" height="257">
<path d="M-6.97227 136.36C-30.6682 128.15 -50.2749 127.938 -66.7096 135.672C-83.0709 143.371 -94.712 157.974 -105.97 172.095C-115.588 184.16 -125.533 196.636 -138.262 204.421C-163.762 223.609 -181.783 229.989 -193.708 234.211C-204.802 238.138 -211.499 240.509 -215.094 249.596C-220.294 260.885 -217.516 289.279 -201.301 308.013C-190.303 322.481 -179.956 330.363 -166.718 334.355L-166.715 334.356C-159.665 336.413 -153.281 337.356 -146.522 338.355C-132.239 340.466 -117.469 342.648 -94.8231 355.801C-76.5596 366.47 -41.0119 380.076 -6.12219 384.74C24.1121 388.781 64.6574 387.525 86.1173 358.589C106.954 329.136 114.653 291.245 107.246 254.623C102.347 230.396 90.914 207.469 74.1838 188.318C55.6783 167.135 31.2507 150.743 1.57956 139.597C-1.32728 138.407 -4.18029 137.327 -6.97227 136.36ZM-168.784 332.717C-180.777 328.562 -190.441 320.852 -200.698 307.358C-216.697 288.873 -219.49 261.003 -214.391 249.93C-210.952 241.241 -204.769 239.052 -193.546 235.079C-181.574 230.841 -163.481 224.436 -137.911 205.192C-125.08 197.346 -115.081 184.803 -105.411 172.673C-94.2209 158.637 -82.6496 144.122 -66.474 136.51C-48.2976 127.957 -26.1451 129.252 1.26001 140.462C30.8344 151.572 55.1699 167.899 73.5986 188.994C90.2371 208.039 101.606 230.833 106.474 254.91C113.824 291.253 106.19 328.845 85.5304 358.049C64.3302 386.633 24.0779 387.85 -5.95531 383.835C-40.7546 379.183 -76.203 365.617 -94.412 354.981C-117.168 341.763 -132.001 339.571 -146.346 337.452C-153.082 336.456 -159.444 335.516 -166.451 333.472C-167.239 333.235 -168.016 332.983 -168.784 332.717Z" fill="url(#paint8_linear_2445_2195)"/>
</mask>
<g mask="url(#mask7_2445_2195)">
<path d="M-6.97227 136.36C-30.6682 128.15 -50.2749 127.938 -66.7096 135.672C-83.0709 143.371 -94.712 157.974 -105.97 172.095C-115.588 184.16 -125.533 196.636 -138.262 204.421C-163.762 223.609 -181.783 229.989 -193.708 234.211C-204.802 238.138 -211.499 240.509 -215.094 249.596C-220.294 260.885 -217.516 289.279 -201.301 308.013C-190.303 322.481 -179.956 330.363 -166.718 334.355L-166.715 334.356C-159.665 336.413 -153.281 337.356 -146.522 338.355C-132.239 340.466 -117.469 342.648 -94.8231 355.801C-76.5596 366.47 -41.0119 380.076 -6.12219 384.74C24.1121 388.781 64.6574 387.525 86.1173 358.589C106.954 329.136 114.653 291.245 107.246 254.623C102.347 230.396 90.914 207.469 74.1838 188.318C55.6783 167.135 31.2507 150.743 1.57956 139.597C-1.32728 138.407 -4.18029 137.327 -6.97227 136.36ZM-168.784 332.717C-180.777 328.562 -190.441 320.852 -200.698 307.358C-216.697 288.873 -219.49 261.003 -214.391 249.93C-210.952 241.241 -204.769 239.052 -193.546 235.079C-181.574 230.841 -163.481 224.436 -137.911 205.192C-125.08 197.346 -115.081 184.803 -105.411 172.673C-94.2209 158.637 -82.6496 144.122 -66.474 136.51C-48.2976 127.957 -26.1451 129.252 1.26001 140.462C30.8344 151.572 55.1699 167.899 73.5986 188.994C90.2371 208.039 101.606 230.833 106.474 254.91C113.824 291.253 106.19 328.845 85.5304 358.049C64.3302 386.633 24.0779 387.85 -5.95531 383.835C-40.7546 379.183 -76.203 365.617 -94.412 354.981C-117.168 341.763 -132.001 339.571 -146.346 337.452C-153.082 336.456 -159.444 335.516 -166.451 333.472C-167.239 333.235 -168.016 332.983 -168.784 332.717Z" fill="#004BBB"/>
</g>
<mask id="mask8_2445_2195" style="mask-type:alpha" maskUnits="userSpaceOnUse" x="-196" y="157" width="283" height="214">
<path d="M-8.87708 162.5C-47.0534 149.272 -65.4711 165.723 -84.8514 183.032C-94.4095 191.568 -104.293 200.395 -116.946 206.036C-138.584 218.749 -154.336 224.115 -165.837 228.033C-179.104 232.552 -186.412 235.041 -190.362 244.374C-193.354 250.493 -195.291 260.454 -195.407 270.345C-195.547 282.3 -192.995 292.888 -188.222 300.157C-181.174 313.469 -174.882 323.926 -163.69 327.131L-163.687 327.132C-156.603 329.079 -149.282 329.62 -141.53 330.193C-127.539 331.227 -111.681 332.4 -92.961 342.405C-80.0144 349.377 -49.318 362.625 -16.4017 368.048C0.723679 370.869 15.8858 371.122 28.6641 368.801C43.7592 366.059 55.5136 359.698 63.6001 349.895C82.2599 325.793 90.1172 294.309 85.1663 263.503C82.0323 244.006 73.7446 225.377 61.1989 209.631C47.3253 192.218 28.6039 178.379 5.555 168.496C0.444971 166.049 -4.35555 164.066 -8.87708 162.5ZM-164.677 325.944C-174.881 322.409 -180.891 312.351 -187.618 299.651C-198.53 283.029 -194.793 255.046 -189.735 244.698C-185.932 235.713 -178.745 233.265 -165.698 228.82C-154.167 224.893 -138.375 219.513 -116.709 206.781C-103.984 201.111 -94.0526 192.241 -84.4483 183.664C-73.4984 173.884 -63.1556 164.647 -49.4483 160.602C-34.0015 156.045 -16.6252 158.798 5.23754 169.267C28.2032 179.114 46.8429 192.891 60.6496 210.219C73.1158 225.865 81.3502 244.369 84.4616 263.729C89.3711 294.275 81.5833 325.491 63.0956 349.372C55.1441 359.011 43.5422 365.278 28.6214 367.988C15.9142 370.296 0.823247 370.042 -16.2326 367.232C-49.0713 361.822 -79.6917 348.608 -92.6075 341.652C-111.438 331.587 -127.364 330.41 -141.415 329.371C-149.135 328.801 -156.429 328.262 -163.456 326.33C-163.87 326.211 -164.277 326.083 -164.677 325.944Z" fill="url(#paint9_linear_2445_2195)"/>
</mask>
<g mask="url(#mask8_2445_2195)">
<path d="M-8.87708 162.5C-47.0534 149.272 -65.4711 165.723 -84.8514 183.032C-94.4095 191.568 -104.293 200.395 -116.946 206.036C-138.584 218.749 -154.336 224.115 -165.837 228.033C-179.104 232.552 -186.412 235.041 -190.362 244.374C-193.354 250.493 -195.291 260.454 -195.407 270.345C-195.547 282.3 -192.995 292.888 -188.222 300.157C-181.174 313.469 -174.882 323.926 -163.69 327.131L-163.687 327.132C-156.603 329.079 -149.282 329.62 -141.53 330.193C-127.539 331.227 -111.681 332.4 -92.961 342.405C-80.0144 349.377 -49.318 362.625 -16.4017 368.048C0.723679 370.869 15.8858 371.122 28.6641 368.801C43.7592 366.059 55.5136 359.698 63.6001 349.895C82.2599 325.793 90.1172 294.309 85.1663 263.503C82.0323 244.006 73.7446 225.377 61.1989 209.631C47.3253 192.218 28.6039 178.379 5.555 168.496C0.444971 166.049 -4.35555 164.066 -8.87708 162.5ZM-164.677 325.944C-174.881 322.409 -180.891 312.351 -187.618 299.651C-198.53 283.029 -194.793 255.046 -189.735 244.698C-185.932 235.713 -178.745 233.265 -165.698 228.82C-154.167 224.893 -138.375 219.513 -116.709 206.781C-103.984 201.111 -94.0526 192.241 -84.4483 183.664C-73.4984 173.884 -63.1556 164.647 -49.4483 160.602C-34.0015 156.045 -16.6252 158.798 5.23754 169.267C28.2032 179.114 46.8429 192.891 60.6496 210.219C73.1158 225.865 81.3502 244.369 84.4616 263.729C89.3711 294.275 81.5833 325.491 63.0956 349.372C55.1441 359.011 43.5422 365.278 28.6214 367.988C15.9142 370.296 0.823247 370.042 -16.2326 367.232C-49.0713 361.822 -79.6917 348.608 -92.6075 341.652C-111.438 331.587 -127.364 330.41 -141.415 329.371C-149.135 328.801 -156.429 328.262 -163.456 326.33C-163.87 326.211 -164.277 326.083 -164.677 325.944Z" fill="#004BBB"/>
</g>
<mask id="mask9_2445_2195" style="mask-type:alpha" maskUnits="userSpaceOnUse" x="-177" y="183" width="241" height="172">
<path d="M-11.0846 187.448C-34.1431 179.458 -48.4768 186.663 -65.6621 195.298C-74.6335 199.805 -83.9097 204.467 -95.6308 207.658C-111.598 214.104 -124.13 217.877 -134.199 220.909C-151.475 226.112 -160.992 228.977 -165.629 239.151C-171.392 250.294 -180.421 278.227 -175.153 292.251C-174.914 293.288 -174.68 294.332 -174.445 295.376C-171.999 306.28 -169.465 317.556 -160.661 319.904L-160.658 319.905C-153.78 321.654 -145.473 321.683 -136.678 321.713C-122.447 321.763 -106.319 321.819 -91.0965 329.006C-74.6443 336.852 9.05057 374.315 41.0793 341.203C57.7292 322.447 65.8713 297.294 63.4302 272.181C61.9736 257.197 56.9002 243.269 48.3514 230.782C39.0351 217.174 25.9757 205.941 9.53526 197.397C1.89003 192.816 -4.91142 189.586 -11.0846 187.448ZM-161.245 318.945C-169.091 316.227 -171.496 305.506 -173.824 295.127C-174.06 294.074 -174.297 293.02 -174.539 291.973L-174.553 291.926C-179.751 278.144 -170.793 250.513 -165.077 239.46C-160.581 229.596 -151.174 226.764 -134.096 221.621C-124.014 218.585 -111.467 214.807 -95.5083 208.363C-83.7611 205.166 -74.4557 200.49 -65.4559 195.969C-43.8301 185.102 -26.7474 176.52 9.21101 198.066C25.5829 206.575 38.5723 217.744 47.8335 231.272C56.3156 243.662 61.349 257.477 62.7931 272.333C65.2116 297.209 57.1465 322.124 40.6662 340.689C27.9049 353.882 5.30046 357.23 -26.5082 350.628C-54.5069 344.816 -80.7992 333.092 -90.8039 328.32C-106.133 321.085 -122.326 321.027 -136.613 320.976C-145.374 320.946 -153.649 320.917 -160.462 319.185C-160.728 319.114 -160.99 319.034 -161.245 318.945Z" fill="url(#paint10_linear_2445_2195)"/>
</mask>
<g mask="url(#mask9_2445_2195)">
<path d="M-11.0846 187.448C-34.1431 179.458 -48.4768 186.663 -65.6621 195.298C-74.6335 199.805 -83.9097 204.467 -95.6308 207.658C-111.598 214.104 -124.13 217.877 -134.199 220.909C-151.475 226.112 -160.992 228.977 -165.629 239.151C-171.392 250.294 -180.421 278.227 -175.153 292.251C-174.914 293.288 -174.68 294.332 -174.445 295.376C-171.999 306.28 -169.465 317.556 -160.661 319.904L-160.658 319.905C-153.78 321.654 -145.473 321.683 -136.678 321.713C-122.447 321.763 -106.319 321.819 -91.0965 329.006C-74.6443 336.852 9.05057 374.315 41.0793 341.203C57.7292 322.447 65.8713 297.294 63.4302 272.181C61.9736 257.197 56.9002 243.269 48.3514 230.782C39.0351 217.174 25.9757 205.941 9.53526 197.397C1.89003 192.816 -4.91142 189.586 -11.0846 187.448ZM-161.245 318.945C-169.091 316.227 -171.496 305.506 -173.824 295.127C-174.06 294.074 -174.297 293.02 -174.539 291.973L-174.553 291.926C-179.751 278.144 -170.793 250.513 -165.077 239.46C-160.581 229.596 -151.174 226.764 -134.096 221.621C-124.014 218.585 -111.467 214.807 -95.5083 208.363C-83.7611 205.166 -74.4557 200.49 -65.4559 195.969C-43.8301 185.102 -26.7474 176.52 9.21101 198.066C25.5829 206.575 38.5723 217.744 47.8335 231.272C56.3156 243.662 61.349 257.477 62.7931 272.333C65.2116 297.209 57.1465 322.124 40.6662 340.689C27.9049 353.882 5.30046 357.23 -26.5082 350.628C-54.5069 344.816 -80.7992 333.092 -90.8039 328.32C-106.133 321.085 -122.326 321.027 -136.613 320.976C-145.374 320.946 -153.649 320.917 -160.462 319.185C-160.728 319.114 -160.99 319.034 -161.245 318.945Z" fill="#004BBB"/>
</g>
<mask id="mask10_2445_2195" style="mask-type:alpha" maskUnits="userSpaceOnUse" x="-164" y="205" width="207" height="135">
<path d="M-14.4815 208.897C-28.1152 204.174 -40.8235 205.618 -58.3916 207.615C-63.3845 208.183 -68.5471 208.769 -74.3215 209.292C-78.6229 210.141 -82.6483 210.92 -86.4383 211.653C-119.417 218.033 -134.469 220.945 -140.896 233.931C-146.071 243.418 -161.834 272.312 -162.05 284.31C-164.133 296.531 -165.495 310.788 -157.632 312.68L-157.629 312.68C-151.048 314.181 -141.536 313.58 -131.466 312.944C-117.263 312.048 -101.168 311.033 -89.2285 315.61C-86.9608 316.492 -84.2634 317.596 -81.1403 318.875C-68.3449 324.114 -49.0092 332.031 -30.1733 336.362C-7.63696 341.544 8.75561 340.249 18.5489 332.515C33.3317 319.362 42.2918 299.946 42.5331 280.567C42.8 259.078 32.4979 239.808 13.5244 226.307C2.89235 217.193 -5.97463 211.844 -14.4815 208.897ZM-158.036 311.876C-164.843 309.518 -163.477 295.985 -161.491 284.345L-161.486 284.287C-161.297 272.496 -145.582 243.689 -140.418 234.223C-134.136 221.529 -119.176 218.635 -86.3989 212.294C-82.6083 211.56 -78.5821 210.782 -74.3065 209.936C-68.5526 209.417 -63.387 208.83 -58.3917 208.262C-29.9954 205.035 -14.3539 203.257 13.1765 226.856C32.0134 240.261 42.2322 259.351 41.9679 280.622C41.7296 299.79 32.8616 318.998 18.2465 332.003C8.60898 339.613 -7.63163 340.869 -30.0107 335.724C-48.8098 331.401 -68.1244 323.493 -80.9053 318.26C-84.0308 316.98 -86.7296 315.875 -89.0025 314.991C-101.042 310.376 -117.189 311.395 -131.441 312.295C-141.474 312.929 -150.952 313.527 -157.465 312.043C-157.661 311.995 -157.852 311.94 -158.036 311.876Z" fill="url(#paint11_linear_2445_2195)"/>
</mask>
<g mask="url(#mask10_2445_2195)">
<path d="M-14.4815 208.897C-28.1152 204.174 -40.8235 205.618 -58.3916 207.615C-63.3845 208.183 -68.5471 208.769 -74.3215 209.292C-78.6229 210.141 -82.6483 210.92 -86.4383 211.653C-119.417 218.033 -134.469 220.945 -140.896 233.931C-146.071 243.418 -161.834 272.312 -162.05 284.31C-164.133 296.531 -165.495 310.788 -157.632 312.68L-157.629 312.68C-151.048 314.181 -141.536 313.58 -131.466 312.944C-117.263 312.048 -101.168 311.033 -89.2285 315.61C-86.9608 316.492 -84.2634 317.596 -81.1403 318.875C-68.3449 324.114 -49.0092 332.031 -30.1733 336.362C-7.63696 341.544 8.75561 340.249 18.5489 332.515C33.3317 319.362 42.2918 299.946 42.5331 280.567C42.8 259.078 32.4979 239.808 13.5244 226.307C2.89235 217.193 -5.97463 211.844 -14.4815 208.897ZM-158.036 311.876C-164.843 309.518 -163.477 295.985 -161.491 284.345L-161.486 284.287C-161.297 272.496 -145.582 243.689 -140.418 234.223C-134.136 221.529 -119.176 218.635 -86.3989 212.294C-82.6083 211.56 -78.5821 210.782 -74.3065 209.936C-68.5526 209.417 -63.387 208.83 -58.3917 208.262C-29.9954 205.035 -14.3539 203.257 13.1765 226.856C32.0134 240.261 42.2322 259.351 41.9679 280.622C41.7296 299.79 32.8616 318.998 18.2465 332.003C8.60898 339.613 -7.63163 340.869 -30.0107 335.724C-48.8098 331.401 -68.1244 323.493 -80.9053 318.26C-84.0308 316.98 -86.7296 315.875 -89.0025 314.991C-101.042 310.376 -117.189 311.395 -131.441 312.295C-141.474 312.929 -150.952 313.527 -157.465 312.043C-157.661 311.995 -157.852 311.94 -158.036 311.876Z" fill="#004BBB"/>
</g>
<mask id="mask11_2445_2195" style="mask-type:alpha" maskUnits="userSpaceOnUse" x="-158" y="210" width="184" height="116">
<path d="M-25.9106 216.565C-33.8397 213.818 -42.8306 211.957 -53.0227 210.937C-89.8196 209.642 -108.698 214.959 -116.163 228.714C-119.753 234.968 -127.978 246.495 -135.236 256.665C-140.982 264.717 -146.41 272.324 -148.884 276.381C-151.347 279.707 -153.854 284.682 -155.573 289.664C-157.456 295.121 -158.102 299.657 -157.391 302.437C-156.952 304.153 -156.012 305.168 -154.601 305.456L-154.599 305.457C-148.268 306.685 -136.963 305.248 -124.994 303.727C-110.772 301.92 -96.0668 300.052 -87.3552 302.214C-82.6225 303.412 -75.5082 306.408 -67.27 309.876C-46.8222 318.486 -18.8151 330.28 -4.00241 323.83C9.75538 316.643 20.5156 303.306 24.0954 289.015C27.1036 277.008 24.834 265.332 17.5325 255.25C9.95494 241.568 1.70427 232.002 -8.41737 225.17C-13.58 221.686 -19.3858 218.826 -25.9106 216.565ZM-154.871 304.792C-155.886 304.44 -156.574 303.581 -156.92 302.23C-158.37 296.56 -153.507 283.451 -148.508 276.697C-146.03 272.636 -140.609 265.038 -134.87 256.996C-127.603 246.814 -119.368 235.273 -115.758 228.984C-108.408 215.44 -89.6702 210.213 -53.0991 211.499C-34.6036 213.35 -20.0748 217.983 -8.69506 225.664C1.36652 232.454 9.57163 241.97 17.1273 255.61C24.3458 265.58 26.5874 277.086 23.6256 288.909C20.0891 303.027 9.4458 316.209 -4.15089 323.313C-18.7729 329.679 -46.6823 317.926 -67.0629 309.345C-75.3161 305.87 -82.4426 302.868 -87.2069 301.663C-95.994 299.482 -110.739 301.355 -125 303.167C-136.934 304.684 -148.206 306.116 -154.472 304.901C-154.61 304.873 -154.743 304.836 -154.871 304.792Z" fill="url(#paint12_linear_2445_2195)"/>
</mask>
<g mask="url(#mask11_2445_2195)">
<path d="M-25.9106 216.565C-33.8397 213.818 -42.8306 211.957 -53.0227 210.937C-89.8196 209.642 -108.698 214.959 -116.163 228.714C-119.753 234.968 -127.978 246.495 -135.236 256.665C-140.982 264.717 -146.41 272.324 -148.884 276.381C-151.347 279.707 -153.854 284.682 -155.573 289.664C-157.456 295.121 -158.102 299.657 -157.391 302.437C-156.952 304.153 -156.012 305.168 -154.601 305.456L-154.599 305.457C-148.268 306.685 -136.963 305.248 -124.994 303.727C-110.772 301.92 -96.0668 300.052 -87.3552 302.214C-82.6225 303.412 -75.5082 306.408 -67.27 309.876C-46.8222 318.486 -18.8151 330.28 -4.00241 323.83C9.75538 316.643 20.5156 303.306 24.0954 289.015C27.1036 277.008 24.834 265.332 17.5325 255.25C9.95494 241.568 1.70427 232.002 -8.41737 225.17C-13.58 221.686 -19.3858 218.826 -25.9106 216.565ZM-154.871 304.792C-155.886 304.44 -156.574 303.581 -156.92 302.23C-158.37 296.56 -153.507 283.451 -148.508 276.697C-146.03 272.636 -140.609 265.038 -134.87 256.996C-127.603 246.814 -119.368 235.273 -115.758 228.984C-108.408 215.44 -89.6702 210.213 -53.0991 211.499C-34.6036 213.35 -20.0748 217.983 -8.69506 225.664C1.36652 232.454 9.57163 241.97 17.1273 255.61C24.3458 265.58 26.5874 277.086 23.6256 288.909C20.0891 303.027 9.4458 316.209 -4.15089 323.313C-18.7729 329.679 -46.6823 317.926 -67.0629 309.345C-75.3161 305.87 -82.4426 302.868 -87.2069 301.663C-95.994 299.482 -110.739 301.355 -125 303.167C-136.934 304.684 -148.206 306.116 -154.472 304.901C-154.61 304.873 -154.743 304.836 -154.871 304.792Z" fill="#004BBB"/>
</g>
<mask id="mask12_2445_2195" style="mask-type:alpha" maskUnits="userSpaceOnUse" x="-154" y="207" width="177" height="109">
<path d="M-28.7359 213.557C-29.7294 213.213 -30.7296 212.89 -31.7379 212.587C-48.1479 207.66 -61.8803 206.663 -72.5529 209.623C-80.932 211.948 -87.2834 216.616 -91.4299 223.498C-98.2198 234.766 -124.694 261.704 -135.692 268.534C-139.79 271.079 -144.278 276.087 -148.004 282.276C-151.376 287.875 -153.399 293.306 -153.16 296.113C-153.053 297.362 -152.501 298.094 -151.571 298.232C-145.053 299.194 -129.188 296.14 -113.845 293.187C-101.949 290.897 -90.7115 288.734 -85.4704 288.815C-79.5262 288.906 -69.0426 294.797 -57.9442 301.034C-46.5114 307.459 -34.6884 314.103 -26.5849 315.118C-18.1077 316.181 -7.2011 313.705 1.87853 308.655C12.49 302.754 19.4646 294.115 21.5177 284.33C23.9198 272.879 19.9184 257.918 10.8139 244.31C1.18315 229.915 -12.7751 219.087 -28.7359 213.557ZM-151.761 297.691C-152.345 297.488 -152.669 296.939 -152.747 296.021C-153.212 290.582 -144.54 274.547 -135.524 268.948C-124.486 262.094 -97.913 235.055 -91.0971 223.742C-87.0186 216.974 -80.7597 212.379 -72.494 210.087C-61.8895 207.146 -48.2246 208.142 -31.8789 213.049C-14.7515 218.19 0.293944 229.405 10.4762 244.624C19.3768 257.927 23.4534 273.115 21.1151 284.262C19.0954 293.889 12.2108 302.401 1.72892 308.23C-7.27996 313.24 -18.0968 315.698 -26.5004 314.644C-34.5368 313.637 -46.3294 307.01 -57.7334 300.601C-68.8712 294.343 -79.3904 288.431 -85.4243 288.338C-90.7024 288.256 -101.958 290.423 -113.874 292.717C-129.187 295.664 -145.021 298.712 -151.478 297.759C-151.579 297.744 -151.673 297.721 -151.761 297.691Z" fill="url(#paint13_linear_2445_2195)"/>
</mask>
<g mask="url(#mask12_2445_2195)">
<path d="M-28.7359 213.557C-29.7294 213.213 -30.7296 212.89 -31.7379 212.587C-48.1479 207.66 -61.8803 206.663 -72.5529 209.623C-80.932 211.948 -87.2834 216.616 -91.4299 223.498C-98.2198 234.766 -124.694 261.704 -135.692 268.534C-139.79 271.079 -144.278 276.087 -148.004 282.276C-151.376 287.875 -153.399 293.306 -153.16 296.113C-153.053 297.362 -152.501 298.094 -151.571 298.232C-145.053 299.194 -129.188 296.14 -113.845 293.187C-101.949 290.897 -90.7115 288.734 -85.4704 288.815C-79.5262 288.906 -69.0426 294.797 -57.9442 301.034C-46.5114 307.459 -34.6884 314.103 -26.5849 315.118C-18.1077 316.181 -7.2011 313.705 1.87853 308.655C12.49 302.754 19.4646 294.115 21.5177 284.33C23.9198 272.879 19.9184 257.918 10.8139 244.31C1.18315 229.915 -12.7751 219.087 -28.7359 213.557ZM-151.761 297.691C-152.345 297.488 -152.669 296.939 -152.747 296.021C-153.212 290.582 -144.54 274.547 -135.524 268.948C-124.486 262.094 -97.913 235.055 -91.0971 223.742C-87.0186 216.974 -80.7597 212.379 -72.494 210.087C-61.8895 207.146 -48.2246 208.142 -31.8789 213.049C-14.7515 218.19 0.293944 229.405 10.4762 244.624C19.3768 257.927 23.4534 273.115 21.1151 284.262C19.0954 293.889 12.2108 302.401 1.72892 308.23C-7.27996 313.24 -18.0968 315.698 -26.5004 314.644C-34.5368 313.637 -46.3294 307.01 -57.7334 300.601C-68.8712 294.343 -79.3904 288.431 -85.4243 288.338C-90.7024 288.256 -101.958 290.423 -113.874 292.717C-129.187 295.664 -145.021 298.712 -151.478 297.759C-151.579 297.744 -151.673 297.721 -151.761 297.691Z" fill="#004BBB"/>
</g>
</g>
</g>
<circle cx="343.523" cy="645.523" r="2.52252" fill="#004BBB"/>
<circle cx="359.288" cy="645.523" r="2.52252" fill="#004BBB"/>
<circle cx="375.054" cy="645.523" r="2.52252" fill="#004BBB"/>
<circle cx="390.819" cy="645.523" r="2.52252" fill="#004BBB"/>
<circle cx="406.586" cy="645.523" r="2.52252" fill="#004BBB"/>
<circle cx="422.352" cy="645.523" r="2.52252" fill="#004BBB"/>
<circle cx="438.117" cy="645.523" r="2.52252" fill="#004BBB"/>
<circle cx="453.883" cy="645.523" r="2.52252" fill="#004BBB"/>
<circle cx="469.648" cy="645.523" r="2.52252" fill="#004BBB"/>
<circle cx="352.352" cy="658.765" r="2.52252" fill="#004BBB"/>
<circle cx="368.117" cy="658.765" r="2.52252" fill="#004BBB"/>
<circle cx="383.884" cy="658.765" r="2.52252" fill="#004BBB"/>
<circle cx="399.649" cy="658.765" r="2.52252" fill="#004BBB"/>
<circle cx="415.415" cy="658.765" r="2.52252" fill="#004BBB"/>
<circle cx="431.181" cy="658.765" r="2.52252" fill="#004BBB"/>
<circle cx="446.946" cy="658.765" r="2.52252" fill="#004BBB"/>
<circle cx="462.712" cy="658.765" r="2.52252" fill="#004BBB"/>
<circle cx="478.478" cy="658.765" r="2.52252" fill="#004BBB"/>
<defs>
<linearGradient id="paint0_linear_2445_2195" x1="3.47394e-06" y1="29.5259" x2="519.471" y2="71.1703" gradientUnits="userSpaceOnUse">
<stop stop-color="#F9F9F9"/>
<stop offset="0.0001" stop-color="#FCFCFC"/>
<stop offset="1" stop-color="#FAFAFB"/>
</linearGradient>
<linearGradient id="paint1_linear_2445_2195" x1="3.42912e-06" y1="29.5259" x2="512.852" y2="70.1092" gradientUnits="userSpaceOnUse">
<stop stop-color="#F9F9F9"/>
<stop offset="0.0001" stop-color="#FCFCFC"/>
<stop offset="1" stop-color="#FAFAFB"/>
</linearGradient>
<linearGradient id="paint2_linear_2445_2195" x1="-309.093" y1="119.691" x2="259.365" y2="311.585" gradientUnits="userSpaceOnUse">
<stop stop-color="white"/>
<stop offset="0.0436152" stop-color="#B4B4B4"/>
<stop offset="0.150732"/>
<stop offset="0.171421" stop-color="#171717"/>
<stop offset="0.385884" stop-color="white"/>
<stop offset="0.632551" stop-color="#E6E6E6"/>
<stop offset="0.856667" stop-color="#1A1A1A"/>
<stop offset="0.998739"/>
</linearGradient>
<linearGradient id="paint3_linear_2445_2195" x1="-290.496" y1="132.692" x2="234.507" y2="309.917" gradientUnits="userSpaceOnUse">
<stop stop-color="white"/>
<stop offset="0.0436152" stop-color="#B4B4B4"/>
<stop offset="0.150732"/>
<stop offset="0.171421" stop-color="#171717"/>
<stop offset="0.385884" stop-color="white"/>
<stop offset="0.632551" stop-color="#E6E6E6"/>
<stop offset="0.856667" stop-color="#1A1A1A"/>
<stop offset="0.998739"/>
</linearGradient>
<linearGradient id="paint4_linear_2445_2195" x1="-271.898" y1="145.67" x2="209.681" y2="308.236" gradientUnits="userSpaceOnUse">
<stop stop-color="white"/>
<stop offset="0.0436152" stop-color="#B4B4B4"/>
<stop offset="0.150732"/>
<stop offset="0.171421" stop-color="#171717"/>
<stop offset="0.385884" stop-color="white"/>
<stop offset="0.632551" stop-color="#E6E6E6"/>
<stop offset="0.856667" stop-color="#1A1A1A"/>
<stop offset="0.998739"/>
</linearGradient>
<linearGradient id="paint5_linear_2445_2195" x1="-253.299" y1="158.617" x2="184.901" y2="306.539" gradientUnits="userSpaceOnUse">
<stop stop-color="white"/>
<stop offset="0.0436152" stop-color="#B4B4B4"/>
<stop offset="0.150732"/>
<stop offset="0.171421" stop-color="#171717"/>
<stop offset="0.385884" stop-color="white"/>
<stop offset="0.632551" stop-color="#E6E6E6"/>
<stop offset="0.856667" stop-color="#1A1A1A"/>
<stop offset="0.998739"/>
</linearGradient>
<linearGradient id="paint6_linear_2445_2195" x1="-234.709" y1="171.55" x2="160.176" y2="304.851" gradientUnits="userSpaceOnUse">
<stop stop-color="white"/>
<stop offset="0.0436152" stop-color="#B4B4B4"/>
<stop offset="0.150732"/>
<stop offset="0.171421" stop-color="#171717"/>
<stop offset="0.385884" stop-color="white"/>
<stop offset="0.632551" stop-color="#E6E6E6"/>
<stop offset="0.856667" stop-color="#1A1A1A"/>
<stop offset="0.998739"/>
</linearGradient>
<linearGradient id="paint7_linear_2445_2195" x1="-216.1" y1="184.385" x2="135.518" y2="303.081" gradientUnits="userSpaceOnUse">
<stop stop-color="white"/>
<stop offset="0.0436152" stop-color="#B4B4B4"/>
<stop offset="0.150732"/>
<stop offset="0.171421" stop-color="#171717"/>
<stop offset="0.385884" stop-color="white"/>
<stop offset="0.632551" stop-color="#E6E6E6"/>
<stop offset="0.856667" stop-color="#1A1A1A"/>
<stop offset="0.998739"/>
</linearGradient>
<linearGradient id="paint8_linear_2445_2195" x1="-197.466" y1="197.061" x2="111.103" y2="301.224" gradientUnits="userSpaceOnUse">
<stop stop-color="white"/>
<stop offset="0.0436152" stop-color="#B4B4B4"/>
<stop offset="0.150732"/>
<stop offset="0.171421" stop-color="#171717"/>
<stop offset="0.385884" stop-color="white"/>
<stop offset="0.632551" stop-color="#E6E6E6"/>
<stop offset="0.856667" stop-color="#1A1A1A"/>
<stop offset="0.998739"/>
</linearGradient>
<linearGradient id="paint9_linear_2445_2195" x1="-179.852" y1="212.417" x2="86.0059" y2="302.163" gradientUnits="userSpaceOnUse">
<stop stop-color="white"/>
<stop offset="0.0436152" stop-color="#B4B4B4"/>
<stop offset="0.150732"/>
<stop offset="0.171421" stop-color="#171717"/>
<stop offset="0.385884" stop-color="white"/>
<stop offset="0.632551" stop-color="#E6E6E6"/>
<stop offset="0.856667" stop-color="#1A1A1A"/>
<stop offset="0.998739"/>
</linearGradient>
<linearGradient id="paint10_linear_2445_2195" x1="-162.532" y1="227.134" x2="61.5478" y2="302.777" gradientUnits="userSpaceOnUse">
<stop stop-color="white"/>
<stop offset="0.0436152" stop-color="#B4B4B4"/>
<stop offset="0.150732"/>
<stop offset="0.171421" stop-color="#171717"/>
<stop offset="0.385884" stop-color="white"/>
<stop offset="0.632551" stop-color="#E6E6E6"/>
<stop offset="0.856667" stop-color="#1A1A1A"/>
<stop offset="0.998739"/>
</linearGradient>
<linearGradient id="paint11_linear_2445_2195" x1="-148.111" y1="239.307" x2="38.6378" y2="302.347" gradientUnits="userSpaceOnUse">
<stop stop-color="white"/>
<stop offset="0.0436152" stop-color="#B4B4B4"/>
<stop offset="0.150732"/>
<stop offset="0.171421" stop-color="#171717"/>
<stop offset="0.385884" stop-color="white"/>
<stop offset="0.632551" stop-color="#E6E6E6"/>
<stop offset="0.856667" stop-color="#1A1A1A"/>
<stop offset="0.998739"/>
</linearGradient>
<linearGradient id="paint12_linear_2445_2195" x1="-140.081" y1="243.766" x2="21.1531" y2="298.193" gradientUnits="userSpaceOnUse">
<stop stop-color="white"/>
<stop offset="0.0436152" stop-color="#B4B4B4"/>
<stop offset="0.150732"/>
<stop offset="0.171421" stop-color="#171717"/>
<stop offset="0.385884" stop-color="white"/>
<stop offset="0.632551" stop-color="#E6E6E6"/>
<stop offset="0.856667" stop-color="#1A1A1A"/>
<stop offset="0.998739"/>
</linearGradient>
<linearGradient id="paint13_linear_2445_2195" x1="-135.106" y1="240.338" x2="19.0261" y2="292.368" gradientUnits="userSpaceOnUse">
<stop stop-color="white"/>
<stop offset="0.0436152" stop-color="#B4B4B4"/>
<stop offset="0.150732"/>
<stop offset="0.171421" stop-color="#171717"/>
<stop offset="0.385884" stop-color="white"/>
<stop offset="0.632551" stop-color="#E6E6E6"/>
<stop offset="0.856667" stop-color="#1A1A1A"/>
<stop offset="0.998739"/>
</linearGradient>
</defs>
</svg>
