<svg width="1400" height="412" viewBox="0 0 1400 412" fill="none" xmlns="http://www.w3.org/2000/svg">
<rect width="1400" height="412" rx="10" fill="url(#paint0_linear_2256_2178)"/>
<mask id="mask0_2256_2178" style="mask-type:alpha" maskUnits="userSpaceOnUse" x="0" y="0" width="1400" height="412">
<rect width="1400" height="412" rx="10" fill="url(#paint1_linear_2256_2178)"/>
</mask>
<g mask="url(#mask0_2256_2178)">
<circle cx="1259" cy="341" r="4" fill="#004BBB"/>
<circle cx="1284" cy="341" r="4" fill="#004BBB"/>
<circle cx="1309" cy="341" r="4" fill="#004BBB"/>
<circle cx="1334" cy="341" r="4" fill="#004BBB"/>
<circle cx="1359" cy="341" r="4" fill="#004BBB"/>
<circle cx="1384" cy="341" r="4" fill="#004BBB"/>
<circle cx="1273" cy="362" r="4" fill="#004BBB"/>
<circle cx="1298" cy="362" r="4" fill="#004BBB"/>
<circle cx="1323" cy="362" r="4" fill="#004BBB"/>
<circle cx="1348" cy="362" r="4" fill="#004BBB"/>
<circle cx="1373" cy="362" r="4" fill="#004BBB"/>
<circle cx="1398" cy="362" r="4" fill="#004BBB"/>
<g opacity="0.1">
<mask id="mask1_2256_2178" style="mask-type:alpha" maskUnits="userSpaceOnUse" x="1013" y="75" width="627" height="529">
<path d="M1394.46 94.7191C1383.07 90.8217 1371.39 87.3163 1359.46 84.212C1292.32 66.749 1241.98 76.7021 1205.58 114.64C1174.04 147.512 1157.72 196.246 1143.32 239.243C1133.7 267.943 1124.62 295.051 1112.39 312.81C1071.65 371.927 1046.41 379.566 1031.33 384.131C1022.6 386.774 1016.83 388.52 1013.76 398.935C1010.74 409.143 1037.67 432.684 1098.5 473.021C1124.81 490.468 1149.49 491.588 1169.32 492.488C1179.26 492.94 1187.85 493.33 1194.7 495.699L1194.93 495.013L1194.7 495.699C1213.55 502.211 1217.87 506.395 1227.36 515.563C1235.26 523.209 1247.21 534.762 1274.63 554.182C1298.72 571.249 1340 587.209 1382.35 595.836C1406.45 600.744 1430.08 603.224 1452.58 603.204C1477.76 603.182 1500.95 599.995 1521.51 593.734C1559.58 582.135 1588.03 560.28 1606.07 528.777C1623.85 497.742 1634.65 463.468 1638.17 426.909C1641.67 390.594 1637.82 353.876 1626.72 317.776C1610.58 265.228 1579.44 216.665 1536.68 177.339C1513.88 156.374 1487.75 137.964 1459.02 122.619C1438.83 111.836 1417.21 102.5 1394.46 94.7191ZM1124.05 484.051C1116.01 481.302 1107.7 477.391 1099.22 471.768C1071.55 453.422 1051.28 438.815 1037.24 427.112C1017 410.23 1013.95 402.651 1014.95 399.267C1017.78 389.677 1022.67 388.197 1031.54 385.511C1046.79 380.895 1072.31 373.169 1113.35 313.62C1125.72 295.667 1134.84 268.449 1144.49 239.632C1158.83 196.803 1175.09 148.259 1206.38 115.649C1242.42 78.087 1292.37 68.2604 1359.06 85.6081C1394.74 94.8879 1428.16 107.78 1458.39 123.924C1487.05 139.227 1513.1 157.584 1535.83 178.485C1578.43 217.666 1609.45 266.035 1625.53 318.363C1636.57 354.272 1640.4 390.788 1636.92 426.894C1633.42 463.213 1622.69 497.258 1605.04 528.084C1587.19 559.237 1559.02 580.861 1521.29 592.354C1500.85 598.582 1477.77 601.751 1452.7 601.773C1430.28 601.793 1406.72 599.321 1382.69 594.427C1340.47 585.828 1299.35 569.934 1275.37 552.948C1248.02 533.576 1236.11 522.058 1228.23 514.436C1218.63 505.153 1214.24 500.915 1195.17 494.326C1195.14 494.315 1195.1 494.304 1195.07 494.293C1188.08 491.903 1179.47 491.512 1169.5 491.059C1156.21 490.456 1140.72 489.752 1124.05 484.051Z" fill="url(#paint2_linear_2256_2178)"/>
</mask>
<g mask="url(#mask1_2256_2178)">
<path d="M1394.46 94.7191C1383.07 90.8217 1371.39 87.3163 1359.46 84.212C1292.32 66.749 1241.98 76.7021 1205.58 114.64C1174.04 147.512 1157.72 196.246 1143.32 239.243C1133.7 267.943 1124.62 295.051 1112.39 312.81C1071.65 371.927 1046.41 379.566 1031.33 384.131C1022.6 386.774 1016.83 388.52 1013.76 398.935C1010.74 409.143 1037.67 432.684 1098.5 473.021C1124.81 490.468 1149.49 491.588 1169.32 492.488C1179.26 492.94 1187.85 493.33 1194.7 495.699L1194.93 495.013L1194.7 495.699C1213.55 502.211 1217.87 506.395 1227.36 515.563C1235.26 523.209 1247.21 534.762 1274.63 554.182C1298.72 571.249 1340 587.209 1382.35 595.836C1406.45 600.744 1430.08 603.224 1452.58 603.204C1477.76 603.182 1500.95 599.995 1521.51 593.734C1559.58 582.135 1588.03 560.28 1606.07 528.777C1623.85 497.742 1634.65 463.468 1638.17 426.909C1641.67 390.594 1637.82 353.876 1626.72 317.776C1610.58 265.228 1579.44 216.665 1536.68 177.339C1513.88 156.374 1487.75 137.964 1459.02 122.619C1438.83 111.836 1417.21 102.5 1394.46 94.7191ZM1124.05 484.051C1116.01 481.302 1107.7 477.391 1099.22 471.768C1071.55 453.422 1051.28 438.815 1037.24 427.112C1017 410.23 1013.95 402.651 1014.95 399.267C1017.78 389.677 1022.67 388.197 1031.54 385.511C1046.79 380.895 1072.31 373.169 1113.35 313.62C1125.72 295.667 1134.84 268.449 1144.49 239.632C1158.83 196.803 1175.09 148.259 1206.38 115.649C1242.42 78.087 1292.37 68.2604 1359.06 85.6081C1394.74 94.8879 1428.16 107.78 1458.39 123.924C1487.05 139.227 1513.1 157.584 1535.83 178.485C1578.43 217.666 1609.45 266.035 1625.53 318.363C1636.57 354.272 1640.4 390.788 1636.92 426.894C1633.42 463.213 1622.69 497.258 1605.04 528.084C1587.19 559.237 1559.02 580.861 1521.29 592.354C1500.85 598.582 1477.77 601.751 1452.7 601.773C1430.28 601.793 1406.72 599.321 1382.69 594.427C1340.47 585.828 1299.35 569.934 1275.37 552.948C1248.02 533.576 1236.11 522.058 1228.23 514.436C1218.63 505.153 1214.24 500.915 1195.17 494.326C1195.14 494.315 1195.1 494.304 1195.07 494.293C1188.08 491.903 1179.47 491.512 1169.5 491.059C1156.21 490.456 1140.72 489.752 1124.05 484.051Z" fill="#004BBB"/>
</g>
<mask id="mask2_2256_2178" style="mask-type:alpha" maskUnits="userSpaceOnUse" x="1038" y="104" width="577" height="483">
<path d="M1391.72 121.717C1382.5 118.566 1373.08 115.695 1363.48 113.109C1303.06 96.6894 1257.4 104.621 1223.9 137.357C1194.79 165.796 1179.03 208.796 1165.12 246.735C1155.43 273.162 1146.27 298.123 1133.97 314.409C1095.36 366.816 1071.04 374.472 1056.5 379.047C1047.72 381.811 1041.92 383.637 1038.81 393.712C1036.98 399.376 1043.27 409.102 1057.52 422.609C1070.33 434.76 1089.09 449.485 1111.77 465.192C1135.4 481.72 1157.62 483.557 1175.47 485.034C1184.11 485.748 1191.56 486.365 1197.76 488.476L1197.76 488.476C1217.45 495.133 1221.69 498.628 1234.31 508.963C1242.78 515.907 1254.39 525.418 1276.51 540.786C1299.17 556.536 1337.7 571.37 1377.06 579.501C1399.58 584.15 1421.59 586.545 1442.51 586.617C1465.97 586.698 1487.53 583.824 1506.59 578.073C1540.96 567.698 1566.76 548.186 1583.27 520.079C1599.82 491.771 1610 460.454 1613.54 426.997C1617.06 393.751 1613.83 360.108 1603.96 327.005C1589.7 279.172 1561.84 234.872 1523.4 198.894C1502.91 179.711 1479.37 162.819 1453.44 148.688C1434.22 138.211 1413.54 129.182 1391.72 121.717ZM1137.83 476.978C1129.66 474.183 1121.15 470.11 1112.46 464.027C1064.5 430.805 1036.7 403.993 1039.92 394.052C1042.8 384.718 1048.03 383.07 1056.71 380.339C1071.39 375.718 1095.97 367.984 1134.84 315.216C1147.28 298.753 1156.47 273.684 1166.2 247.143C1180.05 209.362 1195.76 166.539 1224.62 138.338C1257.79 105.932 1303.08 98.1076 1363.1 114.419C1395.38 123.106 1425.57 135.048 1452.84 149.91C1478.7 164 1502.17 180.841 1522.6 199.964C1560.89 235.804 1588.64 279.921 1602.84 327.545C1612.65 360.468 1615.86 393.919 1612.36 426.968C1608.85 460.2 1598.74 491.303 1582.3 519.414C1565.99 547.198 1540.44 566.498 1506.39 576.776C1481.22 584.373 1438.41 590.782 1377.38 578.178C1338.14 570.073 1299.75 555.298 1277.2 539.621C1255.11 524.276 1243.52 514.78 1235.06 507.847C1222.69 497.707 1218.04 493.915 1198.2 487.185C1191.88 485.035 1184.37 484.413 1175.68 483.694C1164.53 482.772 1151.66 481.707 1137.83 476.978Z" fill="url(#paint3_linear_2256_2178)"/>
</mask>
<g mask="url(#mask2_2256_2178)">
<path d="M1391.72 121.717C1382.5 118.566 1373.08 115.695 1363.48 113.109C1303.06 96.6894 1257.4 104.621 1223.9 137.357C1194.79 165.796 1179.03 208.796 1165.12 246.735C1155.43 273.162 1146.27 298.123 1133.97 314.409C1095.36 366.816 1071.04 374.472 1056.5 379.047C1047.72 381.811 1041.92 383.637 1038.81 393.712C1036.98 399.376 1043.27 409.102 1057.52 422.609C1070.33 434.76 1089.09 449.485 1111.77 465.192C1135.4 481.72 1157.62 483.557 1175.47 485.034C1184.11 485.748 1191.56 486.365 1197.76 488.476L1197.76 488.476C1217.45 495.133 1221.69 498.628 1234.31 508.963C1242.78 515.907 1254.39 525.418 1276.51 540.786C1299.17 556.536 1337.7 571.37 1377.06 579.501C1399.58 584.15 1421.59 586.545 1442.51 586.617C1465.97 586.698 1487.53 583.824 1506.59 578.073C1540.96 567.698 1566.76 548.186 1583.27 520.079C1599.82 491.771 1610 460.454 1613.54 426.997C1617.06 393.751 1613.83 360.108 1603.96 327.005C1589.7 279.172 1561.84 234.872 1523.4 198.894C1502.91 179.711 1479.37 162.819 1453.44 148.688C1434.22 138.211 1413.54 129.182 1391.72 121.717ZM1137.83 476.978C1129.66 474.183 1121.15 470.11 1112.46 464.027C1064.5 430.805 1036.7 403.993 1039.92 394.052C1042.8 384.718 1048.03 383.07 1056.71 380.339C1071.39 375.718 1095.97 367.984 1134.84 315.216C1147.28 298.753 1156.47 273.684 1166.2 247.143C1180.05 209.362 1195.76 166.539 1224.62 138.338C1257.79 105.932 1303.08 98.1076 1363.1 114.419C1395.38 123.106 1425.57 135.048 1452.84 149.91C1478.7 164 1502.17 180.841 1522.6 199.964C1560.89 235.804 1588.64 279.921 1602.84 327.545C1612.65 360.468 1615.86 393.919 1612.36 426.968C1608.85 460.2 1598.74 491.303 1582.3 519.414C1565.99 547.198 1540.44 566.498 1506.39 576.776C1481.22 584.373 1438.41 590.782 1377.38 578.178C1338.14 570.073 1299.75 555.298 1277.2 539.621C1255.11 524.276 1243.52 514.78 1235.06 507.847C1222.69 497.707 1218.04 493.915 1198.2 487.185C1191.88 485.035 1184.37 484.413 1175.68 483.694C1164.53 482.772 1151.66 481.707 1137.83 476.978Z" fill="#004BBB"/>
</g>
<mask id="mask3_2256_2178" style="mask-type:alpha" maskUnits="userSpaceOnUse" x="1063" y="133" width="528" height="438">
<path d="M1389.29 148.773C1382.18 146.34 1374.92 144.086 1367.5 142.008C1313.76 126.63 1272.76 132.583 1242.18 160.207C1215.53 184.279 1200.36 221.581 1186.97 254.493C1177.18 278.536 1167.95 301.246 1155.56 316.008C1119.14 361.72 1095.76 369.351 1081.78 373.911C1072.89 376.813 1067.01 378.73 1063.87 388.489C1059.22 401.692 1092.31 433.449 1125.03 457.362C1146.08 473.084 1165.94 475.639 1181.89 477.692C1189.13 478.623 1195.37 479.427 1200.83 481.252L1200.83 481.253C1223.24 488.675 1226.92 491.292 1247.35 505.789C1255.04 511.247 1264.62 518.041 1278.39 527.39C1292.48 536.958 1313.24 546.392 1336.86 553.953C1363.45 562.462 1391.31 567.84 1417.44 569.504C1448.37 571.474 1475.82 568.291 1499.03 560.042C1526.07 550.433 1546.74 534.061 1560.47 511.38C1575.79 485.798 1585.36 457.435 1588.92 427.076C1592.45 396.895 1589.86 366.323 1581.22 336.212C1568.84 293.096 1544.26 253.061 1510.13 220.434C1477.3 189.043 1436.72 164.993 1389.29 148.773ZM1152 470.23C1143.59 467.356 1134.75 463.052 1125.7 456.288C1086.73 427.809 1061.16 399.442 1064.9 388.834C1067.83 379.737 1073.16 377.998 1081.99 375.117C1096.09 370.516 1119.69 362.815 1156.34 316.813C1168.86 301.892 1178.14 279.078 1187.96 254.924C1201.29 222.157 1216.4 185.018 1242.82 161.161C1273.08 133.82 1313.75 127.954 1367.14 143.229C1423.87 159.129 1471.72 185.438 1509.37 221.428C1543.36 253.924 1567.84 293.786 1580.16 336.705C1588.76 366.646 1591.34 397.036 1587.82 427.033C1584.29 457.181 1574.79 485.345 1559.57 510.743C1546.01 533.149 1525.56 549.334 1498.8 558.846C1475.72 567.047 1448.41 570.211 1417.61 568.249C1391.56 566.589 1363.77 561.227 1337.26 552.741C1313.72 545.202 1293.04 535.813 1279.03 526.294C1265.26 516.951 1255.69 510.16 1248 504.704C1227.47 490.139 1223.77 487.518 1201.24 480.043C1195.69 478.19 1189.4 477.38 1182.12 476.443C1173.16 475.289 1162.95 473.975 1152 470.23Z" fill="url(#paint4_linear_2256_2178)"/>
</mask>
<g mask="url(#mask3_2256_2178)">
<path d="M1389.29 148.773C1382.18 146.34 1374.92 144.086 1367.5 142.008C1313.76 126.63 1272.76 132.583 1242.18 160.207C1215.53 184.279 1200.36 221.581 1186.97 254.493C1177.18 278.536 1167.95 301.246 1155.56 316.008C1119.14 361.72 1095.76 369.351 1081.78 373.911C1072.89 376.813 1067.01 378.73 1063.87 388.489C1059.22 401.692 1092.31 433.449 1125.03 457.362C1146.08 473.084 1165.94 475.639 1181.89 477.692C1189.13 478.623 1195.37 479.427 1200.83 481.252L1200.83 481.253C1223.24 488.675 1226.92 491.292 1247.35 505.789C1255.04 511.247 1264.62 518.041 1278.39 527.39C1292.48 536.958 1313.24 546.392 1336.86 553.953C1363.45 562.462 1391.31 567.84 1417.44 569.504C1448.37 571.474 1475.82 568.291 1499.03 560.042C1526.07 550.433 1546.74 534.061 1560.47 511.38C1575.79 485.798 1585.36 457.435 1588.92 427.076C1592.45 396.895 1589.86 366.323 1581.22 336.212C1568.84 293.096 1544.26 253.061 1510.13 220.434C1477.3 189.043 1436.72 164.993 1389.29 148.773ZM1152 470.23C1143.59 467.356 1134.75 463.052 1125.7 456.288C1086.73 427.809 1061.16 399.442 1064.9 388.834C1067.83 379.737 1073.16 377.998 1081.99 375.117C1096.09 370.516 1119.69 362.815 1156.34 316.813C1168.86 301.892 1178.14 279.078 1187.96 254.924C1201.29 222.157 1216.4 185.018 1242.82 161.161C1273.08 133.82 1313.75 127.954 1367.14 143.229C1423.87 159.129 1471.72 185.438 1509.37 221.428C1543.36 253.924 1567.84 293.786 1580.16 336.705C1588.76 366.646 1591.34 397.036 1587.82 427.033C1584.29 457.181 1574.79 485.345 1559.57 510.743C1546.01 533.149 1525.56 549.334 1498.8 558.846C1475.72 567.047 1448.41 570.211 1417.61 568.249C1391.56 566.589 1363.77 561.227 1337.26 552.741C1313.72 545.202 1293.04 535.813 1279.03 526.294C1265.26 516.951 1255.69 510.16 1248 504.704C1227.47 490.139 1223.77 487.518 1201.24 480.043C1195.69 478.19 1189.4 477.38 1182.12 476.443C1173.16 475.289 1162.95 473.975 1152 470.23Z" fill="#004BBB"/>
</g>
<mask id="mask4_2256_2178" style="mask-type:alpha" maskUnits="userSpaceOnUse" x="1088" y="162" width="479" height="392">
<path d="M1386.49 175.655C1381.59 173.977 1376.6 172.393 1371.53 170.901C1324.39 156.565 1288.05 160.592 1260.41 183.215C1236.24 203.001 1222.33 233.291 1208.87 262.583C1198.99 284.104 1189.65 304.432 1177.15 317.604C1143.04 356.638 1121.48 363.897 1107.22 368.701C1097.81 371.87 1092.13 373.784 1088.92 383.262C1084.38 395.208 1106.06 424.326 1138.29 449.525C1156.96 464.664 1174.62 467.943 1188.81 470.579C1194.24 471.587 1199.36 472.539 1203.9 474.025L1203.9 474.025L1206.2 474.768C1232.65 483.3 1234.81 483.998 1280.28 513.989C1293.05 522.429 1312.49 531.19 1333.61 538.034C1357.9 545.902 1383.29 551.011 1407.03 552.81C1435.24 554.948 1460.27 552.451 1481.44 545.391C1506.12 537.155 1525.04 522.784 1537.66 502.678C1551.77 479.82 1560.74 454.408 1564.32 427.143C1567.88 400.019 1565.92 372.513 1558.5 345.387C1547.99 306.99 1526.68 271.223 1496.87 241.953C1467.21 212.841 1430.13 190.581 1386.49 175.655ZM1166.84 464.043C1158.04 461.033 1148.62 456.398 1138.94 448.546C1107.58 424.032 1085.57 394.904 1089.87 383.609C1092.88 374.718 1098.35 372.875 1107.42 369.82C1120.92 365.273 1143.52 357.662 1177.83 318.405C1190.46 305.094 1199.84 284.667 1209.78 263.041C1223.17 233.887 1237.02 203.741 1260.96 184.142C1288.31 161.755 1324.36 157.795 1371.17 172.035C1421.22 186.757 1463.26 210.588 1496.15 242.87C1525.84 272.016 1547.06 307.62 1557.51 345.833C1564.89 372.797 1566.84 400.134 1563.3 427.084C1559.74 454.153 1550.84 479.382 1536.84 502.068C1524.38 521.919 1505.67 536.119 1481.24 544.271C1460.2 551.29 1435.29 553.771 1407.2 551.642C1383.53 549.849 1358.21 544.753 1333.98 536.906C1312.93 530.09 1293.57 521.361 1280.86 512.963C1235.3 482.906 1233.12 482.204 1206.57 473.639L1204.27 472.898C1199.68 471.394 1194.53 470.437 1189.07 469.423C1182.35 468.176 1174.85 466.783 1166.84 464.043Z" fill="url(#paint5_linear_2256_2178)"/>
</mask>
<g mask="url(#mask4_2256_2178)">
<path d="M1386.49 175.655C1381.59 173.977 1376.6 172.393 1371.53 170.901C1324.39 156.565 1288.05 160.592 1260.41 183.215C1236.24 203.001 1222.33 233.291 1208.87 262.583C1198.99 284.104 1189.65 304.432 1177.15 317.604C1143.04 356.638 1121.48 363.897 1107.22 368.701C1097.81 371.87 1092.13 373.784 1088.92 383.262C1084.38 395.208 1106.06 424.326 1138.29 449.525C1156.96 464.664 1174.62 467.943 1188.81 470.579C1194.24 471.587 1199.36 472.539 1203.9 474.025L1203.9 474.025L1206.2 474.768C1232.65 483.3 1234.81 483.998 1280.28 513.989C1293.05 522.429 1312.49 531.19 1333.61 538.034C1357.9 545.902 1383.29 551.011 1407.03 552.81C1435.24 554.948 1460.27 552.451 1481.44 545.391C1506.12 537.155 1525.04 522.784 1537.66 502.678C1551.77 479.82 1560.74 454.408 1564.32 427.143C1567.88 400.019 1565.92 372.513 1558.5 345.387C1547.99 306.99 1526.68 271.223 1496.87 241.953C1467.21 212.841 1430.13 190.581 1386.49 175.655ZM1166.84 464.043C1158.04 461.033 1148.62 456.398 1138.94 448.546C1107.58 424.032 1085.57 394.904 1089.87 383.609C1092.88 374.718 1098.35 372.875 1107.42 369.82C1120.92 365.273 1143.52 357.662 1177.83 318.405C1190.46 305.094 1199.84 284.667 1209.78 263.041C1223.17 233.887 1237.02 203.741 1260.96 184.142C1288.31 161.755 1324.36 157.795 1371.17 172.035C1421.22 186.757 1463.26 210.588 1496.15 242.87C1525.84 272.016 1547.06 307.62 1557.51 345.833C1564.89 372.797 1566.84 400.134 1563.3 427.084C1559.74 454.153 1550.84 479.382 1536.84 502.068C1524.38 521.919 1505.67 536.119 1481.24 544.271C1460.2 551.29 1435.29 553.771 1407.2 551.642C1383.53 549.849 1358.21 544.753 1333.98 536.906C1312.93 530.09 1293.57 521.361 1280.86 512.963C1235.3 482.906 1233.12 482.204 1206.57 473.639L1204.27 472.898C1199.68 471.394 1194.53 470.437 1189.07 469.423C1182.35 468.176 1174.85 466.783 1166.84 464.043Z" fill="#004BBB"/>
</g>
<mask id="mask5_2256_2178" style="mask-type:alpha" maskUnits="userSpaceOnUse" x="1113" y="191" width="429" height="347">
<path d="M1383.68 202.459C1381 201.541 1378.29 200.654 1375.55 199.799C1284.56 169.995 1256.01 223.716 1230.82 271.112C1220.82 289.931 1211.37 307.707 1198.74 319.206C1167.09 351.585 1146.52 358.691 1132.9 363.393C1123.16 366.758 1117.28 368.79 1113.98 378.039C1111.62 383.794 1114.09 393.819 1120.75 405.516C1127.83 417.936 1138.77 430.784 1151.55 441.692C1168.25 456.77 1183.44 460.624 1196.85 464.025C1200.41 464.928 1203.77 465.78 1206.97 466.801L1206.97 466.802C1211.79 468.313 1216.03 469.523 1219.77 470.591C1237.04 475.522 1247.47 478.498 1282.16 500.593C1304.28 514.718 1349.53 531.86 1396.62 536.12C1422.11 538.425 1444.72 536.617 1463.84 530.744C1486.18 523.881 1503.34 511.512 1514.86 493.98C1527.76 473.844 1536.13 451.378 1539.74 427.2C1543.33 403.127 1542.01 378.677 1535.81 354.529C1527.17 320.852 1509.12 289.358 1483.61 263.45C1457.16 236.595 1423.57 216.101 1383.68 202.459ZM1182.73 458.868C1173.23 455.62 1163.02 450.6 1152.18 440.811C1124.71 417.375 1110.46 389.104 1114.85 378.385C1117.96 369.654 1123.66 367.687 1133.1 364.427C1146.8 359.694 1167.51 352.541 1199.32 320.002C1212.08 308.386 1221.57 290.519 1231.63 271.603C1244.39 247.598 1257.58 222.776 1279.02 207.328C1303.41 189.754 1334.88 187.633 1375.21 200.844C1418.56 214.378 1454.8 235.725 1482.93 264.289C1508.33 290.079 1526.3 321.42 1534.9 354.924C1541.05 378.921 1542.36 403.212 1538.79 427.123C1535.21 451.121 1526.91 473.418 1514.11 493.395C1499.33 515.894 1466.97 541.389 1396.79 535.039C1349.83 530.791 1304.73 513.709 1282.69 499.635C1247.89 477.478 1237.43 474.489 1220.09 469.538C1216.35 468.472 1212.12 467.263 1207.31 465.756C1204.09 464.727 1200.71 463.872 1197.15 462.967C1192.55 461.801 1187.74 460.581 1182.73 458.868Z" fill="url(#paint6_linear_2256_2178)"/>
</mask>
<g mask="url(#mask5_2256_2178)">
<path d="M1383.68 202.459C1381 201.541 1378.29 200.654 1375.55 199.799C1284.56 169.995 1256.01 223.716 1230.82 271.112C1220.82 289.931 1211.37 307.707 1198.74 319.206C1167.09 351.585 1146.52 358.691 1132.9 363.393C1123.16 366.758 1117.28 368.79 1113.98 378.039C1111.62 383.794 1114.09 393.819 1120.75 405.516C1127.83 417.936 1138.77 430.784 1151.55 441.692C1168.25 456.77 1183.44 460.624 1196.85 464.025C1200.41 464.928 1203.77 465.78 1206.97 466.801L1206.97 466.802C1211.79 468.313 1216.03 469.523 1219.77 470.591C1237.04 475.522 1247.47 478.498 1282.16 500.593C1304.28 514.718 1349.53 531.86 1396.62 536.12C1422.11 538.425 1444.72 536.617 1463.84 530.744C1486.18 523.881 1503.34 511.512 1514.86 493.98C1527.76 473.844 1536.13 451.378 1539.74 427.2C1543.33 403.127 1542.01 378.677 1535.81 354.529C1527.17 320.852 1509.12 289.358 1483.61 263.45C1457.16 236.595 1423.57 216.101 1383.68 202.459ZM1182.73 458.868C1173.23 455.62 1163.02 450.6 1152.18 440.811C1124.71 417.375 1110.46 389.104 1114.85 378.385C1117.96 369.654 1123.66 367.687 1133.1 364.427C1146.8 359.694 1167.51 352.541 1199.32 320.002C1212.08 308.386 1221.57 290.519 1231.63 271.603C1244.39 247.598 1257.58 222.776 1279.02 207.328C1303.41 189.754 1334.88 187.633 1375.21 200.844C1418.56 214.378 1454.8 235.725 1482.93 264.289C1508.33 290.079 1526.3 321.42 1534.9 354.924C1541.05 378.921 1542.36 403.212 1538.79 427.123C1535.21 451.121 1526.91 473.418 1514.11 493.395C1499.33 515.894 1466.97 541.389 1396.79 535.039C1349.83 530.791 1304.73 513.709 1282.69 499.635C1247.89 477.478 1237.43 474.489 1220.09 469.538C1216.35 468.472 1212.12 467.263 1207.31 465.756C1204.09 464.727 1200.71 463.872 1197.15 462.967C1192.55 461.801 1187.74 460.581 1182.73 458.868Z" fill="#004BBB"/>
</g>
<mask id="mask6_2256_2178" style="mask-type:alpha" maskUnits="userSpaceOnUse" x="1137" y="219" width="381" height="302">
<path d="M1376.67 227.677C1343.85 216.452 1317.63 217.184 1296.6 229.893C1277.47 241.454 1264.92 261.159 1252.78 280.214C1242.67 296.094 1233.12 311.092 1220.33 320.809C1191.38 346.567 1171.88 353.404 1158.98 357.927C1148.68 361.537 1142.47 363.716 1139.04 372.816C1133.76 384.856 1143.66 413.535 1164.81 433.854C1180.78 450.561 1194.87 454.902 1208.49 459.1L1210.04 459.577C1216.62 461.562 1222.27 462.803 1227.74 464.004C1242.39 467.222 1256.23 470.263 1284.05 487.195C1304.3 499.572 1344.91 514.939 1386.21 519.428C1421.02 523.212 1467.64 520.359 1492.05 485.283C1515.45 450.468 1523.15 406.124 1513.19 363.614C1506.39 334.661 1491.59 307.446 1470.37 284.911C1447.16 260.273 1417.06 241.511 1380.86 229.133C1380.43 228.986 1380 228.841 1379.57 228.696C1378.6 228.346 1377.63 228.006 1376.67 227.677ZM1200.63 455.526C1189.61 451.756 1178.11 446.347 1165.43 433.078C1142.82 411.357 1135.28 383.542 1139.83 373.158C1143.09 364.512 1149.14 362.392 1159.16 358.878C1172.13 354.33 1191.74 347.457 1220.8 321.596C1233.7 311.789 1243.31 296.71 1253.48 280.745C1265.55 261.795 1278.03 242.2 1296.95 230.763C1318.37 217.82 1345.27 217.463 1379.24 229.651C1379.67 229.796 1380.1 229.942 1380.53 230.087C1416.62 242.429 1446.62 261.122 1469.73 285.669C1490.85 308.094 1505.58 335.165 1512.33 363.958C1517.27 385 1517.94 406.258 1514.33 427.141C1510.71 448.078 1502.99 467.451 1491.38 484.721C1467.24 519.395 1420.96 522.194 1386.38 518.436C1345.19 513.958 1304.71 498.643 1284.52 486.306C1256.6 469.31 1242.7 466.257 1227.98 463.025C1222.53 461.827 1216.89 460.588 1210.34 458.612L1208.8 458.135C1206.1 457.304 1203.38 456.466 1200.63 455.526Z" fill="url(#paint7_linear_2256_2178)"/>
</mask>
<g mask="url(#mask6_2256_2178)">
<path d="M1376.67 227.677C1343.85 216.452 1317.63 217.184 1296.6 229.893C1277.47 241.454 1264.92 261.159 1252.78 280.214C1242.67 296.094 1233.12 311.092 1220.33 320.809C1191.38 346.567 1171.88 353.404 1158.98 357.927C1148.68 361.537 1142.47 363.716 1139.04 372.816C1133.76 384.856 1143.66 413.535 1164.81 433.854C1180.78 450.561 1194.87 454.902 1208.49 459.1L1210.04 459.577C1216.62 461.562 1222.27 462.803 1227.74 464.004C1242.39 467.222 1256.23 470.263 1284.05 487.195C1304.3 499.572 1344.91 514.939 1386.21 519.428C1421.02 523.212 1467.64 520.359 1492.05 485.283C1515.45 450.468 1523.15 406.124 1513.19 363.614C1506.39 334.661 1491.59 307.446 1470.37 284.911C1447.16 260.273 1417.06 241.511 1380.86 229.133C1380.43 228.986 1380 228.841 1379.57 228.696C1378.6 228.346 1377.63 228.006 1376.67 227.677ZM1200.63 455.526C1189.61 451.756 1178.11 446.347 1165.43 433.078C1142.82 411.357 1135.28 383.542 1139.83 373.158C1143.09 364.512 1149.14 362.392 1159.16 358.878C1172.13 354.33 1191.74 347.457 1220.8 321.596C1233.7 311.789 1243.31 296.71 1253.48 280.745C1265.55 261.795 1278.03 242.2 1296.95 230.763C1318.37 217.82 1345.27 217.463 1379.24 229.651C1379.67 229.796 1380.1 229.942 1380.53 230.087C1416.62 242.429 1446.62 261.122 1469.73 285.669C1490.85 308.094 1505.58 335.165 1512.33 363.958C1517.27 385 1517.94 406.258 1514.33 427.141C1510.71 448.078 1502.99 467.451 1491.38 484.721C1467.24 519.395 1420.96 522.194 1386.38 518.436C1345.19 513.958 1304.71 498.643 1284.52 486.306C1256.6 469.31 1242.7 466.257 1227.98 463.025C1222.53 461.827 1216.89 460.588 1210.34 458.612L1208.8 458.135C1206.1 457.304 1203.38 456.466 1200.63 455.526Z" fill="#004BBB"/>
</g>
<mask id="mask7_2256_2178" style="mask-type:alpha" maskUnits="userSpaceOnUse" x="1161" y="248" width="333" height="257">
<path d="M1374.94 254.36C1350.93 246.15 1331.07 245.938 1314.42 253.672C1297.84 261.371 1286.05 275.974 1274.64 290.095C1264.9 302.16 1254.83 314.636 1241.93 322.421C1216.1 341.609 1197.84 347.989 1185.76 352.211C1174.52 356.138 1167.74 358.509 1164.09 367.596C1158.83 378.885 1161.64 407.279 1178.07 426.013C1189.21 440.481 1199.69 448.363 1213.1 452.355L1213.11 452.356C1220.25 454.413 1226.71 455.356 1233.56 456.355C1248.03 458.466 1263 460.648 1285.94 473.801C1304.44 484.47 1340.45 498.076 1375.8 502.74C1406.43 506.781 1447.5 505.525 1469.24 476.589C1490.35 447.136 1498.15 409.245 1490.65 372.623C1485.68 348.396 1474.1 325.469 1457.15 306.318C1438.41 285.135 1413.66 268.743 1383.6 257.597C1380.65 256.407 1377.76 255.327 1374.94 254.36ZM1211.01 450.717C1198.86 446.562 1189.07 438.852 1178.68 425.358C1162.47 406.873 1159.64 379.003 1164.81 367.93C1168.29 359.241 1174.55 357.052 1185.92 353.079C1198.05 348.841 1216.38 342.436 1242.29 323.192C1255.28 315.346 1265.41 302.803 1275.21 290.673C1286.55 276.637 1298.27 262.122 1314.66 254.51C1333.07 245.957 1355.51 247.252 1383.28 258.462C1413.24 269.572 1437.89 285.899 1456.56 306.994C1473.42 326.039 1484.93 348.833 1489.87 372.91C1497.31 409.253 1489.58 446.845 1468.65 476.049C1447.17 504.633 1406.39 505.85 1375.97 501.835C1340.71 497.183 1304.8 483.617 1286.35 472.981C1263.3 459.763 1248.27 457.571 1233.74 455.452C1226.92 454.456 1220.47 453.516 1213.37 451.472C1212.57 451.235 1211.79 450.983 1211.01 450.717Z" fill="url(#paint8_linear_2256_2178)"/>
</mask>
<g mask="url(#mask7_2256_2178)">
<path d="M1374.94 254.36C1350.93 246.15 1331.07 245.938 1314.42 253.672C1297.84 261.371 1286.05 275.974 1274.64 290.095C1264.9 302.16 1254.83 314.636 1241.93 322.421C1216.1 341.609 1197.84 347.989 1185.76 352.211C1174.52 356.138 1167.74 358.509 1164.09 367.596C1158.83 378.885 1161.64 407.279 1178.07 426.013C1189.21 440.481 1199.69 448.363 1213.1 452.355L1213.11 452.356C1220.25 454.413 1226.71 455.356 1233.56 456.355C1248.03 458.466 1263 460.648 1285.94 473.801C1304.44 484.47 1340.45 498.076 1375.8 502.74C1406.43 506.781 1447.5 505.525 1469.24 476.589C1490.35 447.136 1498.15 409.245 1490.65 372.623C1485.68 348.396 1474.1 325.469 1457.15 306.318C1438.41 285.135 1413.66 268.743 1383.6 257.597C1380.65 256.407 1377.76 255.327 1374.94 254.36ZM1211.01 450.717C1198.86 446.562 1189.07 438.852 1178.68 425.358C1162.47 406.873 1159.64 379.003 1164.81 367.93C1168.29 359.241 1174.55 357.052 1185.92 353.079C1198.05 348.841 1216.38 342.436 1242.29 323.192C1255.28 315.346 1265.41 302.803 1275.21 290.673C1286.55 276.637 1298.27 262.122 1314.66 254.51C1333.07 245.957 1355.51 247.252 1383.28 258.462C1413.24 269.572 1437.89 285.899 1456.56 306.994C1473.42 326.039 1484.93 348.833 1489.87 372.91C1497.31 409.253 1489.58 446.845 1468.65 476.049C1447.17 504.633 1406.39 505.85 1375.97 501.835C1340.71 497.183 1304.8 483.617 1286.35 472.981C1263.3 459.763 1248.27 457.571 1233.74 455.452C1226.92 454.456 1220.47 453.516 1213.37 451.472C1212.57 451.235 1211.79 450.983 1211.01 450.717Z" fill="#004BBB"/>
</g>
<mask id="mask8_2256_2178" style="mask-type:alpha" maskUnits="userSpaceOnUse" x="1184" y="275" width="286" height="214">
<path d="M1373.01 280.5C1334.33 267.272 1315.67 283.723 1296.04 301.032C1286.36 309.568 1276.34 318.395 1263.53 324.036C1241.61 336.749 1225.65 342.115 1214 346.032C1200.55 350.552 1193.15 353.041 1189.15 362.374C1186.12 368.493 1184.16 378.454 1184.04 388.345C1183.9 400.3 1186.48 410.888 1191.32 418.157C1198.46 431.469 1204.83 441.926 1216.17 445.131L1216.17 445.132C1223.35 447.079 1230.77 447.62 1238.62 448.193C1252.79 449.227 1268.86 450.4 1287.82 460.405C1300.94 467.377 1332.04 480.625 1365.38 486.048C1382.73 488.869 1398.09 489.122 1411.04 486.801C1426.33 484.059 1438.24 477.698 1446.43 467.895C1465.34 443.793 1473.3 412.309 1468.28 381.503C1465.1 362.006 1456.71 343.377 1444 327.631C1429.94 310.218 1410.98 296.379 1387.63 286.496C1382.45 284.049 1377.59 282.066 1373.01 280.5ZM1215.17 443.944C1204.83 440.409 1198.74 430.351 1191.93 417.651C1180.88 401.029 1184.66 373.046 1189.78 362.698C1193.64 353.713 1200.92 351.265 1214.14 346.82C1225.82 342.893 1241.82 337.513 1263.77 324.781C1276.66 319.111 1286.72 310.241 1296.45 301.664C1307.54 291.884 1318.02 282.647 1331.91 278.602C1347.55 274.045 1365.16 276.798 1387.31 287.267C1410.57 297.114 1429.46 310.891 1443.44 328.219C1456.07 343.865 1464.41 362.369 1467.57 381.729C1472.54 412.275 1464.65 443.491 1445.92 467.372C1437.87 477.011 1426.11 483.278 1411 485.988C1398.12 488.296 1382.83 488.042 1365.56 485.232C1332.29 479.822 1301.27 466.608 1288.18 459.652C1269.11 449.587 1252.97 448.41 1238.74 447.371C1230.92 446.801 1223.53 446.262 1216.41 444.33C1215.99 444.211 1215.58 444.083 1215.17 443.944Z" fill="url(#paint9_linear_2256_2178)"/>
</mask>
<g mask="url(#mask8_2256_2178)">
<path d="M1373.01 280.5C1334.33 267.272 1315.67 283.723 1296.04 301.032C1286.36 309.568 1276.34 318.395 1263.53 324.036C1241.61 336.749 1225.65 342.115 1214 346.032C1200.55 350.552 1193.15 353.041 1189.15 362.374C1186.12 368.493 1184.16 378.454 1184.04 388.345C1183.9 400.3 1186.48 410.888 1191.32 418.157C1198.46 431.469 1204.83 441.926 1216.17 445.131L1216.17 445.132C1223.35 447.079 1230.77 447.62 1238.62 448.193C1252.79 449.227 1268.86 450.4 1287.82 460.405C1300.94 467.377 1332.04 480.625 1365.38 486.048C1382.73 488.869 1398.09 489.122 1411.04 486.801C1426.33 484.059 1438.24 477.698 1446.43 467.895C1465.34 443.793 1473.3 412.309 1468.28 381.503C1465.1 362.006 1456.71 343.377 1444 327.631C1429.94 310.218 1410.98 296.379 1387.63 286.496C1382.45 284.049 1377.59 282.066 1373.01 280.5ZM1215.17 443.944C1204.83 440.409 1198.74 430.351 1191.93 417.651C1180.88 401.029 1184.66 373.046 1189.78 362.698C1193.64 353.713 1200.92 351.265 1214.14 346.82C1225.82 342.893 1241.82 337.513 1263.77 324.781C1276.66 319.111 1286.72 310.241 1296.45 301.664C1307.54 291.884 1318.02 282.647 1331.91 278.602C1347.55 274.045 1365.16 276.798 1387.31 287.267C1410.57 297.114 1429.46 310.891 1443.44 328.219C1456.07 343.865 1464.41 362.369 1467.57 381.729C1472.54 412.275 1464.65 443.491 1445.92 467.372C1437.87 477.011 1426.11 483.278 1411 485.988C1398.12 488.296 1382.83 488.042 1365.56 485.232C1332.29 479.822 1301.27 466.608 1288.18 459.652C1269.11 449.587 1252.97 448.41 1238.74 447.371C1230.92 446.801 1223.53 446.262 1216.41 444.33C1215.99 444.211 1215.58 444.083 1215.17 443.944Z" fill="#004BBB"/>
</g>
<mask id="mask9_2256_2178" style="mask-type:alpha" maskUnits="userSpaceOnUse" x="1202" y="301" width="245" height="172">
<path d="M1370.77 305.448C1347.41 297.458 1332.89 304.663 1315.48 313.298C1306.39 317.805 1296.99 322.467 1285.12 325.658C1268.94 332.104 1256.25 335.877 1246.05 338.909C1228.54 344.112 1218.9 346.977 1214.21 357.151C1208.37 368.294 1199.22 396.227 1204.56 410.251C1204.8 411.288 1205.04 412.332 1205.27 413.376C1207.75 424.28 1210.32 435.556 1219.24 437.904L1219.24 437.905C1226.21 439.654 1234.63 439.683 1243.54 439.713C1257.95 439.763 1274.29 439.819 1289.71 447.006C1306.38 454.852 1391.17 492.315 1423.62 459.203C1440.48 440.447 1448.73 415.294 1446.26 390.181C1444.78 375.197 1439.64 361.269 1430.98 348.782C1421.55 335.174 1408.32 323.941 1391.66 315.397C1383.92 310.816 1377.02 307.586 1370.77 305.448ZM1218.65 436.945C1210.7 434.227 1208.26 423.506 1205.9 413.127C1205.66 412.074 1205.43 411.02 1205.18 409.973L1205.17 409.926C1199.9 396.144 1208.97 368.513 1214.77 357.46C1219.32 347.596 1228.85 344.764 1246.15 339.621C1256.37 336.585 1269.08 332.807 1285.24 326.363C1297.14 323.166 1306.57 318.49 1315.69 313.969C1337.6 303.102 1354.9 294.52 1391.33 316.066C1407.92 324.575 1421.08 335.744 1430.46 349.272C1439.05 361.662 1444.15 375.477 1445.61 390.333C1448.06 415.209 1439.89 440.124 1423.2 458.689C1410.27 471.882 1387.37 475.23 1355.15 468.628C1326.78 462.816 1300.15 451.092 1290.01 446.32C1274.48 439.085 1258.08 439.027 1243.6 438.976C1234.73 438.946 1226.34 438.917 1219.44 437.185C1219.17 437.114 1218.91 437.034 1218.65 436.945Z" fill="url(#paint10_linear_2256_2178)"/>
</mask>
<g mask="url(#mask9_2256_2178)">
<path d="M1370.77 305.448C1347.41 297.458 1332.89 304.663 1315.48 313.298C1306.39 317.805 1296.99 322.467 1285.12 325.658C1268.94 332.104 1256.25 335.877 1246.05 338.909C1228.54 344.112 1218.9 346.977 1214.21 357.151C1208.37 368.294 1199.22 396.227 1204.56 410.251C1204.8 411.288 1205.04 412.332 1205.27 413.376C1207.75 424.28 1210.32 435.556 1219.24 437.904L1219.24 437.905C1226.21 439.654 1234.63 439.683 1243.54 439.713C1257.95 439.763 1274.29 439.819 1289.71 447.006C1306.38 454.852 1391.17 492.315 1423.62 459.203C1440.48 440.447 1448.73 415.294 1446.26 390.181C1444.78 375.197 1439.64 361.269 1430.98 348.782C1421.55 335.174 1408.32 323.941 1391.66 315.397C1383.92 310.816 1377.02 307.586 1370.77 305.448ZM1218.65 436.945C1210.7 434.227 1208.26 423.506 1205.9 413.127C1205.66 412.074 1205.43 411.02 1205.18 409.973L1205.17 409.926C1199.9 396.144 1208.97 368.513 1214.77 357.46C1219.32 347.596 1228.85 344.764 1246.15 339.621C1256.37 336.585 1269.08 332.807 1285.24 326.363C1297.14 323.166 1306.57 318.49 1315.69 313.969C1337.6 303.102 1354.9 294.52 1391.33 316.066C1407.92 324.575 1421.08 335.744 1430.46 349.272C1439.05 361.662 1444.15 375.477 1445.61 390.333C1448.06 415.209 1439.89 440.124 1423.2 458.689C1410.27 471.882 1387.37 475.23 1355.15 468.628C1326.78 462.816 1300.15 451.092 1290.01 446.32C1274.48 439.085 1258.08 439.027 1243.6 438.976C1234.73 438.946 1226.34 438.917 1219.44 437.185C1219.17 437.114 1218.91 437.034 1218.65 436.945Z" fill="#004BBB"/>
</g>
<mask id="mask10_2256_2178" style="mask-type:alpha" maskUnits="userSpaceOnUse" x="1216" y="323" width="210" height="135">
<path d="M1367.33 326.897C1353.52 322.174 1340.64 323.618 1322.84 325.615C1317.79 326.183 1312.56 326.769 1306.71 327.292C1302.35 328.141 1298.27 328.92 1294.43 329.653C1261.02 336.033 1245.77 338.945 1239.26 351.931C1234.02 361.418 1218.05 390.312 1217.83 402.31C1215.72 414.531 1214.34 428.788 1222.31 430.68L1222.31 430.68C1228.98 432.181 1238.61 431.58 1248.82 430.944C1263.2 430.048 1279.51 429.033 1291.6 433.61C1293.9 434.492 1296.63 435.596 1299.8 436.875C1312.76 442.114 1332.35 450.031 1351.43 454.362C1374.26 459.544 1390.87 458.249 1400.79 450.515C1415.77 437.362 1424.84 417.946 1425.09 398.567C1425.36 377.078 1414.92 357.808 1395.7 344.307C1384.93 335.193 1375.95 329.844 1367.33 326.897ZM1221.9 429.876C1215 427.518 1216.39 413.985 1218.4 402.345L1218.4 402.287C1218.59 390.496 1234.51 361.689 1239.75 352.223C1246.11 339.529 1261.27 336.635 1294.47 330.294C1298.31 329.56 1302.39 328.782 1306.72 327.936C1312.55 327.417 1317.78 326.83 1322.84 326.262C1351.61 323.035 1367.46 321.257 1395.35 344.856C1414.43 358.261 1424.78 377.351 1424.52 398.622C1424.27 417.79 1415.29 436.998 1400.48 450.003C1390.72 457.613 1374.27 458.869 1351.6 453.724C1332.55 449.401 1312.98 441.493 1300.04 436.26C1296.87 434.98 1294.14 433.875 1291.83 432.991C1279.64 428.376 1263.28 429.395 1248.84 430.295C1238.68 430.929 1229.08 431.527 1222.48 430.043C1222.28 429.995 1222.08 429.94 1221.9 429.876Z" fill="url(#paint11_linear_2256_2178)"/>
</mask>
<g mask="url(#mask10_2256_2178)">
<path d="M1367.33 326.897C1353.52 322.174 1340.64 323.618 1322.84 325.615C1317.79 326.183 1312.56 326.769 1306.71 327.292C1302.35 328.141 1298.27 328.92 1294.43 329.653C1261.02 336.033 1245.77 338.945 1239.26 351.931C1234.02 361.418 1218.05 390.312 1217.83 402.31C1215.72 414.531 1214.34 428.788 1222.31 430.68L1222.31 430.68C1228.98 432.181 1238.61 431.58 1248.82 430.944C1263.2 430.048 1279.51 429.033 1291.6 433.61C1293.9 434.492 1296.63 435.596 1299.8 436.875C1312.76 442.114 1332.35 450.031 1351.43 454.362C1374.26 459.544 1390.87 458.249 1400.79 450.515C1415.77 437.362 1424.84 417.946 1425.09 398.567C1425.36 377.078 1414.92 357.808 1395.7 344.307C1384.93 335.193 1375.95 329.844 1367.33 326.897ZM1221.9 429.876C1215 427.518 1216.39 413.985 1218.4 402.345L1218.4 402.287C1218.59 390.496 1234.51 361.689 1239.75 352.223C1246.11 339.529 1261.27 336.635 1294.47 330.294C1298.31 329.56 1302.39 328.782 1306.72 327.936C1312.55 327.417 1317.78 326.83 1322.84 326.262C1351.61 323.035 1367.46 321.257 1395.35 344.856C1414.43 358.261 1424.78 377.351 1424.52 398.622C1424.27 417.79 1415.29 436.998 1400.48 450.003C1390.72 457.613 1374.27 458.869 1351.6 453.724C1332.55 449.401 1312.98 441.493 1300.04 436.26C1296.87 434.98 1294.14 433.875 1291.83 432.991C1279.64 428.376 1263.28 429.395 1248.84 430.295C1238.68 430.929 1229.08 431.527 1222.48 430.043C1222.28 429.995 1222.08 429.94 1221.9 429.876Z" fill="#004BBB"/>
</g>
<mask id="mask11_2256_2178" style="mask-type:alpha" maskUnits="userSpaceOnUse" x="1222" y="328" width="186" height="116">
<path d="M1355.75 334.565C1347.72 331.818 1338.61 329.957 1328.28 328.937C1291.01 327.642 1271.88 332.959 1264.32 346.714C1260.68 352.968 1252.35 364.495 1245 374.665C1239.18 382.717 1233.68 390.324 1231.17 394.381C1228.67 397.707 1226.13 402.682 1224.39 407.664C1222.49 413.121 1221.83 417.657 1222.55 420.437C1223 422.153 1223.95 423.168 1225.38 423.456L1225.38 423.457C1231.79 424.685 1243.25 423.248 1255.37 421.727C1269.78 419.92 1284.68 418.052 1293.5 420.214C1298.3 421.412 1305.5 424.408 1313.85 427.876C1334.57 436.486 1362.94 448.28 1377.95 441.83C1391.88 434.643 1402.78 421.306 1406.41 407.015C1409.46 395.008 1407.16 383.332 1399.76 373.25C1392.09 359.568 1383.73 350.002 1373.47 343.17C1368.24 339.686 1362.36 336.826 1355.75 334.565ZM1225.11 422.792C1224.08 422.44 1223.38 421.581 1223.03 420.23C1221.56 414.56 1226.49 401.451 1231.55 394.697C1234.06 390.636 1239.55 383.038 1245.37 374.996C1252.73 364.814 1261.07 353.273 1264.73 346.984C1272.17 333.44 1291.16 328.213 1328.21 329.499C1346.94 331.35 1361.66 335.983 1373.19 343.664C1383.38 350.454 1391.7 359.97 1399.35 373.61C1406.66 383.58 1408.94 395.086 1405.93 406.909C1402.35 421.027 1391.57 434.209 1377.79 441.313C1362.98 447.679 1334.71 435.926 1314.06 427.345C1305.7 423.87 1298.48 420.868 1293.65 419.663C1284.75 417.482 1269.81 419.355 1255.37 421.167C1243.28 422.684 1231.86 424.116 1225.51 422.901C1225.37 422.873 1225.23 422.836 1225.11 422.792Z" fill="url(#paint12_linear_2256_2178)"/>
</mask>
<g mask="url(#mask11_2256_2178)">
<path d="M1355.75 334.565C1347.72 331.818 1338.61 329.957 1328.28 328.937C1291.01 327.642 1271.88 332.959 1264.32 346.714C1260.68 352.968 1252.35 364.495 1245 374.665C1239.18 382.717 1233.68 390.324 1231.17 394.381C1228.67 397.707 1226.13 402.682 1224.39 407.664C1222.49 413.121 1221.83 417.657 1222.55 420.437C1223 422.153 1223.95 423.168 1225.38 423.456L1225.38 423.457C1231.79 424.685 1243.25 423.248 1255.37 421.727C1269.78 419.92 1284.68 418.052 1293.5 420.214C1298.3 421.412 1305.5 424.408 1313.85 427.876C1334.57 436.486 1362.94 448.28 1377.95 441.83C1391.88 434.643 1402.78 421.306 1406.41 407.015C1409.46 395.008 1407.16 383.332 1399.76 373.25C1392.09 359.568 1383.73 350.002 1373.47 343.17C1368.24 339.686 1362.36 336.826 1355.75 334.565ZM1225.11 422.792C1224.08 422.44 1223.38 421.581 1223.03 420.23C1221.56 414.56 1226.49 401.451 1231.55 394.697C1234.06 390.636 1239.55 383.038 1245.37 374.996C1252.73 364.814 1261.07 353.273 1264.73 346.984C1272.17 333.44 1291.16 328.213 1328.21 329.499C1346.94 331.35 1361.66 335.983 1373.19 343.664C1383.38 350.454 1391.7 359.97 1399.35 373.61C1406.66 383.58 1408.94 395.086 1405.93 406.909C1402.35 421.027 1391.57 434.209 1377.79 441.313C1362.98 447.679 1334.71 435.926 1314.06 427.345C1305.7 423.87 1298.48 420.868 1293.65 419.663C1284.75 417.482 1269.81 419.355 1255.37 421.167C1243.28 422.684 1231.86 424.116 1225.51 422.901C1225.37 422.873 1225.23 422.836 1225.11 422.792Z" fill="#004BBB"/>
</g>
<mask id="mask12_2256_2178" style="mask-type:alpha" maskUnits="userSpaceOnUse" x="1226" y="325" width="179" height="109">
<path d="M1352.89 331.557C1351.88 331.213 1350.87 330.89 1349.85 330.587C1333.22 325.66 1319.31 324.663 1308.5 327.623C1300.01 329.948 1293.58 334.616 1289.37 341.498C1282.5 352.766 1255.68 379.704 1244.53 386.534C1240.38 389.079 1235.84 394.087 1232.06 400.276C1228.65 405.875 1226.6 411.306 1226.84 414.113C1226.95 415.362 1227.51 416.094 1228.45 416.232C1235.05 417.194 1251.12 414.14 1266.67 411.187C1278.72 408.897 1290.1 406.734 1295.41 406.815C1301.43 406.906 1312.05 412.797 1323.3 419.034C1334.88 425.459 1346.86 432.103 1355.07 433.118C1363.66 434.181 1374.7 431.705 1383.9 426.655C1394.65 420.754 1401.72 412.115 1403.8 402.33C1406.23 390.879 1402.18 375.918 1392.96 362.31C1383.2 347.915 1369.06 337.087 1352.89 331.557ZM1228.25 415.691C1227.66 415.488 1227.34 414.939 1227.26 414.021C1226.79 408.582 1235.57 392.547 1244.7 386.948C1255.89 380.094 1282.81 353.055 1289.71 341.742C1293.84 334.974 1300.18 330.379 1308.56 328.087C1319.3 325.146 1333.14 326.142 1349.7 331.049C1367.06 336.19 1382.3 347.405 1392.61 362.624C1401.63 375.927 1405.76 391.115 1403.39 402.262C1401.34 411.889 1394.37 420.401 1383.75 426.23C1374.62 431.24 1363.67 433.698 1355.15 432.644C1347.01 431.637 1335.06 425.01 1323.51 418.601C1312.23 412.343 1301.57 406.431 1295.46 406.338C1290.11 406.256 1278.71 408.423 1266.64 410.717C1251.12 413.664 1235.08 416.712 1228.54 415.759C1228.44 415.744 1228.34 415.721 1228.25 415.691Z" fill="url(#paint13_linear_2256_2178)"/>
</mask>
<g mask="url(#mask12_2256_2178)">
<path d="M1352.89 331.557C1351.88 331.213 1350.87 330.89 1349.85 330.587C1333.22 325.66 1319.31 324.663 1308.5 327.623C1300.01 329.948 1293.58 334.616 1289.37 341.498C1282.5 352.766 1255.68 379.704 1244.53 386.534C1240.38 389.079 1235.84 394.087 1232.06 400.276C1228.65 405.875 1226.6 411.306 1226.84 414.113C1226.95 415.362 1227.51 416.094 1228.45 416.232C1235.05 417.194 1251.12 414.14 1266.67 411.187C1278.72 408.897 1290.1 406.734 1295.41 406.815C1301.43 406.906 1312.05 412.797 1323.3 419.034C1334.88 425.459 1346.86 432.103 1355.07 433.118C1363.66 434.181 1374.7 431.705 1383.9 426.655C1394.65 420.754 1401.72 412.115 1403.8 402.33C1406.23 390.879 1402.18 375.918 1392.96 362.31C1383.2 347.915 1369.06 337.087 1352.89 331.557ZM1228.25 415.691C1227.66 415.488 1227.34 414.939 1227.26 414.021C1226.79 408.582 1235.57 392.547 1244.7 386.948C1255.89 380.094 1282.81 353.055 1289.71 341.742C1293.84 334.974 1300.18 330.379 1308.56 328.087C1319.3 325.146 1333.14 326.142 1349.7 331.049C1367.06 336.19 1382.3 347.405 1392.61 362.624C1401.63 375.927 1405.76 391.115 1403.39 402.262C1401.34 411.889 1394.37 420.401 1383.75 426.23C1374.62 431.24 1363.67 433.698 1355.15 432.644C1347.01 431.637 1335.06 425.01 1323.51 418.601C1312.23 412.343 1301.57 406.431 1295.46 406.338C1290.11 406.256 1278.71 408.423 1266.64 410.717C1251.12 413.664 1235.08 416.712 1228.54 415.759C1228.44 415.744 1228.34 415.721 1228.25 415.691Z" fill="#004BBB"/>
</g>
</g>
<circle cx="1381" r="111.5" stroke="#005E9E" stroke-width="91"/>
<circle cx="-16" cy="-92" r="124" stroke="#005E9E" stroke-width="66"/>
</g>
<defs>
<linearGradient id="paint0_linear_2256_2178" x1="1.04592e-05" y1="17.304" x2="1345.79" y2="571.553" gradientUnits="userSpaceOnUse">
<stop stop-color="#F9F9F9"/>
<stop offset="0.0001" stop-color="#FCFCFC"/>
<stop offset="1" stop-color="#FAFAFB"/>
</linearGradient>
<linearGradient id="paint1_linear_2256_2178" x1="1.04592e-05" y1="17.304" x2="1345.79" y2="571.553" gradientUnits="userSpaceOnUse">
<stop stop-color="#F9F9F9"/>
<stop offset="0.0001" stop-color="#FCFCFC"/>
<stop offset="1" stop-color="#FAFAFB"/>
</linearGradient>
<linearGradient id="paint2_linear_2256_2178" x1="1068.87" y1="237.691" x2="1643.21" y2="434.106" gradientUnits="userSpaceOnUse">
<stop stop-color="white"/>
<stop offset="0.0436152" stop-color="#B4B4B4"/>
<stop offset="0.150732"/>
<stop offset="0.171421" stop-color="#171717"/>
<stop offset="0.385884" stop-color="white"/>
<stop offset="0.632551" stop-color="#E6E6E6"/>
<stop offset="0.856667" stop-color="#1A1A1A"/>
<stop offset="0.998739"/>
</linearGradient>
<linearGradient id="paint3_linear_2256_2178" x1="1087.71" y1="250.692" x2="1618.14" y2="432.092" gradientUnits="userSpaceOnUse">
<stop stop-color="white"/>
<stop offset="0.0436152" stop-color="#B4B4B4"/>
<stop offset="0.150732"/>
<stop offset="0.171421" stop-color="#171717"/>
<stop offset="0.385884" stop-color="white"/>
<stop offset="0.632551" stop-color="#E6E6E6"/>
<stop offset="0.856667" stop-color="#1A1A1A"/>
<stop offset="0.998739"/>
</linearGradient>
<linearGradient id="paint4_linear_2256_2178" x1="1106.55" y1="263.67" x2="1593.11" y2="430.066" gradientUnits="userSpaceOnUse">
<stop stop-color="white"/>
<stop offset="0.0436152" stop-color="#B4B4B4"/>
<stop offset="0.150732"/>
<stop offset="0.171421" stop-color="#171717"/>
<stop offset="0.385884" stop-color="white"/>
<stop offset="0.632551" stop-color="#E6E6E6"/>
<stop offset="0.856667" stop-color="#1A1A1A"/>
<stop offset="0.998739"/>
</linearGradient>
<linearGradient id="paint5_linear_2256_2178" x1="1125.39" y1="276.617" x2="1568.13" y2="428.024" gradientUnits="userSpaceOnUse">
<stop stop-color="white"/>
<stop offset="0.0436152" stop-color="#B4B4B4"/>
<stop offset="0.150732"/>
<stop offset="0.171421" stop-color="#171717"/>
<stop offset="0.385884" stop-color="white"/>
<stop offset="0.632551" stop-color="#E6E6E6"/>
<stop offset="0.856667" stop-color="#1A1A1A"/>
<stop offset="0.998739"/>
</linearGradient>
<linearGradient id="paint6_linear_2256_2178" x1="1144.22" y1="289.55" x2="1543.2" y2="425.992" gradientUnits="userSpaceOnUse">
<stop stop-color="white"/>
<stop offset="0.0436152" stop-color="#B4B4B4"/>
<stop offset="0.150732"/>
<stop offset="0.171421" stop-color="#171717"/>
<stop offset="0.385884" stop-color="white"/>
<stop offset="0.632551" stop-color="#E6E6E6"/>
<stop offset="0.856667" stop-color="#1A1A1A"/>
<stop offset="0.998739"/>
</linearGradient>
<linearGradient id="paint7_linear_2256_2178" x1="1163.07" y1="302.385" x2="1518.33" y2="423.877" gradientUnits="userSpaceOnUse">
<stop stop-color="white"/>
<stop offset="0.0436152" stop-color="#B4B4B4"/>
<stop offset="0.150732"/>
<stop offset="0.171421" stop-color="#171717"/>
<stop offset="0.385884" stop-color="white"/>
<stop offset="0.632551" stop-color="#E6E6E6"/>
<stop offset="0.856667" stop-color="#1A1A1A"/>
<stop offset="0.998739"/>
</linearGradient>
<linearGradient id="paint8_linear_2256_2178" x1="1181.95" y1="315.061" x2="1493.72" y2="421.678" gradientUnits="userSpaceOnUse">
<stop stop-color="white"/>
<stop offset="0.0436152" stop-color="#B4B4B4"/>
<stop offset="0.150732"/>
<stop offset="0.171421" stop-color="#171717"/>
<stop offset="0.385884" stop-color="white"/>
<stop offset="0.632551" stop-color="#E6E6E6"/>
<stop offset="0.856667" stop-color="#1A1A1A"/>
<stop offset="0.998739"/>
</linearGradient>
<linearGradient id="paint9_linear_2256_2178" x1="1199.8" y1="330.417" x2="1468.41" y2="422.277" gradientUnits="userSpaceOnUse">
<stop stop-color="white"/>
<stop offset="0.0436152" stop-color="#B4B4B4"/>
<stop offset="0.150732"/>
<stop offset="0.171421" stop-color="#171717"/>
<stop offset="0.385884" stop-color="white"/>
<stop offset="0.632551" stop-color="#E6E6E6"/>
<stop offset="0.856667" stop-color="#1A1A1A"/>
<stop offset="0.998739"/>
</linearGradient>
<linearGradient id="paint10_linear_2256_2178" x1="1217.34" y1="345.134" x2="1443.74" y2="422.559" gradientUnits="userSpaceOnUse">
<stop stop-color="white"/>
<stop offset="0.0436152" stop-color="#B4B4B4"/>
<stop offset="0.150732"/>
<stop offset="0.171421" stop-color="#171717"/>
<stop offset="0.385884" stop-color="white"/>
<stop offset="0.632551" stop-color="#E6E6E6"/>
<stop offset="0.856667" stop-color="#1A1A1A"/>
<stop offset="0.998739"/>
</linearGradient>
<linearGradient id="paint11_linear_2256_2178" x1="1231.95" y1="357.307" x2="1420.63" y2="421.832" gradientUnits="userSpaceOnUse">
<stop stop-color="white"/>
<stop offset="0.0436152" stop-color="#B4B4B4"/>
<stop offset="0.150732"/>
<stop offset="0.171421" stop-color="#171717"/>
<stop offset="0.385884" stop-color="white"/>
<stop offset="0.632551" stop-color="#E6E6E6"/>
<stop offset="0.856667" stop-color="#1A1A1A"/>
<stop offset="0.998739"/>
</linearGradient>
<linearGradient id="paint12_linear_2256_2178" x1="1240.09" y1="361.766" x2="1402.99" y2="417.476" gradientUnits="userSpaceOnUse">
<stop stop-color="white"/>
<stop offset="0.0436152" stop-color="#B4B4B4"/>
<stop offset="0.150732"/>
<stop offset="0.171421" stop-color="#171717"/>
<stop offset="0.385884" stop-color="white"/>
<stop offset="0.632551" stop-color="#E6E6E6"/>
<stop offset="0.856667" stop-color="#1A1A1A"/>
<stop offset="0.998739"/>
</linearGradient>
<linearGradient id="paint13_linear_2256_2178" x1="1245.13" y1="358.338" x2="1400.86" y2="411.594" gradientUnits="userSpaceOnUse">
<stop stop-color="white"/>
<stop offset="0.0436152" stop-color="#B4B4B4"/>
<stop offset="0.150732"/>
<stop offset="0.171421" stop-color="#171717"/>
<stop offset="0.385884" stop-color="white"/>
<stop offset="0.632551" stop-color="#E6E6E6"/>
<stop offset="0.856667" stop-color="#1A1A1A"/>
<stop offset="0.998739"/>
</linearGradient>
</defs>
</svg>
