<svg width="335" height="223" viewBox="0 0 335 223" fill="none" xmlns="http://www.w3.org/2000/svg">
<rect width="335" height="223" rx="10" fill="#F9F9F9"/>
<mask id="mask0_2377_2071" style="mask-type:alpha" maskUnits="userSpaceOnUse" x="0" y="0" width="335" height="223">
<path d="M0 10C0 4.47716 4.47715 0 10 0H325C330.523 0 335 4.47715 335 10V213C335 218.523 330.523 223 325 223H9.99999C4.47714 223 0 218.523 0 213V10Z" fill="#F9F9F9"/>
</mask>
<g mask="url(#mask0_2377_2071)">
<circle cx="340.5" cy="6.5" r="36.5" stroke="#005E9E" stroke-width="26"/>
<g opacity="0.2">
<mask id="mask1_2377_2071" style="mask-type:alpha" maskUnits="userSpaceOnUse" x="-98" y="-69" width="275" height="132">
<path d="M-84.6724 62.1494C-90.7903 61.5076 -94.6684 59.6406 -96.2713 56.5498C-98.327 52.5859 -96.6186 46.6624 -91.1935 38.9435C-85.3119 30.5753 -74.8812 19.8036 -60.1907 6.92773C-40.7411 -10.1195 -21.9122 -24.3971 -4.22681 -35.5086C11.1363 -45.161 26.1228 -52.7246 40.3166 -57.9889C65.1682 -67.2063 84.2618 -68.3311 101.193 -68.1734C119.342 -68.0047 134.69 -64.148 146.808 -56.7108C157.346 -50.2437 165.27 -41.2298 170.358 -29.9192C180.962 -6.35054 176.545 21.8864 166.149 35.5691C161.272 41.9876 155.349 44.8026 149.473 43.4952C124.592 37.9601 102.332 34.8302 81.418 33.9275C52.5998 32.6831 26.6812 35.8109 4.38232 43.2237C-11.5583 48.5231 -34.8467 55.6647 -55.2672 59.5942C-67.9097 62.0269 -77.7323 62.8774 -84.6724 62.1494ZM101.184 -67.6475L101.174 -67.1216C84.3355 -67.2782 65.3479 -66.1602 40.644 -56.9977C26.5141 -51.757 11.5894 -44.224 -3.71563 -34.608C-21.3555 -23.5249 -40.141 -9.27983 -59.5497 7.73154C-74.1779 20.5528 -84.5527 31.262 -90.3857 39.5615C-95.5585 46.9213 -97.241 52.4657 -95.3871 56.0408C-92.2386 62.1114 -78.4252 62.9822 -55.4395 58.5595C-35.0709 54.64 -11.8263 47.5114 4.08629 42.2214C26.4979 34.7711 52.533 31.6269 81.469 32.8764C102.439 33.7818 124.755 36.9187 149.691 42.4659C155.176 43.6858 160.74 41.0054 165.365 34.9192C175.568 21.4897 179.885 -6.26447 169.448 -29.4635C164.446 -40.5811 156.656 -49.4426 146.294 -55.8021C134.327 -63.1458 119.148 -66.9549 101.174 -67.1216L101.184 -67.6475Z" fill="url(#paint0_linear_2377_2071)"/>
</mask>
<g mask="url(#mask1_2377_2071)">
<path d="M-84.6743 62.1494C-90.7923 61.5076 -94.6704 59.6406 -96.2733 56.5498C-98.3289 52.5859 -96.6205 46.6624 -91.1954 38.9435C-85.3138 30.5753 -74.8831 19.8036 -60.1927 6.92773C-40.743 -10.1195 -21.9141 -24.3971 -4.22876 -35.5086C11.1344 -45.161 26.1208 -52.7246 40.3147 -57.9889C65.1663 -67.2063 84.2598 -68.3311 101.192 -68.1734C119.34 -68.0047 134.688 -64.148 146.807 -56.7108C157.344 -50.2437 165.268 -41.2298 170.356 -29.9192C180.96 -6.35054 176.543 21.8864 166.147 35.5691C161.27 41.9876 155.347 44.8026 149.472 43.4952C124.59 37.9601 102.33 34.8302 81.416 33.9275C52.5979 32.6831 26.6792 35.8109 4.38036 43.2237C-11.5603 48.5231 -34.8486 55.6647 -55.2692 59.5942C-67.9116 62.0269 -77.7343 62.8774 -84.6743 62.1494ZM101.182 -67.6475L101.173 -67.1216C84.3336 -67.2782 65.3459 -66.1602 40.6421 -56.9977C26.5122 -51.757 11.5875 -44.224 -3.71758 -34.608C-21.3575 -23.5249 -40.1429 -9.27983 -59.5517 7.73154C-74.1798 20.5528 -84.5546 31.262 -90.3877 39.5615C-95.5605 46.9213 -97.2429 52.4657 -95.389 56.0408C-92.2405 62.1114 -78.4272 62.9822 -55.4415 58.5595C-35.0729 54.64 -11.8283 47.5114 4.08434 42.2214C26.496 34.7711 52.531 31.6269 81.4671 32.8764C102.437 33.7818 124.753 36.9187 149.689 42.4659C155.174 43.6858 160.738 41.0054 165.363 34.9192C175.566 21.4897 179.883 -6.26447 169.446 -29.4635C164.444 -40.5811 156.654 -49.4426 146.292 -55.8021C134.325 -63.1458 119.146 -66.9549 101.173 -67.1216L101.182 -67.6475Z" fill="#005E9E"/>
</g>
<mask id="mask2_2377_2071" style="mask-type:alpha" maskUnits="userSpaceOnUse" x="-87" y="-64" width="255" height="120">
<path d="M-75.0692 54.9205C-80.7006 54.3298 -84.2635 52.6112 -85.7214 49.7681C-89.6472 42.1124 -78.7169 27.183 -52.3057 4.12635C-17.738 -25.2906 14.5828 -45.24 43.7629 -55.1721C67.4456 -63.2328 85.1094 -63.6704 100.67 -62.9426C116.782 -62.6413 130.399 -59.1485 141.136 -52.5606C150.519 -46.8043 157.554 -38.8213 162.046 -28.8333C165.143 -21.9489 168.521 -10.6672 167.027 3.98271C165.965 14.3907 162.518 24.1637 157.569 30.7955C152.574 37.4874 146.48 40.4935 140.408 39.2603C94.9659 30.6699 47.0361 24.6228 4.43053 38.4313C-10.0435 43.1216 -31.07 49.4173 -49.0438 52.7747C-60.1858 54.8559 -68.8778 55.57 -75.0692 54.9205ZM109.995 -61.3892C106.978 -61.7057 103.856 -61.8946 100.631 -61.9548C85.1472 -62.6789 67.5855 -62.2441 44.0471 -54.2324C14.9792 -44.3387 -17.2381 -24.4481 -51.7098 4.88685C-65.2209 16.6818 -74.8126 26.534 -80.2139 34.1655C-84.9978 40.9243 -86.5705 46.0142 -84.8884 49.2941C-82.0394 54.8494 -70.0319 55.6928 -49.2011 51.8018C-31.275 48.4535 -10.2892 42.1694 4.1593 37.4876C46.9592 23.6158 95.0239 29.6747 140.591 38.2888C146.305 39.4495 152.065 36.5727 156.827 30.1918C161.669 23.7031 165.045 14.1154 166.088 3.88729C166.9 -4.0736 166.709 -16.1381 161.191 -28.4053C156.78 -38.212 149.87 -46.0517 140.653 -51.7068C132.197 -56.8951 121.914 -60.1389 109.995 -61.3892Z" fill="url(#paint1_linear_2377_2071)"/>
</mask>
<g mask="url(#mask2_2377_2071)">
<path d="M-75.0731 54.9205C-80.7045 54.3298 -84.2674 52.6112 -85.7253 49.7681C-89.6511 42.1124 -78.7209 27.183 -52.3096 4.12635C-17.7419 -25.2906 14.5789 -45.24 43.759 -55.1721C67.4417 -63.2328 85.1055 -63.6704 100.666 -62.9426C116.778 -62.6413 130.396 -59.1485 141.133 -52.5606C150.515 -46.8043 157.55 -38.8213 162.043 -28.8333C165.139 -21.9489 168.517 -10.6672 167.023 3.98271C165.961 14.3907 162.514 24.1637 157.565 30.7955C152.57 37.4874 146.476 40.4935 140.405 39.2603C94.962 30.6699 47.0322 24.6228 4.42662 38.4313C-10.0474 43.1216 -31.0739 49.4173 -49.0477 52.7747C-60.1897 54.8559 -68.8817 55.57 -75.0731 54.9205ZM109.991 -61.3892C106.974 -61.7057 103.852 -61.8946 100.628 -61.9548C85.1433 -62.6789 67.5816 -62.2441 44.0432 -54.2324C14.9753 -44.3387 -17.242 -24.4481 -51.7137 4.88685C-65.2248 16.6818 -74.8165 26.534 -80.2178 34.1655C-85.0017 40.9243 -86.5744 46.0142 -84.8923 49.2941C-82.0433 54.8494 -70.0359 55.6928 -49.205 51.8018C-31.2789 48.4535 -10.2931 42.1694 4.15539 37.4876C46.9553 23.6158 95.02 29.6747 140.587 38.2888C146.301 39.4495 152.061 36.5727 156.823 30.1918C161.665 23.7031 165.041 14.1154 166.084 3.88729C166.896 -4.0736 166.705 -16.1381 161.187 -28.4053C156.776 -38.212 149.866 -46.0517 140.649 -51.7068C132.193 -56.8951 121.91 -60.1389 109.991 -61.3892Z" fill="#005E9E"/>
</g>
<mask id="mask3_2377_2071" style="mask-type:alpha" maskUnits="userSpaceOnUse" x="-76" y="-59" width="235" height="107">
<path d="M-65.5036 47.7023C-70.6543 47.162 -73.9016 45.592 -75.2153 42.9943C-78.7484 36.0078 -68.6864 22.3779 -44.4546 1.32533C-11.5746 -25.7348 19.2509 -43.7927 47.1755 -52.3542C69.895 -59.3197 86.6861 -58.9704 100.115 -57.71C114.209 -57.2836 126.122 -54.1469 135.496 -48.3849C143.731 -43.3225 149.883 -36.3479 153.783 -27.6543C157.696 -18.9342 159.145 -8.86764 157.976 1.45684C156.909 10.8781 153.755 19.5697 149.094 25.9306C143.951 32.9499 137.637 36.1789 131.309 35.0259L127.795 34.4747C108.913 31.5094 87.5112 28.1484 66.4034 27.1535C42.2472 26.015 21.9801 28.1366 4.44448 33.6394C-14.4774 39.5748 -30.3929 43.7203 -42.8597 45.9609C-52.5006 47.6935 -60.0635 48.273 -65.5036 47.7023ZM107.381 -56.3003C105.011 -56.5489 102.568 -56.7114 100.054 -56.7874C86.6814 -58.0418 69.9937 -58.3892 47.4162 -51.4672C19.6013 -42.9392 -11.1231 -24.9361 -43.9034 2.04218C-67.4199 22.4733 -77.6951 36.1066 -74.4337 42.5555C-71.9287 47.5091 -61.3538 48.3481 -43.0012 45.0498C-30.5693 42.8155 -14.6892 38.6786 4.19867 32.7541C21.8312 27.2206 42.1943 25.0866 66.4516 26.2298C87.6058 27.227 109.031 30.5914 127.934 33.5603L131.458 34.1133C137.457 35.203 143.465 32.1019 148.395 25.3723C152.893 19.2333 156.066 10.4799 157.099 1.35678C158.249 -8.79634 156.826 -18.6901 152.983 -27.2548C149.159 -35.7786 143.123 -42.6191 135.043 -47.5864C127.461 -52.247 118.181 -55.1674 107.381 -56.3003Z" fill="url(#paint2_linear_2377_2071)"/>
</mask>
<g mask="url(#mask3_2377_2071)">
<path d="M-65.4978 47.7023C-70.6485 47.162 -73.8958 45.592 -75.2095 42.9943C-78.7426 36.0078 -68.6806 22.3779 -44.4488 1.32533C-11.5688 -25.7348 19.2568 -43.7927 47.1814 -52.3542C69.9009 -59.3197 86.692 -58.9704 100.121 -57.71C114.215 -57.2836 126.128 -54.1469 135.501 -48.3849C143.736 -43.3225 149.889 -36.3479 153.789 -27.6543C157.702 -18.9342 159.151 -8.86764 157.982 1.45684C156.915 10.8781 153.761 19.5697 149.1 25.9306C143.957 32.9499 137.643 36.1789 131.315 35.0259L127.801 34.4747C108.919 31.5094 87.517 28.1484 66.4092 27.1535C42.2531 26.015 21.9859 28.1366 4.45034 33.6394C-14.4715 39.5748 -30.387 43.7203 -42.8538 45.9609C-52.4948 47.6935 -60.0576 48.273 -65.4978 47.7023ZM107.387 -56.3003C105.017 -56.5489 102.574 -56.7114 100.06 -56.7874C86.6873 -58.0418 69.9996 -58.3892 47.4221 -51.4672C19.6072 -42.9392 -11.1173 -24.9361 -43.8975 2.04218C-67.4141 22.4733 -77.6892 36.1066 -74.4279 42.5555C-71.9228 47.5091 -61.3479 48.3481 -42.9953 45.0498C-30.5634 42.8155 -14.6833 38.6786 4.20453 32.7541C21.8371 27.2206 42.2001 25.0866 66.4575 26.2298C87.6117 27.227 109.037 30.5914 127.94 33.5603L131.464 34.1133C137.463 35.203 143.47 32.1019 148.401 25.3723C152.899 19.2333 156.071 10.4799 157.105 1.35678C158.255 -8.79634 156.832 -18.6901 152.989 -27.2548C149.165 -35.7786 143.129 -42.6191 135.049 -47.5864C127.467 -52.247 118.187 -55.1674 107.387 -56.3003Z" fill="#005E9E"/>
</g>
<mask id="mask4_2377_2071" style="mask-type:alpha" maskUnits="userSpaceOnUse" x="-66" y="-54" width="216" height="95">
<path d="M-55.9391 40.5398C-60.6016 40.0507 -63.5049 38.6143 -64.6876 36.2339C-67.8266 29.9143 -58.6286 17.5806 -36.5675 -1.47215C-5.35433 -26.1974 23.9766 -42.3633 50.624 -49.5324C72.6146 -55.4486 88.3359 -54.2157 99.5772 -52.4758C128.623 -51.1679 140.668 -37.5574 145.657 -26.3674C149.026 -18.8098 150.205 -10.0479 149.066 -1.02838C148.024 7.22013 145.102 15.0289 140.837 20.9596C135.585 28.2623 128.8 31.8486 122.245 30.7946C117.419 30.1914 112.456 29.5336 107.656 28.8975C72.396 24.226 35.9351 19.3946 4.49438 28.8512L4.49407 28.8511C-25.2252 37.7827 -45.2244 41.6638 -55.9391 40.5398ZM93.0898 -52.4579C82.5589 -53.5626 68.8014 -53.536 50.8216 -48.6988C24.2812 -41.5586 -4.95047 -25.4428 -36.0614 -0.798935C-57.459 17.6812 -66.8491 30.0089 -63.957 35.8309C-61.7953 40.1831 -52.6488 41.0167 -36.7712 38.3079C-26.1486 36.4959 -12.7223 33.1321 4.27438 28.024L4.27406 28.024C35.8784 18.5183 72.4252 23.361 107.767 28.0437C112.566 28.6795 117.527 29.337 122.364 29.9418C128.724 30.9585 135.046 27.5882 140.182 20.4463C144.362 14.6335 147.227 6.96967 148.251 -1.13301C149.369 -9.98976 148.214 -18.5876 144.911 -25.9973C140.016 -36.9766 128.167 -50.3325 99.5127 -51.6168L99.4911 -51.6177L99.4701 -51.621C97.4876 -51.928 95.3635 -52.2194 93.0898 -52.4579Z" fill="url(#paint3_linear_2377_2071)"/>
</mask>
<g mask="url(#mask4_2377_2071)">
<path d="M-55.9372 40.5398C-60.5997 40.0507 -63.503 38.6143 -64.6856 36.2339C-67.8246 29.9143 -58.6266 17.5806 -36.5656 -1.47215C-5.35237 -26.1974 23.9786 -42.3633 50.626 -49.5324C72.6166 -55.4486 88.3378 -54.2157 99.5791 -52.4758C128.625 -51.1679 140.67 -37.5574 145.659 -26.3674C149.028 -18.8098 150.207 -10.0479 149.068 -1.02838C148.026 7.22013 145.104 15.0289 140.839 20.9596C135.587 28.2623 128.802 31.8486 122.247 30.7946C117.421 30.1914 112.458 29.5336 107.658 28.8975C72.3979 24.226 35.9371 19.3946 4.49634 28.8512L4.49602 28.8511C-25.2232 37.7827 -45.2225 41.6638 -55.9372 40.5398ZM93.0918 -52.4579C82.5608 -53.5626 68.8033 -53.536 50.8236 -48.6988C24.2831 -41.5586 -4.94852 -25.4428 -36.0595 -0.798935C-57.457 17.6812 -66.8472 30.0089 -63.9551 35.8309C-61.7933 40.1831 -52.6468 41.0167 -36.7692 38.3079C-26.1467 36.4959 -12.7204 33.1321 4.27633 28.024L4.27602 28.024C35.8804 18.5183 72.4271 23.361 107.769 28.0437C112.568 28.6795 117.529 29.337 122.366 29.9418C128.726 30.9585 135.048 27.5882 140.184 20.4463C144.364 14.6335 147.229 6.96967 148.253 -1.13301C149.371 -9.98976 148.216 -18.5876 144.913 -25.9973C140.018 -36.9766 128.169 -50.3325 99.5147 -51.6168L99.4931 -51.6177L99.4721 -51.621C97.4896 -51.928 95.3655 -52.2194 93.0918 -52.4579Z" fill="#005E9E"/>
</g>
<mask id="mask5_2377_2071" style="mask-type:alpha" maskUnits="userSpaceOnUse" x="-55" y="-50" width="196" height="84">
<path d="M-46.3214 33.3702C-50.2915 32.9537 -53.0817 31.7496 -54.1815 29.4827C-56.9256 23.8266 -48.5847 12.7844 -28.682 -4.27509C0.888929 -26.6878 28.7249 -40.9619 54.071 -46.7155C70.2826 -50.3955 84.9973 -50.5687 99.0531 -47.2455C123.529 -45.6792 133.557 -34.2658 137.653 -24.9666C140.466 -18.5793 141.379 -11.1439 140.293 -3.46445C139.298 3.5768 136.642 10.4389 132.815 15.8579C127.465 23.4364 120.507 27.3331 113.658 26.6151C113.498 26.5983 113.339 26.5793 113.179 26.5573C104.881 25.7745 96.6447 24.8277 88.6802 23.9123C58.0735 20.3941 29.1642 17.0718 4.5418 24.0574L4.54148 24.0573C-14.0563 29.3267 -34.9897 34.5589 -46.3214 33.3702ZM87.9313 -48.3278C77.2914 -49.4439 66.1704 -48.6482 54.2254 -45.9367C28.984 -40.2068 1.24485 -25.9782 -28.2213 -3.64594C-47.5121 12.8903 -56.0241 23.918 -53.5019 29.1164C-48.9966 38.4014 -10.2409 27.4219 4.34925 23.2882C29.111 16.2631 58.0891 19.5939 88.7706 23.1199C96.7304 24.0348 104.963 24.9811 113.27 25.7654C120.004 26.6885 126.9 22.9014 132.205 15.3882C135.957 10.0735 138.562 3.33948 139.54 -3.57363C140.604 -11.0998 139.712 -18.38 136.961 -24.6271C132.949 -33.7351 123.103 -44.9179 98.9685 -46.4518L98.9379 -46.4538L98.908 -46.4609C95.2986 -47.3158 91.6438 -47.9383 87.9313 -48.3278Z" fill="url(#paint4_linear_2377_2071)"/>
</mask>
<g mask="url(#mask5_2377_2071)">
<path d="M-46.3234 33.3702C-50.2934 32.9537 -53.0837 31.7496 -54.1834 29.4827C-56.9275 23.8266 -48.5867 12.7844 -28.684 -4.27509C0.886976 -26.6878 28.7229 -40.9619 54.069 -46.7155C70.2807 -50.3955 84.9953 -50.5687 99.0512 -47.2455C123.527 -45.6792 133.555 -34.2658 137.651 -24.9666C140.464 -18.5793 141.377 -11.1439 140.291 -3.46445C139.296 3.5768 136.64 10.4389 132.814 15.8579C127.463 23.4364 120.505 27.3331 113.656 26.6151C113.496 26.5983 113.337 26.5793 113.177 26.5573C104.879 25.7745 96.6427 24.8277 88.6783 23.9123C58.0716 20.3941 29.1623 17.0718 4.53984 24.0574L4.53953 24.0573C-14.0583 29.3267 -34.9917 34.5589 -46.3234 33.3702ZM87.9293 -48.3278C77.2894 -49.4439 66.1684 -48.6482 54.2234 -45.9367C28.982 -40.2068 1.2429 -25.9782 -28.2233 -3.64594C-47.514 12.8903 -56.026 23.918 -53.5038 29.1164C-48.9986 38.4014 -10.2428 27.4219 4.34729 23.2882C29.109 16.2631 58.0871 19.5939 88.7686 23.1199C96.7285 24.0348 104.961 24.9811 113.268 25.7654C120.002 26.6885 126.898 22.9014 132.203 15.3882C135.955 10.0735 138.56 3.33948 139.538 -3.57363C140.602 -11.0998 139.71 -18.38 136.959 -24.6271C132.947 -33.7351 123.101 -44.9179 98.9666 -46.4518L98.9359 -46.4538L98.9061 -46.4609C95.2966 -47.3158 91.6418 -47.9383 87.9293 -48.3278Z" fill="#005E9E"/>
</g>
<mask id="mask6_2377_2071" style="mask-type:alpha" maskUnits="userSpaceOnUse" x="-45" y="-46" width="178" height="73">
<path d="M-36.8198 26.2123C-40.343 25.8427 -42.7705 24.77 -43.7142 22.7601C-46.0607 17.7624 -38.5664 8.00417 -20.8038 -7.07252C7.15284 -27.195 33.4938 -39.577 57.5103 -43.8919C77.0229 -47.3975 90.5779 -44.8067 98.5243 -42.0081C118.515 -40.2079 126.573 -30.91 129.801 -23.4217C134.209 -13.1931 132.365 0.173897 125.102 10.6323C119.465 18.7493 111.658 23.118 104.2 22.3362C104.168 22.3329 104.137 22.3294 104.105 22.3259C92.2406 21.5596 81.2389 20.4223 70.5993 19.3225C45.1629 16.6931 23.1956 14.4223 4.58055 19.2699C-11.9863 23.5747 -27.9052 27.1474 -36.8198 26.2123ZM84.0706 -44.3916C63.9944 -46.4976 28.9974 -42.0313 -20.3881 -6.48722C-37.5913 8.11595 -45.2351 17.8515 -43.0848 22.4317C-39.5391 29.9813 -9.85016 22.266 4.41783 18.5583L4.41781 18.5584C23.1505 13.6802 45.1737 15.9567 70.6749 18.5928C81.3079 19.6919 92.3032 20.8286 104.17 21.5953C104.201 21.5987 104.231 21.6021 104.261 21.6053C111.482 22.3627 119.049 18.1068 124.537 10.2051C131.653 -0.0426543 133.469 -13.1216 129.162 -23.115C126.008 -30.4318 118.111 -39.5293 98.4161 -41.2811L98.3741 -41.2849L98.3345 -41.299C94.9996 -42.4765 90.2372 -43.7447 84.0706 -44.3916Z" fill="url(#paint5_linear_2377_2071)"/>
</mask>
<g mask="url(#mask6_2377_2071)">
<path d="M-36.8237 26.2123C-40.3469 25.8427 -42.7744 24.77 -43.7181 22.7601C-46.0646 17.7624 -38.5703 8.00417 -20.8077 -7.07252C7.14893 -27.195 33.4899 -39.577 57.5064 -43.8919C77.019 -47.3975 90.574 -44.8067 98.5204 -42.0081C118.512 -40.2079 126.57 -30.91 129.797 -23.4217C134.205 -13.1931 132.361 0.173897 125.098 10.6323C119.461 18.7493 111.654 23.118 104.196 22.3362C104.164 22.3329 104.133 22.3294 104.101 22.3259C92.2367 21.5596 81.235 20.4223 70.5954 19.3225C45.159 16.6931 23.1917 14.4223 4.57664 19.2699C-11.9902 23.5747 -27.9091 27.1474 -36.8237 26.2123ZM84.0667 -44.3916C63.9905 -46.4976 28.9935 -42.0313 -20.392 -6.48722C-37.5952 8.11595 -45.2391 17.8515 -43.0887 22.4317C-39.543 29.9813 -9.85407 22.266 4.41392 18.5583L4.41391 18.5584C23.1466 13.6802 45.1698 15.9567 70.671 18.5928C81.304 19.6919 92.2993 20.8286 104.166 21.5953C104.197 21.5987 104.227 21.6021 104.257 21.6053C111.478 22.3627 119.045 18.1068 124.533 10.2051C131.649 -0.0426543 133.465 -13.1216 129.158 -23.115C126.004 -30.4318 118.107 -39.5293 98.4122 -41.2811L98.3702 -41.2849L98.3306 -41.299C94.9957 -42.4765 90.2333 -43.7447 84.0667 -44.3916Z" fill="#005E9E"/>
</g>
<mask id="mask7_2377_2071" style="mask-type:alpha" maskUnits="userSpaceOnUse" x="-34" y="-42" width="158" height="62">
<path d="M-27.232 19.0905C-30.297 18.769 -32.5036 17.8568 -33.3022 16.0722C-35.2474 11.7241 -28.5832 3.23721 -12.9287 -9.87309C13.4445 -27.7278 38.2905 -38.2175 60.9452 -41.0707C69.3261 -42.1264 77.1833 -42.0875 84.2986 -40.958C91.4552 -39.8211 95.9359 -37.8588 97.9962 -36.7719C107.461 -35.5717 114.496 -32.3056 118.904 -27.064C122.711 -22.5374 124.363 -16.6889 123.68 -10.1509C122.929 -2.95692 119.432 4.34027 114.087 9.86978C108.429 15.7223 101.66 18.6418 95.0267 18.0909C79.2411 17.5285 65.4682 16.1682 53.3164 14.9677C33.5253 13.0127 17.8926 11.4685 4.61381 14.4792L3.79508 14.6642C-6.00707 16.8803 -19.4106 19.911 -27.232 19.0905ZM80.6379 -40.7634C75.3132 -41.322 68.783 -41.3843 61.0155 -40.406C38.4588 -37.5653 13.7049 -27.1103 -12.5587 -9.33203C-27.7059 3.35591 -34.4988 11.8126 -32.7224 15.7833C-30.1001 21.6439 -8.96309 16.865 3.66577 14.0099L4.48454 13.8248C17.8603 10.7921 33.5363 12.3408 53.3828 14.3013C65.5255 15.5007 79.2882 16.8602 95.0692 17.4227C101.527 17.9588 108.117 15.1079 113.639 9.39585C118.881 3.97385 122.309 -3.17496 123.044 -10.2175C123.707 -16.5643 122.109 -22.2357 118.422 -26.6189C114.111 -31.7452 107.192 -34.9399 97.8582 -36.1143L97.8024 -36.1212L97.7526 -36.1478C95.7233 -37.2247 90.0745 -39.7735 80.6379 -40.7634Z" fill="url(#paint6_linear_2377_2071)"/>
</mask>
<g mask="url(#mask7_2377_2071)">
<path d="M-27.234 19.0905C-30.299 18.769 -32.5056 17.8568 -33.3042 16.0722C-35.2493 11.7241 -28.5852 3.23721 -12.9307 -9.87309C13.4425 -27.7278 38.2885 -38.2175 60.9433 -41.0707C69.3242 -42.1264 77.1813 -42.0875 84.2967 -40.958C91.4533 -39.8211 95.9339 -37.8588 97.9943 -36.7719C107.459 -35.5717 114.494 -32.3056 118.902 -27.064C122.709 -22.5374 124.361 -16.6889 123.678 -10.1509C122.927 -2.95692 119.43 4.34027 114.085 9.86978C108.427 15.7223 101.658 18.6418 95.0248 18.0909C79.2391 17.5285 65.4663 16.1682 53.3145 14.9677C33.5233 13.0127 17.8907 11.4685 4.61186 14.4792L3.79313 14.6642C-6.00902 16.8803 -19.4125 19.911 -27.234 19.0905ZM80.636 -40.7634C75.3113 -41.322 68.7811 -41.3843 61.0136 -40.406C38.4568 -37.5653 13.703 -27.1103 -12.5606 -9.33203C-27.7079 3.35591 -34.5007 11.8126 -32.7244 15.7833C-30.1021 21.6439 -8.96504 16.865 3.66382 14.0099L4.48258 13.8248C17.8584 10.7921 33.5343 12.3408 53.3808 14.3013C65.5235 15.5007 79.2862 16.8602 95.0673 17.4227C101.525 17.9588 108.115 15.1079 113.637 9.39585C118.879 3.97385 122.307 -3.17496 123.042 -10.2175C123.705 -16.5643 122.107 -22.2357 118.421 -26.6189C114.109 -31.7452 107.19 -34.9399 97.8563 -36.1143L97.8005 -36.1212L97.7506 -36.1478C95.7214 -37.2247 90.0725 -39.7735 80.636 -40.7634Z" fill="#005E9E"/>
</g>
<mask id="mask8_2377_2071" style="mask-type:alpha" maskUnits="userSpaceOnUse" x="-24" y="-39" width="140" height="53">
<path d="M-17.6947 12.135C-20.3766 11.8537 -22.3151 11.0573 -22.9796 9.45507C-24.52 5.7401 -18.6552 -1.49882 -5.04992 -12.6752L-5.01968 -12.6968C12.0276 -23.412 37.9063 -36.5432 64.3835 -38.2495C72.1717 -38.7515 79.5971 -38.1983 85.856 -36.6511C90.7801 -35.4333 95.0095 -33.5701 97.4775 -31.5333C115.631 -28.1929 116.29 -16.6001 115.729 -11.766C115.011 -5.57686 111.284 1.09979 105.758 6.09406C99.8221 11.4604 92.7878 14.2162 85.9514 13.8544C65.5272 13.7028 49.6622 12.0347 36.9159 10.6931C23.1475 9.24365 13.2133 8.19961 4.64788 9.6875L4.64752 9.68763C3.96473 9.80527 3.25661 9.92943 2.52874 10.0568C-4.40674 11.2721 -12.464 12.6838 -17.6947 12.135ZM-4.7097 -12.1882C-17.8806 -1.36707 -23.8487 5.83225 -22.4485 9.20935C-20.6655 13.5079 -6.76164 11.0715 2.43853 9.45947C3.1667 9.33193 3.87553 9.20768 4.55861 9.09007C13.2 7.58919 23.1713 8.63739 36.9795 10.0904C49.7181 11.4332 65.5638 13.0973 85.9735 13.249C92.5755 13.5983 99.6453 10.8237 105.383 5.63724C110.8 0.740064 114.453 -5.7911 115.155 -11.8333C116.3 -21.7045 109.793 -28.6723 97.3009 -30.9497L97.2286 -30.9628L97.1715 -31.0107C92.3352 -35.0523 80.3302 -38.6708 64.4135 -37.6451C49.8666 -36.7075 26.0663 -31.529 -4.7097 -12.1882Z" fill="url(#paint7_linear_2377_2071)"/>
</mask>
<g mask="url(#mask8_2377_2071)">
<path d="M-17.6966 12.135C-20.3785 11.8537 -22.3171 11.0573 -22.9816 9.45507C-24.522 5.7401 -18.6572 -1.49882 -5.05187 -12.6752L-5.02163 -12.6968C12.0257 -23.412 37.9043 -36.5432 64.3815 -38.2495C72.1698 -38.7515 79.5951 -38.1983 85.8541 -36.6511C90.7782 -35.4333 95.0075 -33.5701 97.4756 -31.5333C115.629 -28.1929 116.288 -16.6001 115.727 -11.766C115.009 -5.57686 111.282 1.09979 105.757 6.09406C99.8202 11.4604 92.7859 14.2162 85.9494 13.8544C65.5253 13.7028 49.6602 12.0347 36.9139 10.6931C23.1455 9.24365 13.2113 8.19961 4.64593 9.6875L4.64557 9.68763C3.96277 9.80527 3.25465 9.92943 2.52678 10.0568C-4.40869 11.2721 -12.466 12.6838 -17.6966 12.135ZM-4.71166 -12.1882C-17.8825 -1.36707 -23.8507 5.83225 -22.4504 9.20935C-20.6674 13.5079 -6.7636 11.0715 2.43657 9.45947C3.16474 9.33193 3.87358 9.20768 4.55666 9.09007C13.198 7.58919 23.1694 8.63739 36.9776 10.0904C49.7161 11.4332 65.5618 13.0973 85.9716 13.249C92.5735 13.5983 99.6433 10.8237 105.381 5.63724C110.798 0.740064 114.451 -5.7911 115.153 -11.8333C116.298 -21.7045 109.791 -28.6723 97.299 -30.9497L97.2267 -30.9628L97.1696 -31.0107C92.3333 -35.0523 80.3282 -38.6708 64.4115 -37.6451C49.8646 -36.7075 26.0644 -31.529 -4.71166 -12.1882Z" fill="#005E9E"/>
</g>
<mask id="mask9_2377_2071" style="mask-type:alpha" maskUnits="userSpaceOnUse" x="-14" y="-36" width="123" height="46">
<path d="M-8.10329 5.41073C-10.5315 5.15601 -12.3376 4.47253 -12.8666 2.99582C-13.4102 1.4791 -12.5377 -0.641213 -10.199 -3.48626C-7.65561 -6.58021 -3.27503 -10.6129 2.82146 -15.4717L2.8544 -15.4941C31.8595 -32.1277 54.1885 -35.5117 67.8125 -35.4215C83.5711 -35.316 93.9376 -30.6254 96.957 -26.2802C108.085 -23.1169 108.841 -16.3518 108.298 -12.5944C106.808 -2.27383 92.4551 9.93772 76.8663 9.62329C50.4683 10.1517 33.9205 7.90604 21.8377 6.26653C14.4931 5.26986 9.1864 4.54943 4.66548 4.9018L4.66479 4.90173C3.92335 4.95796 3.14778 5.02318 2.35325 5.09003C-1.26273 5.39438 -5.14471 5.72109 -8.10329 5.41073ZM3.11701 -15.0293C-8.17927 -6.0242 -13.3945 -0.0247092 -12.3816 2.80123C-11.343 5.69894 -3.76914 5.0617 2.31686 4.54979C3.11276 4.48275 3.88963 4.4175 4.6327 4.36127C9.2057 4.00487 14.5348 4.72821 21.9092 5.72899C33.9764 7.3661 50.5021 9.60933 76.8712 9.08156C83.7987 9.22108 91.2834 6.69382 97.4165 2.14779C103.188 -2.13014 107.064 -7.66966 107.786 -12.6703C108.681 -18.8689 104.755 -23.5253 96.7294 -25.7817L96.6403 -25.8069L96.5872 -25.8856C94.1878 -29.4401 84.5415 -34.7682 67.8039 -34.8794C54.2441 -34.9693 32.0161 -31.5987 3.11701 -15.0293Z" fill="url(#paint8_linear_2377_2071)"/>
</mask>
<g mask="url(#mask9_2377_2071)">
<path d="M-8.10133 5.41073C-10.5295 5.15601 -12.3357 4.47253 -12.8647 2.99582C-13.4083 1.4791 -12.5357 -0.641213 -10.197 -3.48626C-7.65365 -6.58021 -3.27307 -10.6129 2.82341 -15.4717L2.85635 -15.4941C31.8614 -32.1277 54.1905 -35.5117 67.8144 -35.4215C83.573 -35.316 93.9396 -30.6254 96.9589 -26.2802C108.087 -23.1169 108.843 -16.3518 108.3 -12.5944C106.81 -2.27383 92.457 9.93772 76.8682 9.62329C50.4702 10.1517 33.9224 7.90604 21.8397 6.26653C14.495 5.26986 9.18835 4.54943 4.66743 4.9018L4.66674 4.90173C3.9253 4.95796 3.14974 5.02318 2.3552 5.09003C-1.26078 5.39438 -5.14276 5.72109 -8.10133 5.41073ZM3.11896 -15.0293C-8.17732 -6.0242 -13.3925 -0.0247092 -12.3796 2.80123C-11.3411 5.69894 -3.76718 5.0617 2.31881 4.54979C3.11471 4.48275 3.89159 4.4175 4.63466 4.36127C9.20765 4.00487 14.5367 4.72821 21.9112 5.72899C33.9783 7.3661 50.5041 9.60933 76.8731 9.08156C83.8007 9.22108 91.2854 6.69382 97.4184 2.14779C103.19 -2.13014 107.066 -7.66966 107.788 -12.6703C108.683 -18.8689 104.757 -23.5253 96.7314 -25.7817L96.6423 -25.8069L96.5891 -25.8856C94.1898 -29.4401 84.5434 -34.7682 67.8059 -34.8794C54.246 -34.9693 32.0181 -31.5987 3.11896 -15.0293Z" fill="#005E9E"/>
</g>
<mask id="mask10_2377_2071" style="mask-type:alpha" maskUnits="userSpaceOnUse" x="-4" y="-33" width="106" height="39">
<path d="M29.2393 4.72672C19.7114 3.72723 13.7239 2.22735 9.5665 1.18598C7.59226 0.691376 6.03294 0.300774 4.67359 0.100609L4.67264 0.100509C4.31947 0.0469983 3.96091 -0.00460874 3.60135 -0.056322C0.441105 -0.510103 -2.82633 -0.979465 -3.30617 -3.06011C-3.69743 -4.75615 -2.67054 -8.17926 10.7075 -18.2797L10.7417 -18.3011C27.2002 -26.6976 43.1383 -31.5252 58.1135 -32.6495C73.8343 -33.8298 83.6414 -30.5266 88.0877 -28.4527C92.6603 -26.32 95.6984 -23.6164 96.4488 -21.019C101.78 -18.3242 102.272 -14.8447 101.74 -12.3936C100.875 -8.40291 96.5311 -3.95285 90.1207 -0.490116C83.429 3.12459 75.2911 5.26476 67.7935 5.38192C50.7056 6.18087 38.3526 5.68272 29.2393 4.72672ZM4.74166 -0.372814C6.12234 -0.169588 7.691 0.223367 9.67713 0.720755C17.7894 2.75288 32.8894 6.53518 67.7841 4.90394C84.3164 4.6456 99.6319 -4.82561 101.295 -12.4952C102.009 -15.7872 100.232 -18.6013 96.1578 -20.6329L96.065 -20.6791L96.0376 -20.7828C95.3753 -23.2755 92.4087 -25.9117 87.8985 -28.0156C82.92 -30.3378 55.817 -40.7613 10.9564 -17.8807C1.09398 -10.4329 -3.42626 -5.62293 -2.86219 -3.17652C-2.45439 -1.40932 0.657872 -0.962221 3.66751 -0.530055C4.02803 -0.478351 4.3876 -0.426639 4.74166 -0.372814Z" fill="url(#paint9_linear_2377_2071)"/>
</mask>
<g mask="url(#mask10_2377_2071)">
<path d="M29.2374 4.72672C19.7094 3.72723 13.722 2.22735 9.56455 1.18598C7.59031 0.691376 6.03099 0.300774 4.67163 0.100609L4.67069 0.100509C4.31751 0.0469983 3.95896 -0.00460874 3.5994 -0.056322C0.439152 -0.510103 -2.82828 -0.979465 -3.30812 -3.06011C-3.69938 -4.75615 -2.67249 -8.17926 10.7056 -18.2797L10.7397 -18.3011C27.1982 -26.6976 43.1363 -31.5252 58.1115 -32.6495C73.8323 -33.8298 83.6395 -30.5266 88.0858 -28.4527C92.6583 -26.32 95.6964 -23.6164 96.4469 -21.019C101.778 -18.3242 102.27 -14.8447 101.738 -12.3936C100.873 -8.40291 96.5292 -3.95285 90.1188 -0.490116C83.4271 3.12459 75.2891 5.26476 67.7915 5.38192C50.7037 6.18087 38.3506 5.68272 29.2374 4.72672ZM4.73971 -0.372814C6.12039 -0.169588 7.68905 0.223367 9.67518 0.720755C17.7875 2.75288 32.8875 6.53518 67.7821 4.90394C84.3145 4.6456 99.6299 -4.82561 101.293 -12.4952C102.007 -15.7872 100.23 -18.6013 96.1558 -20.6329L96.063 -20.6791L96.0357 -20.7828C95.3733 -23.2755 92.4068 -25.9117 87.8966 -28.0156C82.918 -30.3378 55.8151 -40.7613 10.9544 -17.8807C1.09203 -10.4329 -3.42821 -5.62293 -2.86414 -3.17652C-2.45634 -1.40932 0.655918 -0.962221 3.66556 -0.530055C4.02608 -0.478351 4.38564 -0.426639 4.73971 -0.372814Z" fill="#005E9E"/>
</g>
<mask id="mask11_2377_2071" style="mask-type:alpha" maskUnits="userSpaceOnUse" x="3" y="-31" width="95" height="34">
<path d="M21.9771 1.40025C19.8375 1.17579 17.8827 0.893847 16.1115 0.553899C7.38565 -1.12041 5.28506 -3.86459 4.59476 -4.76637L4.59361 -4.76787C3.91012 -5.67793 3.65766 -6.59667 3.82229 -7.57675C4.31595 -10.5182 8.59222 -14.4313 18.5816 -21.0834L18.6119 -21.1C34.25 -27.9287 49.9429 -31.3162 63.9943 -30.8964C79.871 -30.4216 88.188 -25.448 91.0268 -23.3314C94.2939 -20.8958 96.0218 -18.194 95.902 -15.7136C97.0903 -14.0557 97.3267 -12.397 96.6052 -10.7825C94.8966 -6.96002 88.2677 -4.30665 83.0076 -2.75389C76.1205 -0.720678 67.4885 0.66463 58.7024 1.14695C43.3363 2.26556 31.0224 2.34911 21.9771 1.40025ZM4.90494 -5.02738C9.55951 1.05392 27.6524 2.99217 58.6821 0.733339C74.756 -0.149134 93.3816 -4.54534 96.2469 -10.9551C96.9098 -12.4381 96.6727 -13.9743 95.5424 -15.5208L95.4976 -15.5822L95.5024 -15.6596C95.6529 -18.0133 93.9813 -20.6177 90.7951 -22.9931C78.9102 -31.8539 51.3033 -34.922 18.777 -20.7248C9.03404 -14.2355 4.67796 -10.2828 4.21235 -7.50878C4.06627 -6.63958 4.28638 -5.85084 4.9052 -5.0268L4.90494 -5.02738Z" fill="url(#paint10_linear_2377_2071)"/>
</mask>
<g mask="url(#mask11_2377_2071)">
<path d="M21.9811 1.40025C19.8414 1.17579 17.8866 0.893847 16.1154 0.553899C7.38956 -1.12041 5.28897 -3.86459 4.59867 -4.76637L4.59751 -4.76787C3.91403 -5.67793 3.66156 -6.59667 3.8262 -7.57675C4.31986 -10.5182 8.59612 -14.4313 18.5855 -21.0834L18.6158 -21.1C34.2539 -27.9287 49.9468 -31.3162 63.9982 -30.8964C79.8749 -30.4216 88.1919 -25.448 91.0307 -23.3314C94.2978 -20.8958 96.0257 -18.194 95.9059 -15.7136C97.0942 -14.0557 97.3306 -12.397 96.6091 -10.7825C94.9005 -6.96002 88.2716 -4.30665 83.0115 -2.75389C76.1244 -0.720678 67.4924 0.66463 58.7063 1.14695C43.3402 2.26556 31.0263 2.34911 21.9811 1.40025ZM4.90884 -5.02738C9.56341 1.05392 27.6563 2.99217 58.686 0.733339C74.76 -0.149134 93.3855 -4.54534 96.2508 -10.9551C96.9137 -12.4381 96.6766 -13.9743 95.5464 -15.5208L95.5015 -15.5822L95.5063 -15.6596C95.6569 -18.0133 93.9852 -20.6177 90.799 -22.9931C78.9141 -31.8539 51.3072 -34.922 18.781 -20.7248C9.03794 -14.2355 4.68186 -10.2828 4.21625 -7.50878C4.07018 -6.63958 4.29028 -5.85084 4.9091 -5.0268L4.90884 -5.02738Z" fill="#005E9E"/>
</g>
<mask id="mask12_2377_2071" style="mask-type:alpha" maskUnits="userSpaceOnUse" x="4" y="-30" width="92" height="29">
<path d="M14.6065 -1.93204C9.04956 -2.51497 5.70953 -3.73708 4.518 -5.60318C3.79594 -6.73433 3.84363 -8.08579 4.66474 -9.73478C6.06777 -12.5532 10.6166 -15.7165 14.1853 -17.8738C18.2633 -20.3393 23.0981 -22.7027 26.5021 -23.895C44.8457 -30.3203 59.4206 -30.2309 68.412 -29.028C78.864 -27.6283 87.8795 -23.8442 92.5291 -18.9056C95.2151 -16.0529 96.2066 -13.0276 95.3218 -10.3873C93.0965 -3.7495 81.7196 -3.73668 68.5463 -3.72179C62.362 -3.71479 55.9669 -3.70764 49.6309 -3.08557C33.7705 -1.52858 22.1479 -1.14093 14.6065 -1.93204ZM26.5541 -23.7289L26.6057 -23.5627C20.3371 -21.3668 7.35788 -14.3885 4.96164 -9.57511C4.2026 -8.05039 4.14869 -6.81548 4.7971 -5.79988C7.4935 -1.57626 22.5689 -0.781014 49.6031 -3.43472C55.9544 -4.0583 62.357 -4.06549 68.5492 -4.07236C81.594 -4.08714 92.86 -4.09984 95.0055 -10.5004C95.8462 -13.0079 94.8813 -15.9051 92.2893 -18.6583C87.6902 -23.5435 78.747 -27.2899 68.3663 -28.6802C59.3991 -29.8812 44.8881 -29.9662 26.6057 -23.5627L26.5541 -23.7289Z" fill="url(#paint11_linear_2377_2071)"/>
</mask>
<g mask="url(#mask12_2377_2071)">
</g>
</g>
</g>
<defs>
<linearGradient id="paint0_linear_2377_2071" x1="-90.1986" y1="-13.6244" x2="175.327" y2="14.2297" gradientUnits="userSpaceOnUse">
<stop stop-color="white"/>
<stop offset="0.0436152" stop-color="#B4B4B4"/>
<stop offset="0.150732"/>
<stop offset="0.171421" stop-color="#171717"/>
<stop offset="0.385884" stop-color="white"/>
<stop offset="0.632551" stop-color="#E6E6E6"/>
<stop offset="0.856667" stop-color="#1A1A1A"/>
<stop offset="0.998739"/>
</linearGradient>
<linearGradient id="paint1_linear_2377_2071" x1="-80.2218" y1="-13.9789" x2="166.2" y2="11.8711" gradientUnits="userSpaceOnUse">
<stop stop-color="white"/>
<stop offset="0.0436152" stop-color="#B4B4B4"/>
<stop offset="0.150732"/>
<stop offset="0.171421" stop-color="#171717"/>
<stop offset="0.385884" stop-color="white"/>
<stop offset="0.632551" stop-color="#E6E6E6"/>
<stop offset="0.856667" stop-color="#1A1A1A"/>
<stop offset="0.998739"/>
</linearGradient>
<linearGradient id="paint2_linear_2377_2071" x1="-70.2578" y1="-14.3308" x2="157.132" y2="9.52276" gradientUnits="userSpaceOnUse">
<stop stop-color="white"/>
<stop offset="0.0436152" stop-color="#B4B4B4"/>
<stop offset="0.150732"/>
<stop offset="0.171421" stop-color="#171717"/>
<stop offset="0.385884" stop-color="white"/>
<stop offset="0.632551" stop-color="#E6E6E6"/>
<stop offset="0.856667" stop-color="#1A1A1A"/>
<stop offset="0.998739"/>
</linearGradient>
<linearGradient id="paint3_linear_2377_2071" x1="-60.2725" y1="-14.6636" x2="148.214" y2="7.20702" gradientUnits="userSpaceOnUse">
<stop stop-color="white"/>
<stop offset="0.0436152" stop-color="#B4B4B4"/>
<stop offset="0.150732"/>
<stop offset="0.171421" stop-color="#171717"/>
<stop offset="0.385884" stop-color="white"/>
<stop offset="0.632551" stop-color="#E6E6E6"/>
<stop offset="0.856667" stop-color="#1A1A1A"/>
<stop offset="0.998739"/>
</linearGradient>
<linearGradient id="paint4_linear_2377_2071" x1="-50.2724" y1="-15.3357" x2="139.48" y2="4.56961" gradientUnits="userSpaceOnUse">
<stop stop-color="white"/>
<stop offset="0.0436152" stop-color="#B4B4B4"/>
<stop offset="0.150732"/>
<stop offset="0.171421" stop-color="#171717"/>
<stop offset="0.385884" stop-color="white"/>
<stop offset="0.632551" stop-color="#E6E6E6"/>
<stop offset="0.856667" stop-color="#1A1A1A"/>
<stop offset="0.998739"/>
</linearGradient>
<linearGradient id="paint5_linear_2377_2071" x1="-40.2901" y1="-16.1757" x2="130.98" y2="1.79083" gradientUnits="userSpaceOnUse">
<stop stop-color="white"/>
<stop offset="0.0436152" stop-color="#B4B4B4"/>
<stop offset="0.150732"/>
<stop offset="0.171421" stop-color="#171717"/>
<stop offset="0.385884" stop-color="white"/>
<stop offset="0.632551" stop-color="#E6E6E6"/>
<stop offset="0.856667" stop-color="#1A1A1A"/>
<stop offset="0.998739"/>
</linearGradient>
<linearGradient id="paint6_linear_2377_2071" x1="-30.3444" y1="-17.1572" x2="122.731" y2="-1.09944" gradientUnits="userSpaceOnUse">
<stop stop-color="white"/>
<stop offset="0.0436152" stop-color="#B4B4B4"/>
<stop offset="0.150732"/>
<stop offset="0.171421" stop-color="#171717"/>
<stop offset="0.385884" stop-color="white"/>
<stop offset="0.632551" stop-color="#E6E6E6"/>
<stop offset="0.856667" stop-color="#1A1A1A"/>
<stop offset="0.998739"/>
</linearGradient>
<linearGradient id="paint7_linear_2377_2071" x1="-20.47" y1="-18.2477" x2="114.92" y2="-4.04505" gradientUnits="userSpaceOnUse">
<stop stop-color="white"/>
<stop offset="0.0436152" stop-color="#B4B4B4"/>
<stop offset="0.150732"/>
<stop offset="0.171421" stop-color="#171717"/>
<stop offset="0.385884" stop-color="white"/>
<stop offset="0.632551" stop-color="#E6E6E6"/>
<stop offset="0.856667" stop-color="#1A1A1A"/>
<stop offset="0.998739"/>
</linearGradient>
<linearGradient id="paint8_linear_2377_2071" x1="-10.7849" y1="-19.4519" x2="107.723" y2="-7.02022" gradientUnits="userSpaceOnUse">
<stop stop-color="white"/>
<stop offset="0.0436152" stop-color="#B4B4B4"/>
<stop offset="0.150732"/>
<stop offset="0.171421" stop-color="#171717"/>
<stop offset="0.385884" stop-color="white"/>
<stop offset="0.632551" stop-color="#E6E6E6"/>
<stop offset="0.856667" stop-color="#1A1A1A"/>
<stop offset="0.998739"/>
</linearGradient>
<linearGradient id="paint9_linear_2377_2071" x1="-1.73035" y1="-19.3961" x2="101.385" y2="-8.57915" gradientUnits="userSpaceOnUse">
<stop stop-color="white"/>
<stop offset="0.0436152" stop-color="#B4B4B4"/>
<stop offset="0.150732"/>
<stop offset="0.171421" stop-color="#171717"/>
<stop offset="0.385884" stop-color="white"/>
<stop offset="0.632551" stop-color="#E6E6E6"/>
<stop offset="0.856667" stop-color="#1A1A1A"/>
<stop offset="0.998739"/>
</linearGradient>
<linearGradient id="paint10_linear_2377_2071" x1="4.99684" y1="-18.8398" x2="96.6793" y2="-9.22216" gradientUnits="userSpaceOnUse">
<stop stop-color="white"/>
<stop offset="0.0436152" stop-color="#B4B4B4"/>
<stop offset="0.150732"/>
<stop offset="0.171421" stop-color="#171717"/>
<stop offset="0.385884" stop-color="white"/>
<stop offset="0.632551" stop-color="#E6E6E6"/>
<stop offset="0.856667" stop-color="#1A1A1A"/>
<stop offset="0.998739"/>
</linearGradient>
<linearGradient id="paint11_linear_2377_2071" x1="5.24387" y1="-19.2982" x2="95.4099" y2="-9.83967" gradientUnits="userSpaceOnUse">
<stop stop-color="white"/>
<stop offset="0.0436152" stop-color="#B4B4B4"/>
<stop offset="0.150732"/>
<stop offset="0.171421" stop-color="#171717"/>
<stop offset="0.385884" stop-color="white"/>
<stop offset="0.632551" stop-color="#E6E6E6"/>
<stop offset="0.856667" stop-color="#1A1A1A"/>
<stop offset="0.998739"/>
</linearGradient>
</defs>
</svg>
